<?xml version="1.0" encoding="utf-8"?>
<!-- Generator: Adobe Illustrator 13.0.0, SVG Export Plug-In . SVG Version: 6.00 Build 14948)  -->
<!DOCTYPE svg PUBLIC "-//W3C//DTD SVG 1.1//EN" "http://www.w3.org/Graphics/SVG/1.1/DTD/svg11.dtd">
<svg version="1.1" id="menu" xmlns="http://www.w3.org/2000/svg" xmlns:xlink="http://www.w3.org/1999/xlink" x="0px" y="0px"
	 width="443px" height="192px" viewBox="-172 -50 443 192" style="enable-background:new -172 -50 443 192;"
	 xml:space="preserve">
<style type="text/css">
<![CDATA[
	.st0{fill:#4E938C;}
	.st1{fill:#1E4B49;}
	.st2{fill:#235955;}
	.st3{fill:#2C6E6A;}
	.st4{fill:#357C75;}
	.st5{fill:#418581;}
]]>
</style>
<g>
	<path class="st5" d="M-172,93.1v49.5H79.3c-54-9.7-104.7-29.1-150.4-56.3C-104.2,89.8-137.8,92-172,93.1z"/>
	<path class="st1" d="M271,142.6v-6.8c-10.3,2.7-20.7,4.9-31.3,6.8H271z"/>
	<path class="st3" d="M-71.2,86.2c45.7,27.3,96.4,46.5,150.4,56.3h50.5C83.3,127.4,40.2,104.8,1.6,76.2
		C-22.2,80.2-46.5,83.6-71.2,86.2z"/>
	<path class="st1" d="M129.8,142.6h109.9c10.6-1.9,21-4.2,31.3-6.8V-5C190.5,31.8,99.6,59.6,1.7,76.1
		C40.3,104.7,83.4,127.3,129.8,142.6z"/>
	<path class="st0" d="M-98.9,68.4c-23.9,1.1-48.3,1.7-73.1,1.7v23c34.2-0.9,67.8-3.3,100.8-6.8C-80.6,80.6-89.9,74.6-98.9,68.4z"/>
	<path class="st4" d="M-71.2,86.2c24.7-2.7,49-6,72.9-10.1c-6.1-4.5-12.1-9.2-18-14.1c-26.7,2.9-54.3,4.9-82.5,6.2
		C-89.9,74.6-80.6,80.6-71.2,86.2z"/>
	<path class="st2" d="M1.7,76.1C99.6,59.6,190.5,31.8,271-5v-4.5c-71.1,34-171.4,59.4-287.4,71.7C-10.5,66.9-4.4,71.6,1.7,76.1z"/>
	<path class="st5" d="M-172,5v65.1c24.8,0,49.2-0.6,73.1-1.7C-125.4,49.9-149.9,28.7-172,5z"/>
	<path class="st3" d="M-98.9,68.4c28.2-1.3,55.8-3.5,82.5-6.2C-56,29.6-90.2-9.4-117.4-53.4H-172V5
		C-149.9,28.7-125.4,49.9-98.9,68.4z"/>
	<path class="st1" d="M-117.4-53.4c27.2,44,61.4,83,101,115.6C99.6,49.9,199.9,24.5,271-9.4v-44H-117.4z"/>
</g>
</svg>
