<?xml version="1.0" encoding="utf-8"?>
<!-- Generator: Adobe Illustrator 13.0.0, SVG Export Plug-In . SVG Version: 6.00 Build 14948)  -->
<!DOCTYPE svg PUBLIC "-//W3C//DTD SVG 1.1//EN" "http://www.w3.org/Graphics/SVG/1.1/DTD/svg11.dtd">
<svg version="1.1" id="Capa_1" xmlns="http://www.w3.org/2000/svg" xmlns:xlink="http://www.w3.org/1999/xlink" x="0px" y="0px"
	 width="34.7px" height="28px" viewBox="238.7 241.5 34.7 28" style="enable-background:new 238.7 241.5 34.7 28;"
	 xml:space="preserve">
<style type="text/css">
<![CDATA[
	.st0{fill:#6F8900;}
	.st1{fill:#78A100;}
	.st2{fill:#A8D30D;}
	.st3{fill:#43570A;}
]]>
</style>
<g>
	<path class="st3" d="M256,241.5H239c-0.2,0-0.4,0.1-0.4,0.4v11.6C243.5,248.5,249.5,244.4,256,241.5z"/>
	<path class="st0" d="M239,266.1h2.3c0.1,0,0.2-0.1,0.2-0.2c0.1-1.2,0.4-2.4,1.3-3.4c0.3-0.4,0.7-0.7,1.2-1
		c2.9-7.5,7.2-14.3,12.7-19.9H256c-6.5,2.9-12.3,7-17.3,11.9v12.3C238.7,265.9,238.8,266.1,239,266.1z"/>
	<path class="st0" d="M243.7,266.1c0,0.8,0.3,1.5,0.7,2.1c1.4-1.7,2.9-3.3,4.5-4.9c-0.5-0.4-1.2-0.6-1.9-0.6
		C245.2,262.7,243.7,264.2,243.7,266.1z"/>
	<path class="st1" d="M249,260.8c0.5,0.2,1,0.5,1.5,0.8c3.3-3,7-5.6,11-7.8v-2.7c0-0.1,0.1-0.1,0.1-0.1h3.5c0.1,0,0.1,0,0.1,0.1
		l0.5,0.7c0.6-0.3,1.2-0.5,1.8-0.8l-1.5-1.8c-0.1-0.1-0.1-0.1-0.3-0.1h-4.3c-0.1,0-0.1-0.1-0.1-0.1v-7.1c0.1-0.2-0.1-0.3-0.2-0.3
		h-4.5c-5.5,5.7-9.9,12.4-12.7,19.9C245.5,260.5,247.5,260.2,249,260.8z"/>
	<path d="M265.5,269.4c-1.9,0-3.4-1.5-3.4-3.4c0-1.9,1.5-3.4,3.4-3.4c1.9,0,3.4,1.5,3.4,3.4C269,267.9,267.5,269.4,265.5,269.4z"/>
	<path class="st2" d="M244.3,268.1c0.6,0.8,1.6,1.3,2.7,1.3c1.9,0,3.4-1.5,3.4-3.4c0-1.2-0.6-2.2-1.5-2.8
		C247.3,264.8,245.8,266.4,244.3,268.1z"/>
	<circle class="st0" cx="265.5" cy="266.1" r="3.4"/>
	<path class="st2" d="M271,258.1c0,0.1-0.1,0.2-0.1,0.2h-9.1c-0.1,0-0.1-0.1-0.1-0.1v-4.3c-4,2.2-7.6,4.8-11,7.8
		c1.3,1,2,2.6,2.1,4.2c0,0.1,0.1,0.2,0.2,0.2h6.9c0.1,0,0.2-0.1,0.2-0.2c0.1-1.5,0.7-2.9,2-4c1.7-1.5,4.2-1.8,6.2-0.7
		c1.9,1,3,2.9,3.1,4.8c0,0.1,0.1,0.2,0.2,0.2h1.5c0.1,0,0.3-0.1,0.3-0.3V258c-0.1-0.1-0.1-0.3-0.2-0.4l-5.3-6.4
		c-0.6,0.2-1.2,0.5-1.8,0.8L271,258.1z"/>
</g>
</svg>
