<?xml version="1.0" encoding="utf-8"?>
<!-- Generator: Adobe Illustrator 13.0.0, SVG Export Plug-In . SVG Version: 6.00 Build 14948)  -->
<!DOCTYPE svg PUBLIC "-//W3C//DTD SVG 1.1//EN" "http://www.w3.org/Graphics/SVG/1.1/DTD/svg11.dtd">
<svg version="1.1" id="Capa_1" xmlns="http://www.w3.org/2000/svg" xmlns:xlink="http://www.w3.org/1999/xlink" x="0px" y="0px"
	 width="488.1px" height="272px" viewBox="12 119.5 488.1 272" style="enable-background:new 12 119.5 488.1 272;"
	 xml:space="preserve">
<style type="text/css">
<![CDATA[
	.st0{fill:#8DA780;}
]]>
</style>
<path class="st0" d="M366,184.7c0.8,0,1.4-0.6,1.4-1.4s-0.6-1.4-1.4-1.4c-0.8,0-1.4,0.6-1.4,1.4S365.2,184.7,366,184.7z
	 M456.7,277.4c0.6-0.2,1-0.7,1-1.4c0-0.8-0.6-1.4-1.4-1.4s-1.4,0.6-1.4,1.4c0,0.5,0.3,1,0.8,1.2c-1.4,0.1-2.6,1.3-2.6,2.8
	s1.2,2.8,2.8,2.8c1.5,0,2.8-1.2,2.8-2.8C458.7,278.8,457.8,277.7,456.7,277.4z M454.8,296.9c0,1.6,1.3,2.8,2.8,2.8
	c1.6,0,2.8-1.3,2.8-2.8c0-1.6-1.3-2.8-2.8-2.8C456,294.1,454.8,295.3,454.8,296.9z M452.6,260.2c0.8,0,1.4-0.6,1.4-1.4
	s-0.6-1.4-1.4-1.4c-0.8,0-1.4,0.6-1.4,1.4S451.8,260.2,452.6,260.2z M418.6,221.3c0,0,0,0.1-0.1,0.2
	C418.7,221.5,418.7,221.4,418.6,221.3z M452.9,264.2c0,1.5,1.2,2.8,2.8,2.8c1.5,0,2.8-1.2,2.8-2.8c0-1.5-1.2-2.8-2.8-2.8
	C454.1,261.4,452.9,262.6,452.9,264.2z M429.7,246.1c0.9,0,1.6-0.7,1.6-1.6c0-0.9-0.7-1.6-1.6-1.6c-0.1,0-0.1,0-0.2,0
	c0.1-0.2,0.2-0.5,0.2-0.8c0-1-0.8-1.7-1.7-1.7c-1,0-1.7,0.8-1.7,1.7s0.8,1.7,1.7,1.7c0.1,0,0.2,0,0.2,0c-0.1,0.2-0.2,0.5-0.2,0.7
	C428,245.4,428.8,246.1,429.7,246.1z M427.3,237.2c1,0,1.8-0.8,1.8-1.8s-0.8-1.8-1.8-1.8s-1.8,0.8-1.8,1.8S426.3,237.2,427.3,237.2z
	 M207.9,352.8L207.9,352.8L207.9,352.8z M380.7,193.9c0.8,0,1.4-0.6,1.4-1.4c0-0.8-0.6-1.4-1.4-1.4c-0.8,0-1.4,0.6-1.4,1.4
	C379.2,193.3,379.9,193.9,380.7,193.9z M426.2,243.7c-1,0-1.8,0.8-1.8,1.8s0.8,1.8,1.8,1.8s1.8-0.8,1.8-1.8S427.2,243.7,426.2,243.7
	z M428.9,227.7c1.6,0,2.8-1.3,2.8-2.8c0-1.6-1.3-2.8-2.8-2.8c-1.6,0-2.8,1.3-2.8,2.8C426.1,226.5,427.3,227.7,428.9,227.7z
	 M389.5,202.1C389.6,202.1,389.6,202.1,389.5,202.1c0.3,0.3,0.6,0.4,1,0.4c0.8,0,1.4-0.6,1.4-1.4c0-0.1,0-0.2,0-0.3
	c0.3-0.4,0.4-0.9,0.4-1.5c0-1.6-1.3-2.8-2.8-2.8c-1.6,0-2.8,1.3-2.8,2.8S388,202.1,389.5,202.1z M314.3,358.3
	c-0.9,0-1.6,0.7-1.6,1.6c0,0.9,0.7,1.6,1.6,1.6s1.6-0.7,1.6-1.6C315.9,359,315.2,358.3,314.3,358.3z M350.2,357.6
	c-1.5,0-2.8,1.2-2.8,2.8c0,1.5,1.2,2.8,2.8,2.8c1.5,0,2.8-1.2,2.8-2.8C352.9,358.8,351.7,357.6,350.2,357.6z M320.5,356.4
	c-0.9,0-1.6,0.7-1.6,1.6c0,0.9,0.7,1.6,1.6,1.6s1.6-0.7,1.6-1.6C322.1,357.1,321.4,356.4,320.5,356.4z M328.2,355.9
	c-0.4,0.2-0.4,0.4-0.2,0.6C328.1,356.1,328.2,355.8,328.2,355.9z M312.2,361.2c-0.8,0-1.5,0.7-1.5,1.5c0,0.8,0.7,1.5,1.5,1.5
	c0.8,0,1.5-0.7,1.5-1.5C313.6,361.9,313,361.2,312.2,361.2z M358,172.9c-0.4,0.3-2.7,1.7-1.7,3c1.5,2,4-3.8,4.3-3
	C359.9,171.4,358.6,172.5,358,172.9z M312.3,359.3c0-1.5-1.2-2.8-2.8-2.8c-1.5,0-2.8,1.2-2.8,2.8c0,1.5,1.2,2.8,2.8,2.8
	C311,362.1,312.3,360.9,312.3,359.3z M478.5,316.3c-1.4,0-2.5,1.1-2.5,2.5c0,1.4,1.1,2.5,2.5,2.5s2.5-1.1,2.5-2.5
	C481,317.4,479.9,316.3,478.5,316.3z M417.4,349.1c-1.2,0-2.2,1-2.2,2.2s1,2.2,2.2,2.2c1.2,0,2.2-1,2.2-2.2S418.6,349.1,417.4,349.1
	z M429.9,358.1c-1.5,0-2.8,1.2-2.8,2.8c0,1.6,1.2,2.8,2.8,2.8c1.5,0,2.8-1.2,2.8-2.8C432.7,359.3,431.5,358.1,429.9,358.1z
	 M427.7,353.7c0.7,0.3,0.6,3.9,2.2,2.6c1-0.8,0.8-1,0.2-1.4c0.9-0.1,1.5-0.9,1.5-1.8c0-1-0.8-1.8-1.8-1.8c-0.6,0-1.2,0.3-1.5,0.8
	c-0.5-2.6,0.4-4.2,0.6-4.8c-0.3,0.1-1.3-1.7-0.8-1.5c-2-0.7-2.4,3.2-2.6,3.5c-0.1,0-0.2,0-0.2,0c-0.2,0-0.3,0-0.4,0.1
	c-0.6-0.1-1.4-0.2-1.5,0c-0.7,1.5-1.1,3-0.4,4.3c0-0.1,2.9,1.3,2.6,1.3C427.1,355,426.8,353.3,427.7,353.7z M428.9,347.4
	c0,0,0.1-0.1,0.1-0.2C429,347.2,428.9,347.3,428.9,347.4z M27,300.7c0.8,0,1.5-0.7,1.5-1.5c0-0.8-0.7-1.5-1.5-1.5
	c-0.8,0-1.5,0.7-1.5,1.5C25.5,300,26.2,300.7,27,300.7z M77.2,344.5c-1.1,0-2,0.9-2,2c0,1.1,0.9,2,2,2s2-0.9,2-2
	C79.2,345.4,78.3,344.5,77.2,344.5z M56.5,333.4c-1.5,0-2.8,1.2-2.8,2.8c0,1.6,1.2,2.8,2.8,2.8c1.5,0,2.8-1.2,2.8-2.8
	C59.3,334.6,58,333.4,56.5,333.4z M26.7,317.7c-0.8,0-1.5,0.7-1.5,1.5c0,0.8,0.7,1.5,1.5,1.5s1.5-0.7,1.5-1.5
	C28.2,318.4,27.5,317.7,26.7,317.7z M86.1,350.6c-1,0-1.7,0.8-1.7,1.7c0,1,0.8,1.7,1.7,1.7c1,0,1.7-0.8,1.7-1.7
	C87.9,351.4,87.1,350.6,86.1,350.6z M107.7,350.8c-0.9,0-1.6,0.7-1.6,1.6c0,0.9,0.7,1.6,1.6,1.6s1.6-0.7,1.6-1.6
	C109.3,351.5,108.5,350.8,107.7,350.8z M25.9,284.3c0-1.1-0.9-2-2-2c-1.1,0-2,0.9-2,2c0,1.1,0.9,2,2,2
	C25,286.3,25.9,285.4,25.9,284.3z M19.2,286.7c-1,0-1.7,0.8-1.7,1.7c0,0.9,0.8,1.7,1.7,1.7c1,0,1.7-0.8,1.7-1.7
	C20.9,287.5,20.2,286.7,19.2,286.7z M281,309.6L281,309.6L281,309.6z M126.2,364.4c-0.9,0-1.6,0.7-1.6,1.6c0,0.9,0.7,1.6,1.6,1.6
	s1.6-0.7,1.6-1.6C127.8,365.1,127.1,364.4,126.2,364.4z M313.9,172.5c0.1,0,0.2,0,0.2,0C314.1,172.4,314,172.4,313.9,172.5z
	 M13.8,269.9c-1,0-1.8,0.8-1.8,1.8s0.8,1.8,1.8,1.8s1.8-0.8,1.8-1.8S14.8,269.9,13.8,269.9z M494.7,310.4c-0.4-0.2-1.3-2.4-1.3-2.6
	c0-1.1,2.2-1.5,1.3-3c-0.2-0.4-4.8-2.4-6.9-2.2c-0.9,0.1-1.8,1.7-3.5,2.2c-2.1,0.6-4.9-0.8-6.1,0c-2,1.5-0.5,3.9,0.4,5
	c-0.2,0.2-0.3,0.5-0.4,0.8c-1-0.1-2.5-0.6-2.7-0.7c0,0,0.1,0,0.1,0.1c-0.1-0.1-0.1-0.1-0.1-0.1c-0.6-0.4-1.2-1.9-1.6-3.3
	c0.5-0.3,0.8-0.8,0.8-1.4c0-0.5-0.3-1-0.7-1.3c0.3,0,0.6,0,0.7,0c3.6,0,0.8-1.9,3-2.6c0.8-0.3,1.5,1.6,3,1.3
	c1.2-0.2,2.5-3.1,1.7-6.5c-0.5-2.2-0.8,0.5-2.2-1.7c0.1,0.1,0.7-2.8-0.4-3c-1.7-0.3-1.9,2-3,3.5c-0.2,0.2-1.1-0.2-1.3,0
	c-0.2,0.2,0.2,1.2,0,1.3c-0.4,0.3-2.5-0.2-3,0c-0.9,0.3-1.1,2.3-2.6,3c-0.9,0.5-2.4-0.4-3.9,0c-0.9,0.2-1.7,0.6-2.5,1.1l0,0
	c-0.7,0-1.3,0.5-1.4,1.1c-1.3,1.2-2.3,2.4-2.9,3l-0.1-0.1c0.5-0.3,0.8-0.8,0.8-1.3c0-0.8-0.7-1.5-1.5-1.5c-0.8,0-1.5,0.7-1.5,1.5
	c0,0.4,0.2,0.8,0.4,1.1c-0.3,0.1-0.6,0.2-0.9,0.3c-1.5-0.7-3.1-1.8-3.7-1.7c-1.1,0.2-1.8,2.7-3.5,2.2c0,0-0.1-1.3-0.2-3
	c1.4-0.2,2.5-1.4,2.5-2.9c0-1.6-1.3-2.9-2.9-2.9c-0.1,0-0.3,0-0.4,0c-0.1-0.3-0.2-0.6-0.3-0.8c-0.3-0.5-4.1-1.4-3.5-3.5
	c0.4-1.3,0.6,0.3,2.2-0.3c0.3,1.1,1.3,1.9,2.5,2c-0.4,0.3-0.6,0.7-0.6,1.2c0,0.8,0.6,1.4,1.4,1.4c0.8,0,1.4-0.6,1.4-1.4
	c0-0.6-0.4-1.2-1-1.3c0.9-0.4,1.6-1.2,1.8-2.3c1.1,0.2,2.1,0.2,3.1-0.6c1-0.8,1.7-3.5,1.3-4.3c-0.4-0.9-1-1.2-1.7-1.2v-0.1
	c0-1.5-1.2-2.8-2.8-2.8c-0.2,0-0.5,0-0.7,0.1c0.4-0.5,0.7-1.1,0.7-1.8c0-1.5-1.2-2.8-2.8-2.8c-0.7,0-1.4,0.3-1.9,0.7
	c0.1-0.6,0.2-1.1,0.4-0.9c-0.1-0.1-0.1-0.2-0.2-0.2c1-0.4,1.7-1.4,1.7-2.6c0-1.3-0.9-2.4-2.1-2.7c0.5-0.2,0.9-0.3,1.1-0.5
	c0.2-0.1,0.3-0.2,0.5-0.3c0.5,0.6,1.3,1,2.1,1c1.5,0,2.8-1.2,2.8-2.8c0-1.6-1.2-2.8-2.8-2.8c-0.5,0-0.9,0.1-1.3,0.3
	c-1.4-1.3-0.6-2.5-1.7-5c-0.4-0.9-1.9-0.8-2.2-2.2c-0.2-1.2-0.4-1.6-0.7-1.7c-0.3-0.9-1.1-1.6-2-1.8c0.1-0.2,0.1-0.4,0.1-0.6
	c0.5,0.4,1.1,0.7,1.8,0.7c1.5,0,2.8-1.2,2.8-2.8c0-1.5-1.2-2.8-2.8-2.8c-1.5,0-2.8,1.2-2.8,2.8c0,0.3,0.1,0.6,0.2,0.9
	c-0.4-0.1-0.9-0.1-1.4-0.8c-0.3-0.5-0.4-1.3-0.6-2c0.1-0.3,0.2-0.7,0.2-1c0-1.5-1.3-2.8-2.8-2.8c-0.6,0-1.1,0.2-1.6,0.5v-1.6
	c-1.9-1.2-1.6,2-2.6,2.6c-0.7,0.4-3.9,0.3-5.6,0.7c0.4-0.3,0.6-0.8,0.6-1.3c0-0.9-0.7-1.7-1.7-1.7c-0.9,0-1.7,0.7-1.7,1.7
	c0,0.9,0.7,1.7,1.7,1.7c0.1,0,0.2,0,0.2,0c-0.6,0.5-0.6,1.2-1.4,1.1c-1.7-0.2-0.1-0.5-1.3-1.7l-0.1-0.1c-0.3-0.3-0.7-0.5-1.1-0.5
	c-0.5-0.2-1-0.3-0.9-0.3c-0.3-1,1-3,0.9-3.9c-0.4-2-1-2-1.7-1.6c0-0.2,0.1-0.4,0.1-0.6c0-0.2,0-0.5-0.1-0.7c0.1-0.3,0.2-0.6,0.2-1
	c0.4,0.3,0.9,0.4,1.5,0.4c1.6,0,2.9-1.3,2.9-2.9c0-1.6-1.3-2.9-2.9-2.9c-1.1,0-2.1,0.7-2.6,1.6c-1-0.3-1.8-0.4-1.7-0.2
	c-1.1-2.4,1.2-2.8,0-3.5c-0.3-0.2-0.9,0.1-1.6,0.4c-0.5-1-1.5-1.7-2.7-1.7l0,0c0.8-0.8,3.2-0.6,3.9-0.9c1.2-0.4,3.9-4.3,3.9-4.8
	c-0.1-0.9-3.4-3.3-4.2-3.5c0,0.2-0.1,0.2-0.2,0.1c0-0.1,0-0.1,0.2-0.1c0.1-0.4,0.1-1.4,0.2-1.9c-0.9,0.5-5.3,1.5-7.6,1
	c0.2-0.3,0.3-0.7,0.3-1c0.5,0.7,1.4,1.1,2.3,1.1c1.2,0,2.3-0.8,2.7-1.8c0.5-0.1,0.8-0.3,0.7-0.7c-0.1-0.4-0.3-0.7-0.5-0.8
	c0-0.1,0-0.2-0.1-0.3c0.5,0.7,1.4,1.2,2.3,1.2c0.5,0,0.9-0.1,1.3-0.3c0.3,1.2,1.4,2.1,2.8,2.1c1.6,0,2.9-1.3,2.9-2.9
	c0-1.6-1.3-2.9-2.9-2.9c-0.5,0-0.9,0.1-1.3,0.3c-0.3-1.2-1.4-2.2-2.8-2.2c-1.6,0-2.9,1.3-2.9,2.9c0,0.3,0,0.5,0.1,0.7
	c-0.3-0.4-0.6-0.7-1.1-0.9c0-0.2,0-0.4-0.1-0.5c-0.6-1.3-1.2-0.3-1.8,0.3c-0.3,0.1-0.7,0.2-1,0.4c-0.1,0-0.2-0.1-0.3-0.2
	c-0.5-0.6,0.9-1.1,0.9-1.3v-0.1c0.6-0.5,1-1.3,1-2.2l-2.9-2.9c-0.8,0-1.5,0.3-2,0.8c-0.7,0.1-0.9,1.7-1.7,1.3
	c-0.2-0.1-0.4-0.5-0.7-1.1c0.9-0.5,1.5-1.4,1.5-2.5c0-1.6-1.3-2.9-2.9-2.9c-1.5,0-2.7,1.1-2.9,2.6c-0.6,0.2-1.1,0.7-1.1,1.4
	c0,0.2,0,0.4,0.1,0.5c-0.3,0.2-0.7,0.3-1,0.2c-0.7,0,0.1-1-0.9-1.7c-0.8-0.6-1.5-0.5-2.1-0.3c-0.2-0.4-0.4-0.7-0.7-1
	c0.5-0.5,0.8-1.2,0.8-1.9c0-0.2,0-0.4-0.1-0.6l0,0l0,0c-0.3-1.2-1.3-2.1-2.6-2.2c-0.2-0.3-0.3-0.5,0-0.4c-3.8-1.4-5.5,2.2-7.3,3
	c0.3-0.5,0.5-1,0.5-1.6c0-1.5-1.3-2.8-2.8-2.8c-0.6,0-1.2,0.2-1.6,0.5c-0.4-0.1-0.8-0.2-0.9-0.4c-0.4-0.5,0.6-1.2,0.4-1.7
	c-0.1-0.1-0.1-0.3-0.2-0.5c1-0.4,1.7-1.4,1.7-2.6c0-1.5-1.3-2.8-2.8-2.8c-1.1,0-2.1,0.7-2.5,1.7c-0.6-0.5-1.3-0.9-1.9-1.2
	c0.1-0.2,0.1-0.4,0.1-0.6c0.3-0.3,0.5-0.6,0.5-1c0-0.8-0.6-1.4-1.4-1.4c-0.4-0.4-0.9-0.6-1.5-0.7l0,0c0-1.6-1.3-2.8-2.8-2.8
	c-0.2,0-0.4,0-0.5,0.1v-0.1c0-0.8-0.6-1.4-1.4-1.4c-0.8,0-1.4,0.6-1.4,1.4c0,0.6,0.4,1.1,1,1.3c-0.1,0.2-0.3,0.4-0.3,0.7
	c-0.2,0-0.4,0-0.7-0.1c-0.3-0.3-0.6-0.6-1-0.8c-0.7-1-1.2-2.7-1.6-2.9c-0.5-0.2-1-0.2-1.5-0.1c0.1-0.3,0.2-0.7,0.2-1.1
	c0-1.3-0.8-2.4-2-2.8c0.4-0.5,0.6-1.1,0.6-1.8c0-1.6-1.3-2.9-2.9-2.9c-1.3,0-2.5,0.9-2.8,2.1c-0.8,0.1-1.5,0.2-1.5,0.1
	c-0.2-0.2,0.2-2.1,0-2.2c-0.2-0.1-0.5-0.1-0.7-0.1c-0.4-1-1.3-1.7-2.3-1.9c0.7-0.5,1.2-1.4,1.2-2.4c0-0.3,0-0.6-0.1-0.9
	c0.1-0.1,0.2-0.2,0.3-0.3c0.2-0.4-0.5-1.2-0.8-1.8c0.3,0.2,0.7,0.2,1.1,0.2c1.6,0,2.8-1.3,2.8-2.8c0-0.4-0.1-0.9-0.3-1.2
	c0.4,0,0.8-0.1,1-0.4c2.9-4.2-4.8-2.2-4.8-2.2c-1-2.1,2.7-1.7,3.9-2.6c1.3-1,1.2-2.7,2.2-3.5c2.3-1.9,5.1,0.7,5.2-1.7
	c0.1-3.2-2.2-0.7-4.3-1.3c-1.6-0.5,0.5-0.9-1.3-1.7c-2.4-1-4.7,0.5-5.6-0.4c-1.5-1.5,1.1-2.6-0.9-3c-1.8-0.4-2.1,3.7-5.6,2.2
	c-0.2-0.1,0.1-1.9,0-2.2c-0.1-0.4-1.9-2.3-2.6-2.2c-1.4,0.2-0.7,3-1.7,4.3c-0.2,0.3-1.4-0.2-1.7,0c-1.4,0.7-2.4,4-3,4.3
	c-0.1,0-3.5,0.3-3,0.4c-1.7-0.5-1.1-2.2-1.7-2.2c-1.8,0.2-0.2,1-0.4,1.3c-1.5,2.5-2.2-1.4-1.3-3.9c0.3-0.8,1.9-0.6,2.2-1.3
	c0.6-1.6-0.9-4.3-0.9-4.3c0-0.4,0.1-0.9,0.3-1.4c1-0.4,1.7-1.4,1.7-2.6c0-0.5-0.1-0.9-0.3-1.3c0-0.1,0-0.2,0-0.3
	c-0.3-0.6-0.6-0.8-0.8-0.6c-0.5-0.4-1.1-0.6-1.7-0.6c-0.8,0-1.6,0.3-2.1,0.9c-1.8-1-4-1.9-4.9-0.1c-0.4-1.2,2.2-3.5,0.9-4.8
	c-0.1-0.1-0.4-0.2-0.6-0.1c-0.2-1.3-1.4-2.3-2.8-2.3c-1.5,0-2.8,1.3-2.8,2.8c0,1.3,0.8,2.3,2,2.7c0,0.2-0.1,0.3-0.2,0.4
	c-1.7,2-1.7-0.8-3.9,0c-1.2,0.4-1.3,2.1-3,2.2c-0.7,0-1.5-1.3-1.3-1.3c-2,0.1,0.1,1.7-2.6,1.3c-3.3-0.4-0.8-4.2-1.3-5.2
	c-0.1-0.1-3.5-1.6-2.6-1.7c-2.8,0.4-1.5,8.7-5.2,5.6c-0.1-0.1-0.1-2.2-0.1-3.9c0.1,0,0.2,0.1,0.3,0.1c0.3,0.3,0.7,0.5,1.1,0.5
	s0.7-0.2,1-0.4c1.1-0.4,1.9-1.4,1.9-2.7c0-1.6-1.3-2.8-2.8-2.8c-1.2,0-2.2,0.7-2.6,1.8c-1.6-0.7-3.9,0.2-5.3-0.5
	c-0.3-0.1-0.5-0.4-0.8-0.7c0-0.2,0.1-0.3,0.1-0.5c0-1.6-1.3-2.8-2.8-2.8c-1.6,0-2.8,1.3-2.8,2.8c0,0.1,0,0.2,0,0.3
	c-0.1,0-0.1,0-0.1,0c-0.6,0.2-2.8,1.9-3.8,2.7c-0.2,0-0.3,0-0.5,0c-1.2,0-2.3,0.7-2.8,1.8c-0.2-0.6-0.4-1.2-0.3-1.4
	c0-0.1,2.1-0.4,2.2-0.4c0.2-0.2,0.3-0.5,0.4-0.7c1.4-0.2,2.4-1.4,2.4-2.8c0-1.6-1.3-2.8-2.8-2.8c-1.4,0-2.5,1-2.8,2.2
	c-0.3-0.2-0.6-0.3-0.9-0.3c0.7-0.5,1.1-1.3,1.1-2.2c0-1.5-1.2-2.8-2.8-2.8c-1.5,0-2.8,1.2-2.8,2.8c0,1.3,1,2.5,2.2,2.7
	c-0.4,0.3-0.8,0.8-1,1.3c-0.3-1.3-1.4-2.2-2.8-2.2c-1.6,0-2.8,1.3-2.8,2.8c0,1.6,1.3,2.8,2.8,2.8c1.2,0,2.2-0.8,2.6-1.8
	c0.2,0.9,0.8,1.7,1.7,2c-0.8,1.2,2.7,0.3,0.1,2c-0.6,0.4-1.5,0.1-2.2,0c-0.4-1.2-1.6-2.1-2.9-2.1c-1.7,0-3.1,1.4-3.1,3.1
	c0,0.5,0.1,0.9,0.3,1.3c-0.2,0-0.4-0.1-0.6-0.1c-0.9,0-1.7,0.3-2.3,0.9c-0.3-1.1-0.7-2.1-1.2-2.2c-1.3-0.4-2.2,0.3-2.7,1.3
	c-0.2-0.1-0.5-0.2-0.7-0.2c-0.9,0-1.6,0.7-1.6,1.6c0,0.1,0,0.1,0,0.2c-0.4-1.3-1.6-2.2-3-2.2c-1.7,0-3.1,1.4-3.1,3.1
	c0,1.2,0.7,2.2,1.6,2.7c-0.5,1.1-0.5,2.7-1,3.1c0,0-1-0.4-1.5-0.6c0.9,0,1.6-0.7,1.6-1.6s-0.7-1.6-1.6-1.6c-0.9,0-1.6,0.7-1.6,1.6
	c0,0.6,0.4,1.2,0.9,1.4c-1.7,0.3,0.2,2.5,0.3,4c-0.1,0.3-0.2,0.6-0.2,0.9c-0.1,0.1-0.2,0.2-0.4,0.3c-0.4-1.4-1.6-2.5-3.2-2.5
	c-0.3,0-0.5,0-0.8,0.1c2.5-1.5,2.9-2.4,2.3-4.3c-1-2.8-3.2-0.4-4.8-1.3c-0.7-0.4-1.9-3.5-2.6-3.5c0.2,0-2.8,2.2-2.6,1.7
	c-0.1,0.2-0.1,0.4-0.1,0.5c-0.5,0.5-0.7,1.1-0.8,1.8c-0.2,0-0.3,0-0.5,0c-1.3,0-2.4,0.9-2.8,2.1c-0.3,0-0.7-0.3-1.4-0.9
	c-0.5-0.5,0.6-1.2,0-2.6c-1-2.2-5.6-2.8-6.5-1.3c-0.4,0.6-0.2,2.1,0,3.5c-0.5-0.7-1.3-1.2-2.3-1.2c0.8-0.5,1.3-1.4,1.3-2.4
	c0-0.4-0.1-0.8-0.2-1.1c0.8,0,1.5-0.7,1.5-1.5s-0.7-1.5-1.5-1.5c-0.8,0-1.4,0.6-1.5,1.4c-0.3-0.2-0.7-0.2-1.1-0.2
	c-1.6,0-2.8,1.3-2.8,2.8c0,0.8,0.4,1.6,1,2.1c-0.2,0.2-0.3,0.5-0.4,0.5c-0.9,0.1-1.7-1.7-2.2-1.7c-0.2,0-0.3,0-0.5,0.1
	c-0.3-0.4-0.7-0.6-1.2-0.6c-0.1,0-0.1,0-0.2,0c-0.4-0.1-0.7-0.1-1,0c0.7-0.5,1.2-1.4,1.2-2.3c0-1.6-1.3-2.8-2.8-2.8
	c-1.6,0-2.8,1.3-2.8,2.8c0,1.6,1.3,2.8,2.8,2.8c0.2,0,0.5,0,0.7-0.1c-0.5,0.6-0.2,1.7,0.3,2.9c-1.1,0.6-1.9,1.7-1.9,3
	c0,0.4,0.1,0.7,0.2,1.1c-1-0.1-2.1-0.2-2.7,0.3c0.4-0.5,0.6-1.2,0.6-1.9c0-1.8-1.4-3.2-3.2-3.2c-1.8,0-3.2,1.4-3.2,3.2
	c0,1.8,1.4,3.2,3.2,3.2c0.8,0,1.6-0.3,2.2-0.8c-0.1,0.3-0.3,0.6-0.3,1c0,0.1,0,0.2,0.1,0.3c-1.4,0.6-2.5,2-2.5,3.7
	c0,0.2,0,0.3,0,0.5c-0.8,1-1.4,2.5-1.6,4.1c-0.4-0.1-0.8-0.2-1.2-0.2c-0.5,0-1,0.1-1.4,0.3c0.2-0.5,0.3-1,0.1-1.4
	c-0.1-0.3-0.3-0.6-0.6-0.8c0.1-0.3,0.2-0.7,0.2-1c0-1.6-1.1-2.9-2.5-3.2v-0.1c0-0.8-0.7-1.5-1.5-1.5c-0.8,0-1.5,0.7-1.5,1.5
	c0,0.2,0.1,0.4,0.1,0.6c-0.9,0.6-1.4,1.6-1.4,2.7c0,0.9,0.4,1.7,0.9,2.3c-0.6,0.4-1.1,0.8-1.1,0.8c-0.4,0.6,0.5,1.4,0,2.6
	c-0.7,1.7-1.4,0-1.7,1.3c-0.3,1.1,1,3.2,0.4,3.9c-0.2,0.3-1.8-0.1-2.2,0c-0.7,0.3,0,0.9-0.4,1.3c-0.4,0.3-1.3-0.3-1.7,0
	c-3.1,2.1-0.3,1.1-0.4,3.9c-0.2,3.1-0.9-0.9-2.2,1.7c-1.4,2.9,1.4,4.7,0.9,5.6c-0.8,1.3-1.7-1-3.5,0.4c-0.1,0.1-0.1,0.1-0.2,0.2
	c-0.5-0.6-1.3-0.9-2.2-1c0.3-0.5,0.4-1,0.4-1.6c0-1.7-1.4-3.1-3.1-3.1c-1.7,0-3.1,1.4-3.1,3.1s1.3,3,2.9,3.1c-0.3,0.5-0.5,1-0.5,1.7
	c0,0.9,0.4,1.7,1,2.3c0.1,0.2,0.2,0.3,0.4,0.5c0.3,0.3,0.5,0.5,0.6,0.6c0.2,0,0.3,0.2,0,0c-0.1,0-0.3,0-0.4,0.2
	c-1.7,0.2-3,1.6-3,3.3c0,0.4,0.1,0.8,0.2,1.1c-0.6,0.1-1.2,0.2-1.8-0.1c0.4,0.2-2.9-3.8-3.5-5.6c-0.2-0.8,0.3-1.9,0-2.6
	c-0.2-0.4-0.4-0.6-0.7-0.9c1-0.6,1.7-1.6,1.7-2.9c0-1.8-1.5-3.3-3.3-3.3c-1.7,0-3.1,1.3-3.2,3c-0.9,0.7-1.6,1.6-1.8,1.4
	c-1.9-1.4,0.7-7.7,0.9-8.2c-0.2,0-3.4-3.6-5.6-1.8c-0.5,0.4-0.6,1.8-0.6,3.4c-1,0.2-1.8,0.8-2.3,1.6c-1.1-0.3-2.7,4.1-4.9,2.8
	c-1.3-0.7-0.6-4.6-2.2-5.6c-2-1.3-4.1,0.3-5.6,3.5l1.6,1.1l-1.6,1.1c1.5,0.8,5.7,2.5,5.6,3.5c-0.1,1.1-0.6,0.5-1.7,1.3
	c-3.2,2.4,0.2-1-2.2-2.6c-0.4-0.3-0.7-0.4-1-0.3c-0.2-0.1-0.4-0.2-0.7-0.2c-0.5,0-1,0.3-1.3,0.7c-0.4,0-0.8-0.2-1.3-0.6l-0.6,1.1
	l-1.1-0.6c-3.4-0.6-1.1-5-2.2-6.5c-1-1.4-4.5-0.1-5.6-1.7c-0.6-0.9,0.6-4,0-4.3c-2.3-1.1-1.6,2.3-2.2,4.3c-0.6,2-1.8,1.9,0,3
	c3.3,2,0.6,1.2,0.8,3.6l0,0c-0.9,0-1.5,0.7-1.5,1.5c0,0.1,0,0.2,0,0.3c-0.2-0.1-0.4-0.2-0.5-0.3c-0.1-0.1,0.1-1.3,0-1.3
	c-1.2-0.3-2.3-0.2-3.2,0.2c0.3-0.3,0.6-0.7,0.6-1.2c0-0.8-0.7-1.5-1.5-1.5c-0.8,0-1.5,0.7-1.5,1.5s0.7,1.5,1.5,1.5
	c0.1,0,0.3,0,0.4,0c-2.8,1.6-3.8,6.1-1.8,9.5c-1.5-0.2-1.4-2.1-2.6-2.2c0.5,0-1.4,0.9-2.4,1.7c-0.2-0.1-0.5-0.2-0.8-0.2
	c-0.8,0-1.5,0.7-1.5,1.5c0,0.7,0.5,1.3,1.2,1.5c-0.1,0.4-0.1,0.8-0.3,1.1c-0.2-0.2-0.5-0.3-0.8-0.3c-0.2,0-0.4,0-0.6,0.1
	c-0.2-0.1-0.3-0.2-0.4-0.2c-0.1,0-2.5,4-2.2,3.9c-1.9,0.4-1.1-0.5-1.7-1.3c-3-3.5-0.9,0-3.5,0c-0.7,0-0.7-2.1-1.3-2.2
	c-0.7,0-2,2.4-1.7,3.9c0.2,0.9,2,0,2.6,0.9c0.4,0.7-0.7,3.4-0.4,4.8c0.3,1.2,1.9,1.2,2.2,1.7c1,1.8,0.2,4.5,0.4,4.3
	c-0.5,1-2.1-1.1-2.2-1.1c-4.2-0.7-0.4,4.2-1.7,5.2c0.2-0.1-1.1-0.4-2.5-0.7c-0.2-0.3-0.4-0.5-0.7-0.7l0,0c0-0.9-0.7-1.6-1.6-1.6
	c-0.7,0-1.4,0.5-1.6,1.2c-0.4-0.5-0.6-1.1-0.9-1.1c-1.2,0-2.4,2.3-3.5,2.6c-0.7,0.2-1.3-0.2-1.6-0.4c0.2-0.3,0.3-0.6,0.3-0.9
	c0-0.9-0.7-1.6-1.6-1.6s-1.6,0.7-1.6,1.6c0,0.9,0.7,1.6,1.6,1.6c0.3,0,0.5-0.1,0.7-0.2c-0.3,0.9-0.9,2.4-1.6,2.4
	c-1.3,0.1-0.3-0.8-0.9-1.3c-0.2-0.2-1.8-0.7-3.6-1.3c0-0.1,0-0.2,0-0.4c0-0.9-0.7-1.7-1.7-1.7c-0.6,0-1.2,0.4-1.5,0.9
	c-0.5-0.2-0.9-0.4-1.1-0.5c-0.1-0.1,0.1-1.3,0-1.3c-1.5-0.4-4.8-0.4-6.1,0c-2.7,0.9-2.7,5.9-4.8,2.6c-1.5-2.3-0.3-1-1.3,0.9l0,0
	c-0.3-0.3-0.7-0.5-1.2-0.5c-0.9,0-1.6,0.7-1.6,1.6c0,0.1,0,0.2,0,0.3c-0.8-0.1-1.6-0.4-2.6-0.6c0.5-0.2,0.9-0.8,0.9-1.4
	c0-0.8-0.7-1.5-1.5-1.5c-0.8,0-1.5,0.7-1.5,1.5c0,0.5,0.2,0.9,0.6,1.2c-0.6,0-1.2,0-1.8,0.3c0.2-0.1-1.6,1.2-2.7,1.8
	c-0.2-0.1-0.3-0.1-0.5-0.1c-0.8,0-1.5,0.7-1.5,1.5c0,0.8,0.6,1.4,1.3,1.5l0,0c-1.5,1.3-4.4,0.9-4.8,2.6c0,0.2,1.7,3.6,1.3,3.9l0,0
	c-0.3-0.2-0.6-0.3-1-0.3s-0.7,0.1-1,0.3c-1.4-0.9-2.8-3.1-4.1-2.2c-3,2.2,3.2,6.3,1.7,7.8c0,0,0,0-0.1,0h-0.1
	c-0.3-0.2-0.7-0.4-1.1-0.4c-0.5,0-1,0.2-1.4,0.6c-1.3,0-2.7,0-3.6-0.1c0,0.1-0.1,0.1-0.7-0.1c0.2,0.1,0.4,0.1,0.7,0.1
	c-0.1-0.3-2.8-1.8-2.8-1.9c-1-1.2-0.2-2.1-2.6-2.2c-4.6-0.1-2.8,0.8-3,3.9c-0.1,2.4-1.8,2.4-2.2,3c-0.5,0.8,0.6,2.1,0,2.6
	c-0.5,0.3-1.1,0.5-1.7,0.5c-0.1-0.8-0.8-1.5-1.7-1.5c-0.9,0-1.6,0.7-1.7,1.5c-0.2,0.1-0.4,0.1-0.5,0.3c-2.1,2.3,1.6,3.8,1.3,6.1
	c-0.2,1.4-1.8,0.7-2.2,1.3c-0.2,0.3-0.9,4.3-0.9,4.3c0,0.5,0.4,1.4,0.9,2.2c-0.6,0.5-1.1,1.4-1.1,2.3c0,0.4,0.1,0.9,0.3,1.2
	c-0.8,0.5-1.4,1.5-1.4,2.5c0,0.5,0.1,1,0.4,1.4c-0.1,0-0.1,0-0.2,0c-0.2-0.8-0.7-1.5-1.4-1.9c0.4-0.4,0.7-1,0.7-1.7
	c0-1.3-1.1-2.4-2.4-2.4c-1.3,0-2.4,1.1-2.4,2.4c0,0.7,0.3,1.4,0.9,1.8c-0.1,0.1-0.3,0.1-0.4,0.2c-0.4,0.4-0.5,1-0.3,1.5
	c0,0.1,0,0.3,0,0.4c0,1.5,1.2,2.7,2.7,2.7l0,0c0.2,0.1,0.3,0.2,0.2,0.1c0.1,0.2,0,0.8-0.1,1.3c-1.5,0.1-2.7,1.4-2.7,2.9
	c0,0.7,0.2,1.3,0.6,1.8c-0.3,0.5-0.5,1-0.6,1.6c-0.4-0.2-0.7-0.3-1.2-0.3s-0.9,0.1-1.3,0.3c-0.4-0.3-0.8-0.4-1.3-0.4
	c-1.2,0-2.2,1-2.2,2.2s1,2.2,2.2,2.2c0.1,0,0.2,0,0.3,0c0,0.1,0.1,0.1,0.1,0.2c0,0.4,0,0.8,0,1.1c-0.3-0.3-0.8-0.4-1.2-0.4
	c-1.1,0-2.1,0.9-2.1,2c0,0.6,0.2,1.1,0.6,1.5c-0.6,0.3-1.1,1-1.1,1.7c0,1.1,0.9,1.9,2,1.9c0.4,0,0.7-0.1,1-0.3
	c0.3,0.8,1.1,1.4,2,1.4c1.2,0,2.1-1,2.1-2.1c0-0.1,0-0.1,0-0.2c0.5,0.4,1.1,0.7,1.7,0.7c1.4,0,2.5-1.1,2.5-2.4c0.1,0,0.1,0,0.2,0
	c1.1,0,3,0.7,4.7,1c0.6,0.4,1.3,0.7,2,0.7c0.9,0,1.7-0.4,2.3-0.9c0.5,0.7,1,1.2,1.2,1.4c0.1-0.1,0.1-0.1,0.1,0c0,0,0,0-0.1,0
	c-0.4,0.4-2,3.4-1.7,3.5c-0.6,0.1-2.7-1.5-3.4-1.3c-1.6,0.5-0.3,2.5-0.4,3c0,0.1-1.3-0.1-1.3,0c-0.6,2,0.2,3.7-0.6,5.2
	c-0.5,0.1-0.8,0.4-1.1,0.8c-1,0.3-2.6,0.6-2.7,0.9c-0.3,1,2,5.1,2.2,5.2c0.6,0.5,1.6-0.8,1.3-0.9c0.5,0.1,0.4,1.3,1.8,2
	c0.3,0.4,0.8,0.7,1.4,0.7c0.3,0,0.6-0.1,0.9-0.3c1.3,0,2.2-0.2,2.5,1c0.1,0.3-3.2,3.8-4.3,4.3c-0.1,0.1-2.2,0.3-4.2,0.8
	c-0.1-0.7-0.7-1.3-1.5-1.3c-0.8,0-1.5,0.7-1.5,1.5c0,0.3,0.1,0.5,0.2,0.8c-0.8,0.5-1.4,1-1.3,1.7c0.4,2.3,7.7-0.6,8.2,0
	c1.3,1.5-1.1,1.4-1.3,2.6c-0.4,2.6,1.9,1.9,1.7,3c-0.2,1.4-3.4,2.6-3,4.3c0.4,1.5,2,0,2.6,2.2l1.9,0.2l-0.2,1.9
	c2.7,0-0.5,3.3-1.3,3.9l0.2,1.7l-1.1,1.3c0.4,1.7-0.3,4.6,1.3,5.2l1.1-1.6l1.5,1.2c0.4-1.6,3.4,0.6,4.3,0.4c1.5-0.3,0.7-1.5,2.2-3
	c0.2-0.2,1.2,0.2,1.3,0c0.8-1.2-0.1-2.2,0.9-2.6c1.8-0.8,3.9,1.3,3.9,1.3c2.4-0.8,0.4-3.1,0.9-3.5c0.2-0.2,0.7-0.4,1.4-0.6
	c0.3,1.2,1.4,2.1,2.7,2.1c0.3,0,0.6,0,0.8-0.1c0.1,1,0.2,2,0.8,2.1c2.2,0.4,1.9-2.1,1.1-4.1c0.1-0.2,0.1-0.4,0.1-0.7
	c0,0,0-0.1,0-0.2c0.5-0.1,0.9-0.4,1.2-0.9c0.5,0.3,1,0.6,1.5,0.8c-1.2,0.3-2.1,1.4-2.1,2.7c0,0.3,0,0.5,0.1,0.8
	c-0.2,0.3-0.2,0.6-0.2,1c0,1.2,0.9,2.1,2.1,2.1c0.9,0,1.7-0.6,2-1.4c0.9-0.4,1.6-1.4,1.6-2.5c0-0.8-0.4-1.6-1-2.1
	c0.5-0.1,0.5-0.3,0.4-0.5c-0.3-0.3-0.1-0.2,0,0c0.1,0.1,0.3,0.3,0.6,0.6c0.7,0.6,1.1,0.7,1.5,0.5c0,0.2-0.1,0.3-0.1,0.5
	c0,0.7,0.2,1.3,0.6,1.8c-0.9-0.1-1.7-0.1-2.1,0.2c-1.3,0.9,0.6,1.3,0,2.6c-1.7,3.7,1.5,2.3,3.2,2.9c-0.2,0.3-0.3,0.5-0.4,0.9
	c-0.4-0.2-0.9-0.4-1.4-0.4c-1.5,0-2.8,1.2-2.8,2.8c0,1.5,1.2,2.8,2.8,2.8c1.5,0,2.8-1.2,2.8-2.8c0,0,0,0,0-0.1
	c0.2,0.1,0.4,0.1,0.6,0.1c0.1,0,0.2,0,0.2,0c0.3,1.2,1.4,2.1,2.7,2.1c1.3,0,2.5-0.9,2.7-2.2c0,0.4,0.1,0.8,0.4,1.2
	c-1,0.4-1.6,1.4-1.6,2.5c0,0.4,0.1,0.8,0.2,1.1c-0.4-0.4-0.9-0.6-1.4-0.6c-0.9,0-1.6,0.6-1.9,1.4c-1.1,0.4-1.8,1.4-1.8,2.6
	c0,1.5,1.2,2.8,2.8,2.8c1.5,0,2.8-1.2,2.8-2.8c0-0.3,0-0.5-0.1-0.8c0.2-0.3,0.4-0.7,0.4-1.2c0-0.3-0.1-0.5-0.1-0.7
	c0.5,0.6,1.2,0.9,2.1,0.9c1.5,0,2.8-1.2,2.8-2.8c0-1.4-1-2.5-2.3-2.7c0.1-0.3,0.4-0.5,0.9-0.6c0.1,0,0.2,0,0.4,0
	c0.2,0.9,1.1,1.6,2,1.6c0,0,0,0,0.1,0c-0.2,0.3-0.3,0.6-0.3,1c0,0.4,0.1,0.7,0.3,1c-1,2.4-2,5.4,2.3,2.9c1.4-0.8,2.7-2.4,4-4
	c0.7-0.3,1.3-1,1.5-1.8c1.2-1.4,2.3-2.4,3.2-2.1c0.9,0.3-1.5,1.7-1.3,2.2c0.5,1.2,1-0.3,2.7,0.3c-0.6,0.4-1,1-1,1.8
	c0,0.3,0.1,0.6,0.2,0.8c-0.4-0.4-0.9-0.7-1.5-0.7c-1.1,0-2,0.9-2,2s0.9,2,2,2s2-0.9,2-2c0-0.3-0.1-0.5-0.2-0.8
	c0.4,0.4,0.9,0.7,1.5,0.7c-0.2,0.5-0.5,1-0.8,1.5c-0.5,0.9-1.2,2.8-1.6,3.3c-0.3-0.7-1-1.2-1.8-1.2c-1,0-1.9,0.8-1.9,1.8
	c-2.4,0.1-4.7,0.2-3,2.5c2.4,3.3,12-1.9,13.5,1.6c-0.2-0.1-0.3-0.1-0.5-0.1c-0.9,0-1.6,0.7-1.6,1.6c0,0.9,0.7,1.6,1.6,1.6
	c0.1,0,0.3,0,0.4,0c-0.2,0.2-2.8-0.3-3,0c-3,3,3.2,2.7,3,2.6c0.8,0.9-1.2-0.2-1.3,0.9c-0.1,1.6,2.4,1.8,3.9,0
	c0.1-0.1,0.4-1.2,0.4-1.3c2.3-1.8,1,0.4,1.7-2.2c0.3-1.1,1.1,0.2,1.7-0.9c0.3-0.4-0.4-1.8,0-2.2c0.5-0.4,2.2-0.5,2.2-0.4
	c0.3-0.4-0.4-1.9,0-2.2c0.2-0.1,1.7,0.5,3,0c0.6-0.2,1-0.6,1.2-1.1c0.9-0.2,1.5-0.9,1.5-1.8c0-0.1,0-0.1,0-0.2c0.2,0,0.4,0,0.7,0
	c0.1,0-0.1,1.6,0,1.7c0.2,0.4,4.1,3.2,1.3,3c-3.4-0.2-2.3,5-1.3,5.6c1.7,1.1,3.6-1.4,3.9-1.7c1-1.1,1.1,0.5,1.7-0.9
	c0.3-0.7-0.8-1.6-0.4-2.2c0.3-0.5,1.8-0.3,1.7-0.9c-0.1-0.9-2.2-1.9-2.2-2.2c0.1-2.1,2.5-1.4,2.6-1.7c0.1-0.5-1.9-1.5-1.7-2.6
	c0.2-1.1,0.9-1.7,2.6-1.7c1.9-0.1,0.1,1.5,0.9,2.2c0.8,0.7,1.7,0.7,2.5,0.3c0.4,1,1.4,1.8,2.6,1.8c1.6,0,2.8-1.3,2.8-2.8
	c0.1,0,0.1,0,0.2,0h0.1c0,0.1,0,0.1,0,0.2c0,1.1,0.8,2,1.9,2.1c-0.1,0.1-0.1,0.1-0.1,0.2c0,0.6,3.4,2.4,2.2,3.5l2-0.2l0.6,1.9
	c1.7,0.4,3.4-2.1,4.3-1.3c1.8,1.7-1.1,1.8-2.5,2.7c-0.4-0.4-0.9-0.7-1.5-0.7c-1.1,0-2,0.9-2,2s0.9,2,2,2c0.2,0,0.3,0,0.5-0.1
	c-0.1,1.5-0.7,2.2-1.6,2.6c0.3-0.3,0.5-0.8,0.5-1.3c0-1-0.8-1.8-1.9-1.8c-1,0-1.9,0.8-1.9,1.8c0,0.8,0.5,1.5,1.2,1.7
	c-1,0.2-2,0.4-2.1,1.5c-0.1,0.9,1.7,1.1,1.3,2.2c-1.1,2.7-2.8,0.8-3,2.2c-0.4,2,0.7,2.2,2.1,1.7c0.2,0.7,0.8,1.2,1.6,1.2
	c0.9,0,1.7-0.8,1.7-1.7c0-0.4-0.2-0.8-0.4-1.1c0.5-0.4,1-0.7,1.5-1c0.3,0.5,0.9,0.8,1.5,0.8c0.4,0,0.8-0.1,1.1-0.4
	c0.1,0.4,0.3,0.9,0.5,1.3c0.2,0.5,1.2,0.5,1.3,0.9c0.2,0.5-0.3,2.7,0,3c3.2,3,2.5-1.8,3.5-2.6c2.7-2.3,7.2,0.1,7.8-3.5l-0.2-1.3
	l-0.2-1.3c1.6-1.7-1.7-3.3-1.7-4.3c0-0.6,1.8-3.4,1.7-4.3c0,0.7-1.3-1.5-0.9-2.2c-0.1,0.2,3.2-2.3,4.3-1.3c0.2,0.2,0.3,0.4,0.3,0.6
	H153c-1.2,0-2.2,1-2.2,2.2s1,2.2,2.2,2.2c0.2,0,0.5,0,0.7-0.1c0.6,0.2,1.1,0.1,1.3-0.3c0-0.2,0.1-0.3,0.1-0.5c0,0.2,0,0.3-0.1,0.5
	c-0.2,0.9-0.7,2.3-0.8,2.4c-0.8,0.7-3.1-0.8-3.5,0.9c0,0.2,1.8,3.4,2.6,3.5c1.8,0.1,0.2-1.8,1.7-1.3c0.8,0.2-0.8,3,0.9,2.6
	c1.7-0.4-0.5-6.8,0.1-9.6c0.4,0.4,1,0.7,1.6,0.7c1.2,0,2.2-1,2.2-2.2c0-0.1,0-0.2,0-0.3c0.8-0.1,1.6-0.1,2.2,0.2
	c0.3,0.1,0.5,0.3,0.6,0.4c-0.7,0.4-1.1,1.1-1.1,1.9c0,1.2,0.9,2.1,2.1,2.2c0.1,0.3,0.9,0.5,0.5,1.1c0.2-0.2-4,2.3-3.5,2.2
	c-3.6,1,0.4,3.7,0,5.2c0,0.1-0.3,0.3-0.6,0.5c-0.3-0.6-1-0.9-1.7-0.9c-1.1,0-2,0.9-2,2c0,1.1,0.9,2,2,2c0.4,0,0.8-0.1,1.1-0.4
	c0.9,0.3,2-0.3,3.3,0.3c0.6,0.3,1.8,2.9,3.5,2.6c0.9-0.2,1.3-0.9,1.5-1.6c0.3,0.6,1,1,1.7,1c1.1,0,1.9-0.9,1.9-1.9
	c0-0.4-0.2-0.8-0.4-1.2c1.6-0.3,3.2-0.7,2.2-1c2.3,0.7-0.8,1.9,0.9,3.5c0,0,3.2-0.2,3.5-1.3c-0.1,0.3-1.5-1.9-1.3-1.7
	c-3.1-3.4,0.9-0.8,1.3-1.3c1.1-1.3-2.9-3.5-1.3-3.5c0.3,0.7,3.9,1.3,3.9,1.3c0.2,0.4-3.8,2-1.7,4.3c-0.2-0.2,3.2,0.1,4.3-2.2
	c0.2-0.4-0.3-1.8,0-2.2c0.4-0.4,1.7,0.2,2.2,0c1.8-1,2.8-4.4,2.2-5.2c-2-2.7,0.7-0.9,1.7-1.3c1.4-0.5,1.2-2.6,2.2-2.6
	c7.3-0.3-1,8.7-0.4,11.2c0.1,0.6,1.5,1.2,1.3,1.7c-0.1,0.4-0.3,0.6-0.5,0.8c-0.3-0.6-0.9-1-1.6-1c-1,0-1.9,0.8-1.9,1.9
	c0,0.7,0.4,1.3,1,1.6c0.5,0.4,1.1,0.7,1.3,1.1c2.6,3.4,1.2,0.8,2.6-1.7c0.9-1.6,2.1-0.9,3.5-2.2c0.3-0.3-0.2-1.4,0-1.7
	c0.9-1.5,1.9,0,2.2-0.9c0.4-1.1,0.3-3,0-4.5c0.3,0.2,0.7,0.4,1.2,0.4c1.1,0,1.9-0.9,1.9-1.9c0-1.1-0.9-1.9-1.9-1.9
	c-0.3,0-0.6,0.1-0.8,0.2c0.1-0.5,0.1-1.3,1.4-1.7c0.3-0.1,0.5-0.1,0.7-0.2c0.3,0.2,0.6,0.3,1,0.3c1,0,1.9-0.8,1.9-1.9
	c0-0.2,0-0.3-0.1-0.4c1.3-1.9,3.6,1.7,3.9,2.2c0.2-0.1,1.6,0,2.6,0c0.3,0.5,0.8,1,1.4,1.1c0.4,1.5,0.5,4.1-0.5,5.9
	c-0.2,0.4-1.9,0.4-1.7,1.3c0.7,4.5,6,1.9,6.1,1.7c0.4-0.8-1.2-2.1-0.9-2.2c0.9-0.3,2.9,0.6,3,1.3c0.4,2.3-3.1,1-3.5,1.7
	c-1.7,3.5,4.7,1.3,4.8,1.3c1.1,0.4,0.8,3.4,2.6,2.2c1.7-1.3-4.4-7.6,0-9.1c1.2-0.4,3.6,0.9,3.9,1.3c1.2,1.6,1.2,0.9,3,2.2h0.8
	c6.2,4.9,9.8,8.9,11,13c0.9,3,0.1,8.3-0.6,12.8c0,0.2-0.1,0.3-0.1,0.5c-0.3,1.7-0.5,3.3-0.6,4.6h27.7c-0.7-5.1-0.2-10.3,0.1-12.4
	c0.4-3.3,2.6-4.4,2.6-14.1c0-1.6,0.2-3.3,0.7-4.9h1c0.1-0.2,0.4-0.2,0.7-0.3c0,0.2-0.1,0.3-0.1,0.5c0,1,0.8,1.8,1.8,1.8
	c0.7,0,1.3-0.4,1.6-1c0.2,0.8,0.9,1.4,1.8,1.4c1,0,1.8-0.8,1.8-1.8s-0.8-1.8-1.8-1.8c-0.7,0-1.3,0.4-1.6,0.9
	c-0.2-0.8-0.9-1.4-1.8-1.4c-0.2,0-0.5,0-0.7,0.1c0.6-1.7-0.2-3.3,0.3-3.7c1.1-0.8,1.9-0.7,2.5-0.2c-0.8,0.3-1.4,1.1-1.4,2.1
	c0,1.2,1,2.2,2.2,2.2c0.8,0,1.4-0.4,1.8-1c0.4,0.6,1.1,1.1,1.9,1.1c0.9,0,1.6-0.5,2-1.2c0.8,0.1,1.2,0.3,1,0.5
	c0.4-0.2,0.6-0.5,0.7-0.8c0.2,0.1,0.5,0.1,0.7,0.1c1.4,0,2.5-1.1,2.5-2.5c0-0.6-0.2-1.2-0.6-1.6c2.8,0.2,6.3,2.7,7,2.7
	c1,0,2.4-1.5,3.5-1.3h0.1c-0.5,0.4-0.8,0.9-0.8,1.6c0,1.1,0.9,2,2,2c0.9,0,1.6-0.6,1.9-1.4c2.1-0.1,5.3-0.5,6.3-1
	c0.9-0.4-0.1-1.2,0.4-1.7c0.3-0.3,1.4,0.2,1.7,0c1.9-0.9-1.1-2.1,1.3-1.7c0.4,0.1,0.4,4.8,3.5,4.3l0.4-1.8l1.8,0.1
	c-0.5-1.7,1-1.3,2.2-1.3l1.3-1.1l1.3,1.1c4.2,0.3-2.2-3.2-0.4-4.8c0.4-0.3,0.7-0.5,0.9-0.6c0.3,0.2,0.7,0.4,1.1,0.4
	c0.3,0.6,0.5,1.5,0.9,2.1c0,0.1-0.1,0.3-0.1,0.5s0,0.3,0,0.4c-1.3,2.1,1.1,1.7,1.9,2.8c0.2,0.3,0.3,0.6,0.4,0.8
	c-0.2-0.1-0.4-0.1-0.6-0.1c-0.9,0-1.7,0.8-1.7,1.7c0,0.9,0.8,1.7,1.7,1.7c0.9,0,1.7-0.8,1.7-1.7c0-0.7-0.4-1.3-1-1.5
	c0.1-0.2,0.2-0.5,0.4-0.8c-0.5,0.9,1.4-1.1,3-2c-0.3,0.4-0.5,0.8-0.5,1.3c0,0.7,0.3,1.3,0.8,1.7c-0.4-0.1-0.8-0.3-0.9-0.4
	c-0.3,0.8-0.8,2.2-0.2,2.9c0.2,0.2,4.1-0.2,4.8,0c0.1,0,1.6,2.3,2.6,2.6c0.3,0.1,0.8-0.4,1.3-0.4c3.9-0.2,0.7,3.3,2.6,0.9
	c1.5-2-3.7-3.8-2.2-5.2c1.8-1.4,1,1.6,2.2,2.2c1.1,0.5,2.5-0.5,3,0c0.6,0.6,1.1,7,3,3.5c1-1.8-1.6-2-1.7-2.2c-0.6-1.5,0.3-2.7,0-3
	c0,0-0.5-0.1-1.1-0.3c0.8-0.1,1.4-0.4,1.9-0.9c0.5,0.5,1.3,0.8,2,0.8c1,0,1.8-0.4,2.4-1.1c0.5,0.9,1.5,1.4,2.5,1.4c1.6,0,3-1.3,3-3
	c0-1.6-1.3-3-3-3c-0.9,0-1.7,0.4-2.2,1c-0.5-1-1.6-1.6-2.7-1.6c-0.1,0-0.2,0-0.3,0c0-0.1,0-0.1,0-0.2c0-0.2-0.1-0.3-0.3-0.5
	c0.2,0,0.4,0,0.6,0c2.2,0,4.1-1.5,4.6-3.5c0.1,0.1,0.1,0.3,0.3,0.5c0.4,0.8,1.2,0.8,2.1,0.8c0.6,0.3,1.4,0.5,2.2,0.5
	c0.3,0,0.7,0,1-0.1c1.7,1.3-0.7,3.7-0.5,4.4c0.3,1.4,3,3.3,3,3.5c-0.1,0.8-2.3,0.9-2.2,1.3c0.3,1.2,1.6-0.2,2.2,0.4
	c0.4,0.4-0.3,3.2,0,3.5c0.1,0.1,0.7,0.3,1.3,0.4c0.2,0.7,0.9,1.2,1.6,1.2c0.5,0,0.9-0.2,1.2-0.5c0.2,0.1,0.3,0.1,0.2,0.2
	c0.6-0.3,0.1-1.8,0.8-1.7c1,0.2,1.2,0.7,1.5,1.3c-1.4,0.2-2.4,1.3-2.4,2.8s1.2,2.8,2.8,2.8c0.3,0,0.6,0,0.9-0.1
	c-0.6,0.5-0.9,1.3-0.9,2.1c0,1.5,1.2,2.8,2.8,2.8c1.5,0,2.8-1.2,2.8-2.8c0-1.5-1.2-2.8-2.8-2.8c-0.3,0-0.6,0-0.9,0.1
	c0.6-0.5,0.9-1.3,0.9-2.1c0-0.2,0-0.4-0.1-0.6c0.1,0.1,0.2,0.1,0.3,0.2l0,0c0,1.5,1.2,2.8,2.8,2.8c1.5,0,2.8-1.2,2.8-2.8
	c0-0.9-0.5-1.8-1.2-2.3c0.2-0.5,0.2-1.4,0.2-1.4c2.2-0.7,2.9,2.3,4.3-0.4l-1.5-1.1l1.5-1.1c-1.7-2,2-4.5,3.5-2.2l1.9-0.2l-0.2,1.9
	c0.9,0.7,1.5,1.1,1.9,1.4c0.4,1.1,1.4,1.9,2.6,1.9c1.5,0,2.8-1.2,2.8-2.8c0-1.5-1.2-2.8-2.8-2.8c-0.5,0-0.9,0.1-1.3,0.3
	c0-0.4,0.1-0.7,0.2-1.1c0.6-2.6,3.4-2.2,3.5-3.5c0.6,1.3-1,2.3-0.9,3.5c0.1,0.9,0.5,1.2,1,1.4c0,0.1,0,0.2,0,0.3c0,1.1,0.9,2,2,2
	c0.2,0,0.4,0,0.6-0.1c0.6,1.6,0.4,3.6,0.8,4.3c0.8,1.3,1.2-0.5,2.2,0c0.8,0.4-0.3,1.1,0,1.7c0.5,1.1,2.6,2.6,2.6,2.6
	c3-0.7,0.8-4.1,0.9-5.6c0-0.8,0.2-1.7,0.4-2.6c0.6-0.3,1-0.9,1-1.7c0-0.2,0-0.5-0.1-0.7c0.4-0.8,0.9-1.5,1.3-1.6
	c0.6-0.2,1.3,0.2,1.9,0.7c-0.2,0.3-0.3,0.6-0.3,0.9c0,1.1,0.9,1.9,1.9,1.9c0.4,0,0.8-0.1,1.1-0.3c0.5,0.3,1,0.3,1.4-0.2
	c1-1.2-1.5-3.3-0.9-4.3c0.6-1,2.1-0.1,3,0c-0.1,0.2-0.1,0.5-0.1,0.7c0,1.1,0.9,2,2,2s2-0.9,2-2c0-1.1-0.9-2-2-2
	c-0.3,0-0.6,0.1-0.9,0.2c0.1-1.9-3.2-3.8-3.2-3.7c0-0.2,1.3-1.4,2.3-2.8c0,1.5,1.2,2.7,2.7,2.7s2.7-1.2,2.7-2.7s-1.2-2.7-2.7-2.7
	c0.5-0.5,0.8-1.2,0.8-2c0-1.7-1.4-3-3-3c-0.7,0-1.4,0.3-1.9,0.7l0,0c-0.2-0.4-6.4,0.9-3.9-3.9c0.3-0.5,1.6,0.9,1.7,0.9
	c1.6,0.1,0.5-1.4,1.7-1.3c-0.4,0,4.9,1.2,5.2,1.3c0.1,0-0.1,1.2,0,1.3c0.8,0.3,2.3,0.4,3.4,0.5c0.5,0.6,1.3,1,2.2,1
	c0.7,1.3,1.5,4,1.4,5.6c-0.3-0.5-0.9-0.9-1.5-1.1c0.5-0.5,0.7-1.2,0.7-1.9c0-1.6-1.3-3-3-3c-1.6,0-3,1.3-3,3c0,1.4,1,2.6,2.4,2.9
	c-0.3,0.4-0.5,1-0.5,1.6c0,1.5,1.2,2.6,2.6,2.6c0.6,0,1.2-0.2,1.6-0.6c2,1.7,5.4-2.7,6.6-2.8c0.9-0.1,3.3,1.2,3.9,2.2
	c0.3,0.5-0.3,2,0,2.2c0.9,0.6,3.3-0.6,4.3,0c-0.2-0.1,1,3,1.3,2.7c-0.2,0.5-1.2,1.2-1.3,1.2c0.6,1.8,1.5-0.1,2.2,1.7
	c0.2,0.4-0.3,1.8,0,2.2c0.5,0.5,2.8,0.4,3.5,0.9c0.3,0.2,0.5,1.8,0.9,2.2c1.4,1.5,2.4,0.9,2.6,1.3c1.8,3.2-0.8,5.1,2.6,5.6
	c4.1,0.7-1.2-1,0.4-2.2c0.9-0.6,1.4,0.9,3,0.4c0.9-0.2,1.4-0.8,1.6-1.4c0.3,0.1,0.6,0.1,0.9,0.1c1.5,0,2.8-1.2,2.8-2.8
	s-1.2-2.8-2.8-2.8l0,0c0-0.1,0-0.3,0-0.4c0-0.3,0-0.6-0.1-0.8c0.7-0.2,1.3-0.7,1.7-1.3c1.1,0.1,2.1,0.2,2.4-0.5
	c-0.1,0.3-1.5-1.5-2.2-2.6c1.1-0.2,2-1,2.3-2.1c0.5,0.8,1.4,1.3,2.4,1.3c1.5,0,2.8-1.2,2.8-2.8c0-0.1,0-0.3,0-0.4
	c0.3-0.3,0.5-0.6,0.5-1c0.7,0.6,1.3,1.1,1.6,1.1c0.5,0,2-1.8,2.2-1.7c1,0.2,5.8,4.2,7.4,3c2.1-1.5-0.8-3.3-0.9-3.5
	c0-0.2,0-0.3-0.1-0.5c0.8-0.5,1.4-1.4,1.4-2.4c0-1.5-1.2-2.8-2.8-2.8h-0.1c0.7-0.5,1.1-1.2,1.1-2.1c0-1.4-1.1-2.5-2.5-2.5
	c-1,0-1.9,0.6-2.3,1.6c-1.1-0.5-2.9,1-3.4,0.5c-0.7-0.9,1.2-3.7,0.9-4.3c-0.6-1.2-0.7-0.5-1.4-0.3c-0.1-0.4-0.4-0.7-0.7-1
	c0.9,0,1.6-0.4,2.1-1.1c0,0.2-0.1,0.4-0.1,0.6c0,1.5,1.2,2.8,2.8,2.8c1.5,0,2.8-1.2,2.8-2.8c0-1.6-1.3-2.8-2.8-2.8
	c-0.9,0-1.7,0.4-2.2,1.1c0-0.2,0.1-0.4,0.1-0.6c0-1.6-1.3-2.8-2.8-2.8c-1.6,0-2.8,1.3-2.8,2.8c0,0.2,0,0.3,0,0.5
	c-0.1-0.1-0.2-0.2-0.2-0.2c-0.6-0.4-2.8-0.2-3.5-0.9c-0.5-0.5-0.7-1.3-1.1-1.7c0.6,0,1.1-0.3,1.5-0.6c0.5,0,1,0,1.3-0.3
	c0.6-0.4,0.3-2.1,0.9-2.2c1-0.1,1.5,2.6,3,1.3l0.6-0.8c0.5,0.4,1.1,0.6,1.8,0.6c1,0,1.9-0.5,2.4-1.3c0.5,0.3,1,0.6,2.6,0.1
	c0.1,0,3.1-2.9,2.6-3.9c-1-1.9-6.2-0.2-3.9,0.4c0.1,0,0.3,0.1,0.4,0.1c-0.2,0-0.3,0-0.4-0.1c-2.5-0.5-1-2.4-3.1-3
	c-0.1,0-0.3-0.1-0.4-0.1c0.1-0.2,0.1-0.5,0.1-0.8c0-1.6-1.3-2.9-2.9-2.9c-0.7,0-1.3,0.2-1.8,0.6c0.6-1.8,2.5-3.2,4.6-2.5
	c-0.2-0.1,1.8,2,2.6,3c0.2,1,1.1,1.8,2.2,1.8c0.3,0,0.6-0.1,0.8-0.2c0.1,0.5,0.2,0.9,0.4,1c0.5,0.4,3.3,0.9,3.5,0.9
	c1.3-0.2,3.2-2.8,3-3.5c-0.3-1.2-1.6,1-3,0.4c0.5,0.2-0.7-1.8-1.1-1.7c-0.1,0.1-0.2,0.3-0.2,0.4c0-0.3,0.1-0.4,0.2-0.4
	c0.8-1,4.3-1.5,5-1.8c0.3-0.1,0.7-0.6,0.9-0.9c0.3,0.8,1,1.3,1.8,1.3c1.1,0,1.9-0.9,1.9-1.9c0.9,0,1.7,0.1,2.2,0.2
	c0.6,0.2,1.4,1.3,1.7,1.3c2.3,0,0.7-1.5,3.5-1.3c1.3,0.1,0.2,1,0.9,1.3c2,1.1,5.2-1.3,4.3-1.3c1.3,0,0.3,1.1,0.9,1.3
	c1.3,0.6,4.7-1.3,4.8-1.7C500.8,308.2,494.6,310.4,494.7,310.4z M22.3,276.2c0,0.1,0,0.3,0,0.4c-0.4-0.3-0.9-0.5-1.4-0.5
	s-0.9,0.2-1.2,0.4c-0.1-0.2-0.2-0.4-0.4-0.6c0.4-0.2,0.7-0.5,1-0.9c0.4,0.1,1.4-0.2,2.5-0.3C22.5,275.2,22.3,275.7,22.3,276.2z
	 M30,263.8c-0.3-0.3-0.7-0.5-1.2-0.6c-0.1-0.5-0.3-1-0.6-1.5c0.1,0,0.3,0,0.4,0c0.5,0.5,1.1,0.9,1.8,1.1
	C30.2,263.1,30.1,263.5,30,263.8z M34.5,257.2c-0.1,0.1-0.5,0.1-1,0c-0.1-0.1-0.3-0.2-0.4-0.3c0.6-0.5,0.9-1.3,0.9-2.2l0,0
	c0.1,0,0.3,0,0.4,0c0.1,0,0.2,0,0.2,0c-0.1,0.1-0.1,0.2-0.2,0.4C34.3,255.4,34.7,257.1,34.5,257.2z M37.1,239.9v-0.4
	c0-0.1,0.2,0.2,0.5,0.5c0,0.2-0.1,0.3-0.1,0.5c0,0.3,0.1,0.5,0.2,0.8c-0.1,0-0.1,0-0.2,0c-0.6,0-1.2,0.2-1.6,0.6
	C35.6,241.1,35.9,240.4,37.1,239.9z M35.7,254.4c0.2-0.1,0.5-0.3,0.7-0.4C37.1,255.6,36.5,254.7,35.7,254.4z M37.2,265.8
	c-0.1,0-0.1,0.1-0.2,0.1c0.1-0.4,0.2-0.8,0.2-1.2c0.4,0.1,0.6,0.2,0.7,0.3C37.7,265.2,37.4,265.5,37.2,265.8z M36.6,237.3
	c0.8-1.6,4.8-0.1,4.3,1.3c-0.3-0.2-0.8-0.3-1.2-0.3c-0.6,0-1.1,0.2-1.5,0.5C37.2,238.5,36.3,237.9,36.6,237.3z M40.5,243
	c-0.1,0.4-0.3,0.6-0.5,0.8h-0.1c0-0.3-0.1-0.7-0.2-1c0,0,0,0,0.1,0s0.2,0,0.3,0C40.3,243,40.5,243.1,40.5,243z M51.6,293
	c-0.3,0.1-0.6,0.3-1.1,0.6s-2.5,2.2-3,2.2c-2.6-0.2-4.1-6.3-8.7-5.6c1.4-2.7,4.9,0.1,5.6,0.4c2,0.8,3.4-0.4,4.3,0
	c1.5,0.6,0.7,1.7,1.3,2.2C50.5,293.1,51.2,293.1,51.6,293C52.3,292.7,52.1,292.9,51.6,293z M49.2,281.5c0.2,0,1.3-0.8,2.2-0.4
	c0,0,1.8,2.9,2.2,2.6C52.1,285.1,42.7,281.8,49.2,281.5z M63.3,285c0.8,0,1.5-0.7,1.5-1.5c0-0.1,0-0.1,0-0.2
	c1.4-0.4,3.4-1.1,4.2-0.6c-0.5-0.3-1,2.3-1.2,2.9c0.4,0.5,1.9,0.8,1.2,2.3c-1.3,2.7-3-0.7-5.9,0.5c0.3-0.5,0.5-1.1,0.5-1.7
	c0-0.7-0.2-1.3-0.6-1.8C63.2,285,63.3,285,63.3,285z M57.8,291.4c-0.1,0,0.1-1.2,0-1.3c-1.6-1.4-5.1-2.3-3.5-5.2
	c0.1-0.2,1.5,0.1,1.7,0c2.1-1.1,2.5-4,5.6-3.9c1.1,0,1.2,0.5,1.2,1c-0.6,0.2-1,0.8-1,1.4c0,0.2,0,0.3,0.1,0.5
	c-0.4-0.2-0.8-0.3-1.3-0.3c-1.7,0-3.1,1.4-3.1,3.1c0,0.3,0,0.6,0.1,0.8c-0.3,0.3-0.5,0.7-0.5,1.1c0,0.8,0.7,1.5,1.5,1.5
	c0.4,0,0.8-0.2,1.1-0.5c0.3,0.1,0.5,0.1,0.8,0.1c0.4,0,0.8-0.1,1.2-0.2C61.1,290.7,60.7,292.1,57.8,291.4z M62.1,310.9
	c0.9-1.6,2.9-1.1,3.5-2.2c0.1-0.1-0.1-1.7,0-1.7c2.5-0.3,1.5,2.9,1.3,3.5c0,0-2.5,0.9-2.6,1.7c-0.2,1.5,3.1-2.2,3.5-1.7
	c0.2,0.2,0.3,0.5,0.4,0.7c-1.3,0.2-2.2,1.4-2.2,2.7c0,0.1,0,0.2,0,0.4C63.6,314.8,60.5,313.9,62.1,310.9z M67,322.2
	c-0.2,0-0.4-0.1-0.6-0.1c-0.5,0-1,0.1-1.4,0.4c0.3-0.4,0.6-0.7,1.1-0.8c0.5-0.1,1-0.2,1.3-0.1C67.2,321.8,67,322,67,322.2z
	 M71.2,331.5c-0.5,0.1-1,0.3-1.4,0.7c-0.1,0-0.2,0-0.3,0c-0.3-0.1-0.7-0.1-1.1-0.1c-0.1-0.1-0.2-0.2-0.3-0.3
	c1.8-0.7,0.2-1.1-0.2-1.8c0.2-0.3,0.3-0.7,0.3-1.1c0-0.6-0.2-1.1-0.6-1.5c0.6-0.3,1.1-0.8,1.4-1.4c0,0.2,0,0.5,0,0.7
	c-0.4,0.4-0.6,0.9-0.6,1.5c0,1.1,0.9,2.1,2.1,2.1c0.3,0,0.6-0.1,0.9-0.2C71.2,330.5,71.2,331,71.2,331.5z M69.9,307
	c-0.4-0.4,0.6-0.9,2-1.3c-0.1,0.2-0.1,0.4-0.1,0.6c0,0.5,0.2,1,0.5,1.4C71.4,307.7,70.5,307.6,69.9,307z M74.3,332.5
	c0,0.1,0,0.1,0,0.2c-0.3,0.3-0.7,0.6-0.9,0.9v-0.1c0-0.4-0.1-0.8-0.4-1.2c0.6-0.3,1.2-0.9,1.8-1.3C74.6,331.5,74.3,332,74.3,332.5z
	 M75.8,305.8c0-0.2-0.1-0.4-0.2-0.6c0.2,0.1,0.5,0.1,0.7,0.1l0,0C76.2,305.5,76,305.7,75.8,305.8z M76.8,330.5c-0.1,0-0.2,0-0.3,0
	c-0.2,0-0.3,0-0.5,0.1c0.3-0.1,0.6-0.2,0.9-0.1C76.8,330.4,76.8,330.4,76.8,330.5z M112.3,339.4c-0.2,0.2-1.2-0.2-1.3,0
	c0.1-0.1-1.4,4.7-3,2.2c-0.9-1.4,2.3-1.3,3-2.2c0,0,0-0.1,0-0.2c0.9-0.1,1.7-0.6,2.2-1.4C113.2,338.4,112.9,339,112.3,339.4z
	 M115.3,271.1c-0.4,0.9-8.6-1.1-6.1-2.6C109.3,268.5,116.3,269,115.3,271.1z M115.8,337.3c-0.9-0.9,0.6-2.2,2-2.9
	c0.2,0.1,0.5,0.1,0.7,0.1c0.7,0,1.3-0.2,1.7-0.6C121.7,334.4,116.1,337.6,115.8,337.3z M130.5,340.6c0-0.7-0.4-1.3-0.8-1.7
	c0.8-1.3,1.8-2.5,2.6-1.7C134.4,339.5,131.6,339.1,130.5,340.6z M135.7,179.8c0.1,0.1,0.1,0.3,0,0.4c0,0-0.1,0-0.2,0
	C135.6,180.1,135.7,180,135.7,179.8z M136.7,338.6c-0.7,0.5-1.1,1.3-1.1,2.2c-1.6-0.6-3.3-1.5-1.2-2.7
	C135.2,337.7,136.1,337.9,136.7,338.6C136.7,338.6,136.7,338.6,136.7,338.6z M143.3,352.7c0-0.1,0-0.2,0-0.3c0-1.1-0.8-2-1.9-2.1
	c0.2-0.7,0.5-1.5,1.2-1.8c0.3-0.1,2.1-1.1,3-0.4c0.2,0.2,0.7,3.2,0.8,3.5C146.3,351.5,144.7,352.1,143.3,352.7z M162.9,181.5
	c-1,0.6-3-3-3-3.9c0-0.3,0.1-0.6,0.2-1c0.2,1,0.7,1.8,1.5,2.3c0.2,0.6,0.8,1.1,1.5,1.1c0.1,0,0.1,0,0.2,0
	C163.3,180.8,163.2,181.4,162.9,181.5z M167.7,352.8c0,0.1-0.9,0.1-1.7,0.1c0.3-0.4,0.4-0.8,0.4-1.3c0-0.6-0.2-1-0.5-1.4
	c0,0,0,0,0.1,0C166.9,350.5,168.2,351.6,167.7,352.8z M173.3,191.5c-1.5-0.1,0.3-0.3-0.9-1.7c0.1,0.2-2.6-2.7-2.2-3.5v-0.4
	c0.1,0,5.1,1.9,5.2,2.6C175.6,189,172.9,191.5,173.3,191.5z M185.9,192.8c-0.2,0.2-2.5,0.5-2.6,0.4c-0.3-0.2-0.4-0.5-0.4-0.9
	c0.3,0.1,0.7,0.2,1,0.2c0.9,0,1.7-0.4,2.3-0.9C186.3,191.9,186.2,192.3,185.9,192.8z M198.1,355.7c-0.1-0.1-0.1-0.2-0.2-0.3
	c-0.8-0.8-3.5-0.4-2.2-2.6c0.1-0.2,0.3-0.3,0.4-0.3c0.3,0.2,0.6,0.3,0.9,0.3c0.9,0.7,1.6,2.4,0.8,2.2c0.2,0.1,0.4,0.1,0.5,0.1
	C198.3,355.3,198.2,355.5,198.1,355.7z M233.6,341.4c0.7-0.1,1.4,0,2,0.2c0.1,0,0.2,0.3,0.4,0.7c-0.1,0-0.3,0-0.4,0
	c-0.9,0-1.7,0.4-2.2,1.1c-0.1-0.4-0.3-0.7-0.6-1C233.1,342.1,233.4,341.8,233.6,341.4z M229.7,147c0.1,0.3,0.1,0.6,0.2,0.8
	c-0.1-0.1-0.2-0.2-0.4-0.3C229.6,147.4,229.7,147.2,229.7,147z M225,143.7c-0.1,0.1-0.2,0.1-0.3,0.2c0-0.1-0.1-0.2-0.1-0.3
	C224.8,143.6,224.9,143.7,225,143.7z M248.3,357.8c-1.7,1.1-4.9,2.4-7.1,1.5c-0.3-0.6-0.8-1.1-1.5-1.3c-0.1-0.2-0.2-0.3-0.3-0.5
	c-0.2-0.5-0.5-1-0.9-1.5c-0.3-1.1-1.2-2-2.4-2.1c-1.4-0.9-3.2-1.7-5.2-2.5c-1.7-1-3.2-1.8-3.9-2c-1.1-0.3-2.2,0.4-2.6-0.4
	c-0.7-1.4,4-0.5,2.6-2.6c-0.5-0.7-5.2,0.2-3.5-2.6c0.8-1.3,3.6,0,3.5,0c0.1,0,0.2,0,0.2-0.1c0,0.2-0.1,0.4-0.1,0.6
	c0,1.8,1.4,3.2,3.2,3.2c1.1,0,2.1-0.6,2.7-1.5c0.4,1,1.4,1.8,2.6,1.8c1.5,0,2.8-1.2,2.8-2.8c0-0.3,0-0.6-0.1-0.9
	c0.3-0.1,0.6-0.1,0.8,0c0,0,0,0.1,0,0.2c-0.6,0.7-1,1.7-1,2.7c0,2.3,1.8,4.1,4.1,4.1c0.4,0,0.8-0.1,1.2-0.2
	c-0.1,0.5-0.3,0.8-0.6,0.8c-0.1,0-0.2,0-0.3,0c-0.1,0-0.1,0-0.2,0c-1.2-0.2-2.8-1.5-2.7-1.6c-0.8,0.4-1.5,2.2-1.3,2.6
	c0.3,0.9,1,0.3,1.5,0.7c-0.2,0.4-0.3,0.8-0.3,1.3c0,1.6,1.3,3,2.9,3c0.6,0,1.2-0.2,1.7-0.6c0.5,0,1.3-0.4,2.3-1.3
	c1.4-1.4-1.7-0.8,0.9-2.2c1.2-0.6,2.8-0.3,3.3,1C250.1,356.2,249.3,357.1,248.3,357.8z M263,141.2c0.1,0.2,0.2,0.4,0.3,0.6
	C263.2,141.5,263,141.4,263,141.2L263,141.2z M261.3,140.7c-0.1,0.1-0.2,0.3-0.3,0.4c0-0.1,0-0.3,0-0.4c0-0.2,0-0.3,0-0.5
	C261.1,140.4,261.2,140.6,261.3,140.7z M266.3,238.2c-1.5,0.8,1.4-1.3-2.6-0.9c6.1,3.1-4.3,2.1-4.8,0.4c-0.2-0.8,2.8-2.3,5-2.9
	c0.5,0.5,1.2,0.8,1.9,0.8c0.2,0,0.4,0,0.7-0.1C266.8,236.8,266,238.4,266.3,238.2z M271.5,304.4c-0.7-0.4-1.2-1.4-1.4-2.4
	c0-0.4,0-0.8,0-1.1c0.5,0.7,1.3,1.2,2.1,1.4C271.8,302.9,271.5,303.6,271.5,304.4z M274,294c0,0.2,0.1,0.5,0.2,0.6
	c-0.4,0-0.8,0-1.4,0.2c-0.3,0.1-0.6,0.4-0.8,0.8c-0.5,0.1-0.9,0.4-1.2,0.6c-0.2-0.2-0.3-0.5-0.5-1c0,0,0,0,0-0.1
	c0.6-0.5,1-1.2,1.1-2c0.4,0.2,1,0.6,1.5,0.3c0.1-0.1,0.7-1.7,0.4-1.7v-0.4c1.9-0.1,5.7,2.7,3.5,4.8c-0.2,0.2-0.5-0.3-1-0.8
	c0.6-0.1,1.1-0.7,1.1-1.4c0-0.8-0.6-1.4-1.4-1.4C274.6,292.6,274,293.3,274,294z M277.6,300.6c0,0.2-0.4,0.7-0.7,1.3
	c-0.4-0.3-0.8-0.5-1.3-0.6c0.2-0.2,0.4-0.5,0.5-0.8C276.9,300.6,277.5,300.6,277.6,300.6C277.6,300.5,277.6,300.5,277.6,300.6
	C277.6,300.5,277.6,300.5,277.6,300.6z M286.9,198.4c0.2,0.4,0.5,0.8,0.8,1.1c-0.2,0.4-0.7,0.7-1.5,0.9
	C286.7,199.9,286.9,199.2,286.9,198.4C286.9,198.5,286.9,198.4,286.9,198.4z M285.8,273.2c0.8-0.8,2.7-0.9,4.1-0.4
	c0,0.1,0,0.1,0,0.2c0,0.8,0.6,1.4,1.4,1.4c0.1,0,0.1,0,0.2,0c0,0.2,0,0.3-0.1,0.5c0.5-1.5-4.4,0.8-3.9,0.9
	C286.6,275.6,285,273.9,285.8,273.2z M281.1,136.6L281.1,136.6L281.1,136.6L281.1,136.6z M280.6,254.2c1-0.3,1.5-0.1,1.7,0.5
	c-0.8,0.6-1.6,1.2-2.3,1.8C280.3,255.4,280.6,254.2,280.6,254.2z M281,311.3c-0.1,0,0.1-1.4,0-1.7c-0.1,0.3-4.7-1.3-0.9-2.2
	C281.4,307.1,286,311.9,281,311.3z M291.8,349.4c-0.3,0.5-1,0.5-1.6,0.3c0.5-0.3,1-0.7,1.3-1.3c0.1,0.1,0.3,0.3,0.5,0.4
	C292,349,291.9,349.2,291.8,349.4z M293.6,285.8c0-0.1-2.6,0.9-3,1.3c-1.6,1.4-1.1,2.9-2.6,3.5c-0.1-3.8,1.2-3,0.4-4.3
	c-1-1.8-6.5,0.9-4.8-3c-0.2,0.5,4.5-0.3,4.3-0.4c0.3,0.1,0.5,3.9,2.2,2.2c0.7-0.8-4.6-3.7-0.9-5.6c0.7-0.4,2.3,0.3,3.9,0
	c0.7-0.2,2.2-1.8,4.3-1.4c0.1,0,0.2,0,0.4,0.1c-0.1,0-0.3-0.1-0.4-0.1c-1.2-0.2,2.2,1.9,2.5,1.9c-0.4,0.5-3.5,4.6-5.6,3
	c-0.2-0.2,0.3-1.6-0.4-1.3C290.6,282.9,294.7,283.4,293.6,285.8z M301.8,339.4c0,0,0-0.1,0-0.3c-0.3,0-1.3,1-2,1.7
	c-0.2,0-0.4,0.1-0.6,0.2c0-0.6,0.1-1.5,0-1.6c-1.2-1.3-0.9,1.8-2.5,0.1c0.2-0.4,0.2-0.8,0.2-1.2c0-1.6-1.3-3-2.9-3
	c0-0.4,0.1-0.7,0.3-1c0.3-0.2,0.5-0.4,0.8-0.6c0.1,0,0.2,0,0.2,0c0.4,0,0.8-0.1,1.1-0.2c-0.2,0.4-0.3,0.8-0.3,1.3c0,1.7,1.4,3,3,3
	c1,0,1.9-0.5,2.5-1.3c0.1,0.9,0.1,2,0.2,2.4C301.8,339.2,301.8,339.2,301.8,339.4z M300.1,194.9c0-0.1,1.6,0.1,1.7,0
	c1.2-0.5-0.6-1.4,1.3-1.7c-0.5,0.1,2.1-0.6,2.6,0.4c0.2,0.4,0.3,0.8,0.3,1.1c-1.1,0.7-2.2,1.3-3.4,1.9
	C301.2,196.6,299.9,196,300.1,194.9z M310.9,345.5c-0.4,1.4-8.3,3.3-6.5-0.5c0.1-0.2,1,0.1,1.3,0c-0.1-0.1,0.4-1.9,1.3-2.2
	c0.5-0.1,1.3-0.9,2.2-0.4C309.2,342.5,310.7,346.1,310.9,345.5L310.9,345.5z M305.7,210.1c0,0,0.1-0.2,0.3-0.4c0.1,0,0.1,0,0.2,0
	c1,0,1.8-0.8,1.8-1.8c0-0.1,0-0.2,0-0.4c0.7-0.7,1.2-1.3,1.2-1.3c-0.1,0,0.4-0.1,1.2-0.2c0.2,0.1,0.5,0.2,0.8,0.2
	c0.4,0,0.8-0.2,1.1-0.5c0.4,0,0.8,0,1.2,0c-0.1,0.3-0.1,0.7-0.1,1c0,0.5,0.1,0.9,0.2,1.3C311.2,210.1,306.7,212.4,305.7,210.1z
	 M312.4,200.4c-1.3-0.4-2.7-1.2-3-1.8c0.2-0.2,0.5-0.5,0.7-0.7c0.5,0,1.2,0,2.1,0.1c0,0,0.3-0.3,0.7-0.4c-0.3-0.4-0.2-0.6,0.6,0
	c-0.2-0.1-0.4-0.1-0.6,0c0.4,0.8,1.9,2.4,1.9,2.2c0,0.2-0.1,0.4-0.3,0.5C313.7,200.3,313,200.3,312.4,200.4z M316.1,331.6
	c-0.9,0-2.2-1.2-0.9-2.2c1.5-1.1,2.9,1.1,3.9,0c0,0,0-0.1,0.1-0.1c0.3,0.2,0.7,0.2,1,0.2c0.2,0,0.3,0,0.5,0
	C320.3,332.2,320.9,331.6,316.1,331.6z M322,325.7c-0.4-0.5-1.1-0.9-1.9-0.9c-0.1,0-0.2,0-0.3,0l0,0c0.8-0.2,1.5-0.9,1.7-1.7
	c0.2-0.1,0.4-0.1,0.6-0.1C325,322.6,323.2,324.4,322,325.7z M327,352.5c0-0.6-0.2-1.1-0.6-1.4c0.2,0,0.4,0.1,0.5,0.4
	C327.1,351.9,327.1,352.3,327,352.5z M328.2,166c-0.3,0.1-2.7,2.3-2.6,2.2c-0.5,1.1,1.2,3.6,1.3,2.6c-0.1,1.1-1.6,1.7-2.6,0.4
	c-0.3-0.3-0.6-0.6-0.9-0.7c-0.6-0.7-1.6-1.2-2.6-1.2c-1.3,0-2.4,0.7-3,1.7c0-0.4,0.1-0.7,0-0.8c-2.1-0.9,0,1.8-2.6,2.6
	c-0.2,0.1-0.6-0.4-1.1-0.5c0.2,0.2-3.8,2.9-4.1,0.9c-0.2-1.1,4.1-0.6,5.2-3.5c0.8-2.1,2.9-3.6,4.8-3c5.3,1.6,5.8-1.4,7.8-3
	c0.4-0.4,1.7,0.3,2.2,0c0.3-0.2,0.4-1.3,0.8-1.3c0,0,0,0-0.1,0c-0.1,0-0.1-0.1,0,0h0.1c0,0,0,0-0.1,0c0.5,0.2,1.6,1.2-0.4,3.5
	C330.1,166.3,328.6,165.8,328.2,166z M333.4,351.5c-0.2-0.4-0.4-0.9-1.3-0.9c-0.1,0-3,1.2-3-1.3c0-0.8,2.3-0.4,1.7,0
	c0.9-0.6-0.6-2.2,0.9-2.6c1.3-0.4,3.5,1.5,3.7,3.2C334.4,350.1,333.7,350.7,333.4,351.5z M333.8,160.8c0,1.1,0.5,2,1.3,2.6
	c-0.3,0.4-0.7,0.4-1.3-0.4c-2.2-3-0.6-3.5,0.9-4.8v-0.9v-0.4c0.3,0.1,0.5,0.6,0.7,1.2C334.4,158.6,333.8,159.6,333.8,160.8z
	 M342.9,349.4c0.4,0.3-1.7-2.5-1.7-2.6c0-0.2,0.1-0.5,0.4-0.8c0.2,1.6,1.1,2.9,2.5,3.7C343.5,349.6,343.1,349.6,342.9,349.4z
	 M342.8,333.9c-0.3-0.5-0.7-1-1.1-1.3c0.7,0.1,1.5,0.2,2.3,0.2c0.2,0.2,0.4,0.4,0.6,0.6C344,333.4,343.3,333.6,342.8,333.9z
	 M349.4,335.4c0,0.1,0,0.1,0,0.2c-0.4-0.6-0.9-1.1-1.5-1.5c0.7-0.1,1.3-0.4,1.9-0.8C349.6,334,349.4,334.7,349.4,335.4z
	 M349.8,176.3c0-0.1,0-0.2,0-0.4c0-0.1,0-0.2,0-0.3c0.2,0.1,0.4,0.1,0.6,0.2C350.2,175.9,350,176.1,349.8,176.3z M350.7,343.7
	c0-0.1-0.1-0.2-0.1-0.2c0.1,0,0.1,0,0.2,0.1C350.7,343.6,350.7,343.7,350.7,343.7z M358.6,184.7c0,0.3,0.1,0.7,0.2,1
	c-0.3,0.3-0.5,0.5-0.7,0.3c-0.2-0.3,0.3-1.7,0.9-3.2c0.1,0,0.2,0.1,0.3,0.1C358.8,183.3,358.6,184,358.6,184.7z M363.6,289.3
	c-0.8,0.9-4.5-1.1-2.6-3C361.9,285.3,364.7,288,363.6,289.3z M370.4,193c0.1,0.1,0.2,0.1,0.3,0.2C370.6,193.2,370.5,193.1,370.4,193
	z M372.7,346.8c0.1-0.1,4.1,0.3,3.9,2.2C376.3,351.8,370.7,348.6,372.7,346.8z M375.5,353.2c0,0.6,0.2,1.1,0.6,1.5
	c-0.5,0.6-1.1,0.9-1.7,0.3c0.2,0.2-0.7-1.9,0-3c0,0,1.3-0.9,2.4-0.9C376.1,351.5,375.5,352.2,375.5,353.2z M394.2,302.2
	c0.1,0,0.3,0,0.4,0c0.4,0,0.8-0.1,1.2-0.2c0.6,1.3-1,5.3-2.3,3.7C392.2,304.2,393.4,302.9,394.2,302.2z M397.9,355.5
	c-0.6,0.2-1,0.7-1.1,1.4c-0.9-0.2-2.2-1.3-2-1c-0.5-0.8,2.1-4.3-1.7-4.3c-1.8,0-2.2-0.9-0.9-1.7c0.7-0.4,1.4-0.4,2.1-0.1
	c0.4,0.5,0.9,0.8,1.5,1C397.1,351.9,398.1,354,397.9,355.5z M402.8,326.4c-0.1-0.1-0.1-0.2-0.2-0.3c-0.8-1.5-2.2-1-2.6-1.3
	c-0.2-0.2-0.4-0.4-0.7-0.7c1.3-0.1,2.4-1.1,2.7-2.4c0.1,0.3,0.2,0.9,0.6,1.8c0.2,0.6,1.1,1.1,1.9,1.5
	C403.7,325.2,403.1,325.7,402.8,326.4z M417,240.7c-0.2,0.2-0.4,0.4-0.6,0.6l0,0c-0.7-1.2-4.8-1.7-0.9-2.6c0.1,0,1.2,0.2,2.5,0.5
	C417.5,239.5,417.1,240,417,240.7z M424.1,315.4c-0.4,0.2-0.7,0.5-1,0.8c-0.4-0.5-1.1-1.3-0.7-1.8c0.8-0.9,0.7,1.4,2.2,0.4
	C424.2,315.1,424.1,315.3,424.1,315.4z M427.1,315.5c-0.4-0.2-0.8-0.4-1.2-0.4c0.3-0.3,0.2-0.7-1.2-1.2c0.5,0.1,1.8-0.3,2.2,0
	C427.1,314.2,427.2,314.8,427.1,315.5z M436.2,295c-0.2-0.5-0.3-1-0.3-1.4c0,0.3,0.4,0.6,0.9,0.8C436.5,294.5,436.3,294.7,436.2,295
	z M447.7,282.6c0.4,0.3,0.8,0.5,1.3,0.6c-0.7,0.8-0.5,2.5-2.3,2.7c-1.6,0.1,0.5-1.2-0.9-2.2C446.6,283.5,447.2,283.1,447.7,282.6z
	 M444,275.5c0.3,1,1.2,1.7,2.2,1.9c-0.6,0.4-1.2,0.7-1.7,0.2C443.7,276.7,443.7,276,444,275.5z M442.9,274.9c0.2,0,0.3,0,0.5,0
	c-0.5,0.4-1.2,0.6-1.9,0.1c-0.2-0.1-0.4-0.4-0.5-0.8C441.5,274.6,442.2,274.9,442.9,274.9z M438.9,281.5
	C438.9,281.5,438.9,281.4,438.9,281.5c0.3-0.5,0.4-1,0.4-1.6c0-0.9-0.4-1.7-1.1-2.2c1.3-0.1,3,1.1,4.7,2c-0.2,0.4-0.3,0.8-0.3,1.2
	c0,1.2,0.7,2.2,1.7,2.6c-1.2,0.1-2.6,0.4-2.9,0.2c-0.6-0.3,0.2-1.6-0.4-2.2C440.7,281.1,439.4,281.7,438.9,281.5z M441.2,295.4
	c0.5-0.2,0.9-0.6,1.2-1.1c0.9,0.6,1.3,1.5,0,2.8c-0.3,0.3-0.6,0.5-0.9,0.6c0.1-0.3,0.1-0.5,0.1-0.8
	C441.6,296.3,441.4,295.8,441.2,295.4z M441.1,304.4L441.1,304.4C441.1,304.3,441.1,304.4,441.1,304.4L441.1,304.4z M441.3,303.2
	c0.1-1,0.2-2.4-0.1-2.3c0.5-0.2,2.3-0.5,2.5-0.4c0.3,0.1,0.5,0.3,0.7,0.5c-0.1,0.1-0.2,0.1-0.3,0.2
	C442.8,301.2,441.7,302,441.3,303.2z M444.9,343.5c-1.3-0.9-3.1-1.9,0.9-1.9c0.2,0,0.3,0,0.5,0C445.6,342,445.1,342.7,444.9,343.5z
	 M450.9,347.4L450.9,347.4c-0.1-0.1-0.1-0.1-0.2-0.1C450.8,347.3,450.8,347.3,450.9,347.4z M449.3,346.2c0.2-0.2,0.4-0.3,0.5-0.5
	c0.1,0.4,0.3,0.8,0.5,1.1C450.1,346.6,449.7,346.4,449.3,346.2z M451.4,351.8c-0.3,0-0.6,0.1-0.9,0.1c-0.1-0.2-0.2-0.4-0.3-0.8
	c0.3-0.2,0.6-0.5,0.8-0.8c0,0.6,0.3,1.1,0.6,1.5C451.5,351.8,451.4,351.8,451.4,351.8z M452.8,327.7c0.1-0.1,0.1-0.2,0.2-0.3
	c0.1,0.1,0.2,0.1,0.3,0.2C453.1,327.6,453,327.7,452.8,327.7z M468,341.2c0.4,0.2,0.8,0.4,1.3,0.4c-0.1,0.1-0.2,0.1-0.2,0.2
	c-0.5,0-0.9,0-1.1-0.1C468,341.6,468,341.5,468,341.2z M455,346.6c0.8,0,1.7-0.2,3-0.3c0.5,0,0.9,0,1.3,0.1l-0.1,0.1
	c-0.1,0-0.3,0-0.4,0c-1.3,0-2.4,0.9-2.7,2.1c-0.4-0.6-1-1.1-1.7-1.2C454.6,347.1,454.8,346.9,455,346.6z M20.7,263.8
	c1.3,0,2.3-1,2.3-2.3c0-1.3-1-2.3-2.3-2.3s-2.3,1-2.3,2.3C18.4,262.8,19.4,263.8,20.7,263.8z M281.5,125.1c1.5,0,2.8-1.2,2.8-2.8
	c0-1.5-1.2-2.8-2.8-2.8c-1.5,0-2.8,1.2-2.8,2.8C278.7,123.8,280,125.1,281.5,125.1z M336.9,147.3c1.6,0,2.8-1.3,2.8-2.8
	c0-1.6-1.3-2.8-2.8-2.8c-1.6,0-2.8,1.3-2.8,2.8S335.3,147.3,336.9,147.3z M240.8,137.9c1.5,0,2.8-1.2,2.8-2.8c0-1.5-1.2-2.8-2.8-2.8
	c-1.5,0-2.8,1.2-2.8,2.8S239.2,137.9,240.8,137.9z M328.3,137.4c0.8,0,1.5-0.6,1.5-1.5c0-0.8-0.7-1.5-1.5-1.5s-1.5,0.7-1.5,1.5
	C326.9,136.7,327.5,137.4,328.3,137.4z M311.2,132.4c1.5,0,2.8-1.2,2.8-2.8s-1.2-2.8-2.8-2.8c-1.5,0-2.8,1.2-2.8,2.8
	S309.6,132.4,311.2,132.4z M221.3,138.3c1.5,0,2.8-1.3,2.8-2.8s-1.3-2.8-2.8-2.8s-2.8,1.2-2.8,2.8
	C218.5,137,219.8,138.3,221.3,138.3z M302.7,129.8c0.8,0,1.5-0.7,1.5-1.5s-0.7-1.5-1.5-1.5c-0.8,0-1.5,0.7-1.5,1.5
	C301.3,129.1,301.9,129.8,302.7,129.8z M90.2,208.1c0.9,0,1.6-0.7,1.6-1.6c0-0.9-0.7-1.6-1.6-1.6s-1.6,0.7-1.6,1.6
	C88.6,207.4,89.3,208.1,90.2,208.1z M49.4,222.7c0.9,0,1.5-0.7,1.5-1.5c0-0.9-0.7-1.5-1.5-1.5c-0.9,0-1.5,0.7-1.5,1.5
	C47.9,222,48.5,222.7,49.4,222.7z M207.1,157.2c0.8,0,1.5-0.7,1.5-1.5c0-0.8-0.7-1.5-1.5-1.5c-0.8,0-1.5,0.7-1.5,1.5
	C205.6,156.5,206.2,157.2,207.1,157.2z M67.9,285.6c-0.1-0.1-0.1-0.2-0.1-0.3C67.8,285.8,67.8,285.8,67.9,285.6z M104.6,196.2
	c0.8,0,1.4-0.6,1.4-1.4s-0.6-1.4-1.4-1.4c-0.8,0-1.4,0.6-1.4,1.4S103.8,196.2,104.6,196.2z"/>
</svg>
