<?xml version="1.0" encoding="utf-8"?>
<!-- Generator: Adobe Illustrator 13.0.0, SVG Export Plug-In . SVG Version: 6.00 Build 14948)  -->
<!DOCTYPE svg PUBLIC "-//W3C//DTD SVG 1.1//EN" "http://www.w3.org/Graphics/SVG/1.1/DTD/svg11.dtd">
<svg version="1.1" id="Layer_1" xmlns="http://www.w3.org/2000/svg" xmlns:xlink="http://www.w3.org/1999/xlink" x="0px" y="0px"
	 width="379.2px" height="455.9px" viewBox="110.4 170.9 379.2 455.9" style="enable-background:new 110.4 170.9 379.2 455.9;"
	 xml:space="preserve">
<style type="text/css">
<![CDATA[
	.st0{fill:#14376D;}
	.st1{fill:#143B72;}
	.st2{fill:#215297;}
	.st3{fill:#3476D4;}
	.st4{fill:#43570A;}
]]>
</style>
<g>
	<path class="st0" d="M418.2,532.6h-69.6v63.6l-0.6,0.6H140.4v-43.2c-10,0.1-20,0-30-0.3v58.5c0,8.4,6.6,15,15,15h228
		c3.6,0,7.2-1.2,10.2-3.6l79.2-70.8c3-3,4.8-6.6,4.8-10.8v-52.2c-9.7,4.3-19.6,8.5-29.6,12.4L418.2,532.6z"/>
	<path class="st2" d="M447.6,372.4c0-16.2-9.6-24.6-24.6-24.6c-3.6,0-6.6,0.6-7.8,0.6v50.4c1.2,0.6,4.2,0.6,6,0.6
		C436.8,399.4,447.6,391,447.6,372.4z"/>
	<path class="st2" d="M418.2,229.7v70.1h30V188.2c0-8.4-6.6-15-15-15h-7.1c-1.3,11.4-2.6,22.2-3.8,31.9
		C421.3,213.4,419.9,221.6,418.2,229.7z"/>
	<path class="st1" d="M417.6,447.4l0.4,54.4c10-3.9,19.9-8.1,29.6-12.4v-42H417.6z"/>
	<path class="st2" d="M140.4,553.6v-48.5c-9.8,3.2-19.8,6.1-30,8.8v39.4C120.4,553.5,130.4,553.6,140.4,553.6z"/>
	<path class="st2" d="M383.4,337.6l-3.6,13.8c-2.7-1.1-7.2-3.1-13.6-3.5c-3.2,4.5-6.5,9-9.9,13.4c2.3,1.5,5.7,2.9,10.4,4.5
		c13.8,4.8,19.8,12,19.8,22.8c0,12.6-9.6,24-30.6,24c-9,0-17.4-2.4-21.6-4.8l3-13.8c4.8,2.4,12,4.8,19.2,4.8c7.8,0,12-3.6,12-8.4
		c0-4.8-3.6-7.8-12.6-10.8c-3.9-1.5-7.5-3.2-10.4-5.1c-18.6,21.6-40.1,41.4-64,59.1h208.2V314.2H387.1c-3.8,7.1-7.9,14.1-12.3,20.9
		C378.1,335.8,380.9,336.7,383.4,337.6z M421.8,334c15,0,24,3,31.8,8.4c7.8,6,13.2,15.6,13.2,28.8c0,15-5.4,24.6-12.6,31.2
		c-7.8,6.6-20.4,10.2-35.4,10.2c-9,0-15.6-0.6-19.8-1.2v-75.6h-0.6C405,334.6,413.4,334,421.8,334z"/>
	<path class="st3" d="M140.4,203.2h277.8v26.5c1.7-8.1,3.1-16.3,4.1-24.6c0.7-5.6,1.1-11.2,1.5-16.8c0.5-4.6,1.2-9.6,2.1-15H125.4
		c-8.4,0-15,6.6-15,15v325.6c10.2-2.7,20.2-5.6,30-8.8V203.2z"/>
	<path class="st3" d="M308.4,358.6c0-7.2-4.8-11.4-13.8-11.4c-3.6,0-6,0-7.2,0.6v22.8c1.2,0.6,3,0.6,6,0.6
		C302.4,371.2,308.4,366.4,308.4,358.6z"/>
	<path class="st3" d="M352.2,355c0,2.6,1.2,4.5,4,6.3c3.4-4.4,6.8-8.8,9.9-13.4c-0.8-0.1-1.7-0.1-2.6-0.1
		C355.8,347.8,352.2,351.4,352.2,355z"/>
	<path class="st3" d="M243,433.6h38.4c23.9-17.7,45.4-37.5,64-59.1c-6.6-4.3-10.6-9.8-10.6-17.7c0-13.2,10.8-22.8,28.8-22.8
		c4.4,0,8,0.4,11.2,1.1c4.4-6.8,8.5-13.8,12.3-20.9H243V433.6z M270,335.8h0.6c5.4-0.6,12.6-1.8,23.4-1.8s18.6,1.8,23.4,6
		c4.8,3.6,8.4,10.2,8.4,18s-2.4,13.8-7.2,18c-6,5.4-15,7.8-25.2,7.8c-2.4,0-4.2,0-6-0.6v27.6H270V335.8z"/>
	<path class="st4" d="M426.1,173.2c0.1-0.8,0.2-1.5,0.3-2.3c-0.1,0.8-0.3,1.5-0.4,2.3H426.1z"/>
	<path class="st4" d="M422.3,205.1c1.2-9.7,2.5-20.5,3.8-31.9h-0.1c-0.9,5.4-1.6,10.4-2.1,15C423.4,193.8,423,199.5,422.3,205.1z"/>
</g>
</svg>
