<?xml version="1.0" encoding="utf-8"?>
<!-- Generator: Adobe Illustrator 13.0.0, SVG Export Plug-In . SVG Version: 6.00 Build 14948)  -->
<!DOCTYPE svg PUBLIC "-//W3C//DTD SVG 1.1//EN" "http://www.w3.org/Graphics/SVG/1.1/DTD/svg11.dtd">
<svg version="1.1" id="Capa_1" xmlns="http://www.w3.org/2000/svg" xmlns:xlink="http://www.w3.org/1999/xlink" x="0px" y="0px"
	 width="23.8px" height="34.7px" viewBox="243.6 257.8 23.8 34.7" style="enable-background:new 243.6 257.8 23.8 34.7;"
	 xml:space="preserve">
<style type="text/css">
<![CDATA[
	.st0{fill:#78A100;}
	.st1{fill:#A8D30D;}
	.st2{fill:#43570A;}
]]>
</style>
<g>
	<path class="st1" d="M248.5,268.4c0.6-3.3,3.5-5.8,7-5.8c1.5,0,2.9,0.5,4.1,1.3c0.8-0.1,1.7-0.2,2.6-0.3c0.5,0,1,0,1.5,0
		c0.8,0,1.5,0,2.2,0.1c-2.1-3.5-5.9-5.9-10.3-5.9c-6.6,0-11.9,5.3-11.9,11.9c0,0.8,0.2,1.7,0.5,2.6
		C245.4,270.9,246.9,269.6,248.5,268.4z"/>
	<path class="st0" d="M251.4,275.6c-1.8-1.3-3-3.4-3-5.8c0-0.5,0-0.9,0.1-1.3c-1.6,1.2-3.1,2.5-4.4,4c0,0,0-0.1,0-0.1
		c0,0-0.1,0.1-0.1,0.1c1,3.4,3.4,7.8,5.8,11.6c0-0.2,0-0.5,0-0.7C249.8,280.6,250.4,278,251.4,275.6z"/>
	<path class="st0" d="M262.1,263.7c-0.9,0-1.7,0.1-2.6,0.3c0.6,0.4,1.1,0.9,1.6,1.5c1.5-0.7,3.1-1.2,4.7-1.5c0,0,0,0,0,0
		c0,0,0.1,0,0.1,0c0-0.1-0.1-0.2-0.2-0.2c-0.7-0.1-1.5-0.1-2.2-0.1C263.1,263.6,262.6,263.7,262.1,263.7z"/>
	<path class="st0" d="M265.8,263.7c-0.7-0.1-1.4-0.1-2.2-0.1C264.3,263.6,265.1,263.6,265.8,263.7z"/>
	<path class="st0" d="M248.5,268.5C248.5,268.4,248.5,268.4,248.5,268.5c-1.6,1.1-3.1,2.4-4.4,3.9c0,0,0,0.1,0,0.1
		C245.4,271,246.9,269.6,248.5,268.5z"/>
	<path class="st0" d="M262.1,263.7c-0.9,0-1.7,0.1-2.6,0.3h0C260.4,263.8,261.3,263.7,262.1,263.7z"/>
	<path class="st2" d="M265.9,264c-1.7,0.3-3.2,0.8-4.7,1.5c0.9,1.2,1.4,2.7,1.4,4.3c0,3.9-3.2,7.1-7.1,7.1c-1.5,0-2.9-0.5-4-1.2
		c-1,2.4-1.6,5-1.6,7.7c0,0.3,0,0.6,0,0.9c0-0.1-0.1-0.1-0.1-0.2c0,0.1,0,0.1,0,0.2c2.9,4.6,5.6,8.3,5.6,8.3s12-16.2,12-22.8
		C267.4,267.7,266.9,265.7,265.9,264z"/>
	<path class="st2" d="M249.9,283.3c0-2.7,0.6-5.3,1.6-7.7c0,0-0.1,0-0.1-0.1c-1,2.4-1.6,5-1.6,7.8c0,0.2,0,0.5,0,0.7
		c0,0.1,0.1,0.1,0.1,0.2C249.9,284,249.9,283.6,249.9,283.3z"/>
	<path class="st2" d="M261.2,265.5C261.2,265.5,261.2,265.5,261.2,265.5c1.5-0.7,3.1-1.2,4.7-1.5c0,0,0,0,0,0
		C264.2,264.3,262.7,264.8,261.2,265.5z"/>
</g>
</svg>
