<?xml version="1.0" encoding="utf-8"?>
<!-- Generator: Adobe Illustrator 13.0.0, SVG Export Plug-In . SVG Version: 6.00 Build 14948)  -->
<!DOCTYPE svg PUBLIC "-//W3C//DTD SVG 1.1//EN" "http://www.w3.org/Graphics/SVG/1.1/DTD/svg11.dtd">
<svg version="1.1" id="Capa_1" xmlns="http://www.w3.org/2000/svg" xmlns:xlink="http://www.w3.org/1999/xlink" x="0px" y="0px"
	 width="28.9px" height="34.6px" viewBox="241.6 238.2 28.9 34.6" style="enable-background:new 241.6 238.2 28.9 34.6;"
	 xml:space="preserve">
<style type="text/css">
<![CDATA[
	.st0{fill:#ECF2B1;}
]]>
</style>
<g>
	<path class="st0" d="M263.2,253.4c0,1.5-0.8,2.3-2.2,2.2c-0.2,0-0.4,0-0.6,0v-4.2c0.2,0,0.4-0.1,0.7-0.1
		C262.3,251.4,263.2,252.1,263.2,253.4z M256.1,251.4c-0.3,0-0.5,0-0.6,0v2c0.1,0,0.3,0.1,0.5,0.1c0.8,0,1.3-0.4,1.3-1.1
		S256.8,251.4,256.1,251.4z M270.4,249v9.1h-18.8V249H270.4z M258.3,252.3c0-0.5-0.2-1-0.6-1.3s-0.9-0.5-1.7-0.5
		c-0.7,0-1.2,0.1-1.6,0.1v5.7h1v-2.2c0.1,0,0.3,0,0.5,0c0.8,0,1.4-0.2,1.8-0.6C258.2,253.3,258.3,252.9,258.3,252.3z M264.3,253.4
		c0-1-0.3-1.7-0.9-2.1c-0.5-0.5-1.3-0.7-2.4-0.7c-0.6,0-1.2,0.1-1.7,0.1v5.7c0.4,0,0.8,0.1,1.4,0.1c1.1,0,2.1-0.3,2.6-0.8
		C263.8,255.2,264.3,254.4,264.3,253.4z M266.3,253.1v-1.6h2.3v-0.9h-3.4v5.8h1.1v-2.5h2.1V253h-2.1V253.1z M264.9,265.6
		L264.9,265.6h-5.3v4.9l-0.1,0.1h-15.8v-30.2h21.2v7.4h2.3v-8.5c0-0.6-0.5-1.1-1.1-1.1h-23.5c-0.6,0-1.1,0.5-1.1,1.1v32.4
		c0,0.6,0.5,1.1,1.1,1.1h17.4c0.3,0,0.5-0.1,0.8-0.3l6.1-5.4c0.2-0.2,0.4-0.5,0.4-0.8v-7.1h-2.3v6.4H264.9z"/>
</g>
</svg>
