<?xml version="1.0" encoding="utf-8"?>
<!-- Generator: Adobe Illustrator 13.0.0, SVG Export Plug-In . SVG Version: 6.00 Build 14948)  -->
<!DOCTYPE svg PUBLIC "-//W3C//DTD SVG 1.1//EN" "http://www.w3.org/Graphics/SVG/1.1/DTD/svg11.dtd">
<svg version="1.1" id="Capa_1" xmlns="http://www.w3.org/2000/svg" xmlns:xlink="http://www.w3.org/1999/xlink" x="0px" y="0px"
	 width="29.8px" height="30.1px" viewBox="241.1 240.5 29.8 30.1" style="enable-background:new 241.1 240.5 29.8 30.1;"
	 xml:space="preserve">
<style type="text/css">
<![CDATA[
	.st0{fill:#A8D30D;}
]]>
</style>
<g>
	<path class="st0" d="M270.8,264.4l-0.2-0.5c-0.3-1-1.5-2.1-2.6-2.4l-3.9-1.1c-1.1-0.3-2.6,0.1-3.4,0.9l-1.4,1.4
		c-5.2-1.4-9.2-5.5-10.6-10.7l1.4-1.4c0.8-0.8,1.2-2.3,0.9-3.4l-1.1-3.9c-0.3-1.1-1.4-2.2-2.4-2.6l-0.4-0.1c-1.1-0.4-2.6,0-3.3,0.8
		l-2.1,2.1c-0.4,0.4-0.6,1.5-0.6,1.5c-0.1,6.8,2.6,13.3,7.4,18.1c4.8,4.8,11.3,7.4,18,7.4c0,0,1.2-0.2,1.5-0.6l2.1-2.1
		C270.8,266.9,271.1,265.4,270.8,264.4z"/>
</g>
</svg>
