<?xml version="1.0" encoding="utf-8"?>
<!-- Generator: Adobe Illustrator 13.0.0, SVG Export Plug-In . SVG Version: 6.00 Build 14948)  -->
<!DOCTYPE svg PUBLIC "-//W3C//DTD SVG 1.1//EN" "http://www.w3.org/Graphics/SVG/1.1/DTD/svg11.dtd">
<svg version="1.1" id="Capa_1" xmlns="http://www.w3.org/2000/svg" xmlns:xlink="http://www.w3.org/1999/xlink" x="0px" y="0px"
	 width="68px" height="68px" viewBox="222 221.5 68 68" style="enable-background:new 222 221.5 68 68;" xml:space="preserve">
<style type="text/css">
<![CDATA[
	.st0{fill:#FFFFFF;}
]]>
</style>
<g>
	<g>
		<path class="st0" d="M222,255.5c0-18.8,15.2-34,34-34l0,0c18.8,0,34,15.2,34,34l0,0c0,18.8-15.2,34-34,34l0,0
			C237.2,289.5,222,274.3,222,255.5L222,255.5z M225,255.5c0,17.1,13.9,31,31,31l0,0c17.1,0,31-13.9,31-31l0,0c0-17.1-13.9-31-31-31
			l0,0C238.9,224.5,225,238.4,225,255.5L225,255.5z"/>
	</g>
	<g>
		<polygon class="st0" points="271.5,252 259.5,252 259.5,240 252.5,240 252.5,252 240.5,252 240.5,259 252.5,259 252.5,271 
			259.5,271 259.5,259 271.5,259 		"/>
	</g>
</g>
</svg>
