<?xml version="1.0" encoding="utf-8"?>
<!-- Generator: Adobe Illustrator 13.0.0, SVG Export Plug-In . SVG Version: 6.00 Build 14948)  -->
<!DOCTYPE svg PUBLIC "-//W3C//DTD SVG 1.1//EN" "http://www.w3.org/Graphics/SVG/1.1/DTD/svg11.dtd">
<svg version="1.1" id="Capa_1" xmlns="http://www.w3.org/2000/svg" xmlns:xlink="http://www.w3.org/1999/xlink" x="0px" y="0px"
	 width="25.6px" height="30.1px" viewBox="243.2 240.4 25.6 30.1" style="enable-background:new 243.2 240.4 25.6 30.1;"
	 xml:space="preserve">
<style type="text/css">
<![CDATA[
	.st0{fill:#6F8900;}
	.st1{fill:#78A100;}
	.st2{fill:#A8D30D;}
	.st3{fill:#43570A;}
]]>
</style>
<g>
	<path class="st3" d="M247.1,248.6c-0.5-0.1-1-0.3-1.4-0.6c3.6-1.3,7.7-2.8,11.5-4.2c1.5-0.9,3-1.6,4.6-2.3
		c-0.1-0.7-0.3-1.2-1.2-1.1c-0.1,0-0.1,0-0.2,0c-0.8,0.2-1.5,0.5-2.2,0.8c-3.7,1.3-7,2.7-10.8,4c-1.3,0.4-3.3,0.9-3.9,1.9
		c-0.5,0.8-0.2,2.2-0.2,3.4c0,2.4,0,4.8,0,7.2c1.8-3.2,4.1-6.2,6.9-8.8C249,249,248,248.8,247.1,248.6z"/>
	<path d="M257.9,243.5c0.5-0.2,1.4-0.6,1.8-0.6c0.3,0,0.7,0.3,1,0.4c0.4,0.1,0.8,0.2,1.1,0.3c-0.1-0.7,0.1-1.5,0-2.1
		c-1.6,0.7-3.2,1.5-4.6,2.3C257.4,243.7,257.7,243.6,257.9,243.5z"/>
	<path class="st0" d="M256.8,255.3c1.3-3.9,3.4-7.5,6.1-10.7c-3.5,1.2-6.7,2.4-10.2,3.7c-0.8,0.3-1.5,0.6-2.3,0.6
		c-0.1,0-0.1,0-0.2,0c-2.8,2.6-5.2,5.6-6.9,8.8c0,2.4,0,4.7,0,7.1C246.9,260.8,251.5,257.6,256.8,255.3z"/>
	<path class="st1" d="M268.7,245c0-1.1,0-1.9-0.9-2c-0.6-0.1-1.4,0.4-2.2,0.6c-0.9,0.3-1.8,0.7-2.7,1c-2.7,3.2-4.8,6.8-6.1,10.7
		c3.7-1.6,7.7-2.7,11.9-3.3C268.7,249.7,268.7,247.3,268.7,245z"/>
	<path class="st1" d="M256.8,255.3c-5.3,2.3-9.9,5.5-13.6,9.5c0,0.3,0,0.6,0,0.9c0,0.9-0.1,1.8,0.1,2.4c0.4,1.2,1.9,1.7,3.4,2.1
		c1.2,0.3,2.5,0.4,3.8,0.3c1.2-0.1,2.3-0.4,3.3-0.8c0.6-0.2,1.2-0.5,1.9-0.7c-0.2-1.5-0.4-3.1-0.4-4.7
		C255.3,261.2,255.9,258.2,256.8,255.3z"/>
	<path class="st2" d="M265.8,265.3c0.8-0.3,2.4-0.6,2.8-1.3c0.3-0.5,0.2-1.6,0.1-2.5c0-1,0-2,0-2.7c0-2.2,0-4.4,0-6.7
		c-4.2,0.6-8.2,1.7-11.9,3.3c-1,2.9-1.5,5.9-1.5,9.1c0,1.6,0.1,3.1,0.4,4.7c2.4-0.9,4.8-1.8,7.1-2.6
		C263.7,266.1,264.8,265.7,265.8,265.3z"/>
</g>
</svg>
