<?xml version="1.0" encoding="utf-8"?>
<!-- Generator: Adobe Illustrator 13.0.0, SVG Export Plug-In . SVG Version: 6.00 Build 14948)  -->
<!DOCTYPE svg PUBLIC "-//W3C//DTD SVG 1.1//EN" "http://www.w3.org/Graphics/SVG/1.1/DTD/svg11.dtd">
<svg version="1.1" id="Capa_1" xmlns="http://www.w3.org/2000/svg" xmlns:xlink="http://www.w3.org/1999/xlink" x="0px" y="0px"
	 width="31.8px" height="31.8px" viewBox="240.1 239.6 31.8 31.8" style="enable-background:new 240.1 239.6 31.8 31.8;"
	 xml:space="preserve">
<style type="text/css">
<![CDATA[
	.st0{fill:#1E4B49;}
	.st1{fill:#2C6E6A;}
	.st2{fill:#00989D;}
	.st3{fill:#418581;}
]]>
</style>
<g>
	<path class="st2" d="M248.5,263l-8.4,8.4h5.8v-1.6h0.9v1.6h2.8v-1.6h0.9v1.6h2.8v-1.6h0.9v1.6h2.9v-1.6h0.9v1.6h2.8v-1
		C256.1,269,251.9,266.4,248.5,263z"/>
	<path d="M261.7,271.4h2.9v-0.1c-1-0.2-2-0.4-2.9-0.6V271.4z"/>
	<path d="M265.5,271.4h1.5c-0.5-0.3-1-0.6-1.5-1V271.4z"/>
	<path class="st3" d="M264.7,269.8c-1.5-1.1-2.9-2.4-4.1-3.7h-8.2l4.7-4.7c-0.9-1.5-1.7-3.1-2.3-4.7l-6.3,6.3
		c3.4,3.4,7.6,6,12.4,7.4v-0.6h0.9v0.8c1,0.3,1.9,0.5,2.9,0.6V269.8L264.7,269.8z"/>
	<path class="st1" d="M265.2,246.3l-10.4,10.4c0.6,1.6,1.4,3.2,2.3,4.7l6.2-6.2C263.4,252.1,264.1,249.1,265.2,246.3z"/>
	<path class="st1" d="M264.7,266.1h-4.1c1.2,1.4,2.6,2.6,4.1,3.7h0.8v0.6c0.5,0.3,1,0.7,1.5,1h0.1
		C266.1,269.7,265.3,267.9,264.7,266.1z"/>
	<path class="st0" d="M266.6,251.8V266h-1.9c0.6,1.9,1.4,3.6,2.4,5.3h1.3v-1.6h0.9v1.6h2.6v-2.8h-1.3v-0.9h1.3v-2.8h-1.3v-0.9h1.3
		v-2.8h-1.3v-0.9h1.3v-2.9h-1.3v-0.9h1.3v-2.8h-1.3v-0.9h1.3v-2.9h-1.3v-0.9h1.3v-2.8h-1.3v-0.9h1.3v-5.6l-6.7,6.7
		c-1.1,2.8-1.7,5.8-1.9,8.9L266.6,251.8z"/>
</g>
</svg>
