<?xml version="1.0" encoding="utf-8"?>
<!-- Generator: Adobe Illustrator 13.0.0, SVG Export Plug-In . SVG Version: 6.00 Build 14948)  -->
<!DOCTYPE svg PUBLIC "-//W3C//DTD SVG 1.1//EN" "http://www.w3.org/Graphics/SVG/1.1/DTD/svg11.dtd">
<svg version="1.1" id="Capa_1" xmlns="http://www.w3.org/2000/svg" xmlns:xlink="http://www.w3.org/1999/xlink" x="0px" y="0px"
	 width="37.5px" height="30.7px" viewBox="237.3 240.1 37.5 30.7" style="enable-background:new 237.3 240.1 37.5 30.7;"
	 xml:space="preserve">
<style type="text/css">
<![CDATA[
	.st0{fill:#9A4423;}
	.st1{fill:#6D250F;}
	.st2{fill:#422E21;}
]]>
</style>
<g>
	<path class="st0" d="M252,267.8c-4.6,0-9-1.1-13-3c0.2,0.4,0.4,0.8,0.4,1.3c0,1.2-0.9,2.1-2.1,2.2v2.5h2.4l0,0c0-1.3,1-2.3,2.3-2.3
		c1.3,0,2.3,1,2.3,2.3l0,0h2.3l0,0c0-1.3,1-2.3,2.3-2.3s2.3,1,2.3,2.3l0,0h2.4l0,0c0-1.3,1-2.3,2.3-2.3s2.3,1,2.3,2.3l0,0h2.4l0,0
		c0-1.3,1-2.3,2.3-2.3s2.3,1,2.3,2.3l0,0h2.4l0,0c0-0.4,0.1-0.7,0.3-1c-2.3-0.9-4.4-2.1-6.3-3.5C258.3,267.3,255.1,267.8,252,267.8z
		"/>
	<path class="st1" d="M269.5,268.5c1.3,0,2.3,1,2.3,2.3l0,0h2.9v-2.5c-1.2-0.1-2.1-1.1-2.1-2.3c0-1.2,0.9-2.2,2.1-2.3v-2.4
		c-1.1-0.1-2-1-2.1-2.2c-0.9,0.9-1.8,1.7-2.9,2.5v4h-7.1c-0.5,0.2-1,0.4-1.5,0.6c1.9,1.4,4.1,2.6,6.3,3.5
		C268,269,268.6,268.5,269.5,268.5z"/>
	<path class="st1" d="M268.3,264.2v-1.3c-0.7,0.5-1.4,0.9-2.1,1.3H268.3z"/>
	<path class="st2" d="M261.3,266.3c-0.3-0.2-0.5-0.4-0.7-0.6H242V264c-1.6-0.1-3.2-0.4-4.7-0.8v0.5c0.7,0.1,1.3,0.4,1.7,1
		c3.9,1.9,8.3,3,13,3C255.1,267.8,258.3,267.3,261.3,266.3z"/>
	<path class="st2" d="M255.3,260.5c-3,2-6.6,3.3-10.5,3.6h13.8C257.5,263,256.3,261.8,255.3,260.5z"/>
	<path class="st0" d="M249.3,246.5h-5.8v17.6h1.2c3.9-0.3,7.5-1.5,10.5-3.6C252.3,256.5,250.1,251.7,249.3,246.5z"/>
	<path class="st0" d="M249.3,244.9c-0.1-0.9-0.1-1.7-0.1-2.6v-0.1c-0.1,0-0.1,0-0.2,0c-1.2,0-2.1-0.9-2.2-2.1h-2.4
		c-0.1,1.2-1.1,2.1-2.2,2.1c-1.1,0-2.1-0.9-2.2-2.1h-2.4v2.8c1.2,0.1,2.1,1.1,2.1,2.2c0,1.2-0.9,2.1-2.1,2.2v2.4
		c1.2,0.1,2.1,1.1,2.1,2.2c0,1.2-0.9,2.1-2.1,2.2v2.8c1.2,0.1,2.1,1.1,2.1,2.2c0,1.2-0.9,2.1-2.1,2.2v1.9c1.5,0.4,3.1,0.7,4.7,0.8
		v-19.1H249.3z"/>
	<path class="st2" d="M261.3,266.3c0.5-0.2,1-0.4,1.5-0.6h-2.2C260.8,265.8,261,266,261.3,266.3z"/>
	<path class="st2" d="M255.3,260.5c1,1.3,2.1,2.5,3.3,3.6h7.5c0.7-0.4,1.4-0.8,2.1-1.3v-16.3h-3.8
		C263.5,252.4,260,257.3,255.3,260.5z"/>
	<path class="st2" d="M274.8,256.9v-2.4c-1.2-0.1-2.1-1.1-2.1-2.3s0.9-2.2,2.1-2.3v-2.4c-1.2-0.1-2.1-1.1-2.1-2.3s0.9-2.2,2.1-2.3
		v-2.8h-3c-0.1,1.2-1.1,2.1-2.2,2.1c-1.2,0-2.1-0.9-2.2-2.1H265c0,0.2-0.1,0.4-0.2,0.6c0,0.6,0.1,1.2,0.1,1.8c0,0.8,0,1.6-0.1,2.3
		h5.1v16.7c1-0.8,2-1.6,2.9-2.5c0,0,0,0,0-0.1C272.8,257.9,273.6,256.9,274.8,256.9z"/>
	<path class="st1" d="M249.3,244.9h15.5c0.1-0.8,0.1-1.5,0.1-2.3c0-0.6,0-1.2-0.1-1.8c-0.3,0.8-1.1,1.4-2.1,1.4
		c-1.2,0-2.1-0.9-2.2-2.1H258c-0.1,1.2-1.1,2.1-2.2,2.1c-1.2,0-2.1-0.9-2.2-2.1h-2.4c-0.1,1.1-0.9,1.9-2,2v0.1
		C249,243.2,249.1,244.1,249.3,244.9z"/>
	<path class="st1" d="M255.3,260.5c4.7-3.2,8.1-8.2,9.2-14h-15.1C250.1,251.7,252.3,256.5,255.3,260.5z"/>
</g>
</svg>
