<?xml version="1.0" encoding="utf-8"?>
<!-- Generator: Adobe Illustrator 13.0.0, SVG Export Plug-In . SVG Version: 6.00 Build 14948)  -->
<!DOCTYPE svg PUBLIC "-//W3C//DTD SVG 1.1//EN" "http://www.w3.org/Graphics/SVG/1.1/DTD/svg11.dtd">
<svg version="1.1" id="Capa_1" xmlns="http://www.w3.org/2000/svg" xmlns:xlink="http://www.w3.org/1999/xlink" x="0px" y="0px"
	 width="23.8px" height="34.7px" viewBox="244.1 238.1 23.8 34.7" style="enable-background:new 244.1 238.1 23.8 34.7;"
	 xml:space="preserve">
<style type="text/css">
<![CDATA[
	.st0{fill:#78A100;}
	.st1{fill:#A8D30D;}
	.st2{fill:#43570A;}
]]>
</style>
<g>
	<path class="st1" d="M247.9,267.1c-0.7,0-1.5,0-2.2-0.1c2.1,3.5,5.9,5.9,10.3,5.9c6.6,0,11.9-5.3,11.9-11.9c0-0.8-0.2-1.7-0.5-2.7
		C262.7,263.7,255.7,267.1,247.9,267.1z"/>
	<path class="st0" d="M267.5,258.3c-1-3.4-3.5-7.9-5.9-11.8c0,0.3,0,0.6,0,0.9c0,9.6-6.9,17.7-16.1,19.4c0,0.1,0.1,0.2,0.2,0.2
		c0.7,0.1,1.4,0.1,2.2,0.1C255.7,267.1,262.7,263.7,267.5,258.3z"/>
	<path class="st2" d="M244.1,261c0,2.1,0.5,4.1,1.5,5.8c9.1-1.7,16.1-9.7,16.1-19.4c0-0.3,0-0.6,0-0.9c-2.9-4.6-5.6-8.3-5.6-8.3
		S244.1,254.4,244.1,261z"/>
</g>
</svg>
