<?xml version="1.0" encoding="utf-8"?>
<!-- Generator: Adobe Illustrator 13.0.0, SVG Export Plug-In . SVG Version: 6.00 Build 14948)  -->
<!DOCTYPE svg PUBLIC "-//W3C//DTD SVG 1.1//EN" "http://www.w3.org/Graphics/SVG/1.1/DTD/svg11.dtd">
<svg version="1.1" id="Capa_1" xmlns="http://www.w3.org/2000/svg" xmlns:xlink="http://www.w3.org/1999/xlink" x="0px" y="0px"
	 width="27.8px" height="27.1px" viewBox="242.1 241.9 27.8 27.1" style="enable-background:new 242.1 241.9 27.8 27.1;"
	 xml:space="preserve">
<style type="text/css">
<![CDATA[
	.st0{fill:#9A4423;}
	.st1{fill:#6D250F;}
	.st2{fill:#422E21;}
]]>
</style>
<g>
	<path class="st1" d="M245.2,266.1c-1.4-1.4-2.1-3.7-0.3-5.8l12.6-14.4c0.6-0.7,1.3-1.2,2-1.5c0.5-0.8,1.1-1.5,1.6-2.2
		c-1.7,0.2-3.5,1-4.9,2.6l-12.6,14.3c-2.6,3-1.6,6.5,0.6,8.4c0.2,0.2,0.4,0.3,0.5,0.4c0.1-0.4,0.2-0.9,0.3-1.3
		C245.1,266.5,245.2,266.3,245.2,266.1z"/>
	<path class="st0" d="M263.5,244c0.7-0.3,1.5-0.7,2.2-1c-1.4-0.8-3-1.2-4.6-1c-0.6,0.7-1.1,1.5-1.6,2.2
		C260.7,243.7,262.2,243.7,263.5,244z"/>
	<path class="st2" d="M248.3,260.4c0.4,0.3,0.9,0.3,1.2-0.1l5.5-6.3c0.4-1.6,1-3,1.6-4.5l-8.4,9.6
		C247.9,259.6,247.9,260.1,248.3,260.4z"/>
	<path class="st2" d="M252.7,267l1.2-1.4c-0.1-0.9-0.1-1.7-0.1-2.6l-2.4,2.8c-1.9,2.2-4.4,1.7-6,0.4c-0.1,0-0.1-0.1-0.2-0.2
		c-0.1,0.2-0.1,0.4-0.2,0.6c-0.1,0.4-0.2,0.9-0.3,1.3C247.1,269.5,250.3,269.7,252.7,267z"/>
	<path class="st1" d="M268.1,249.2c0.2,1.5-0.4,3.1-1.6,4.5l-10.6,12.2c-0.3,0.4-0.3,0.9,0.1,1.2c0.4,0.3,0.9,0.3,1.2-0.1l10.6-12.2
		c1.6-1.8,2.3-3.9,2-5.9c-0.2-1.8-1.1-3.5-2.6-4.8c-0.5-0.4-1-0.8-1.5-1.1c-0.7,0.3-1.5,0.6-2.2,1c0.9,0.3,1.8,0.8,2.6,1.4
		C267.2,246.5,268,247.8,268.1,249.2z"/>
	<path class="st0" d="M264.1,247.5c-2.2-1.9-4.7-1.2-6,0.3l-1.5,1.7c-0.6,1.5-1.1,3-1.6,4.5l4.4-5c0.4-0.4,1.7-1.7,3.5-0.2
		c1.8,1.6,0.4,3.2,0.2,3.4l-9.3,10.8c0,0.9,0,1.7,0.1,2.6l10.6-12.2C265.9,251.9,266.1,249.3,264.1,247.5z"/>
</g>
</svg>
