<?xml version="1.0" encoding="utf-8"?>
<!-- Generator: Adobe Illustrator 13.0.0, SVG Export Plug-In . SVG Version: 6.00 Build 14948)  -->
<!DOCTYPE svg PUBLIC "-//W3C//DTD SVG 1.1//EN" "http://www.w3.org/Graphics/SVG/1.1/DTD/svg11.dtd">
<svg version="1.1" id="Layer_1" xmlns="http://www.w3.org/2000/svg" xmlns:xlink="http://www.w3.org/1999/xlink" x="0px" y="0px"
	 width="379.2px" height="453.6px" viewBox="110.4 173.2 379.2 453.6" style="enable-background:new 110.4 173.2 379.2 453.6;"
	 xml:space="preserve">
<style type="text/css">
<![CDATA[
	.st0{fill:#E77A11;}
	.st1{fill:#FBAA1D;}
	.st2{fill:#6D250F;}
	.st3{fill:#D35F00;}
]]>
</style>
<g>
	<path class="st1" d="M348.6,567.7v28.5l-0.6,0.6H140.4v-23c-10.1-1.3-20.1-2.7-30-4.4v42.5c0,8.4,6.6,15,15,15h228
		c3.6,0,7.2-1.2,10.2-3.6l76.4-68.3c-3.5-2.5-6.9-5-10.3-7.6C403.3,555.7,376.3,562.5,348.6,567.7z"/>
	<path class="st0" d="M440,554.9l2.8-2.5c3-3,4.8-6.6,4.8-10.8v-0.3c-5.9,2.1-11.9,4.1-17.9,6C433.1,549.9,436.5,552.4,440,554.9z"
		/>
	<path class="st3" d="M348.6,567.7c27.7-5.1,54.7-12,81.1-20.4c-6.4-4.8-12.7-9.7-18.9-14.7h-62.2V567.7z"/>
	<path class="st3" d="M140.4,490.2c-9.9,2.2-19.9,4-30,5.5v73.6c9.9,1.7,19.9,3.2,30,4.4V490.2z"/>
	<path class="st3" d="M281.4,433.6h29.9c-3.4-4.2-6.8-8.4-10.2-12.7C294.6,425.3,288.1,429.5,281.4,433.6z"/>
	<path class="st3" d="M447.6,541.3v-93.9h-30l0.6,85.2h-7.4c6.2,5,12.5,9.9,18.9,14.7C435.7,545.4,441.7,543.4,447.6,541.3z"/>
	<path class="st3" d="M448.2,299.8v-42.7c-7.9,14.7-16.5,29-25.9,42.7H448.2z"/>
	<path class="st3" d="M356.8,376.2c-1,0.9-2,1.9-3,2.8h3.8L356.8,376.2z"/>
	<path class="st3" d="M412.8,334.6v76.8h-17.4v-76.1c-8.1,9.7-16.6,19-25.4,28l15.2,48.7H366l-6-19.8h-21.2
		c-0.2,0.1-0.4,0.3-0.5,0.4L333,412h-18l0.4-1.3c-4.7,3.5-9.5,6.9-14.3,10.2c3.3,4.3,6.7,8.5,10.2,12.7h178.4V314.2H412
		c-5.2,7-10.5,13.8-16,20.4H412.8z"/>
	<path class="st1" d="M140.4,203.2h48c-3-9.9-5.8-19.9-8.3-30h-54.7c-8.4,0-15,6.6-15,15v307.5c10.1-1.5,20.1-3.4,30-5.5V203.2z"/>
	<path class="st1" d="M281.4,433.6c6.7-4.1,13.3-8.3,19.7-12.7c-21.6-27.8-41-57.2-58.1-88.2v100.9H281.4z"/>
	<path class="st2" d="M395.4,334.6v0.7c0.2-0.2,0.4-0.5,0.6-0.7H395.4z"/>
	<path class="st0" d="M433.2,173.2H180.1c2.6,10.1,5.3,20.1,8.3,30h229.8v96.6h4.1c9.4-13.7,18-27.9,25.9-42.7v-68.9
		C448.2,179.8,441.6,173.2,433.2,173.2z"/>
	<path class="st0" d="M352.8,362.8c-1.2-4.8-3-10.2-3.6-15c-1.2,4.8-2.4,10.2-3.6,15l-4.8,16.2h13c1-0.9,2-1.9,3-2.8L352.8,362.8z"
		/>
	<path class="st2" d="M338.3,392.6c0.2-0.1,0.4-0.3,0.5-0.4h-0.4L338.3,392.6z"/>
	<path class="st0" d="M243,332.7c17.1,31,36.5,60.5,58.1,88.2c4.8-3.3,9.6-6.7,14.3-10.2l23-75.5h22.8l8.8,28.1
		c8.8-9,17.3-18.3,25.4-28v-0.7h0.6c5.5-6.6,10.9-13.4,16-20.4H243V332.7z"/>
</g>
</svg>
