<?xml version="1.0" encoding="utf-8"?>
<!-- Generator: Adobe Illustrator 13.0.0, SVG Export Plug-In . SVG Version: 6.00 Build 14948)  -->
<!DOCTYPE svg PUBLIC "-//W3C//DTD SVG 1.1//EN" "http://www.w3.org/Graphics/SVG/1.1/DTD/svg11.dtd">
<svg version="1.1" id="Capa_1" xmlns="http://www.w3.org/2000/svg" xmlns:xlink="http://www.w3.org/1999/xlink" x="0px" y="0px"
	 width="60px" height="71.8px" viewBox="225.5 219.6 60 71.8" style="enable-background:new 225.5 219.6 60 71.8;"
	 xml:space="preserve">
<style type="text/css">
<![CDATA[
	.st0{fill:#E67F23;}
	.st1{fill:#E68117;}
	.st2{fill:#EFC413;}
	.st3{fill:#F39C11;}
	.st4{fill:#D25400;}
]]>
</style>
<g>
	<path class="st2" d="M230.2,242.1v-17.7h24.5c3.4-1.8,6.8-3.3,10.3-4.7h-37.3c-1.3,0-2.4,1-2.4,2.4v25
		C227,245.3,228.6,243.7,230.2,242.1z"/>
	<path class="st3" d="M230.2,242.1c-1.6,1.6-3.2,3.2-4.7,4.9v25c1.6-1.2,3.1-2.4,4.7-3.5V242.1z"/>
	<path class="st3" d="M254.8,224.4h15.9c1.7-1.7,3.6-3.2,5.4-4.7h-11C261.6,221,258.1,222.6,254.8,224.4z"/>
	<path class="st3" d="M246.5,259.2c1-0.5,1.9-0.9,2.9-1.3c0.9-2.6,1.9-5.1,3-7.6v-5.1h2.5c0.6-1.1,1.2-2.2,1.8-3.2h-10.2V259.2z"/>
	<path class="st1" d="M274.2,224.4v15.3h4.7V222c0-1.3-1-2.4-2.4-2.4h-0.4c-1.9,1.5-3.7,3.1-5.4,4.7H274.2z"/>
	<path class="st0" d="M265.7,247.1c-0.6,0-0.9,0-1.1,0.1v3.6c0.2,0.1,0.5,0.1,0.9,0.1c1.4,0,2.4-0.8,2.4-2
		C267.9,247.8,267.2,247.1,265.7,247.1z"/>
	<path class="st0" d="M252.4,250.3c-1.1,2.5-2.1,5-3,7.6c1-0.4,2-0.8,3-1.2V250.3z"/>
	<path class="st1" d="M259.9,245.2v2.3h-4.7v2.6h4.5v2.2h-0.1H255v2.8h1.6c1.7-0.6,3.4-1.2,5.2-1.7v-8h0.1c0.9-0.2,2-0.3,3.7-0.3
		c1.7,0,2.9,0.3,3.7,0.9c0.8,0.6,1.3,1.6,1.3,2.8c0,1-0.2,1.8-0.7,2.4c1-0.2,1.9-0.4,2.9-0.6c-0.4-0.5-0.7-1.2-0.7-2
		c0-2.1,1.7-3.6,4.6-3.6c1.4,0,2.4,0.3,3.1,0.6l-0.6,2.2c-0.5-0.2-1.3-0.6-2.6-0.6c-1.2,0-1.8,0.6-1.8,1.1c0,0.7,0.6,1.1,1.9,1.6
		c2.9-0.4,5.8-0.8,8.7-1v-7h-28.8c-0.6,1.1-1.2,2.1-1.8,3.2H259.9L259.9,245.2z"/>
	<path class="st1" d="M230.2,268.5c-1.6,1.1-3.2,2.3-4.7,3.5v17c0,1.3,1,2.4,2.4,2.4h17.6c-0.1-1.6-0.2-3.1-0.3-4.7h-14.9V268.5z"/>
	<path class="st1" d="M246.5,259.2v1.6h2c0.3-1,0.6-2,0.9-3C248.4,258.3,247.4,258.7,246.5,259.2z"/>
	<path class="st4" d="M263.9,291.4c0.6,0,1.1-0.2,1.6-0.6l12.5-11.2c0.5-0.5,0.8-1,0.8-1.7V263h-4.7l0.1,13.5h-11v10.1l-0.1,0.1
		h-17.9c0,1.6,0.1,3.2,0.3,4.7H263.9z"/>
	<path class="st4" d="M277.1,250.1c2.2,0.8,3.1,1.9,3.1,3.6c0,2-1.5,3.8-4.8,3.8c-1.4,0-2.8-0.4-3.4-0.8l0.5-2.2
		c0.8,0.4,1.9,0.8,3,0.8c1.2,0,1.9-0.6,1.9-1.3c0-0.8-0.6-1.2-2-1.7c-1.1-0.4-2-0.9-2.6-1.6c-1,0.2-1.9,0.4-2.9,0.6
		c-0.1,0.2-0.3,0.3-0.4,0.5c-0.9,0.9-2.4,1.2-4,1.2c-0.4,0-0.7,0-0.9-0.1v4.4h-2.8v-3.9c-1.7,0.5-3.5,1.1-5.2,1.7h3.4v2.3h-7.7v-0.7
		c-1,0.4-2,0.8-3,1.2c-0.3,1-0.6,2-0.9,3h37v-11.9c-3,0.2-5.9,0.6-8.7,1C276.9,250,277,250,277.1,250.1z"/>
</g>
</svg>
