<?xml version="1.0" encoding="utf-8"?>
<!-- Generator: Adobe Illustrator 13.0.0, SVG Export Plug-In . SVG Version: 6.00 Build 14948)  -->
<!DOCTYPE svg PUBLIC "-//W3C//DTD SVG 1.1//EN" "http://www.w3.org/Graphics/SVG/1.1/DTD/svg11.dtd">
<svg version="1.1" id="Layer_1" xmlns="http://www.w3.org/2000/svg" xmlns:xlink="http://www.w3.org/1999/xlink" x="0px" y="0px"
	 width="379.2px" height="453.6px" viewBox="110.4 173.2 379.2 453.6" style="enable-background:new 110.4 173.2 379.2 453.6;"
	 xml:space="preserve">
<style type="text/css">
<![CDATA[
	.st0{fill:#E67F23;}
	.st1{fill:#E68117;}
	.st2{fill:#EFC413;}
	.st3{fill:#F39C11;}
	.st4{fill:#D25400;}
]]>
</style>
<g>
	<path class="st2" d="M140.4,315.3V203.2h155.1c21.2-11.1,43-21.1,65.4-30H125.4c-8.4,0-15,6.6-15,15v158
		C120.1,335.6,130.1,325.3,140.4,315.3z"/>
	<path class="st3" d="M140.4,315.3c-10.3,10-20.3,20.3-30,30.8v158.2c9.8-7.6,19.8-14.9,30-22V315.3z"/>
	<path class="st3" d="M295.5,203.2h100.7c11-10.5,22.5-20.5,34.3-30h-69.6C338.5,182.1,316.7,192.1,295.5,203.2z"/>
	<path class="st3" d="M243,423.3c6.1-2.9,12.3-5.7,18.4-8.4c5.5-16.4,11.7-32.3,18.8-47.9v-32.4h15.9c3.7-6.9,7.5-13.7,11.5-20.4
		H243V423.3z"/>
	<path class="st1" d="M418.2,203.2v96.6h30V188.2c0-8.4-6.6-15-15-15h-2.7c-11.9,9.5-23.3,19.5-34.3,30H418.2z"/>
	<path class="st0" d="M364.8,347.2c-3.6,0-6,0-7.2,0.6v22.8c1.2,0.6,3,0.6,6,0.6c9,0,15-4.8,15-12.6
		C378.6,351.4,373.8,347.2,364.8,347.2z"/>
	<path class="st0" d="M280.2,367c-7,15.6-13.3,31.6-18.8,47.9c6.2-2.7,12.5-5.3,18.8-7.8V367z"/>
	<path class="st1" d="M327.6,334.6V349h-30v16.2h28.2V379h-0.6H297v18h10c10.8-3.8,21.6-7.4,32.6-10.7v-50.5h0.6
		c5.4-1.2,12.6-1.8,23.4-1.8c10.8,0,18.6,1.8,23.4,6c4.8,3.6,8.4,10.2,8.4,18c0,6.1-1.5,11.1-4.4,15c6.1-1.3,12.3-2.6,18.5-3.8
		c-2.8-3.4-4.4-7.4-4.4-12.4c0-13.2,10.8-22.8,28.8-22.8c9,0,15,1.8,19.8,3.6l-3.6,13.8c-3-1.2-8.4-3.6-16.2-3.6s-11.4,3.6-11.4,7.2
		c0,4.4,3.5,6.8,11.9,9.9c18.2-2.8,36.7-5,55.3-6.4v-44.3H307.7c-4,6.7-7.8,13.5-11.5,20.4H327.6z"/>
	<path class="st1" d="M140.4,482.3c-10.2,7.1-20.2,14.4-30,22v107.5c0,8.4,6.6,15,15,15h111.2c-0.9-9.9-1.5-19.9-1.8-30h-94.4V482.3
		z"/>
	<path class="st1" d="M243,423.3v10.3h12.6c1.8-6.3,3.8-12.5,5.9-18.7C255.3,417.6,249.1,420.4,243,423.3z"/>
	<path class="st4" d="M353.4,626.8c3.6,0,7.2-1.2,10.2-3.6l79.2-70.8c3-3,4.8-6.6,4.8-10.8v-94.2h-30l0.6,85.2h-69.6v63.6l-0.6,0.6
		H234.8c0.3,10.1,0.9,20.1,1.8,30H353.4z"/>
	<path class="st4" d="M436.8,365.8c13.8,4.8,19.8,12,19.8,22.8c0,12.6-9.6,24-30.6,24c-9,0-17.4-2.4-21.6-4.8l3-13.8
		c4.8,2.4,12,4.8,19.2,4.8c7.8,0,12-3.6,12-8.4c0-4.8-3.6-7.8-12.6-10.8c-7.1-2.7-12.9-6-16.6-10.4c-6.2,1.2-12.3,2.5-18.5,3.8
		c-0.8,1.1-1.7,2.1-2.8,3c-6,5.4-15,7.8-25.2,7.8c-2.4,0-4.2,0-6-0.6v27.6h-17.4v-24.5c-11,3.3-21.9,6.9-32.6,10.7h21.8v14.4h-48.6
		v-4.3c-6.3,2.5-12.5,5.1-18.8,7.8c-2.1,6.2-4,12.4-5.9,18.7h234v-75.1c-18.7,1.4-37.1,3.5-55.3,6.4
		C435.1,365.2,435.9,365.5,436.8,365.8z"/>
</g>
</svg>
