<?xml version="1.0" encoding="utf-8"?>
<!-- Generator: Adobe Illustrator 13.0.0, SVG Export Plug-In . SVG Version: 6.00 Build 14948)  -->
<!DOCTYPE svg PUBLIC "-//W3C//DTD SVG 1.1//EN" "http://www.w3.org/Graphics/SVG/1.1/DTD/svg11.dtd">
<svg version="1.1" id="Capa_1" xmlns="http://www.w3.org/2000/svg" xmlns:xlink="http://www.w3.org/1999/xlink" x="0px" y="0px"
	 width="60px" height="71.8px" viewBox="225.5 219.6 60 71.8" style="enable-background:new 225.5 219.6 60 71.8;"
	 xml:space="preserve">
<style type="text/css">
<![CDATA[
	.st0{fill:#848A73;}
	.st1{fill:#505443;}
	.st2{fill:#BABA9D;}
	.st3{fill:#606649;}
]]>
</style>
<g>
	<path class="st1" d="M225.5,289c0,1.3,1,2.4,2.4,2.4h36.1c0.6,0,1.1-0.2,1.6-0.6l12.5-11.2c0.5-0.5,0.8-1,0.8-1.7V263h-4.7
		l0.1,13.5h-11v10.1l-0.1,0.1h-32.8v-0.3c-1.6,0.6-3.1,1.1-4.7,1.6V289z"/>
	<path class="st1" d="M280.2,256.8c-0.9,0.3-2.5,0.7-4.1,0.7c-0.6,0-1.1,0-1.7-0.1c-1.1,1.2-2.2,2.3-3.4,3.4h14.4v-17.3
		c-1.7,2.5-3.4,4.9-5.3,7.2V256.8z"/>
	<path class="st1" d="M277.3,254.2c-0.3,0.3-0.6,0.7-0.9,1c0.4,0,0.8-0.1,0.9-0.2V254.2z"/>
	<path class="st3" d="M225.5,282.3v5.6c1.6-0.5,3.2-1,4.7-1.6v-8.5C228.7,279.4,227.1,280.9,225.5,282.3z"/>
	<path class="st3" d="M274.2,239.7h4.7v-12.4c-1.6,1.3-3.1,2.5-4.7,3.8V239.7z"/>
	<path class="st3" d="M265.6,249c0-1.1-0.8-1.8-2.2-1.8c-0.6,0-0.9,0-1.1,0.1v3.6c0.2,0.1,0.5,0.1,0.9,0.1
		C264.6,251,265.6,250.2,265.6,249z"/>
	<path class="st3" d="M246.5,254.6v6.3h24.6c1.2-1.1,2.3-2.3,3.4-3.4c-1.4-0.2-2.5-0.7-3.3-1.5c-1.1-1-1.7-2.7-1.7-4.5
		c0-4.1,2.9-6.4,6.9-6.4c1.6,0,2.8,0.3,3.4,0.6l-0.7,2.3c-0.7-0.3-1.5-0.6-2.8-0.6c-2.3,0-4.1,1.2-4.1,3.9c0,2.6,1.6,4,3.8,4
		c0.1,0,0.3,0,0.4,0c0.3-0.3,0.6-0.7,0.9-1v-1.7h-1.9v-2.2h4.7v0.5c1.9-2.3,3.6-4.7,5.3-7.2v-1.6h-28.9c-2,1-4.1,2-6.2,2.9
		C249.3,248.2,248,251.4,246.5,254.6z M259.4,245.3L259.4,245.3c0.9-0.2,2.1-0.3,3.8-0.3s2.9,0.3,3.7,0.9c0.8,0.6,1.3,1.6,1.3,2.8
		s-0.4,2.2-1.1,2.8c-0.9,0.9-2.4,1.2-4,1.2c-0.4,0-0.7,0-1-0.1v4.4h-2.8V245.3L259.4,245.3z M251.2,255c0.4,0.1,0.9,0.2,1.4,0.2
		c1.1,0,1.9-0.6,1.9-2.4v-7.7h2.7v7.7c0,3.4-1.6,4.7-4.3,4.7c-0.7,0-1.5-0.1-2-0.3L251.2,255z"/>
	<path class="st0" d="M230.2,277.8v-26.3c-1.6,0.4-3.1,0.7-4.7,1v29.8C227.1,280.9,228.7,279.4,230.2,277.8z"/>
	<path class="st0" d="M246.5,254.6c1.5-3.1,2.8-6.4,3.9-9.7c-1.3,0.6-2.6,1.1-3.9,1.6V254.6L246.5,254.6z"/>
	<path class="st0" d="M274.2,224.4v6.6c1.6-1.2,3.2-2.5,4.7-3.8V222c0-1.3-1-2.4-2.4-2.4h-21.7c0,1.6-0.1,3.2-0.3,4.7L274.2,224.4
		L274.2,224.4z"/>
	<path class="st0" d="M250.4,244.9c2.1-0.9,4.2-1.9,6.2-2.9h-5.3C251,242.9,250.7,243.9,250.4,244.9z"/>
	<path class="st2" d="M225.5,222v30.5c1.6-0.3,3.2-0.6,4.7-1v-27.2h24.3c0.1-1.6,0.2-3.1,0.3-4.7h-27
		C226.5,219.6,225.5,220.7,225.5,222z"/>
	<path class="st2" d="M246.5,246.5c1.3-0.5,2.6-1.1,3.9-1.6c0.3-1,0.6-1.9,0.9-2.9h-4.8V246.5z"/>
</g>
</svg>
