<?xml version="1.0" encoding="utf-8"?>
<!-- Generator: Adobe Illustrator 13.0.0, SVG Export Plug-In . SVG Version: 6.00 Build 14948)  -->
<!DOCTYPE svg PUBLIC "-//W3C//DTD SVG 1.1//EN" "http://www.w3.org/Graphics/SVG/1.1/DTD/svg11.dtd">
<svg version="1.1" id="Layer_1" xmlns="http://www.w3.org/2000/svg" xmlns:xlink="http://www.w3.org/1999/xlink" x="0px" y="0px"
	 width="379.2px" height="453.6px" viewBox="110.4 173.2 379.2 453.6" style="enable-background:new 110.4 173.2 379.2 453.6;"
	 xml:space="preserve">
<style type="text/css">
<![CDATA[
	.st0{fill:#848A73;}
	.st1{fill:#505443;}
	.st2{fill:#BABA9D;}
	.st3{fill:#606649;}
]]>
</style>
<g>
	<path class="st1" d="M110.4,611.8c0,8.4,6.6,15,15,15h228c3.6,0,7.2-1.2,10.2-3.6l79.2-70.8c3-3,4.8-6.6,4.8-10.8v-94.2h-30
		l0.6,85.2h-69.6v63.6l-0.6,0.6H140.4v-1.9c-9.9,3.5-19.9,6.8-30,9.9V611.8z"/>
	<path class="st1" d="M456,408.4c-5.4,1.8-15.6,4.2-25.8,4.2c-3.8,0-7.2-0.3-10.5-0.8c-7,7.4-14.1,14.7-21.3,21.8h91.2V324.4
		C479,340.1,467.8,355.3,456,370V408.4z"/>
	<path class="st1" d="M438,391.6c-1.9,2.2-3.8,4.4-5.7,6.5c2.6-0.2,4.8-0.6,5.7-1.1V391.6z"/>
	<path class="st3" d="M110.4,569.5v35.3c10.1-3.1,20.1-6.4,30-9.9V541C130.8,550.8,120.8,560.3,110.4,569.5z"/>
	<path class="st3" d="M418.2,299.8h30v-78.5c-9.8,8.2-19.8,16.1-30,23.8V299.8z"/>
	<path class="st3" d="M363.6,358.6c0-7.2-4.8-11.4-13.8-11.4c-3.6,0-6,0-7.2,0.6v22.8c1.2,0.6,3,0.6,6,0.6
		C357.6,371.2,363.6,366.4,363.6,358.6z"/>
	<path class="st3" d="M243,394v39.6h155.4c7.3-7.1,14.4-14.4,21.3-21.8c-8.7-1.4-15.5-4.6-20.7-9.4c-7.2-6.6-10.8-16.8-10.8-28.2
		c0-25.8,18.6-40.2,43.8-40.2c10.2,0,17.4,1.8,21.6,3.6l-4.2,14.4c-4.2-1.8-9.6-3.6-18-3.6c-14.4,0-25.8,7.8-25.8,24.6
		c0,16.2,10.2,25.2,24,25.2c0.9,0,1.8,0,2.7-0.1c1.9-2.2,3.8-4.3,5.7-6.5v-10.8h-12V367h30v3c11.8-14.7,23-29.9,33.6-45.6v-10.2
		H307.1c-12.9,6.5-26,12.7-39.4,18.5C260.7,353.8,252.4,374.2,243,394z M324.6,335.8h0.6c5.4-1.2,12.6-1.8,23.4-1.8
		c10.8,0,18.6,1.8,23.4,6c4.8,3.6,8.4,10.2,8.4,18s-2.4,13.8-7.2,18c-6,5.4-15,7.8-25.2,7.8c-2.4,0-4.2,0-6-0.6v27.6h-17.4V335.8z
		 M273,397c2.4,0.6,5.4,1.2,9,1.2c7.2,0,12-3.6,12-15v-48.6h16.8v48.6c0,21.6-10.2,29.4-27,29.4c-4.2,0-9.6-0.6-12.6-1.8L273,397z"
		/>
	<path class="st0" d="M140.4,541V374.8c-9.9,2.3-19.9,4.4-30,6.3v188.4C120.8,560.3,130.8,550.8,140.4,541z"/>
	<path class="st0" d="M243,394c9.4-19.8,17.7-40.2,24.7-61.2c-8.2,3.6-16.4,7-24.7,10.2V394z"/>
	<path class="st0" d="M418.2,203.2V245c10.2-7.7,20.2-15.6,30-23.8v-33.1c0-8.4-6.6-15-15-15H295.8c-0.3,10.1-0.8,20.1-1.6,30H418.2
		z"/>
	<path class="st0" d="M267.7,332.7c13.3-5.8,26.5-12,39.4-18.5h-33.6C271.7,320.4,269.8,326.6,267.7,332.7z"/>
	<path class="st2" d="M110.4,188.2v192.9c10.1-1.9,20.1-4,30-6.3V203.2h153.8c0.8-9.9,1.3-19.9,1.6-30H125.4
		C117,173.2,110.4,179.8,110.4,188.2z"/>
	<path class="st2" d="M243,343c8.3-3.3,16.6-6.7,24.7-10.2c2.1-6.1,4-12.3,5.8-18.5H243V343z"/>
</g>
</svg>
