<?xml version="1.0" encoding="utf-8"?>
<!-- Generator: Adobe Illustrator 13.0.0, SVG Export Plug-In . SVG Version: 6.00 Build 14948)  -->
<!DOCTYPE svg PUBLIC "-//W3C//DTD SVG 1.1//EN" "http://www.w3.org/Graphics/SVG/1.1/DTD/svg11.dtd">
<svg version="1.1" id="Layer_1" xmlns="http://www.w3.org/2000/svg" xmlns:xlink="http://www.w3.org/1999/xlink" x="0px" y="0px"
	 width="379.2px" height="453.6px" viewBox="110.4 173.2 379.2 453.6" style="enable-background:new 110.4 173.2 379.2 453.6;"
	 xml:space="preserve">
<style type="text/css">
<![CDATA[
	.st0{fill:#7A0000;}
	.st1{fill:#AB0000;}
	.st2{fill:#FF1414;}
]]>
</style>
<g>
	<path class="st2" d="M489.6,433.6V412c-4.1,7.3-8.4,14.5-12.9,21.6H489.6z"/>
	<path class="st1" d="M418.2,203.2v96.6h30V188.2c0-8.4-6.6-15-15-15H162.6c26.5,7.7,51.9,17.7,76.1,30H418.2z"/>
	<path class="st1" d="M377.8,314.2c14.4,17.3,27.5,35.8,39.2,55.2v-34.8h46.8V349h-29.4v17.4H462v14.4h-27.6v20.6
		c5.2,10.5,9.9,21.2,14.2,32.2h28.1c4.5-7.1,8.8-14.3,12.9-21.6v-97.8H377.8z"/>
	<path class="st0" d="M418.2,532.6h-27.8c-4.7,4-9.4,7.8-14.2,11.6c9.7,14.2,18.2,29.2,25.4,45l41.2-36.8c3-3,4.8-6.6,4.8-10.8V474
		c-9.3,11.5-19.2,22.5-29.6,33L418.2,532.6z"/>
	<path class="st0" d="M390.4,532.6h-22.6c2.9,3.8,5.7,7.7,8.4,11.6C381,540.4,385.7,536.6,390.4,532.6z"/>
	<path class="st0" d="M417.6,447.4L418,507c10.4-10.5,20.3-21.5,29.6-33v-26.6H417.6z"/>
	<path class="st0" d="M140.4,414V203.2h98.3c-24.2-12.3-49.6-22.3-76.1-30h-37.2c-8.4,0-15,6.6-15,15v226.2
		c5.9-0.4,11.8-0.6,17.7-0.6C132.2,413.8,136.3,413.9,140.4,414z"/>
	<path class="st0" d="M309,358.6c0-7.2-4.8-11.4-13.8-11.4c-3.6,0-6,0-7.2,0.6v22.8c1.2,0.6,3,0.6,6,0.6
		C303,371.2,309,366.4,309,358.6z"/>
	<path class="st0" d="M387,372.4c0-16.2-9.6-24.6-24.6-24.6c-3.6,0-6.6,0.6-7.8,0.6v50.4c1.2,0.6,4.2,0.6,6,0.6
		C376.2,399.4,387,391,387,372.4z"/>
	<path class="st0" d="M243,433.6h205.6c-4.3-11-9.1-21.7-14.2-32.2v10H417v-42c-11.7-19.4-24.8-37.9-39.2-55.2H243V433.6z
		 M360.6,334c15,0,24,3,31.8,8.4c7.8,6,13.2,15.6,13.2,28.8c0,15-5.4,24.6-12.6,31.2c-7.8,6.6-20.4,10.2-35.4,10.2
		c-9,0-15.6-0.6-19.8-1.2v-75.6h-0.6C343.8,334.6,352.2,334,360.6,334z M270.6,335.8h0.6c5.4-1.2,12.6-1.8,23.4-1.8s18.6,1.8,23.4,6
		c4.8,3.6,8.4,10.2,8.4,18s-2.4,13.8-7.2,18c-6,5.4-15,7.8-25.2,7.8c-2.4,0-4.2,0-6-0.6v27.6h-17.4V335.8z"/>
	<path class="st2" d="M348.6,564.1v32.1l-0.6,0.6h-58.1c-28.3,13.1-58.2,23.2-89.4,30h152.9c3.6,0,7.2-1.2,10.2-3.6l38-34
		c-7.2-15.8-15.7-30.8-25.4-45C367.3,551.2,358.1,557.8,348.6,564.1z"/>
	<path class="st1" d="M348.6,564.1c9.5-6.3,18.7-12.9,27.6-19.9c-2.7-3.9-5.5-7.8-8.4-11.6h-19.2V564.1z"/>
	<path class="st1" d="M140.4,596.8V414c-4.1-0.2-8.2-0.2-12.3-0.2c-6,0-11.9,0.2-17.7,0.6v197.4c0,8.4,6.6,15,15,15h75.1
		c31.2-6.8,61.1-16.9,89.4-30H140.4z"/>
</g>
</svg>
