<?xml version="1.0" encoding="utf-8"?>
<!-- Generator: Adobe Illustrator 13.0.0, SVG Export Plug-In . SVG Version: 6.00 Build 14948)  -->
<!DOCTYPE svg PUBLIC "-//W3C//DTD SVG 1.1//EN" "http://www.w3.org/Graphics/SVG/1.1/DTD/svg11.dtd">
<svg version="1.1" id="Capa_1" xmlns="http://www.w3.org/2000/svg" xmlns:xlink="http://www.w3.org/1999/xlink" x="0px" y="0px"
	 width="60px" height="71.8px" viewBox="225.5 219.6 60 71.8" style="enable-background:new 225.5 219.6 60 71.8;"
	 xml:space="preserve">
<style type="text/css">
<![CDATA[
	.st0{fill:#7A0000;}
	.st1{fill:#AB0000;}
	.st2{fill:#FF1414;}
]]>
</style>
<g>
	<path class="st2" d="M285.5,260.8v-3.4c-0.6,1.2-1.3,2.3-2,3.4H285.5z"/>
	<path class="st1" d="M274.2,224.4v15.3h4.7V222c0-1.3-1-2.4-2.4-2.4h-42.8c4.2,1.2,8.2,2.8,12,4.7H274.2z"/>
	<path class="st1" d="M267.8,241.9c2.3,2.7,4.4,5.7,6.2,8.7v-5.5h7.4v2.3h-4.7v2.8h4.4v2.3h-4.4v3.3c0.8,1.7,1.6,3.4,2.2,5.1h4.4
		c0.7-1.1,1.4-2.3,2-3.4v-15.5H267.8z"/>
	<path class="st0" d="M274.2,276.5h-4.4c-0.7,0.6-1.5,1.2-2.2,1.8c1.5,2.2,2.9,4.6,4,7.1l6.5-5.8c0.5-0.5,0.8-1,0.8-1.7v-10.7
		c-1.5,1.8-3,3.6-4.7,5.2L274.2,276.5z"/>
	<path class="st0" d="M269.8,276.5h-3.6c0.5,0.6,0.9,1.2,1.3,1.8C268.3,277.7,269.1,277.1,269.8,276.5z"/>
	<path class="st0" d="M274.1,263l0.1,9.4c1.6-1.7,3.2-3.4,4.7-5.2V263H274.1z"/>
	<path class="st0" d="M230.2,257.7v-33.4h15.6c-3.8-1.9-7.8-3.5-12-4.7h-5.9c-1.3,0-2.4,1-2.4,2.4v35.8c0.9-0.1,1.9-0.1,2.8-0.1
		C228.9,257.7,229.6,257.7,230.2,257.7z"/>
	<path class="st0" d="M256.9,248.9c0-1.1-0.8-1.8-2.2-1.8c-0.6,0-0.9,0-1.1,0.1v3.6c0.2,0.1,0.5,0.1,0.9,0.1
		C256,250.9,256.9,250.2,256.9,248.9z"/>
	<path class="st0" d="M269.3,251.1c0-2.6-1.5-3.9-3.9-3.9c-0.6,0-1,0.1-1.2,0.1v8c0.2,0.1,0.7,0.1,0.9,0.1
		C267.6,255.4,269.3,254.1,269.3,251.1z"/>
	<path class="st0" d="M246.5,260.8H279c-0.7-1.7-1.4-3.4-2.2-5.1v1.6H274v-6.6c-1.9-3.1-3.9-6-6.2-8.7h-21.3V260.8z M265.1,245.1
		c2.4,0,3.8,0.5,5,1.3c1.2,0.9,2.1,2.5,2.1,4.6c0,2.4-0.9,3.9-2,4.9c-1.2,1-3.2,1.6-5.6,1.6c-1.4,0-2.5-0.1-3.1-0.2v-12h-0.1
		C262.4,245.2,263.8,245.1,265.1,245.1z M250.8,245.3L250.8,245.3c0.9-0.2,2.1-0.3,3.8-0.3s2.9,0.3,3.7,0.9c0.8,0.6,1.3,1.6,1.3,2.8
		s-0.4,2.2-1.1,2.8c-1,0.9-2.4,1.2-4,1.2c-0.4,0-0.7,0-0.9-0.1v4.4h-2.8V245.3L250.8,245.3z"/>
	<path class="st2" d="M263.2,281.5v5.1l-0.1,0.1h-9.2c-4.5,2.1-9.2,3.7-14.1,4.7h24.2c0.6,0,1.1-0.2,1.6-0.6l6-5.4
		c-1.1-2.5-2.5-4.9-4-7.1C266.1,279.4,264.7,280.5,263.2,281.5z"/>
	<path class="st1" d="M263.2,281.5c1.5-1,3-2,4.4-3.1c-0.4-0.6-0.9-1.2-1.3-1.8h-3V281.5z"/>
	<path class="st1" d="M230.2,286.6v-28.9c-0.6,0-1.3,0-1.9,0c-0.9,0-1.9,0-2.8,0.1V289c0,1.3,1,2.4,2.4,2.4h11.9
		c4.9-1.1,9.7-2.7,14.1-4.7H230.2z"/>
</g>
</svg>
