<?xml version="1.0" encoding="utf-8"?>
<!-- Generator: Adobe Illustrator 13.0.0, SVG Export Plug-In . SVG Version: 6.00 Build 14948)  -->
<!DOCTYPE svg PUBLIC "-//W3C//DTD SVG 1.1//EN" "http://www.w3.org/Graphics/SVG/1.1/DTD/svg11.dtd">
<svg version="1.1" id="Layer_1" xmlns="http://www.w3.org/2000/svg" xmlns:xlink="http://www.w3.org/1999/xlink" x="0px" y="0px"
	 width="379.2px" height="453.6px" viewBox="110.4 173.2 379.2 453.6" style="enable-background:new 110.4 173.2 379.2 453.6;"
	 xml:space="preserve">
<style type="text/css">
<![CDATA[
	.st0{fill:#3B3C1F;}
	.st1{fill:#78A100;}
	.st2{fill:#A8D30D;}
	.st3{fill:#43570A;}
]]>
</style>
<g>
	<path class="st0" d="M352.9,626.3c3.6,0,7.2-1.2,10.2-3.6l79.2-70.8c3-3,4.8-6.6,4.8-10.8v-62.5c-9.7,8.8-19.6,17.5-29.6,26
		l0.2,27.6h-34.4c-11.5,8.9-23.3,17.5-35.2,25.9v37.7l-0.6,0.6h-58c-17.4,10.5-35.2,20.5-53.3,30L352.9,626.3L352.9,626.3z"/>
	<path class="st3" d="M417.7,299.2h30v-73.7c-9.9,6.5-19.9,12.9-30,19.1V299.2z"/>
	<path class="st3" d="M447.1,446.8h-30l0.4,57.6c10-8.5,19.9-17.1,29.6-26V446.8z"/>
	<path class="st3" d="M348.1,532v25.9c11.9-8.4,23.7-17,35.2-25.9H348.1z"/>
	<path class="st3" d="M109.9,611.3c0,8.4,6.6,15,15,15h111.2c18.1-9.5,35.9-19.5,53.3-30H139.9v-24.5c-9.7,11.2-19.7,22.1-30,32.7
		V611.3z"/>
	<path class="st3" d="M300.1,358.1c0-7.2-4.8-11.4-13.8-11.4c-3.6,0-6,0-7.2,0.6v22.8c1.2,0.6,3,0.6,6,0.6
		C294.1,370.6,300.1,365.8,300.1,358.1z"/>
	<path class="st3" d="M285.7,333.4c10.8,0,18.6,1.8,23.4,6c4.8,3.6,8.4,10.2,8.4,18s-2.4,13.8-7.2,18c-6,5.4-14.4,7.8-25.2,7.8
		c-2.4,0-4.2,0-6-0.6v27.6h-17.4v-30c-6,13.5-12.4,26.9-19.2,40V433h246.6V313.6H287.7c-2.2,6.7-4.6,13.3-7,19.8
		C282.3,333.4,283.9,333.4,285.7,333.4z M447.1,333.4c10.2,0,17.4,1.8,21.6,3.6l-3.6,14.4c-4.2-1.8-9.6-3.6-18-3.6
		c-14.4,0-25.8,7.8-25.8,24.6c0,16.2,10.2,25.2,24,25.2c3.6,0,7.2-0.6,8.4-1.2v-16.2h-12v-13.8h28.8v41.4h0.6
		c-5.4,1.8-15.6,4.2-25.8,4.2c-13.8,0-24-3.6-31.2-10.2c-7.2-6.6-10.8-16.8-10.8-28.2C403.3,347.8,421.9,333.4,447.1,333.4z
		 M328.3,410.8v-76.8h20.4l16.2,28.2c4.8,7.8,9,17.4,12.6,26.4c-1.2-10.2-1.2-20.4-1.2-32.4v-22.2h16.2v76.8h-18l-17.4-29.4
		c-4.8-8.4-9.6-18-13.2-27h-0.6c0.6,10.2,0.6,21,0.6,33.6v23.4h-15.6V410.8z"/>
	<path class="st1" d="M109.9,371.1v233.4c10.3-10.6,20.3-21.5,30-32.7V363.6C130,366.2,120,368.6,109.9,371.1z"/>
	<path class="st1" d="M242.5,330.6v89.7c6.8-13.1,13.2-26.5,19.2-40v-45h0.6c4.5-1,10.3-1.6,18.4-1.8c2.4-6.6,4.8-13.2,7-19.8h-3.3
		C270.6,319.6,256.6,325.2,242.5,330.6z"/>
	<path class="st1" d="M417.7,202.6v42c10.1-6.2,20.1-12.6,30-19.1v-37.9c0-8.4-6.6-15-15-15H320.8c-1.4,10.1-3,20.1-4.7,30H417.7
		L417.7,202.6z"/>
	<path class="st2" d="M109.9,187.6v183.4c10.1-2.3,20.1-4.8,30-7.5V202.6h176.2c1.8-9.9,3.3-19.9,4.7-30H124.9
		C116.5,172.6,109.9,179.2,109.9,187.6z"/>
	<path class="st2" d="M242.5,313.6v17c14.1-5.4,28.1-11,41.9-17H242.5z"/>
</g>
</svg>
