<?xml version="1.0" encoding="utf-8"?>
<!-- Generator: Adobe Illustrator 13.0.0, SVG Export Plug-In . SVG Version: 6.00 Build 14948)  -->
<!DOCTYPE svg PUBLIC "-//W3C//DTD SVG 1.1//EN" "http://www.w3.org/Graphics/SVG/1.1/DTD/svg11.dtd">
<svg version="1.1" id="Capa_1" xmlns="http://www.w3.org/2000/svg" xmlns:xlink="http://www.w3.org/1999/xlink" x="0px" y="0px"
	 width="60px" height="71.8px" viewBox="225.5 219.6 60 71.8" style="enable-background:new 225.5 219.6 60 71.8;"
	 xml:space="preserve">
<style type="text/css">
<![CDATA[
	.st0{fill:#3B3C1F;}
	.st1{fill:#78A100;}
	.st2{fill:#A8D30D;}
	.st3{fill:#43570A;}
]]>
</style>
<g>
	<path class="st0" d="M263.9,291.4c0.6,0,1.1-0.2,1.6-0.6l12.5-11.2c0.5-0.5,0.8-1,0.8-1.7V268c-1.5,1.4-3.1,2.8-4.7,4.1l0,4.4h-5.4
		c-1.8,1.4-3.7,2.8-5.6,4.1v6l-0.1,0.1h-9.2c-2.8,1.7-5.6,3.2-8.4,4.7L263.9,291.4L263.9,291.4z"/>
	<path class="st3" d="M274.2,239.6h4.7V228c-1.6,1-3.1,2-4.7,3V239.6z"/>
	<path class="st3" d="M278.9,263h-4.7l0.1,9.1c1.6-1.3,3.1-2.7,4.7-4.1V263z"/>
	<path class="st3" d="M263.2,276.5v4.1c1.9-1.3,3.8-2.7,5.6-4.1H263.2z"/>
	<path class="st3" d="M225.5,289c0,1.3,1,2.4,2.4,2.4h17.6c2.9-1.5,5.7-3.1,8.4-4.7h-23.7v-3.9c-1.5,1.8-3.1,3.5-4.7,5.2V289z"/>
	<path class="st3" d="M255.6,248.9c0-1.1-0.8-1.8-2.2-1.8c-0.6,0-0.9,0-1.1,0.1v3.6c0.2,0.1,0.5,0.1,0.9,0.1
		C254.6,250.9,255.6,250.2,255.6,248.9z"/>
	<path class="st3" d="M253.3,245c1.7,0,2.9,0.3,3.7,0.9c0.8,0.6,1.3,1.6,1.3,2.8c0,1.2-0.4,2.2-1.1,2.8c-0.9,0.9-2.3,1.2-4,1.2
		c-0.4,0-0.7,0-0.9-0.1v4.4h-2.8v-4.7c-0.9,2.1-2,4.3-3,6.3v2h39v-18.9h-31.9c-0.3,1.1-0.7,2.1-1.1,3.1C252.8,245,253,245,253.3,245
		z M278.9,245c1.6,0,2.8,0.3,3.4,0.6l-0.6,2.3c-0.7-0.3-1.5-0.6-2.8-0.6c-2.3,0-4.1,1.2-4.1,3.9c0,2.6,1.6,4,3.8,4
		c0.6,0,1.1-0.1,1.3-0.2v-2.6H278v-2.2h4.6v6.6h0.1c-0.9,0.3-2.5,0.7-4.1,0.7c-2.2,0-3.8-0.6-4.9-1.6c-1.1-1-1.7-2.7-1.7-4.5
		C271.9,247.3,274.9,245,278.9,245z M260.1,257.3v-12.2h3.2l2.6,4.5c0.8,1.2,1.4,2.8,2,4.2c-0.2-1.6-0.2-3.2-0.2-5.1v-3.5h2.6v12.2
		h-2.8l-2.8-4.7c-0.8-1.3-1.5-2.8-2.1-4.3h-0.1c0.1,1.6,0.1,3.3,0.1,5.3v3.7L260.1,257.3L260.1,257.3z"/>
	<path class="st1" d="M225.5,251v36.9c1.6-1.7,3.2-3.4,4.7-5.2v-32.9C228.7,250.2,227.1,250.6,225.5,251z"/>
	<path class="st1" d="M246.5,244.6v14.2c1.1-2.1,2.1-4.2,3-6.3v-7.1h0.1c0.7-0.2,1.6-0.3,2.9-0.3c0.4-1,0.8-2.1,1.1-3.1h-0.5
		C250.9,242.9,248.7,243.7,246.5,244.6z"/>
	<path class="st1" d="M274.2,224.3v6.6c1.6-1,3.2-2,4.7-3v-6c0-1.3-1-2.4-2.4-2.4h-17.7c-0.2,1.6-0.5,3.2-0.7,4.7H274.2L274.2,224.3
		z"/>
	<path class="st2" d="M225.5,222v29c1.6-0.4,3.2-0.8,4.7-1.2v-25.5h27.9c0.3-1.6,0.5-3.1,0.7-4.7h-31
		C226.5,219.6,225.5,220.6,225.5,222z"/>
	<path class="st2" d="M246.5,241.9v2.7c2.2-0.9,4.4-1.7,6.6-2.7H246.5z"/>
</g>
</svg>
