<?xml version="1.0" encoding="utf-8"?>
<!-- Generator: Adobe Illustrator 13.0.0, SVG Export Plug-In . SVG Version: 6.00 Build 14948)  -->
<!DOCTYPE svg PUBLIC "-//W3C//DTD SVG 1.1//EN" "http://www.w3.org/Graphics/SVG/1.1/DTD/svg11.dtd">
<svg version="1.1" id="Capa_1" xmlns="http://www.w3.org/2000/svg" xmlns:xlink="http://www.w3.org/1999/xlink" x="0px" y="0px"
	 width="53.5px" height="71.8px" viewBox="228.8 219.6 53.5 71.8" style="enable-background:new 228.8 219.6 53.5 71.8;"
	 xml:space="preserve">
<style type="text/css">
<![CDATA[
	.st0{fill:#9A4423;}
	.st1{fill:#6D250F;}
	.st2{fill:#422E21;}
]]>
</style>
<g>
	<path class="st0" d="M266.5,279.1v7.5l-0.1,0.1h-32.9v-4.9c-1.6-0.2-3.2-0.4-4.8-0.7v7.9c0,1.3,1,2.4,2.4,2.4h36.1
		c0.6,0,1.1-0.2,1.6-0.6l7.9-7c-2.8-1.6-5.5-3.4-8.1-5.4C267.9,278.6,267.2,278.8,266.5,279.1z"/>
	<path class="st1" d="M277.5,276.5h-3.6c-1.8,0.7-3.5,1.3-5.3,1.9c2.6,1.9,5.3,3.8,8.1,5.4l4.7-4.2c0.5-0.5,0.8-1,0.8-1.7v-5.2
		c-1.5,0.8-3.1,1.6-4.7,2.3L277.5,276.5z"/>
	<path class="st2" d="M266.5,279.1c0.7-0.2,1.4-0.4,2.1-0.6c-0.7-0.5-1.4-1.1-2.1-1.6V279.1z"/>
	<path class="st2" d="M253.2,274.9l-3-10.6c-2.7,1.6-5.5,3.1-8.4,4.2l-1.8,6.3H253.2z M248.3,268.3l1.1,4.1h-5.7l1.1-4.1H248.3z"/>
	<path class="st2" d="M233.5,271.2c-1.6,0.4-3.2,0.7-4.8,0.9v9c1.6,0.3,3.2,0.5,4.8,0.7V271.2z"/>
	<path class="st2" d="M266.5,276.8c0.7,0.6,1.4,1.1,2.1,1.6c1.8-0.6,3.6-1.2,5.3-1.9h-7.5V276.8z"/>
	<path class="st2" d="M277.5,224.3V263h-0.1l0.1,12c1.6-0.7,3.1-1.5,4.7-2.3V265h0.1v-43c0-1.3-1-2.4-2.4-2.4h-2.4
		c-0.1,1.6-0.3,3.2-0.5,4.8H277.5z"/>
	<path class="st0" d="M241.1,249.7v4.4h2.9v4.4h5.6c-2.1-3-3.9-6.2-5.6-9.5v0.7H241.1L241.1,249.7z"/>
	<path class="st0" d="M249,260h-4.8l-2.4,8.6c2.9-1.2,5.8-2.6,8.4-4.2L249,260z"/>
	<path class="st0" d="M233.5,224.3h2.6c-0.2-1.6-0.4-3.2-0.6-4.8h-4.4c-1.3,0-2.4,1-2.4,2.4v50.1c1.6-0.2,3.2-0.5,4.8-0.9V224.3z"/>
	<path class="st0" d="M242.3,245.5c-0.4-1-0.9-2-1.3-3v3H242.3z"/>
	<path class="st1" d="M236.1,224.3h5v4.1h2.9v4.2h-2.9v4.4h2.9v4.2h-2.9v1.3c0.4,1,0.8,2,1.3,3h1.6v3.5c1.7,3.3,3.5,6.5,5.6,9.5h1.9
		v-4.4h-2.9v-4.2h2.9v-4.4h-2.9v-4.2h2.9V237h-2.9v-4.2h2.9v-4.4h-2.9v-4.1h28.4c0.2-1.6,0.4-3.2,0.5-4.8h-42
		C235.7,221.2,235.9,222.8,236.1,224.3z"/>
</g>
</svg>
