<?xml version="1.0" encoding="utf-8"?>
<!-- Generator: Adobe Illustrator 13.0.0, SVG Export Plug-In . SVG Version: 6.00 Build 14948)  -->
<!DOCTYPE svg PUBLIC "-//W3C//DTD SVG 1.1//EN" "http://www.w3.org/Graphics/SVG/1.1/DTD/svg11.dtd">
<svg version="1.1" id="Layer_1" xmlns="http://www.w3.org/2000/svg" xmlns:xlink="http://www.w3.org/1999/xlink" x="0px" y="0px"
	 width="379.2px" height="453.6px" viewBox="110.4 173.2 379.2 453.6" style="enable-background:new 110.4 173.2 379.2 453.6;"
	 xml:space="preserve">
<style type="text/css">
<![CDATA[
	.st0{fill:#78A100;}
	.st1{fill:#A8D30D;}
	.st2{fill:#43570A;}
]]>
</style>
<g>
	<path class="st1" d="M418.2,532.6h-69.6v63.6l-0.6,0.6H140.4v-48.9c-10-0.1-20-0.4-30-0.8v64.7c0,8.4,6.6,15,15,15h228
		c3.6,0,7.2-1.2,10.2-3.6l79.2-70.8c3-3,4.8-6.6,4.8-10.8v-41.8c-9.7,3.4-19.6,6.5-29.6,9.6L418.2,532.6z"/>
	<path class="st0" d="M110.4,547.1v-27.8"/>
	<path class="st0" d="M489.6,314.2h-48c-5.1,7.3-10.4,14.5-16,21.6h7.6v12.6h-18c-2.8,3.2-5.6,6.4-8.4,9.6v6h24.6v12.6h-24.6v27.6
		h-15.6v-30c-6,6-12.2,11.8-18.6,17.4v13.1h-15.4c-12.4,10.1-25.5,19.7-39.1,28.8h171.5V314.2z"/>
	<path class="st0" d="M417.6,447.4l0.4,62c10-3,19.8-6.2,29.6-9.6v-52.4H417.6z"/>
	<path class="st0" d="M140.4,512.2c-9.9,2.6-19.9,5-30,7.2v27.8c10,0.4,20,0.7,30,0.8V512.2z"/>
	<path class="st2" d="M406.8,358c2.9-3.2,5.7-6.3,8.4-9.6h-8.4V358z"/>
	<path class="st2" d="M140.4,203.2h277.8v96.6h30V188.2c0-8.4-6.6-15-15-15H125.4c-8.4,0-15,6.6-15,15v331.1
		c10.1-2.2,20.1-4.6,30-7.2V203.2z"/>
	<path class="st2" d="M357,404.8v-69h15.6v55.9c6.4-5.7,12.6-11.5,18.6-17.4v-38.4h34.4c5.6-7.1,10.9-14.3,16-21.6H243v119.4h75.1
		c13.6-9.1,26.7-18.7,39.1-28.8H357z M343.8,348.4h-18.6v55.8h-15.6v-55.8H291v-13.2h52.8V348.4z"/>
	<path class="st2" d="M505.1,137.5c0.9-11.8,1.7-24.9,2.6-38.7c-0.9,7.1-1.5,13.7-1.9,19.7C505.7,124.8,505.5,131.2,505.1,137.5z"/>
</g>
</svg>
