<?xml version="1.0" encoding="utf-8"?>
<!-- Generator: Adobe Illustrator 13.0.0, SVG Export Plug-In . SVG Version: 6.00 Build 14948)  -->
<!DOCTYPE svg PUBLIC "-//W3C//DTD SVG 1.1//EN" "http://www.w3.org/Graphics/SVG/1.1/DTD/svg11.dtd">
<svg version="1.1" id="Layer_1" xmlns="http://www.w3.org/2000/svg" xmlns:xlink="http://www.w3.org/1999/xlink" x="0px" y="0px"
	 width="337.8px" height="453.6px" viewBox="110.4 173.2 337.8 453.6" style="enable-background:new 110.4 173.2 337.8 453.6;"
	 xml:space="preserve">
<style type="text/css">
<![CDATA[
	.st0{fill:#9A4423;}
	.st1{fill:#6D250F;}
	.st2{fill:#422E21;}
]]>
</style>
<g>
	<path class="st0" d="M348.6,548.7v47.5l-0.6,0.6H140.4v-30.9c-10.1-1.2-20.1-2.6-30-4.4v50.2c0,8.4,6.6,15,15,15h228
		c3.6,0,7.2-1.2,10.2-3.6l49.8-44.5c-17.8-10.4-35-21.7-51.4-34C357.6,546.1,353.1,547.4,348.6,548.7z"/>
	<path class="st1" d="M418.2,532.6h-22.5c-11.1,4.4-22.3,8.4-33.7,12c16.4,12.3,33.6,23.7,51.4,34l29.4-26.3c3-3,4.8-6.6,4.8-10.8
		v-32.9c-9.6,5.1-19.5,9.9-29.5,14.4L418.2,532.6z"/>
	<path class="st2" d="M348.6,548.7c4.5-1.3,9-2.6,13.4-4c-4.5-3.4-9-6.9-13.4-10.4V548.7z"/>
	<path class="st2" d="M264.6,522.5l-18.7-66.8c-16.9,10.3-34.7,19.3-53.2,26.7l-11.2,40.1H264.6z M233.8,480.5l7.2,25.7h-35.9
		l7.2-25.7H233.8z"/>
	<path class="st2" d="M140.4,498.9c-9.8,2.3-19.9,4.2-30,5.6v57c9.9,1.7,19.9,3.2,30,4.4V498.9z"/>
	<path class="st2" d="M348.6,534.3c4.4,3.5,8.9,7,13.4,10.4c11.4-3.6,22.7-7.7,33.7-12h-47.1V534.3z"/>
	<path class="st2" d="M418.2,203.2v244.2h-0.6l0.5,75.7c10-4.5,19.8-9.3,29.5-14.4v-48.9h0.6V188.2c0-8.4-6.6-15-15-15H418
		c-0.7,10.1-1.8,20.1-3.3,30H418.2z"/>
	<path class="st0" d="M188.1,363.5v27.7h18.5v27.7h35.3c-13-19.1-24.8-39.2-35.3-60v4.6H188.1z"/>
	<path class="st0" d="M238.2,428.1h-30.3l-15.2,54.3c18.6-7.5,36.4-16.4,53.2-26.7L238.2,428.1z"/>
	<path class="st0" d="M140.4,203.2h16.4c-1.5-9.9-2.8-19.9-3.7-30h-27.7c-8.4,0-15,6.6-15,15v316.3c10.1-1.5,20.2-3.3,30-5.6V203.2z
		"/>
	<path class="st0" d="M196.2,337.1c-2.8-6.3-5.5-12.8-8.1-19.2v19.2H196.2z"/>
	<path class="st1" d="M156.8,203.2h31.3v25.7h18.5v26.4h-18.5V283h18.5v26.4h-18.5v8.5c2.6,6.5,5.3,12.9,8.1,19.2h10.3v21.8
		c10.5,20.8,22.3,40.8,35.3,60h12.2v-27.7h-18.5v-26.4h18.5v-27.7h-18.5v-26.4h18.5V283h-18.5v-26.4h18.5v-27.7h-18.5v-25.7h179.1
		c1.5-9.9,2.6-19.9,3.3-30h-265C154,183.3,155.3,193.3,156.8,203.2z"/>
</g>
</svg>
