<?xml version="1.0" encoding="utf-8"?>
<!-- Generator: Adobe Illustrator 13.0.0, SVG Export Plug-In . SVG Version: 6.00 Build 14948)  -->
<!DOCTYPE svg PUBLIC "-//W3C//DTD SVG 1.1//EN" "http://www.w3.org/Graphics/SVG/1.1/DTD/svg11.dtd">
<svg version="1.1" id="Capa_1" xmlns="http://www.w3.org/2000/svg" xmlns:xlink="http://www.w3.org/1999/xlink" x="0px" y="0px"
	 width="113px" height="78.1px" viewBox="199 216.4 113 78.1" style="enable-background:new 199 216.4 113 78.1;"
	 xml:space="preserve">
<style type="text/css">
<![CDATA[
	.st0{fill:#BABA9D;}
]]>
</style>
<g>
	<path class="st0" d="M294.3,250.9c7.7,1.3,13.7,8.1,13.7,16.2c0,9.1-7.3,16.4-16.4,16.4h-23.9v4l23.9,0c11.3,0,20.4-9.1,20.4-20.4
		c0-9.5-6.5-17.5-15.3-19.8c-0.6-17.2-14.7-30.9-32.1-30.9c-12.3,0-23,6.9-28.4,17.1c-1.8-0.7-3.7-1.1-5.7-1.1
		c-8.4,0-15.3,6.5-15.8,14.8c-9,2.1-15.7,10.2-15.7,19.9c0,11.3,9.1,20.4,20.4,20.4l24.6,0v-4h-24.6c-9.1,0-16.4-7.3-16.4-16.4
		c0-8.2,6.1-15.1,14-16.2l1.8-0.3l-0.1-1.8c0-0.3,0-0.4,0-0.5c0-6.5,5.3-11.8,11.9-11.9c2.1,0,4,0.5,5.7,1.5l1.9,1l0.9-2
		c4.4-9.8,14.2-16.6,25.6-16.6c15.5,0,28,12.6,28.1,28.1c0,0.1,0,0.2,0,0.4l0,1.7L294.3,250.9"/>
	<polygon class="st0" points="255.9,250 242,269.5 250,269.5 250,294.6 261.7,294.6 261.7,269.5 269.8,269.5 	"/>
</g>
</svg>
