<svg id="Capa_1" xmlns="http://www.w3.org/2000/svg" width="1004.2" height="541.2" viewBox="-238.3 -1.7 1004.2 541.2"><style><![CDATA[
	.st0{fill:#8DA780;}
	.st1{fill:#64820F;}
	.st2{fill:#418581;}
	.st3{fill:#422E21;}
	.st4{fill:#43570A;}
]]></style><path class="st1" d="M-16.1 197.5c4.5 0 8.2-3.7 8.2-8.2 0-5.6-5.1-11.3-8.2-16.7-2.7 5.8-8.2 11.1-8.2 16.7-.1 4.5 3.6 8.2 8.2 8.2zm-1.3-6.8h.5c1.7 0 2.8-.9 3-2.5l3.1.1c.1 4-2.4 5.8-5.6 5.8-.3 0-1.2-.1-1.7-.4l.7-3zM41 306.2c0-5.6-5.1-11.3-8.2-16.7-2.7 5.8-8.2 11.1-8.2 16.7 0 4.5 3.7 8.2 8.2 8.2 4.5.1 8.2-3.6 8.2-8.2zm-10.1 4.4l.6-2.9h.5c1.7 0 2.8-.9 3-2.5l3.1.1c.1 4-2.4 5.8-5.6 5.8-.2 0-1.1-.2-1.6-.5zm-187.8 51.8c0 4.5 3.7 8.2 8.2 8.2s8.2-3.7 8.2-8.2c0-5.6-5.1-11.3-8.2-16.7-2.7 5.8-8.2 11.1-8.2 16.7zm10.5-1l3.1.1c.1 4-2.4 5.8-5.6 5.8-.3 0-1.2-.1-1.7-.4l.6-2.9h.6c1.8-.1 2.8-.9 3-2.6zm65-106.1c0-5.6-5.1-11.3-8.2-16.7-2.7 5.8-8.2 11.1-8.2 16.7 0 4.5 3.7 8.2 8.2 8.2 4.5.1 8.2-3.6 8.2-8.2zm-10.1 4.4l.6-3h.5c1.7 0 2.8-.9 3-2.5l3.1.1c.1 4-2.4 5.8-5.6 5.8-.2.1-1.1-.1-1.6-.4zm-82.1 36.5c0 4.5 3.7 8.2 8.2 8.2 4.5 0 8.2-3.7 8.2-8.2 0-5.6-5.1-11.3-8.2-16.7-2.7 5.8-8.2 11.1-8.2 16.7zm10.5-1l3.1.1c.1 4-2.4 5.8-5.6 5.8-.3 0-1.2-.1-1.7-.4l.6-3h.6c1.7 0 2.8-.9 3-2.5zM14 200.8c2.7 0 4.9-2.2 4.9-4.9 0-3.3-3.1-6.8-4.9-10-1.6 3.5-4.9 6.7-4.9 10-.1 2.7 2.2 4.9 4.9 4.9zm-.7-4.1h.3c1 0 1.7-.5 1.8-1.5l1.9.1c.1 2.4-1.4 3.5-3.4 3.5-.2 0-.7-.1-1-.3l.4-1.8zm397.9 85.1c0 4.5 3.7 8.2 8.2 8.2 4.5 0 8.2-3.7 8.2-8.2 0-5.6-5.1-11.3-8.2-16.7-2.6 5.8-8.1 11-8.2 16.7zm10.6-1.1l3.1.1c.1 4-2.4 5.8-5.6 5.8-.3 0-1.2-.1-1.7-.4l.6-3h.5c1.8.1 2.8-.8 3.1-2.5zm11.5-158.8c0 4.5 3.7 8.2 8.2 8.2s8.2-3.7 8.2-8.2c0-5.6-5.1-11.3-8.2-16.7-2.7 5.7-8.2 11-8.2 16.7zm10.6-1.1l3.1.1c.1 4-2.4 5.8-5.6 5.8-.3 0-1.2-.1-1.7-.4l.6-3h.5c1.8.1 2.8-.8 3.1-2.5zM138.5 404.1c0 4.5 3.7 8.2 8.2 8.2 4.5 0 8.2-3.7 8.2-8.2 0-5.6-5.1-11.3-8.2-16.7-2.6 5.8-8.1 11.1-8.2 16.7zm10.6-1l3.1.1c.1 4-2.4 5.8-5.6 5.8-.3 0-1.2-.1-1.7-.4l.6-3h.5c1.8 0 2.8-.9 3.1-2.5zm29.4-185.5c0 3.7 3 6.8 6.8 6.8 3.7 0 6.8-3 6.8-6.8 0-4.6-4.2-9.3-6.8-13.7-2.3 4.7-6.8 9.1-6.8 13.7zm8.7-.9l2.6.1c.1 3.2-2 4.7-4.6 4.7-.3 0-1-.1-1.4-.3l.5-2.4h.5c1.3 0 2.2-.7 2.4-2.1zm-67.2-1.5c0 3.7 3 6.8 6.8 6.8 3.7 0 6.8-3 6.8-6.8 0-4.6-4.2-9.3-6.8-13.7-2.2 4.8-6.7 9.1-6.8 13.7zm8.7-.8l2.6.1c.1 3.3-2 4.7-4.6 4.7-.3 0-1-.1-1.4-.3l.5-2.4h.5c1.4 0 2.2-.8 2.4-2.1zm14 32.4c0 3.7 3 6.8 6.8 6.8 3.7 0 6.8-3 6.8-6.8 0-4.6-4.2-9.3-6.8-13.7-2.3 4.8-6.8 9.1-6.8 13.7zm8.7-.8l2.6.1c.1 3.3-2 4.7-4.6 4.7-.3 0-1-.1-1.4-.3l.5-2.4h.5c1.3 0 2.2-.7 2.4-2.1zm-6.3 58.1c0 3.7 3 6.8 6.8 6.8 3.7 0 6.8-3 6.8-6.8 0-4.6-4.2-9.3-6.8-13.7-2.3 4.8-6.8 9.1-6.8 13.7zm8.7-.8l2.6.1c.1 3.3-2 4.7-4.6 4.7-.3 0-1-.1-1.4-.3l.5-2.4h.5c1.3 0 2.2-.8 2.4-2.1zm56.3 73.6c0 3.7 3 6.8 6.8 6.8 3.7 0 6.8-3 6.8-6.8 0-4.6-4.2-9.3-6.8-13.7-2.2 4.8-6.7 9.1-6.8 13.7zm8.7-.8l2.6.1c.1 3.3-2 4.7-4.6 4.7-.3 0-1-.1-1.4-.3l.5-2.4h.5c1.4 0 2.2-.8 2.4-2.1zm2.3-178.6c3.7 0 6.8-3 6.8-6.8 0-4.6-4.2-9.3-6.8-13.7-2.2 4.8-6.7 9.1-6.8 13.7 0 3.8 3 6.8 6.8 6.8zm-1-5.6h.5c1.4 0 2.3-.7 2.5-2.1l2.6.1c.1 3.3-2 4.7-4.6 4.7-.3 0-1-.1-1.4-.3l.4-2.4zm129.3-23.6c3.7 0 6.8-3 6.8-6.8 0-4.6-4.2-9.3-6.8-13.7-2.2 4.8-6.7 9.1-6.8 13.7 0 3.7 3 6.8 6.8 6.8zm-1-5.6h.5c1.4 0 2.3-.7 2.5-2.1l2.6.1c.1 3.3-2 4.7-4.6 4.7-.3 0-1-.1-1.4-.3l.4-2.4zm136.3 262.6c0 3.7 3 6.8 6.8 6.8 3.7 0 6.8-3 6.8-6.8 0-4.6-4.2-9.3-6.8-13.7-2.3 4.7-6.8 9.1-6.8 13.7zm8.7-.9l2.6.1c.1 3.2-2 4.7-4.6 4.7-.3 0-1-.1-1.4-.3l.5-2.4h.5c1.3 0 2.2-.7 2.4-2.1zm-150.1-60.6c0 3.7 3 6.8 6.8 6.8 3.7 0 6.8-3 6.8-6.8 0-4.6-4.2-9.3-6.8-13.7-2.3 4.8-6.8 9.1-6.8 13.7zm8.6-.8l2.6.1c.1 3.3-2 4.7-4.6 4.7-.3 0-1-.1-1.4-.3l.5-2.4h.5c1.4 0 2.2-.8 2.4-2.1zM71.7 454.2c0 4.5 3.7 8.2 8.2 8.2s8.2-3.7 8.2-8.2c0-5.6-5.1-11.3-8.2-16.7-2.7 5.8-8.2 11.1-8.2 16.7zm10.6-1l3.1.1c.1 4-2.4 5.8-5.6 5.8-.3 0-1.2-.1-1.7-.4l.6-3h.5c1.8 0 2.8-.8 3.1-2.5zM31.1 459c0 4.5 3.7 8.2 8.2 8.2 4.5 0 8.2-3.7 8.2-8.2 0-5.6-5.1-11.3-8.2-16.7-2.7 5.8-8.1 11.1-8.2 16.7zm10.6-1l3.1.1c.1 4-2.4 5.8-5.6 5.8-.3 0-1.2-.1-1.7-.4l.6-3h.5c1.8 0 2.8-.9 3.1-2.5zm-73.8 15.9c0 4.5 3.7 8.2 8.2 8.2 4.5 0 8.2-3.7 8.2-8.2 0-5.6-5.1-11.3-8.2-16.7-2.7 5.8-8.2 11.1-8.2 16.7zm10.5-1l3.1.1c.1 4-2.4 5.8-5.6 5.8-.3 0-1.2-.1-1.7-.4l.6-3h.5c1.9 0 2.9-.9 3.1-2.5zm12.7-49.1c0 4.5 3.7 8.2 8.2 8.2 4.5 0 8.2-3.7 8.2-8.2 0-5.6-5.1-11.3-8.2-16.7-2.6 5.8-8.1 11.1-8.2 16.7zm10.6-1.1l3.1.1c.1 4-2.4 5.8-5.6 5.8-.3 0-1.2-.1-1.7-.4l.6-3h.5c1.8.1 2.9-.8 3.1-2.5zm-65.4 13.6c0 4.5 3.7 8.2 8.2 8.2 4.5 0 8.2-3.7 8.2-8.2 0-5.6-5.1-11.3-8.2-16.7-2.7 5.8-8.2 11.1-8.2 16.7zm10.5-1l3.1.1c.1 4-2.4 5.8-5.6 5.8-.3 0-1.2-.1-1.7-.4l.6-3h.5c1.8 0 2.9-.8 3.1-2.5zm.5-61c0-5.6-5.1-11.3-8.2-16.7-2.7 5.8-8.2 11.1-8.2 16.7 0 4.5 3.7 8.2 8.2 8.2 4.5 0 8.2-3.7 8.2-8.2zm-10 4.4l.6-3h.5c1.7 0 2.8-.9 3-2.5l3.1.1c.1 4-2.4 5.8-5.6 5.8-.3 0-1.2-.2-1.6-.4zM-40 257.2c4.5 0 8.2-3.7 8.2-8.2 0-5.6-5.1-11.3-8.2-16.7-2.7 5.8-8.2 11.1-8.2 16.7 0 4.5 3.6 8.2 8.2 8.2zm-1.2-6.8h.5c1.7 0 2.8-.9 3-2.5l3.1.1c.1 4-2.4 5.8-5.6 5.8-.3 0-1.2-.1-1.7-.4l.7-3zm39.5 107.2c0 4.5 3.7 8.2 8.2 8.2s8.2-3.7 8.2-8.2c0-5.6-5.1-11.3-8.2-16.7-2.7 5.7-8.2 11-8.2 16.7zm10.6-1.1l3.1.1c.1 4-2.4 5.8-5.6 5.8-.3 0-1.2-.1-1.7-.4l.6-3h.5c1.8.1 2.8-.8 3.1-2.5zm-47.7-56.8c-2.7 5.8-8.2 11.1-8.2 16.7 0 4.5 3.7 8.2 8.2 8.2s8.2-3.7 8.2-8.2c0-5.6-5.1-11.3-8.2-16.7zm-.1 21.5c-.3 0-1.2-.1-1.7-.4l.6-3h.5c1.7 0 2.8-.9 3-2.5l3.1.1c.2 4-2.3 5.8-5.5 5.8zM.4 277.6c0-5.6-5.1-11.3-8.2-16.7-2.7 5.8-8.2 11.1-8.2 16.7 0 4.5 3.7 8.2 8.2 8.2 4.6 0 8.2-3.7 8.2-8.2zm-10 4.4l.6-3c.2 0 .4.1.6.1 1.7 0 2.8-.9 3-2.5l3.1.1c.1 4-2.4 5.8-5.6 5.8-.4-.1-1.2-.2-1.7-.5zm16.9-53.9c0 4.5 3.7 8.2 8.2 8.2 4.5 0 8.2-3.7 8.2-8.2 0-5.6-5.1-11.3-8.2-16.7-2.7 5.8-8.2 11-8.2 16.7zm10.5-1.1l3.1.1c.1 4-2.4 5.8-5.6 5.8-.3 0-1.2-.1-1.7-.4l.6-3h.5c1.9.1 2.9-.8 3.1-2.5zm203.7 101.3c0 4.5 3.7 8.2 8.2 8.2 4.5 0 8.2-3.7 8.2-8.2 0-5.6-5.1-11.3-8.2-16.7-2.7 5.8-8.2 11.1-8.2 16.7zm10.5-1l3.1.1c.1 4-2.4 5.8-5.6 5.8-.3 0-1.2-.1-1.7-.4l.6-3h.5c1.9 0 2.9-.9 3.1-2.5zm68.6-1.4c0-5.6-5.1-11.3-8.2-16.7-2.7 5.8-8.2 11.1-8.2 16.7 0 4.5 3.7 8.2 8.2 8.2 4.5.1 8.2-3.6 8.2-8.2zm-8.4 4.9c-.3 0-1.2-.1-1.7-.4l.6-3h.5c1.7 0 2.8-.9 3-2.5l3.1.1c.2 4-2.3 5.8-5.5 5.8zM72.2 139c4.5 0 8.2-3.7 8.2-8.2 0-5.6-5.1-11.3-8.2-16.7-2.7 5.8-8.2 11.1-8.2 16.7-.1 4.6 3.6 8.2 8.2 8.2zm-1.3-6.7h.5c1.7 0 2.8-.9 3-2.5l3.1.1c.1 4-2.4 5.8-5.6 5.8-.3 0-1.2-.1-1.7-.4l.7-3zm53.1 4.5c0-5.6-5.1-11.3-8.2-16.7-2.7 5.8-8.2 11.1-8.2 16.7 0 4.5 3.7 8.2 8.2 8.2 4.5 0 8.2-3.7 8.2-8.2zm-8.4 4.8c-.3 0-1.2-.1-1.7-.4l.6-2.9h.5c1.7 0 2.8-.9 3-2.5l3.1.1c.2 3.9-2.3 5.7-5.5 5.7zm70.1-35.3c0 4.5 3.7 8.2 8.2 8.2 4.5 0 8.2-3.7 8.2-8.2 0-5.6-5.1-11.3-8.2-16.7-2.7 5.8-8.2 11.1-8.2 16.7zm10.5-1l3.1.1c.1 4-2.4 5.8-5.6 5.8-.3 0-1.2-.1-1.7-.4l.6-3h.5c1.9 0 2.9-.8 3.1-2.5zM149.7 176c4.5 0 8.2-3.7 8.2-8.2 0-5.6-5.1-11.3-8.2-16.7-2.7 5.8-8.2 11.1-8.2 16.7 0 4.5 3.7 8.2 8.2 8.2zm-1.2-6.7h.5c1.7 0 2.8-.9 3-2.5l3.1.1c.1 4-2.4 5.8-5.6 5.8-.3 0-1.2-.1-1.7-.4l.7-3zM354.3 271c0-5.6-5.1-11.3-8.2-16.7-2.7 5.8-8.2 11.1-8.2 16.7 0 4.5 3.7 8.2 8.2 8.2 4.5.1 8.2-3.6 8.2-8.2zm-10.1 4.4l.6-3h.5c1.7 0 2.8-.9 3-2.5l3.1.1c.1 4-2.4 5.8-5.6 5.8-.2.1-1.1-.1-1.6-.4zm-53-240.5c4.5 0 8.2-3.7 8.2-8.2 0-5.6-5.1-11.3-8.2-16.7-2.7 5.8-8.2 11.1-8.2 16.7-.1 4.5 3.6 8.2 8.2 8.2zm-1.3-6.8h.5c1.7 0 2.8-.9 3-2.5l3.1.1c.1 4-2.4 5.8-5.6 5.8-.3 0-1.2-.1-1.7-.4l.7-3zm76.4-3.8c-2.7 5.8-8.2 11.1-8.2 16.7 0 4.5 3.7 8.2 8.2 8.2 4.5 0 8.2-3.7 8.2-8.2.1-5.6-5-11.3-8.2-16.7zm-.1 21.5c-.3 0-1.2-.1-1.7-.4l.6-3h.5c1.7 0 2.8-.9 3-2.5l3.1.1c.2 4-2.3 5.8-5.5 5.8zm68 5c0 4.5 3.7 8.2 8.2 8.2 4.5 0 8.2-3.7 8.2-8.2 0-5.6-5.1-11.3-8.2-16.7-2.7 5.8-8.2 11.1-8.2 16.7zm10.6-1l3.1.1c.1 4-2.4 5.8-5.6 5.8-.3 0-1.2-.1-1.7-.4l.6-3h.5c1.8.1 2.8-.8 3.1-2.5zm220.6 342.1c0-5.6-5.1-11.3-8.2-16.7-2.7 5.8-8.2 11.1-8.2 16.7 0 4.5 3.7 8.2 8.2 8.2s8.2-3.7 8.2-8.2zm-10 4.4l.6-3h.5c1.7 0 2.8-.9 3-2.5l3.1.1c.1 4-2.4 5.8-5.6 5.8-.2 0-1.1-.2-1.6-.4zm-47.6 64.5c0 4.5 3.7 8.2 8.2 8.2 4.5 0 8.2-3.7 8.2-8.2 0-5.6-5.1-11.3-8.2-16.7-2.7 5.8-8.1 11-8.2 16.7zm10.6-1.1l3.1.1c.1 4-2.4 5.8-5.6 5.8-.3 0-1.2-.1-1.7-.4l.6-2.9h.5c1.8 0 2.8-.9 3.1-2.6zm36.9-24.9c0 4.5 3.7 8.2 8.2 8.2 4.5 0 8.2-3.7 8.2-8.2 0-5.6-5.1-11.3-8.2-16.7-2.7 5.8-8.2 11.1-8.2 16.7zm10.5-1l3.1.1c.1 4-2.4 5.8-5.6 5.8-.3 0-1.2-.1-1.7-.4l.6-3h.5c1.9 0 2.9-.9 3.1-2.5zm30.6 5.5c0 4.5 3.7 8.2 8.2 8.2 4.5 0 8.2-3.7 8.2-8.2 0-5.6-5.1-11.3-8.2-16.7-2.6 5.8-8.1 11.1-8.2 16.7zm10.6-1.1l3.1.1c.1 4-2.4 5.8-5.6 5.8-.3 0-1.2-.1-1.7-.4l.6-2.9h.5c1.8 0 2.8-.9 3.1-2.6zm-829.5-48.1c0 4.5 3.7 8.2 8.2 8.2 4.5 0 8.2-3.7 8.2-8.2 0-5.6-5.1-11.3-8.2-16.7-2.7 5.8-8.2 11-8.2 16.7zm10.6-1.1l3.1.1c.1 4-2.4 5.8-5.6 5.8-.3 0-1.2-.1-1.7-.4l.6-3h.6c1.7.1 2.7-.8 3-2.5zM327.4 71.1c0-5.6-5.1-11.3-8.2-16.7-2.7 5.8-8.2 11.1-8.2 16.7 0 4.5 3.7 8.2 8.2 8.2 4.6.1 8.2-3.6 8.2-8.2zm-8.3 4.9c-.3 0-1.2-.1-1.7-.4l.6-3h.5c1.7 0 2.8-.9 3-2.5l3.1.1c.2 4-2.3 5.8-5.5 5.8zm-61.4-5.6c4.5 0 8.2-3.7 8.2-8.2 0-5.6-5.1-11.3-8.2-16.7-2.7 5.8-8.2 11.1-8.2 16.7 0 4.5 3.7 8.2 8.2 8.2zm-1.2-6.8h.5c1.7 0 2.8-.9 3-2.5l3.1.1c.1 4-2.4 5.8-5.6 5.8-.3 0-1.2-.1-1.7-.4l.7-3zM90.8 82.5c0 4.5 3.7 8.2 8.2 8.2 4.5 0 8.2-3.7 8.2-8.2 0-5.6-5.1-11.3-8.2-16.7-2.7 5.8-8.2 11-8.2 16.7zm10.6-1.1l3.1.1c.1 4-2.4 5.8-5.6 5.8-.3 0-1.2-.1-1.7-.4l.6-3h.5c1.8.1 2.8-.8 3.1-2.5zm47.6 3.5c0-5.6-5.1-11.3-8.2-16.7-2.7 5.8-8.2 11.1-8.2 16.7 0 4.5 3.7 8.2 8.2 8.2 4.5 0 8.2-3.7 8.2-8.2zm-10.1 4.4l.6-3h.5c1.7 0 2.8-.9 3-2.5l3.1.1c.1 4-2.4 5.8-5.6 5.8-.2 0-1.1-.2-1.6-.4zm-67.2 95.8c0 4.5 3.7 8.2 8.2 8.2s8.2-3.7 8.2-8.2c0-5.6-5.1-11.3-8.2-16.7-2.7 5.8-8.2 11.1-8.2 16.7zm10.6-1l3.1.1c.1 4-2.4 5.8-5.6 5.8-.3 0-1.2-.1-1.7-.4l.6-3h.5c1.8 0 2.8-.9 3.1-2.5zm-.1 73.8c0-5.6-5.1-11.3-8.2-16.7-2.7 5.8-8.2 11.1-8.2 16.7 0 4.5 3.7 8.2 8.2 8.2 4.5 0 8.2-3.7 8.2-8.2zm-10.1 4.4l.6-3h.5c1.7 0 2.8-.9 3-2.5l3.1.1c.1 4-2.4 5.8-5.6 5.8-.2 0-1.1-.1-1.6-.4zM30.4 126.4c3.6 0 6.4-2.9 6.4-6.4 0-4.4-4-8.8-6.4-13.1-2.1 4.5-6.4 8.7-6.4 13.1 0 3.6 2.8 6.4 6.4 6.4zm-1-5.2h.4c1.4 0 2.2-.7 2.4-2l2.5.1c.1 3.1-1.9 4.5-4.4 4.5-.3 0-1-.1-1.3-.3l.4-2.3zm-267.7 170.7c0 3.6 2.9 6.4 6.4 6.4s6.4-2.9 6.4-6.4c0-4.4-4-8.8-6.4-13.1-2.1 4.5-6.3 8.7-6.4 13.1zm8.3-.9l2.5.1c.1 3.1-1.9 4.5-4.4 4.5-.3 0-1-.1-1.3-.3l.5-2.3h.4c1.3 0 2.1-.7 2.3-2zm527.8 97.5c0 3.6 2.9 6.4 6.4 6.4 3.6 0 6.4-2.9 6.4-6.4 0-4.4-4-8.8-6.4-13.1-2 4.6-6.3 8.7-6.4 13.1zm8.3-.8l2.5.1c.1 3.1-1.9 4.5-4.4 4.5-.3 0-1-.1-1.3-.3l.5-2.3h.4c1.3 0 2.1-.7 2.3-2zm-499.7-13.3c0 4.5 3.7 8.2 8.2 8.2s8.2-3.7 8.2-8.2c0-5.6-5.1-11.3-8.2-16.7-2.7 5.8-8.2 11-8.2 16.7zm10.5-1.1l3.1.1c.1 4-2.4 5.8-5.6 5.8-.3 0-1.2-.1-1.7-.4l.6-3h.5c1.9.1 2.9-.8 3.1-2.5zm-5.4-56.8c0-5.6-5.1-11.3-8.2-16.7-2.7 5.8-8.2 11.1-8.2 16.7 0 4.5 3.7 8.2 8.2 8.2 4.5 0 8.2-3.7 8.2-8.2zm-8.4 4.8c-.3 0-1.2-.1-1.7-.4l.6-3h.5c1.7 0 2.8-.9 3-2.5l3.1.1c.2 4-2.3 5.8-5.5 5.8zm44.6-109.6c4.5 0 8.2-3.7 8.2-8.2 0-5.6-5.1-11.3-8.2-16.7-2.7 5.8-8.2 11.1-8.2 16.7 0 4.5 3.7 8.2 8.2 8.2zm-1.2-6.8h.5c1.7 0 2.8-.9 3-2.5l3.1.1c.1 4-2.4 5.8-5.6 5.8-.3 0-1.2-.1-1.7-.4l.7-3zM-163 251c4.5 0 8.2-3.7 8.2-8.2 0-5.6-5.1-11.3-8.2-16.7-2.7 5.8-8.2 11.1-8.2 16.7-.1 4.6 3.6 8.2 8.2 8.2zm-1.3-6.7h.5c1.7 0 2.8-.9 3-2.5l3.1.1c.1 4-2.4 5.8-5.6 5.8-.3 0-1.2-.1-1.7-.4l.7-3zm71.8 44.2c0 4.5 3.7 8.2 8.2 8.2 4.5 0 8.2-3.7 8.2-8.2 0-5.6-5.1-11.3-8.2-16.7-2.7 5.7-8.2 11-8.2 16.7zm10.6-1.1l3.1.1c.1 4-2.4 5.8-5.6 5.8-.3 0-1.2-.1-1.7-.4l.6-3h.5c1.8.1 2.8-.8 3.1-2.5zm31.3-112.7c4.5 0 8.2-3.7 8.2-8.2 0-5.6-5.1-11.3-8.2-16.7-2.7 5.8-8.2 11.1-8.2 16.7 0 4.5 3.7 8.2 8.2 8.2zm-1.2-6.8h.5c1.7 0 2.8-.9 3-2.5l3.1.1c.1 4-2.4 5.8-5.6 5.8-.3 0-1.2-.1-1.7-.4l.7-3zm-64.8 154.5c0-4.6-4.2-9.2-6.7-13.7-2.2 4.7-6.7 9.1-6.7 13.7 0 3.7 3 6.7 6.7 6.7s6.7-3 6.7-6.7zm-6.9 4c-.3 0-1-.1-1.4-.3l.5-2.4h.5c1.4 0 2.3-.7 2.5-2.1l2.6.1c0 3.2-2 4.7-4.7 4.7zm2.1-58.8c0-5.6-5.1-11.3-8.2-16.7-2.7 5.8-8.2 11.1-8.2 16.7 0 4.5 3.7 8.2 8.2 8.2 4.5 0 8.2-3.7 8.2-8.2zm-10.1 4.4l.6-3h.6c1.7 0 2.8-.9 3-2.5l3.1.1c.1 4-2.4 5.8-5.6 5.8-.3 0-1.2-.1-1.7-.4zm40.3-76.9c0-5.6-5.1-11.3-8.2-16.7-2.7 5.8-8.2 11.1-8.2 16.7 0 4.5 3.7 8.2 8.2 8.2 4.5 0 8.2-3.7 8.2-8.2zm-8.4 4.8c-.3 0-1.2-.1-1.7-.4l.6-3h.5c1.7 0 2.8-.9 3-2.5l3.1.1c.2 4-2.3 5.8-5.5 5.8zM285.7 163c0-3.3-3.1-6.8-4.9-10-1.6 3.5-4.9 6.7-4.9 10 0 2.7 2.2 4.9 4.9 4.9s4.9-2.2 4.9-4.9zm-5.1 2.9c-.2 0-.7-.1-1-.3l.4-1.8h.3c1 0 1.7-.5 1.8-1.5l1.9.1c.1 2.4-1.4 3.5-3.4 3.5zm65.6 41.9c0 2.7 2.2 4.9 4.9 4.9s4.9-2.2 4.9-4.9c0-3.3-3.1-6.8-4.9-10-1.6 3.4-4.9 6.6-4.9 10zm6.3-.7l1.9.1c.1 2.4-1.4 3.5-3.4 3.5-.2 0-.7-.1-1-.3l.4-1.8h.3c1.1.1 1.7-.5 1.8-1.5zm-140.6 60.3c0 2.7 2.2 4.9 4.9 4.9s4.9-2.2 4.9-4.9c0-3.3-3.1-6.8-4.9-10-1.6 3.5-4.9 6.6-4.9 10zm6.4-.6l1.9.1c.1 2.4-1.4 3.5-3.4 3.5-.2 0-.7-.1-1-.3l.4-1.8h.3c1 0 1.6-.5 1.8-1.5zm-4.2-219.6c0-3.4-3.1-6.8-4.9-10-1.6 3.5-4.9 6.7-4.9 10 0 2.7 2.2 4.9 4.9 4.9s4.9-2.1 4.9-4.9zm-5.1 2.9c-.2 0-.7-.1-1-.3l.4-1.8h.3c1 0 1.7-.5 1.8-1.5l1.9.1c.1 2.5-1.4 3.5-3.4 3.5zm173.5 51.3c4.5 0 8.2-3.7 8.2-8.2 0-5.6-5.1-11.3-8.2-16.7-2.7 5.8-8.2 11.1-8.2 16.7-.1 4.6 3.6 8.2 8.2 8.2zm-1.3-6.7h.5c1.7 0 2.8-.9 3-2.5l3.1.1c.1 4-2.4 5.8-5.6 5.8-.3 0-1.2-.1-1.7-.4l.7-3zm5 40.3c0 4.5 3.7 8.2 8.2 8.2 4.5 0 8.2-3.7 8.2-8.2 0-5.6-5.1-11.3-8.2-16.7-2.7 5.8-8.2 11.1-8.2 16.7zm10.5-1.1l3.1.1c.1 4-2.4 5.8-5.6 5.8-.3 0-1.2-.1-1.7-.4l.6-3h.5c1.9.1 2.9-.8 3.1-2.5zM382 210.2c0 4.5 3.7 8.2 8.2 8.2 4.5 0 8.2-3.7 8.2-8.2 0-5.6-5.1-11.3-8.2-16.7-2.7 5.8-8.2 11-8.2 16.7zm10.6-1.1l3.1.1c.1 4-2.4 5.8-5.6 5.8-.3 0-1.2-.1-1.7-.4l.6-3h.5c1.8.1 2.8-.8 3.1-2.5zm35.3-16.2c0 4.5 3.7 8.2 8.2 8.2 4.5 0 8.2-3.7 8.2-8.2 0-5.6-5.1-11.3-8.2-16.7-2.6 5.8-8.1 11-8.2 16.7zm10.6-1.1l3.1.1c.1 4-2.4 5.8-5.6 5.8-.3 0-1.2-.1-1.7-.4l.6-3h.5c1.8.1 2.9-.8 3.1-2.5zm29.2-92.6c0-5.6-5.1-11.3-8.2-16.7-2.7 5.8-8.2 11.1-8.2 16.7 0 4.5 3.7 8.2 8.2 8.2 4.5 0 8.2-3.7 8.2-8.2zm-10.1 4.4l.6-3h.6c1.7 0 2.8-.9 3-2.5l3.1.1c.1 4-2.4 5.8-5.6 5.8-.3 0-1.2-.1-1.7-.4zm17.9 32.6c-2.7 5.8-8.2 11.1-8.2 16.7 0 4.5 3.7 8.2 8.2 8.2 4.5 0 8.2-3.7 8.2-8.2.1-5.6-5-11.3-8.2-16.7zm-.1 21.5c-.3 0-1.2-.1-1.7-.4l.6-3h.5c1.7 0 2.8-.9 3-2.5l3.1.1c.2 4-2.3 5.8-5.5 5.8zm19.4 204.1c0 3.9 3.1 7 7 7s7-3.1 7-7c0-4.7-4.3-9.6-7-14.2-2.3 4.9-7 9.4-7 14.2zm9-.9l2.7.1c.1 3.4-2 4.9-4.8 4.9-.3 0-1.1-.1-1.5-.4l.5-2.5h.5c1.5 0 2.4-.7 2.6-2.1zm50.6-28.4c0 4.5 3.7 8.2 8.2 8.2 4.5 0 8.2-3.7 8.2-8.2 0-5.6-5.1-11.3-8.2-16.7-2.6 5.8-8.1 11.1-8.2 16.7zm10.6-1.1l3.1.1c.1 4-2.4 5.8-5.6 5.8-.3 0-1.2-.1-1.7-.4l.6-3h.5c1.8.1 2.9-.8 3.1-2.5zm-50.1-173.7c-2.7 5.8-8.2 11.1-8.2 16.7 0 4.5 3.7 8.2 8.2 8.2 4.5 0 8.2-3.7 8.2-8.2.1-5.6-5-11.3-8.2-16.7zm-.1 21.5c-.3 0-1.2-.1-1.7-.4l.6-3h.5c1.7 0 2.8-.9 3-2.5l3.1.1c.2 4-2.3 5.8-5.5 5.8zm-23.7 56.5c4.5 0 8.2-3.7 8.2-8.2 0-5.6-5.1-11.3-8.2-16.7-2.7 5.8-8.2 11.1-8.2 16.7-.1 4.5 3.6 8.2 8.2 8.2zm-1.3-6.8h.5c1.7 0 2.8-.9 3-2.5l3.1.1c.1 4-2.4 5.8-5.6 5.8-.3 0-1.2-.1-1.7-.4l.7-3zm104-58.6c0 2.7 2.2 4.9 4.9 4.9s4.9-2.2 4.9-4.9c0-3.3-3.1-6.8-4.9-10-1.6 3.4-4.9 6.6-4.9 10zm6.4-.7l1.9.1c.1 2.4-1.4 3.5-3.4 3.5-.2 0-.7-.1-1-.3l.4-1.8h.3c1 .1 1.6-.5 1.8-1.5zm-78 115.1c0 3.7 3 6.7 6.7 6.7s6.7-3 6.7-6.7c0-4.6-4.2-9.2-6.7-13.7-2.2 4.8-6.7 9.1-6.7 13.7zm8.7-.8l2.6.1c.1 3.2-2 4.7-4.6 4.7-.3 0-1-.1-1.4-.3l.5-2.4h.5c1.3-.1 2.2-.8 2.4-2.1zm17.4-84.6c4.5 0 8.2-3.7 8.2-8.2 0-5.6-5.1-11.3-8.2-16.7-2.7 5.8-8.2 11.1-8.2 16.7 0 4.5 3.7 8.2 8.2 8.2zm-1.2-6.8h.5c1.7 0 2.8-.9 3-2.5l3.1.1c.1 4-2.4 5.8-5.6 5.8-.3 0-1.2-.1-1.7-.4l.7-3zm13.2 48.6c4.5 0 8.2-3.7 8.2-8.2 0-5.6-5.1-11.3-8.2-16.7-2.7 5.8-8.2 11.1-8.2 16.7 0 4.5 3.6 8.2 8.2 8.2zm-1.2-6.8h.5c1.7 0 2.8-.9 3-2.5l3.1.1c.1 4-2.4 5.8-5.6 5.8-.3 0-1.2-.1-1.7-.4l.7-3zm30.6-31.2c0 2.7 2.2 4.9 4.9 4.9s4.9-2.2 4.9-4.9c0-3.3-3.1-6.8-4.9-10-1.6 3.4-4.9 6.6-4.9 10zm6.3-.7l1.9.1c.1 2.4-1.4 3.5-3.4 3.5-.2 0-.7-.1-1-.3l.4-1.8h.3c1 .1 1.7-.4 1.8-1.5zM458.4 366c0 2.7 2.2 4.9 4.9 4.9s4.9-2.2 4.9-4.9c0-3.3-3.1-6.8-4.9-10-1.6 3.4-4.9 6.6-4.9 10zm6.3-.7l1.9.1c.1 2.4-1.4 3.5-3.4 3.5-.2 0-.7-.1-1-.2l.4-1.8h.3c1.1 0 1.7-.5 1.8-1.6zM614 290c4.5 0 8.2-3.7 8.2-8.2 0-5.6-5.1-11.3-8.2-16.7-2.7 5.8-8.2 11.1-8.2 16.7 0 4.5 3.6 8.2 8.2 8.2zm-1.2-6.8h.6c1.7 0 2.8-.9 3-2.5l3.1.1c.1 4-2.4 5.8-5.6 5.8-.3 0-1.2-.1-1.7-.4l.6-3zm45.2 26c0-5.6-5.1-11.3-8.2-16.7-2.7 5.8-8.2 11.1-8.2 16.7 0 4.5 3.7 8.2 8.2 8.2s8.2-3.6 8.2-8.2zm-10.1 4.4l.6-3h.5c1.7 0 2.8-.9 3-2.5l3.1.1c.1 4-2.4 5.8-5.6 5.8-.2 0-1.1-.1-1.6-.4zm-33.2 41.6c0 4.5 3.7 8.2 8.2 8.2 4.5 0 8.2-3.7 8.2-8.2 0-5.6-5.1-11.3-8.2-16.7-2.7 5.8-8.2 11-8.2 16.7zm10.6-1.1l3.1.1c.1 4-2.4 5.8-5.6 5.8-.3 0-1.2-.1-1.7-.4l.6-3h.5c1.8.1 2.8-.8 3.1-2.5zm-47 44.6c0 4.5 3.7 8.2 8.2 8.2 4.5 0 8.2-3.7 8.2-8.2 0-5.6-5.1-11.3-8.2-16.7-2.7 5.8-8.2 11.1-8.2 16.7zm10.6-1l3.1.1c.1 4-2.4 5.8-5.6 5.8-.3 0-1.2-.1-1.7-.4l.6-2.9h.5c1.8-.1 2.8-.9 3.1-2.6zm85.7-53.8c0 2.7 2.2 4.9 4.9 4.9s4.9-2.2 4.9-4.9c0-3.3-3.1-6.8-4.9-10-1.6 3.5-4.9 6.7-4.9 10zm6.3-.6l1.9.1c.1 2.4-1.4 3.5-3.4 3.5-.2 0-.7-.1-1-.3l.4-1.8h.3c1.1 0 1.7-.5 1.8-1.5zm1.8-69.2c0-3.3-3.1-6.8-4.9-10-1.6 3.5-4.9 6.7-4.9 10 0 2.7 2.2 4.9 4.9 4.9s4.9-2.1 4.9-4.9zm-6.1 2.7l.4-1.8h.3c1 0 1.7-.5 1.8-1.5l1.9.1c.1 2.4-1.4 3.5-3.4 3.5-.1-.1-.7-.2-1-.3zm69.2 70.5c-1.6 3.5-4.9 6.7-4.9 10 0 2.7 2.2 4.9 4.9 4.9s4.9-2.2 4.9-4.9c0-3.3-3.1-6.7-4.9-10zm-.1 13c-.2 0-.7-.1-1-.2l.4-1.8h.3c1 0 1.7-.5 1.8-1.5l1.9.1c0 2.3-1.5 3.4-3.4 3.4zm-41.5 33.8c0-3.3-3.1-6.8-4.9-10-1.6 3.5-4.9 6.7-4.9 10 0 2.7 2.2 4.9 4.9 4.9s4.9-2.2 4.9-4.9zm-6.1 2.6l.4-1.8h.3c1 0 1.7-.5 1.8-1.5l1.9.1c.1 2.4-1.4 3.5-3.4 3.5-.2 0-.7-.1-1-.3zm-375.2 58.4c0 2.7 2.2 4.9 4.9 4.9s4.9-2.2 4.9-4.9c0-3.3-3.1-6.8-4.9-10-1.6 3.4-4.9 6.6-4.9 10zm6.4-.6l1.9.1c.1 2.4-1.4 3.5-3.4 3.5-.2 0-.7-.1-1-.3l.4-1.8h.3c1 0 1.6-.5 1.8-1.5zm45.3-32.1c0 4.5 3.7 8.2 8.2 8.2 4.5 0 8.2-3.7 8.2-8.2 0-5.6-5.1-11.3-8.2-16.7-2.6 5.8-8.1 11-8.2 16.7zm10.6-1.1l3.1.1c.1 4-2.4 5.8-5.6 5.8-.3 0-1.2-.1-1.7-.4l.6-3h.5c1.8.1 2.9-.8 3.1-2.5zm-44.6 20.2c0 4.5 3.7 8.2 8.2 8.2 4.5 0 8.2-3.7 8.2-8.2 0-5.6-5.1-11.3-8.2-16.7-2.6 5.8-8.1 11-8.2 16.7zm10.6-1.1l3.1.1c.1 4-2.4 5.8-5.6 5.8-.3 0-1.2-.1-1.7-.4l.6-3h.5c1.8.1 2.8-.8 3.1-2.5zm191.7-10.9c0 4.5 3.7 8.2 8.2 8.2 4.5 0 8.2-3.7 8.2-8.2 0-5.6-5.1-11.3-8.2-16.7-2.7 5.8-8.2 11.1-8.2 16.7zm10.6-1l3.1.1c.1 4-2.4 5.8-5.6 5.8-.3 0-1.2-.1-1.7-.4l.6-3h.5c1.8 0 2.8-.8 3.1-2.5zm-12.4 43.4c0 4.5 3.7 8.2 8.2 8.2s8.2-3.7 8.2-8.2c0-5.6-5.1-11.3-8.2-16.7-2.7 5.8-8.1 11.1-8.2 16.7zm10.6-1l3.1.1c.1 4-2.4 5.8-5.6 5.8-.3 0-1.2-.1-1.7-.4l.6-3h.5c1.8 0 2.8-.9 3.1-2.5zM259.1 95c0 4.5 3.7 8.2 8.2 8.2s8.2-3.7 8.2-8.2c0-5.6-5.1-11.3-8.2-16.7-2.7 5.8-8.2 11.1-8.2 16.7zm10.5-1l3.1.1c.1 4-2.4 5.8-5.6 5.8-.3 0-1.2-.1-1.7-.4l.6-3h.5c1.9 0 2.9-.9 3.1-2.5zm60.9 2.2c-2.7 5.8-8.2 11.1-8.2 16.7 0 4.5 3.7 8.2 8.2 8.2 4.5 0 8.2-3.7 8.2-8.2.1-5.6-5-11.3-8.2-16.7zm-.1 21.5c-.3 0-1.2-.1-1.7-.4l.6-3h.6c1.7 0 2.8-.9 3-2.5l3.1.1c.1 4-2.4 5.8-5.6 5.8zm-38.6 94.1c4.5 0 8.2-3.7 8.2-8.2 0-5.6-5.1-11.3-8.2-16.7-2.7 5.8-8.2 11.1-8.2 16.7-.1 4.6 3.6 8.2 8.2 8.2zm-1.3-6.7h.5c1.7 0 2.8-.9 3-2.5l3.1.1c.1 4-2.4 5.8-5.6 5.8-.3 0-1.2-.1-1.7-.4l.7-3zm-38.6 73.7c0 4.5 3.7 8.2 8.2 8.2 4.5 0 8.2-3.7 8.2-8.2 0-5.6-5.1-11.3-8.2-16.7-2.7 5.8-8.2 11.1-8.2 16.7zm10.6-1.1l3.1.1c.1 4-2.4 5.8-5.6 5.8-.3 0-1.2-.1-1.7-.4l.6-3h.5c1.8.1 2.8-.8 3.1-2.5z"/><path class="st2" d="M139.7 272.5c0 3.7 3 6.8 6.8 6.8 3.7 0 6.8-3 6.8-6.8 0-4.6-4.2-9.3-6.8-13.7-2.2 4.7-6.7 9.1-6.8 13.7zm8.7-.9l2.6.1c.1 3.3-2 4.7-4.6 4.7-.3 0-1-.1-1.4-.3l.5-2.4h.5c1.4 0 2.2-.7 2.4-2.1zm199 27.2c0 3.7 3 6.8 6.8 6.8 3.7 0 6.8-3 6.8-6.8 0-4.6-4.2-9.3-6.8-13.7-2.2 4.7-6.7 9.1-6.8 13.7zm8.7-.9l2.6.1c.1 3.3-2 4.7-4.6 4.7-.3 0-1-.1-1.4-.3l.5-2.4h.5c1.4 0 2.2-.7 2.4-2.1zm-30.7-40.6c0 3.2 2.6 5.9 5.9 5.9s5.9-2.6 5.9-5.9c0-4-3.6-8-5.9-11.9-2 4.1-5.9 7.9-5.9 11.9zm7.5-.7l2.2.1c.1 2.8-1.7 4.1-4 4.1-.2 0-.9-.1-1.2-.3l.4-2.1h.4c1.3 0 2-.6 2.2-1.8zm71.2-104.9c0 3.2 2.6 5.9 5.9 5.9 3.2 0 5.9-2.6 5.9-5.9 0-4-3.6-8-5.9-11.9-1.9 4.1-5.8 7.9-5.9 11.9zm7.6-.8l2.2.1c.1 2.8-1.7 4.1-4 4.1-.2 0-.9-.1-1.2-.3l.4-2.1h.4c1.3.1 2-.6 2.2-1.8zm125 22.1c3.7 0 6.8-3 6.8-6.8 0-4.6-4.2-9.3-6.8-13.7-2.2 4.8-6.7 9.1-6.8 13.7.1 3.8 3.1 6.8 6.8 6.8zm-1-5.5h.5c1.4 0 2.3-.7 2.5-2.1l2.6.1c.1 3.3-2 4.7-4.6 4.7-.3 0-1-.1-1.4-.3l.4-2.4zM50.8 469.7c0 4.5 3.7 8.2 8.2 8.2 4.5 0 8.2-3.7 8.2-8.2 0-5.6-5.1-11.3-8.2-16.7-2.7 5.8-8.2 11.1-8.2 16.7zm10.6-1l3.1.1c.1 4-2.4 5.8-5.6 5.8-.3 0-1.2-.1-1.7-.4l.6-3h.5c1.8 0 2.8-.8 3.1-2.5zm-138.9-7.9c0 4.5 3.7 8.2 8.2 8.2 4.5 0 8.2-3.7 8.2-8.2 0-5.6-5.1-11.3-8.2-16.7-2.7 5.8-8.1 11.1-8.2 16.7zm10.6-1.1l3.1.1c.1 4-2.4 5.8-5.6 5.8-.3 0-1.2-.1-1.7-.4l.6-3h.5c1.8.1 2.8-.8 3.1-2.5zm23.4-35.9c0 4.5 3.7 8.2 8.2 8.2 4.5 0 8.2-3.7 8.2-8.2 0-5.6-5.1-11.3-8.2-16.7-2.6 5.8-8.1 11.1-8.2 16.7zm10.6-1.1l3.1.1c.1 4-2.4 5.8-5.6 5.8-.3 0-1.2-.1-1.7-.4l.6-3h.5c1.8.1 2.9-.8 3.1-2.5zm14.2-200.6c0-5.6-5.1-11.3-8.2-16.7-2.7 5.8-8.2 11.1-8.2 16.7 0 4.5 3.7 8.2 8.2 8.2 4.6 0 8.2-3.7 8.2-8.2zm-8.3 4.8c-.3 0-1.2-.1-1.7-.4l.6-3h.5c1.7 0 2.8-.9 3-2.5l3.1.1c.2 4-2.3 5.8-5.5 5.8zm55.6-48.5c4.5 0 8.2-3.7 8.2-8.2 0-5.6-5.1-11.3-8.2-16.7-2.7 5.8-8.2 11.1-8.2 16.7 0 4.5 3.7 8.2 8.2 8.2zm-1.2-6.8h.5c1.7 0 2.8-.9 3-2.5l3.1.1c.1 4-2.4 5.8-5.6 5.8-.3 0-1.2-.1-1.7-.4l.7-3zm-92.3 131.7c0 4.5 3.7 8.2 8.2 8.2 4.5 0 8.2-3.7 8.2-8.2 0-5.6-5.1-11.3-8.2-16.7-2.7 5.7-8.2 11-8.2 16.7zm10.5-1.1l3.1.1c.1 4-2.4 5.8-5.6 5.8-.3 0-1.2-.1-1.7-.4l.6-2.9h.5c1.8 0 2.9-.9 3.1-2.6zm30.6 66.7c0 4.5 3.7 8.2 8.2 8.2 4.5 0 8.2-3.7 8.2-8.2 0-5.6-5.1-11.3-8.2-16.7-2.7 5.8-8.1 11.1-8.2 16.7zm10.6-1.1l3.1.1c.1 4-2.4 5.8-5.6 5.8-.3 0-1.2-.1-1.7-.4l.6-3h.5c1.8.1 2.8-.8 3.1-2.5zM.1 299.1c0 4.5 3.7 8.2 8.2 8.2 4.5 0 8.2-3.7 8.2-8.2 0-5.6-5.1-11.3-8.2-16.7-2.7 5.8-8.2 11-8.2 16.7zm10.6-1.1l3.1.1c.1 4-2.4 5.8-5.6 5.8-.3 0-1.2-.1-1.7-.4l.6-3h.5c1.8.1 2.8-.8 3.1-2.5zm11.5-49c0 4.5 3.7 8.2 8.2 8.2 4.5 0 8.2-3.7 8.2-8.2 0-5.6-5.1-11.3-8.2-16.7-2.7 5.7-8.2 11-8.2 16.7zm10.5-1.1l3.1.1c.1 4-2.4 5.8-5.6 5.8-.3 0-1.2-.1-1.7-.4l.6-3h.5c1.9.1 2.9-.8 3.1-2.5zm151.2 90c0 4.5 3.7 8.2 8.2 8.2 4.5 0 8.2-3.7 8.2-8.2 0-5.6-5.1-11.3-8.2-16.7-2.7 5.8-8.2 11-8.2 16.7zm10.5-1.1l3.1.1c.1 4-2.4 5.8-5.6 5.8-.3 0-1.2-.1-1.7-.4l.6-3h.5c1.9.1 2.9-.8 3.1-2.5zM87.1 159.9c4.5 0 8.2-3.7 8.2-8.2 0-5.6-5.1-11.3-8.2-16.7-2.7 5.8-8.2 11.1-8.2 16.7 0 4.5 3.6 8.2 8.2 8.2zm-1.2-6.8h.5c1.7 0 2.8-.9 3-2.5l3.1.1c.1 4-2.4 5.8-5.6 5.8-.3 0-1.2-.1-1.7-.4l.7-3zm91.3-40.2c-2.7 5.8-8.2 11.1-8.2 16.7 0 4.5 3.7 8.2 8.2 8.2s8.2-3.7 8.2-8.2c0-5.6-5.1-11.3-8.2-16.7zm-.1 21.5c-.3 0-1.2-.1-1.7-.4l.6-3h.5c1.7 0 2.8-.9 3-2.5l3.1.1c.2 4-2.3 5.8-5.5 5.8zm-57.7 44.1c0 4.5 3.7 8.2 8.2 8.2 4.5 0 8.2-3.7 8.2-8.2 0-5.6-5.1-11.3-8.2-16.7-2.6 5.8-8.1 11.1-8.2 16.7zm10.6-1l3.1.1c.1 4-2.4 5.8-5.6 5.8-.3 0-1.2-.1-1.7-.4l.6-3h.5c1.8 0 2.9-.8 3.1-2.5zm36-10.9c0 4.5 3.7 8.2 8.2 8.2 4.5 0 8.2-3.7 8.2-8.2 0-5.6-5.1-11.3-8.2-16.7-2.7 5.8-8.2 11.1-8.2 16.7zm10.5-1l3.1.1c.1 4-2.4 5.8-5.6 5.8-.3 0-1.2-.1-1.7-.4l.6-3h.5c1.9 0 2.9-.9 3.1-2.5zM121 103.4c0-5.6-5.1-11.3-8.2-16.7-2.7 5.8-8.2 11.1-8.2 16.7 0 4.5 3.7 8.2 8.2 8.2 4.5 0 8.2-3.7 8.2-8.2zm-10.1 4.4l.6-3h.5c1.7 0 2.8-.9 3-2.5l3.1.1c.1 4-2.4 5.8-5.6 5.8-.2 0-1.1-.2-1.6-.4zM167.5 67c0-5.6-5.1-11.3-8.2-16.7-2.7 5.8-8.2 11.1-8.2 16.7 0 4.5 3.7 8.2 8.2 8.2 4.5 0 8.2-3.7 8.2-8.2zm-8.3 4.8c-.3 0-1.2-.1-1.7-.4l.6-3h.5c1.7 0 2.8-.9 3-2.5l3.1.1c.2 4-2.3 5.8-5.5 5.8zm29.5-.1c0 4.5 3.7 8.2 8.2 8.2s8.2-3.7 8.2-8.2c0-5.6-5.1-11.3-8.2-16.7-2.7 5.8-8.2 11.1-8.2 16.7zm10.5-1l3.1.1c.1 4-2.4 5.8-5.6 5.8-.3 0-1.2-.1-1.7-.4l.6-3h.5c1.8 0 2.9-.8 3.1-2.5zm71.4-23.3c4.5 0 8.2-3.7 8.2-8.2 0-5.6-5.1-11.3-8.2-16.7-2.7 5.8-8.2 11.1-8.2 16.7 0 4.6 3.6 8.2 8.2 8.2zm-1.2-6.7h.5c1.7 0 2.8-.9 3-2.5l3.1.1c.1 4-2.4 5.8-5.6 5.8-.3 0-1.2-.1-1.7-.4l.7-3zm190.9 35.4c4.5 0 8.2-3.7 8.2-8.2 0-5.6-5.1-11.3-8.2-16.7-2.7 5.8-8.2 11.1-8.2 16.7 0 4.5 3.7 8.2 8.2 8.2zm-1.2-6.8h.5c1.7 0 2.8-.9 3-2.5l3.1.1c.1 4-2.4 5.8-5.6 5.8-.3 0-1.2-.1-1.7-.4l.7-3zM7.6 140.4c0-5.6-5.1-11.3-8.2-16.7-2.7 5.8-8.2 11.1-8.2 16.7 0 4.5 3.7 8.2 8.2 8.2 4.5 0 8.2-3.7 8.2-8.2zm-8.3 4.8c-.3 0-1.2-.1-1.7-.4l.6-3h.5c1.7 0 2.8-.9 3-2.5l3.1.1c.2 4-2.3 5.8-5.5 5.8zm24.1-56.8c0 4.5 3.7 8.2 8.2 8.2 4.5 0 8.2-3.7 8.2-8.2 0-5.6-5.1-11.3-8.2-16.7-2.7 5.8-8.2 11.1-8.2 16.7zm10.5-1l3.1.1c.1 4-2.4 5.8-5.6 5.8-.3 0-1.2-.1-1.7-.4l.6-3h.5c1.9 0 2.9-.8 3.1-2.5zM301.7 15c0 4.5 3.7 8.2 8.2 8.2 4.5 0 8.2-3.7 8.2-8.2 0-5.6-5.1-11.3-8.2-16.7-2.6 5.8-8.1 11.1-8.2 16.7zm10.6-1l3.1.1c.1 4-2.4 5.8-5.6 5.8-.3 0-1.2-.1-1.7-.4l.6-3h.5c1.8.1 2.8-.8 3.1-2.5zm102.4 42.4c4.5 0 8.2-3.7 8.2-8.2 0-5.6-5.1-11.3-8.2-16.7-2.7 5.8-8.2 11.1-8.2 16.7-.1 4.5 3.6 8.2 8.2 8.2zm-1.3-6.8h.5c1.7 0 2.8-.9 3-2.5l3.1.1c.1 4-2.4 5.8-5.6 5.8-.3 0-1.2-.1-1.7-.4l.7-3zM632.9 433c0 4.5 3.7 8.2 8.2 8.2 4.5 0 8.2-3.7 8.2-8.2 0-5.6-5.1-11.3-8.2-16.7-2.7 5.8-8.2 11.1-8.2 16.7zm10.5-1l3.1.1c.1 4-2.4 5.8-5.6 5.8-.3 0-1.2-.1-1.7-.4l.6-3h.5c1.9 0 2.9-.8 3.1-2.5zm86.3-84.6c-2.7 5.8-8.2 11.1-8.2 16.7 0 4.5 3.7 8.2 8.2 8.2 4.5 0 8.2-3.7 8.2-8.2.1-5.6-5.1-11.3-8.2-16.7zm-.1 21.5c-.3 0-1.2-.1-1.7-.4l.6-3h.5c1.7 0 2.8-.9 3-2.5l3.1.1c.2 4-2.3 5.8-5.5 5.8zM666 407.1c0 4.5 3.7 8.2 8.2 8.2 4.5 0 8.2-3.7 8.2-8.2 0-5.6-5.1-11.3-8.2-16.7-2.7 5.8-8.2 11-8.2 16.7zm10.6-1.1l3.1.1c.1 4-2.4 5.8-5.6 5.8-.3 0-1.2-.1-1.7-.4l.6-2.9h.5c1.8 0 2.8-.9 3.1-2.6zM-101 416c0 4.5 3.7 8.2 8.2 8.2 4.5 0 8.2-3.7 8.2-8.2 0-5.6-5.1-11.3-8.2-16.7-2.7 5.8-8.2 11.1-8.2 16.7zm10.5-1l3.1.1c.1 4-2.4 5.8-5.6 5.8-.3 0-1.2-.1-1.7-.4l.6-3h.5c1.9 0 2.9-.9 3.1-2.5zm143.4-84.3c0-4-3.6-8-5.8-11.9-1.9 4.1-5.8 7.9-5.8 11.9 0 3.2 2.6 5.8 5.8 5.8 3.2 0 5.8-2.6 5.8-5.8zm-7.1 3.1l.4-2.1h.4c1.2 0 2-.6 2.1-1.8l2.3.1c.1 2.8-1.7 4.1-4 4.1-.2 0-.9-.1-1.2-.3zm31.9-11.5c0 3.6 2.9 6.4 6.4 6.4 3.6 0 6.4-2.9 6.4-6.4 0-4.4-4-8.8-6.4-13.1-2.1 4.6-6.4 8.7-6.4 13.1zm8.2-.8l2.5.1c.1 3.1-1.9 4.5-4.4 4.5-.3 0-1-.1-1.3-.3l.5-2.3h.4c1.3 0 2.1-.7 2.3-2zm-296.4 70.6c0 3.6 2.9 6.4 6.4 6.4s6.4-2.9 6.4-6.4c0-4.4-4-8.8-6.4-13.1-2.1 4.6-6.4 8.7-6.4 13.1zm8.2-.8l2.5.1c.1 3.1-1.9 4.5-4.4 4.5-.3 0-1-.1-1.3-.3l.5-2.3h.4c1.3 0 2.1-.7 2.3-2zm56.2 33c0 3.6 2.9 6.4 6.4 6.4 3.6 0 6.4-2.9 6.4-6.4 0-4.4-4-8.8-6.4-13.1-2.1 4.6-6.4 8.7-6.4 13.1zm8.3-.8l2.5.1c.1 3.1-1.9 4.5-4.4 4.5-.3 0-1-.1-1.3-.3l.5-2.3h.4c1.3 0 2.1-.7 2.3-2zM58.6 282.9c0 3.9 3.1 7 7 7s7-3.1 7-7c0-4.8-4.4-9.6-7-14.3-2.3 5-7 9.5-7 14.3zm9-.9l2.7.1c.1 3.4-2.1 4.9-4.8 4.9-.3 0-1.1-.1-1.5-.4l.5-2.5h.5c1.5.1 2.4-.6 2.6-2.1zm-12.3 90.4c0-3.3-3.1-6.8-4.9-10-1.6 3.5-4.9 6.7-4.9 10 0 2.7 2.2 4.9 4.9 4.9 2.7.1 4.9-2.1 4.9-4.9zm-5 2.9c-.2 0-.7-.1-1-.3l.4-1.8h.3c1 0 1.7-.5 1.8-1.5l1.9.1c0 2.5-1.5 3.5-3.4 3.5zm40.5 51.5c0 2.7 2.2 4.9 4.9 4.9s4.9-2.2 4.9-4.9c0-3.4-3.1-6.8-4.9-10-1.6 3.4-4.9 6.6-4.9 10zm6.3-.7l1.9.1c.1 2.4-1.4 3.5-3.4 3.5-.2 0-.7-.1-1-.3l.4-1.8h.3c1.1 0 1.7-.5 1.8-1.5zm-271.9-45.5c0 4.5 3.7 8.2 8.2 8.2 4.5 0 8.2-3.7 8.2-8.2 0-5.6-5.1-11.3-8.2-16.7-2.7 5.8-8.2 11.1-8.2 16.7zm10.5-1l3.1.1c.1 4-2.4 5.8-5.6 5.8-.3 0-1.2-.1-1.7-.4l.6-3h.5c1.9 0 2.9-.8 3.1-2.5zm-46.3-114.4c0 4.5 3.7 8.2 8.2 8.2 4.5 0 8.2-3.7 8.2-8.2 0-5.6-5.1-11.3-8.2-16.7-2.7 5.8-8.2 11.1-8.2 16.7zm10.5-1.1l3.1.1c.1 4-2.4 5.8-5.6 5.8-.3 0-1.2-.1-1.7-.4l.6-3h.5c1.9.1 2.9-.8 3.1-2.5zm58.5-11.3c4.5 0 8.2-3.7 8.2-8.2 0-5.6-5.1-11.3-8.2-16.7-2.7 5.8-8.2 11.1-8.2 16.7 0 4.5 3.7 8.2 8.2 8.2zm-1.2-6.7h.5c1.7 0 2.8-.9 3-2.5l3.1.1c.1 4-2.4 5.8-5.6 5.8-.3 0-1.2-.1-1.7-.4l.7-3zm11.8-67.7c0 4.5 3.7 8.2 8.2 8.2 4.5 0 8.2-3.7 8.2-8.2 0-5.6-5.1-11.3-8.2-16.7-2.7 5.8-8.2 11-8.2 16.7zm10.6-1.1l3.1.1c.1 4-2.4 5.8-5.6 5.8-.3 0-1.2-.1-1.7-.4l.6-3h.5c1.8.1 2.8-.8 3.1-2.5zm19.1 106.9c4.5 0 8.2-3.7 8.2-8.2 0-5.6-5.1-11.3-8.2-16.7-2.7 5.8-8.2 11.1-8.2 16.7 0 4.5 3.7 8.2 8.2 8.2zm-1.2-6.8h.5c1.7 0 2.8-.9 3-2.6l3.1.1c.1 4-2.4 5.8-5.6 5.8-.3 0-1.2-.1-1.7-.4l.7-2.9zm6.6-38.9c4.5 0 8.2-3.7 8.2-8.2 0-5.6-5.1-11.3-8.2-16.7-2.7 5.8-8.2 11.1-8.2 16.7 0 4.5 3.7 8.2 8.2 8.2zm-1.2-6.8h.5c1.7 0 2.8-.9 3-2.5l3.1.1c.1 4-2.4 5.8-5.6 5.8-.3 0-1.2-.1-1.7-.4l.7-3zm35.2-31.7c4.5 0 8.2-3.7 8.2-8.2 0-5.6-5.1-11.3-8.2-16.7-2.7 5.8-8.2 11.1-8.2 16.7 0 4.5 3.7 8.2 8.2 8.2zm-1.2-6.7h.5c1.7 0 2.8-.9 3-2.5l3.1.1c.1 4-2.4 5.8-5.6 5.8-.3 0-1.2-.1-1.7-.4l.7-3zm33.4-18.3c4.5 0 8.2-3.7 8.2-8.2 0-5.6-5.1-11.3-8.2-16.7-2.7 5.8-8.2 11.1-8.2 16.7 0 4.5 3.7 8.2 8.2 8.2zm-1.2-6.8h.5c1.7 0 2.8-.9 3-2.5l3.1.1c.1 4-2.4 5.8-5.6 5.8-.3 0-1.2-.1-1.7-.4l.7-3zm-137 152.5c0-5.6-5.1-11.3-8.2-16.7-2.7 5.8-8.2 11.1-8.2 16.7 0 4.5 3.7 8.2 8.2 8.2 4.5 0 8.2-3.7 8.2-8.2zm-8.4 4.8c-.3 0-1.2-.1-1.7-.4l.6-3c.2 0 .4.1.5.1 1.7 0 2.8-.9 3-2.5l3.1.1c.2 3.9-2.3 5.7-5.5 5.7zm44.2-25.1c0-5.6-5.1-11.3-8.2-16.7-2.7 5.8-8.2 11.1-8.2 16.7 0 4.5 3.7 8.2 8.2 8.2 4.5 0 8.2-3.7 8.2-8.2zm-10.1 4.4l.6-3h.5c1.7 0 2.8-.9 3-2.5l3.1.1c.1 4-2.4 5.8-5.6 5.8-.2 0-1.1-.1-1.6-.4zm44.1 58.2c0-3.3-3.1-6.8-4.9-10-1.6 3.5-4.9 6.7-4.9 10 0 2.7 2.2 4.9 4.9 4.9 2.7.1 4.9-2.2 4.9-4.9zm-5 2.9c-.2 0-.7-.1-1-.2l.4-1.8h.3c1 0 1.7-.5 1.8-1.5l1.9.1c0 2.3-1.5 3.4-3.4 3.4zm10-25.6c0 2.7 2.2 4.9 4.9 4.9s4.9-2.2 4.9-4.9c0-3.3-3.1-6.8-4.9-10-1.6 3.5-4.9 6.7-4.9 10zm6.4-.6l1.9.1c.1 2.4-1.4 3.5-3.4 3.5-.2 0-.7-.1-1-.2l.4-1.8h.3c1-.1 1.6-.6 1.8-1.6zm-53.5 3c0 2.7 2.2 4.9 4.9 4.9s4.9-2.2 4.9-4.9c0-3.3-3.1-6.8-4.9-10-1.6 3.5-4.9 6.6-4.9 10zm6.3-.6l1.9.1c.1 2.4-1.4 3.5-3.4 3.5-.2 0-.7-.1-1-.2l.4-1.8h.3c1.1-.1 1.7-.6 1.8-1.6zm246.2-9.6c0 2.7 2.2 4.9 4.9 4.9s4.9-2.2 4.9-4.9c0-3.3-3.1-6.8-4.9-10-1.6 3.4-4.9 6.6-4.9 10zm6.3-.7l1.9.1c.1 2.4-1.4 3.5-3.4 3.5-.2 0-.7-.1-1-.3l.4-1.8h.3c1.1.1 1.7-.5 1.8-1.5zm43.8-118.1c0 2.7 2.2 4.9 4.9 4.9s4.9-2.2 4.9-4.9c0-3.3-3.1-6.8-4.9-10-1.6 3.5-4.9 6.6-4.9 10zm6.3-.6l1.9.1c.1 2.4-1.4 3.5-3.4 3.5-.2 0-.7-.1-1-.3l.4-1.8h.3c1.1 0 1.7-.5 1.8-1.5zm60.5 28.7c0 2.7 2.2 4.9 4.9 4.9s4.9-2.2 4.9-4.9c0-3.3-3.1-6.8-4.9-10-1.5 3.4-4.8 6.6-4.9 10zm6.4-.7l1.9.1c.1 2.4-1.4 3.5-3.4 3.5-.2 0-.7-.1-1-.3l.4-1.8h.3c1 .1 1.6-.5 1.8-1.5zm158.9-3.5c0 4.5 3.7 8.2 8.2 8.2 4.5 0 8.2-3.7 8.2-8.2 0-5.6-5.1-11.3-8.2-16.7-2.7 5.8-8.1 11.1-8.2 16.7zm10.6-1l3.1.1c.1 4-2.4 5.8-5.6 5.8-.3 0-1.2-.1-1.7-.4l.6-3h.5c1.8 0 2.8-.9 3.1-2.5zm-14.2 57.1c0 4.5 3.7 8.2 8.2 8.2 4.5 0 8.2-3.7 8.2-8.2 0-5.6-5.1-11.3-8.2-16.7-2.6 5.8-8.1 11.1-8.2 16.7zm10.6-1l3.1.1c.1 4-2.4 5.8-5.6 5.8-.3 0-1.2-.1-1.7-.4l.6-3h.6c1.7 0 2.8-.9 3-2.5zm-15.9 67.8c0 3.6 2.9 6.4 6.4 6.4 3.6 0 6.4-2.9 6.4-6.4 0-4.4-4-8.8-6.4-13.1-2.1 4.6-6.4 8.7-6.4 13.1zm8.2-.8l2.5.1c.1 3.1-1.9 4.5-4.4 4.5-.3 0-1-.1-1.3-.3l.5-2.3h.4c1.3 0 2.1-.7 2.3-2zm28.8-30.5c0 3.6 2.9 6.4 6.4 6.4 3.6 0 6.4-2.9 6.4-6.4 0-4.4-4-8.8-6.4-13.1-2.1 4.6-6.4 8.7-6.4 13.1zm8.2-.8l2.5.1c.1 3.1-1.9 4.5-4.4 4.5-.3 0-1-.1-1.3-.3l.5-2.3h.4c1.3 0 2.1-.7 2.3-2zm53.4-33.4c3.7 0 6.7-3 6.7-6.7 0-4.6-4.2-9.2-6.7-13.7-2.2 4.7-6.7 9.1-6.7 13.7 0 3.7 3 6.7 6.7 6.7zm-1-5.5h.5c1.4 0 2.3-.7 2.5-2.1l2.6.1c.1 3.2-2 4.7-4.6 4.7-.3 0-1-.1-1.4-.3l.4-2.4zM428.7 106c2.7 0 4.9-2.2 4.9-4.9 0-3.3-3.1-6.8-4.9-10-1.6 3.5-4.9 6.7-4.9 10 0 2.7 2.2 4.9 4.9 4.9zm-.7-4.1h.3c1 0 1.7-.5 1.8-1.5l1.9.1c.1 2.4-1.4 3.5-3.4 3.5-.2 0-.7-.1-1-.2l.4-1.9zM480.9 367c4.5 0 8.2-3.7 8.2-8.2 0-5.6-5.1-11.3-8.2-16.7-2.7 5.8-8.2 11.1-8.2 16.7 0 4.5 3.7 8.2 8.2 8.2zm-1.2-6.8h.5c1.7 0 2.8-.9 3-2.5l3.1.1c.1 4-2.4 5.8-5.6 5.8-.3 0-1.2-.1-1.7-.4l.7-3zm54.8-7c0-4.9-4.5-9.9-7.2-14.7-2.4 5.1-7.2 9.7-7.2 14.7 0 4 3.2 7.2 7.2 7.2s7.2-3.2 7.2-7.2zm-8.9 3.9l.5-2.6h.5c1.5 0 2.4-.8 2.6-2.2l2.8.1c.1 3.5-2.1 5.1-4.9 5.1-.2-.1-1-.2-1.5-.4zM468.9 132c0-5.6-5.1-11.3-8.2-16.7-2.7 5.8-8.2 11.1-8.2 16.7 0 4.5 3.7 8.2 8.2 8.2 4.5 0 8.2-3.7 8.2-8.2zm-10.1 4.4l.6-3h.5c1.7 0 2.8-.9 3-2.5l3.1.1c.1 4-2.4 5.8-5.6 5.8-.2 0-1.1-.1-1.6-.4zm17.8 77.4c0-5.6-5.1-11.3-8.2-16.7-2.7 5.8-8.2 11.1-8.2 16.7 0 4.5 3.7 8.2 8.2 8.2 4.5 0 8.2-3.7 8.2-8.2zm-8.3 4.8c-.3 0-1.2-.1-1.7-.4l.6-3h.5c1.7 0 2.8-.9 3-2.5l3.1.1c.2 4-2.3 5.8-5.5 5.8zm116.4-55.7c4.5 0 8.2-3.7 8.2-8.2 0-5.6-5.1-11.3-8.2-16.7-2.7 5.8-8.2 11.1-8.2 16.7 0 4.5 3.7 8.2 8.2 8.2zm-1.2-6.8h.5c1.7 0 2.8-.9 3-2.5l3.1.1c.1 4-2.4 5.8-5.6 5.8-.3 0-1.2-.1-1.7-.4l.7-3zm-54.1 63c0 4.5 3.7 8.2 8.2 8.2 4.5 0 8.2-3.7 8.2-8.2 0-5.6-5.1-11.3-8.2-16.7-2.7 5.8-8.2 11.1-8.2 16.7zm10.5-1l3.1.1c.1 4-2.4 5.8-5.6 5.8-.3 0-1.2-.1-1.7-.4l.6-3h.5c1.9 0 2.9-.8 3.1-2.5zm44.2 85.8c-2.7 5.8-8.2 11.1-8.2 16.7 0 4.5 3.7 8.2 8.2 8.2 4.5 0 8.2-3.7 8.2-8.2.1-5.6-5-11.3-8.2-16.7zm-.1 21.5c-.3 0-1.2-.1-1.7-.4l.6-3h.5c1.7 0 2.8-.9 3-2.5l3.1.1c.2 4-2.3 5.8-5.5 5.8zm-1.6-95.1c4.5 0 8.2-3.7 8.2-8.2 0-5.6-5.1-11.3-8.2-16.7-2.7 5.8-8.2 11.1-8.2 16.7-.1 4.5 3.6 8.2 8.2 8.2zm-1.3-6.7h.5c1.7 0 2.8-.9 3-2.5l3.1.1c.1 4-2.4 5.8-5.6 5.8-.3 0-1.2-.1-1.7-.4l.7-3zm9.7 37.3c0 4.5 3.7 8.2 8.2 8.2 4.5 0 8.2-3.7 8.2-8.2 0-5.6-5.1-11.3-8.2-16.7-2.6 5.8-8.1 11.1-8.2 16.7zm10.6-1.1l3.1.1c.1 4-2.4 5.8-5.6 5.8-.3 0-1.2-.1-1.7-.4l.6-3h.5c1.8.1 2.9-.8 3.1-2.5zm35.4 84.6c0 4.5 3.7 8.2 8.2 8.2s8.2-3.7 8.2-8.2c0-5.6-5.1-11.3-8.2-16.7-2.7 5.8-8.2 11.1-8.2 16.7zm10.5-1l3.1.1c.1 4-2.4 5.8-5.6 5.8-.3 0-1.2-.1-1.7-.4l.6-3h.6c1.8 0 2.8-.8 3-2.5zm-33.2 44c0 4.5 3.7 8.2 8.2 8.2 4.5 0 8.2-3.7 8.2-8.2 0-5.6-5.1-11.3-8.2-16.7-2.7 5.8-8.2 11.1-8.2 16.7zm10.6-1.1l3.1.1c.1 4-2.4 5.8-5.6 5.8-.3 0-1.2-.1-1.7-.4l.6-3h.5c1.8.1 2.8-.8 3.1-2.5zm-34.5 54.2c0 4.5 3.7 8.2 8.2 8.2s8.2-3.7 8.2-8.2c0-5.6-5.1-11.3-8.2-16.7-2.6 5.8-8.1 11.1-8.2 16.7zm10.6-1l3.1.1c.1 4-2.4 5.8-5.6 5.8-.3 0-1.2-.1-1.7-.4l.6-3h.5c1.8 0 2.9-.9 3.1-2.5zM673.3 314c2.7 0 4.9-2.2 4.9-4.9 0-3.3-3.1-6.8-4.9-10-1.6 3.5-4.9 6.7-4.9 10-.1 2.7 2.1 4.9 4.9 4.9zm-.8-4.1h.3c1 0 1.7-.5 1.8-1.5l1.9.1c.1 2.4-1.4 3.5-3.4 3.5-.2 0-.7-.1-1-.3l.4-1.8zm-2.3-49.2c0-3.3-3.1-6.8-4.9-10-1.6 3.5-4.9 6.7-4.9 10 0 2.7 2.2 4.9 4.9 4.9 2.6 0 4.9-2.2 4.9-4.9zm-6.1 2.6l.4-1.8h.3c1 0 1.7-.5 1.8-1.5l1.9.1c.1 2.4-1.4 3.5-3.4 3.5-.2 0-.7-.1-1-.3zm-.3 214c0 2.7 2.2 4.9 4.9 4.9s4.9-2.2 4.9-4.9c0-3.3-3.1-6.8-4.9-10-1.5 3.4-4.8 6.6-4.9 10zm6.4-.6l1.9.1c.1 2.4-1.4 3.5-3.4 3.5-.2 0-.7-.1-1-.2l.4-1.8h.3c1-.1 1.6-.6 1.8-1.6zm-530.8-3c0 2.7 2.2 4.9 4.9 4.9s4.9-2.2 4.9-4.9c0-3.3-3.1-6.8-4.9-10-1.6 3.5-4.9 6.6-4.9 10zm6.3-.6l1.9.1c.1 2.4-1.4 3.5-3.4 3.5-.2 0-.7-.1-1-.3l.4-1.8h.3c1.1 0 1.7-.5 1.8-1.5zm85-446c0-3.3-3.1-6.8-4.9-10-1.6 3.5-4.9 6.7-4.9 10 0 2.7 2.2 4.9 4.9 4.9s4.9-2.2 4.9-4.9zm-5 2.9c-.2 0-.7-.1-1-.3l.3-1.7h.3c1 0 1.7-.5 1.8-1.5l1.9.1c.1 2.3-1.4 3.4-3.3 3.4zm251.9 368.3c-1.6 3.5-4.9 6.7-4.9 10 0 2.7 2.2 4.9 4.9 4.9s4.9-2.2 4.9-4.9c.1-3.3-3-6.7-4.9-10zm0 12.9c-.2 0-.7-.1-1-.3l.4-1.8h.3c1 0 1.7-.5 1.8-1.5l1.9.1c0 2.5-1.5 3.5-3.4 3.5zm-55.5-20.1c-1.6 3.5-4.9 6.7-4.9 10 0 2.7 2.2 4.9 4.9 4.9s4.9-2.2 4.9-4.9c.1-3.3-3-6.7-4.9-10zm0 13c-.2 0-.7-.1-1-.3l.4-1.8h.3c1 0 1.7-.5 1.8-1.5l1.9.1c0 2.4-1.5 3.5-3.4 3.5zm76.3-156.9c0 2.7 2.2 4.9 4.9 4.9s4.9-2.2 4.9-4.9c0-3.3-3.1-6.8-4.9-10-1.6 3.5-4.9 6.6-4.9 10zm6.3-.6l1.9.1c.1 2.4-1.4 3.5-3.4 3.5-.2 0-.7-.1-1-.3l.4-1.8h.3c1 0 1.7-.5 1.8-1.5zm-23.1 203.5c0 2.7 2.2 4.9 4.9 4.9s4.9-2.2 4.9-4.9c0-3.3-3.1-6.8-4.9-10-1.5 3.5-4.8 6.6-4.9 10zm6.4-.6l1.9.1c.1 2.4-1.4 3.5-3.4 3.5-.2 0-.7-.1-1-.2l.4-1.8h.3c1-.1 1.6-.6 1.8-1.6zm-61.4 18.8c0 4.5 3.7 8.2 8.2 8.2 4.5 0 8.2-3.7 8.2-8.2 0-5.6-5.1-11.3-8.2-16.7-2.7 5.8-8.2 11.1-8.2 16.7zm10.5-1l3.1.1c.1 4-2.4 5.8-5.6 5.8-.3 0-1.2-.1-1.7-.4l.6-3h.5c1.9 0 2.9-.8 3.1-2.5zm-75-13.3c0 4.5 3.7 8.2 8.2 8.2 4.5 0 8.2-3.7 8.2-8.2 0-5.6-5.1-11.3-8.2-16.7-2.7 5.8-8.2 11.1-8.2 16.7zm10.6-1l3.1.1c.1 4-2.4 5.8-5.6 5.8-.3 0-1.2-.1-1.7-.4l.6-3h.5c1.8 0 2.8-.9 3.1-2.5zm-85.8-96.9c0 4.5 3.7 8.2 8.2 8.2 4.5 0 8.2-3.7 8.2-8.2 0-5.6-5.1-11.3-8.2-16.7-2.6 5.8-8.1 11.1-8.2 16.7zm10.6-1l3.1.1c.1 4-2.4 5.8-5.6 5.8-.3 0-1.2-.1-1.7-.4l.6-3h.5c1.8 0 2.8-.8 3.1-2.5zm226.9 64c0 3.7 3 6.7 6.7 6.7s6.8-3 6.8-6.7c0-4.6-4.2-9.3-6.8-13.7-2.2 4.7-6.7 9.1-6.7 13.7zm8.7-.9l2.6.1c.1 3.2-2 4.7-4.6 4.7-.3 0-1-.1-1.4-.3l.5-2.4h.5c1.3 0 2.2-.7 2.4-2.1zm23.6 30.5c0 2.7 2.2 4.9 4.9 4.9s4.9-2.2 4.9-4.9c0-3.3-3.1-6.8-4.9-10-1.6 3.4-4.9 6.6-4.9 10zm6.3-.6l1.9.1c.1 2.4-1.4 3.5-3.4 3.5-.2 0-.7-.1-1-.3l.4-1.8h.3c1 0 1.7-.5 1.8-1.5zm-329.6-362c0 4.5 3.7 8.2 8.2 8.2 4.5 0 8.2-3.7 8.2-8.2 0-5.6-5.1-11.3-8.2-16.7-2.7 5.7-8.2 11-8.2 16.7zM244 85l3.1.1c.1 4-2.4 5.8-5.6 5.8-.3 0-1.2-.1-1.7-.4l.6-3h.5c1.8.1 2.8-.8 3.1-2.5zm33.3 44.6c0-5.6-5.1-11.3-8.2-16.7-2.7 5.8-8.2 11.1-8.2 16.7 0 4.5 3.7 8.2 8.2 8.2s8.2-3.6 8.2-8.2zm-8.3 4.8c-.3 0-1.2-.1-1.7-.4l.6-3h.5c1.7 0 2.8-.9 3-2.5l3.1.1c.2 4-2.3 5.8-5.5 5.8zm91.3.6c0-5.6-5.1-11.3-8.2-16.7-2.7 5.8-8.2 11.1-8.2 16.7 0 4.5 3.7 8.2 8.2 8.2 4.5 0 8.2-3.7 8.2-8.2zm-10.1 4.4l.6-3h.5c1.7 0 2.8-.9 3-2.5l3.1.1c.1 4-2.4 5.8-5.6 5.8-.2 0-1.1-.1-1.6-.4zM291 269.8c0-5.6-5.1-11.3-8.2-16.7-2.7 5.8-8.2 11.1-8.2 16.7 0 4.5 3.7 8.2 8.2 8.2 4.6.1 8.2-3.6 8.2-8.2zm-8.3 4.9c-.3 0-1.2-.1-1.7-.4l.6-3h.5c1.7 0 2.8-.9 3-2.5l3.1.1c.2 4-2.3 5.8-5.5 5.8zm81.9-190.6c4.5 0 8.2-3.7 8.2-8.2 0-5.6-5.1-11.3-8.2-16.7-2.7 5.8-8.2 11.1-8.2 16.7-.1 4.6 3.6 8.2 8.2 8.2zm-1.3-6.7h.5c1.7 0 2.8-.9 3-2.5l3.2.1c.1 4-2.4 5.8-5.6 5.8-.3 0-1.2-.1-1.7-.4l.6-3zm-72 5.7c0 4.5 3.7 8.2 8.2 8.2 4.5 0 8.2-3.7 8.2-8.2 0-5.6-5.1-11.3-8.2-16.7-2.7 5.8-8.2 11-8.2 16.7zm10.6-1.1l3.1.1c.1 4-2.4 5.8-5.6 5.8-.3 0-1.2-.1-1.7-.4l.6-3h.5c1.8.1 2.8-.8 3.1-2.5z"/><path class="st0" d="M114.7 454.8c0 4.5 3.7 8.2 8.2 8.2 4.5 0 8.2-3.7 8.2-8.2 0-5.6-5.1-11.3-8.2-16.7-2.7 5.8-8.2 11.1-8.2 16.7zm10.5-1l3.1.1c.1 4-2.4 5.8-5.6 5.8-.3 0-1.2-.1-1.7-.4l.6-3h.5c1.9 0 2.9-.9 3.1-2.5zm74.4-200.4c-2.2 4.8-6.7 9.1-6.8 13.7 0 3.7 3 6.8 6.8 6.8 3.7 0 6.8-3 6.8-6.8 0-4.5-4.2-9.2-6.8-13.7zm-.1 17.7c-.3 0-1-.1-1.4-.3l.5-2.4h.4c1.4 0 2.3-.7 2.5-2.1l2.6.1c.1 3.2-2 4.7-4.6 4.7zm441.9 20.5c0-4.6-4.2-9.3-6.8-13.7-2.2 4.8-6.7 9.1-6.8 13.7 0 3.7 3 6.8 6.8 6.8 3.7 0 6.8-3.1 6.8-6.8zm-8.3 3.6l.5-2.4h.5c1.4 0 2.3-.7 2.5-2.1l2.6.1c.1 3.2-2 4.7-4.6 4.7-.4.1-1.1-.1-1.5-.3zM451.9 411c0 3.7 3 6.8 6.8 6.8 3.7 0 6.8-3 6.8-6.8 0-4.6-4.2-9.3-6.8-13.7-2.3 4.7-6.8 9-6.8 13.7zm8.6-.9l2.6.1c.1 3.3-2 4.7-4.6 4.7-.3 0-1-.1-1.4-.3l.5-2.4h.5c1.4 0 2.2-.7 2.4-2.1zM271.6 256.6c3.2 0 5.9-2.6 5.9-5.9 0-4-3.6-8-5.9-11.9-1.9 4.1-5.8 7.9-5.9 11.9 0 3.3 2.6 5.9 5.9 5.9zm-.9-4.8h.4c1.2 0 2-.6 2.1-1.8l2.2.1c.1 2.8-1.7 4.1-4 4.1-.2 0-.9-.1-1.2-.3l.5-2.1zm58.1-74c3.2 0 5.9-2.6 5.9-5.9 0-4-3.6-8-5.9-11.9-1.9 4.1-5.8 7.9-5.9 11.9.1 3.3 2.7 5.9 5.9 5.9zm-.8-4.8h.4c1.2 0 2-.6 2.1-1.8l2.2.1c.1 2.8-1.7 4.1-4 4.1-.2 0-.9-.1-1.2-.3l.5-2.1zm240.4 195c-2.2 4.8-6.7 9.1-6.8 13.7 0 3.7 3 6.8 6.8 6.8 3.7 0 6.8-3 6.8-6.8-.1-4.6-4.3-9.3-6.8-13.7zm-.1 17.7c-.3 0-1-.1-1.4-.3l.5-2.4h.5c1.4 0 2.3-.7 2.5-2.1l2.6.1c-.1 3.2-2.1 4.7-4.7 4.7zm-15.5-230.6c3.7 0 6.8-3 6.8-6.8 0-4.6-4.2-9.3-6.8-13.7-2.2 4.8-6.7 9.1-6.8 13.7.1 3.8 3.1 6.8 6.8 6.8zm-1-5.5h.5c1.4 0 2.3-.7 2.5-2.1l2.6.1c.1 3.3-2 4.7-4.6 4.7-.3 0-1-.1-1.4-.3l.4-2.4zm-352.6 5.3c0-4.6-4.2-9.3-6.8-13.7-2.2 4.8-6.7 9.1-6.8 13.7 0 3.7 3 6.8 6.8 6.8s6.8-3 6.8-6.8zm-6.9 4c-.3 0-1-.1-1.4-.3l.5-2.4h.5c1.4 0 2.3-.7 2.5-2.1l2.6.1c0 3.2-2 4.7-4.7 4.7zm-130.7 218c0 3.7 3 6.8 6.8 6.8 3.7 0 6.8-3 6.8-6.8 0-4.6-4.2-9.3-6.8-13.7-2.3 4.8-6.8 9.1-6.8 13.7zm8.6-.8l2.6.1c.1 3.3-2 4.7-4.6 4.7-.3 0-1-.1-1.4-.3l.5-2.4h.4c1.5 0 2.3-.8 2.5-2.1zM49 437.8c0 3.7 3 6.7 6.7 6.7s6.7-3 6.7-6.7c0-4.6-4.2-9.2-6.7-13.7-2.2 4.8-6.6 9.1-6.7 13.7zm8.7-.8l2.6.1c.1 3.2-2 4.7-4.6 4.7-.3 0-1-.1-1.4-.3l.5-2.4h.4c1.4-.1 2.3-.8 2.5-2.1zm-85.6 4.7c0 4.5 3.7 8.2 8.2 8.2 4.5 0 8.2-3.7 8.2-8.2 0-5.6-5.1-11.3-8.2-16.7-2.7 5.8-8.2 11.1-8.2 16.7zm10.5-1.1l3.1.1c.1 4-2.4 5.8-5.6 5.8-.3 0-1.2-.1-1.7-.4l.6-3h.5c1.8.1 2.9-.8 3.1-2.5zm-10-35.9c0 4.5 3.7 8.2 8.2 8.2 4.5 0 8.2-3.7 8.2-8.2 0-5.6-5.1-11.3-8.2-16.7-2.6 5.8-8.1 11.1-8.2 16.7zm10.6-1l3.1.1c.1 4-2.4 5.8-5.6 5.8-.3 0-1.2-.1-1.7-.4l.6-3h.5c1.8 0 2.9-.9 3.1-2.5zm-42.2.4c0 4.5 3.7 8.2 8.2 8.2 4.5 0 8.2-3.7 8.2-8.2 0-5.6-5.1-11.3-8.2-16.7-2.7 5.8-8.1 11.1-8.2 16.7zm10.6-1l3.1.1c.1 4-2.4 5.8-5.6 5.8-.3 0-1.2-.1-1.7-.4l.6-3h.5c1.8 0 2.8-.9 3.1-2.5zm-53.5-19.9c0 4.5 3.7 8.2 8.2 8.2s8.2-3.7 8.2-8.2c0-5.6-5.1-11.3-8.2-16.7-2.7 5.8-8.2 11.1-8.2 16.7zm10.5-1l3.1.1c.1 4-2.4 5.8-5.6 5.8-.3 0-1.2-.1-1.7-.4l.6-3h.5c1.9 0 2.9-.9 3.1-2.5zm20.8-21.7c0-5.6-5.1-11.3-8.2-16.7-2.7 5.8-8.2 11.1-8.2 16.7 0 4.5 3.7 8.2 8.2 8.2 4.5.1 8.2-3.6 8.2-8.2zm-10 4.4l.6-2.9h.5c1.7 0 2.8-.9 3-2.5l3.1.1c.1 4-2.4 5.8-5.6 5.8-.3 0-1.2-.2-1.6-.5zm-5.8-45.5c0 4.5 3.7 8.2 8.2 8.2 4.5 0 8.2-3.7 8.2-8.2 0-5.6-5.1-11.3-8.2-16.7-2.7 5.8-8.2 11-8.2 16.7zm10.5-1.1l3.1.1c.1 4-2.4 5.8-5.6 5.8-.3 0-1.2-.1-1.7-.4l.6-3h.6c1.8.1 2.8-.8 3-2.5zm22.8-39c4.5 0 8.2-3.7 8.2-8.2 0-5.6-5.1-11.3-8.2-16.7-2.7 5.8-8.2 11.1-8.2 16.7-.1 4.5 3.6 8.2 8.2 8.2zm-1.3-6.8h.5c1.7 0 2.8-.9 3-2.5l3.1.1c.1 4-2.4 5.8-5.6 5.8-.3 0-1.2-.1-1.7-.4l.7-3zm44.5-21.6c3.7 0 6.7-3 6.7-6.7 0-4.6-4.2-9.2-6.7-13.7-2.2 4.7-6.7 9.1-6.7 13.7 0 3.7 3 6.7 6.7 6.7zm-1-5.6h.4c1.4 0 2.3-.7 2.5-2.1l2.6.1c.1 3.2-2 4.7-4.6 4.7-.3 0-1-.1-1.4-.3l.5-2.4zm-41-19.1c4.5 0 8.2-3.7 8.2-8.2 0-5.6-5.1-11.3-8.2-16.7-2.7 5.8-8.2 11.1-8.2 16.7-.1 4.5 3.6 8.2 8.2 8.2zm-1.3-6.8h.5c1.7 0 2.8-.9 3-2.5l3.1.1c.1 4-2.4 5.8-5.6 5.8-.3 0-1.2-.1-1.7-.4l.7-3zm85.4-4.6c4.5 0 8.2-3.7 8.2-8.2 0-5.6-5.1-11.3-8.2-16.7-2.7 5.8-8.2 11.1-8.2 16.7 0 4.5 3.6 8.2 8.2 8.2zM31 208h.5c1.7 0 2.8-.9 3-2.5l3.1.1c.1 4-2.4 5.8-5.6 5.8-.3 0-1.2-.1-1.7-.4l.7-3zm-47.3 130.5c0-5.6-5.1-11.3-8.2-16.7-2.7 5.8-8.2 11.1-8.2 16.7 0 4.5 3.7 8.2 8.2 8.2 4.5 0 8.2-3.7 8.2-8.2zm-10 4.4l.6-3h.5c1.7 0 2.8-.9 3-2.5l3.1.1c.1 4-2.4 5.8-5.6 5.8-.3 0-1.2-.2-1.6-.4zM4 326.5c0-5.6-5.1-11.3-8.2-16.7-2.7 5.8-8.2 11.1-8.2 16.7 0 4.5 3.7 8.2 8.2 8.2 4.5.1 8.2-3.6 8.2-8.2zm-10.1 4.4l.6-3h.5c1.7 0 2.8-.9 3-2.5l3.1.1c.1 4-2.4 5.8-5.6 5.8-.2 0-1.1-.1-1.6-.4zm37-49.1c0-5.6-5.1-11.3-8.2-16.7-2.7 5.8-8.2 11.1-8.2 16.7 0 4.5 3.7 8.2 8.2 8.2s8.2-3.7 8.2-8.2zm-10.1 4.4l.6-3h.5c1.7 0 2.8-.9 3-2.5l3.1.1c.1 4-2.4 5.8-5.6 5.8-.2 0-1.1-.1-1.6-.4zm-39.3 26.5c4.5 0 8.2-3.7 8.2-8.2 0-5.6-5.1-11.3-8.2-16.7-2.7 5.8-8.2 11.1-8.2 16.7-.1 4.5 3.6 8.2 8.2 8.2zm-1.3-6.8h.5c1.7 0 2.8-.9 3-2.5l3.1.1c.1 4-2.4 5.8-5.6 5.8-.3 0-1.2-.1-1.7-.4l.7-3zm62.1-149c4.5 0 8.2-3.7 8.2-8.2 0-5.6-5.1-11.3-8.2-16.7-2.7 5.8-8.2 11.1-8.2 16.7 0 4.6 3.7 8.2 8.2 8.2zm-1.2-6.7h.5c1.7 0 2.8-.9 3-2.5l3.1.1c.1 4-2.4 5.8-5.6 5.8-.3 0-1.2-.1-1.7-.4l.7-3zm164.9 199c0 4.5 3.7 8.2 8.2 8.2 4.5 0 8.2-3.7 8.2-8.2 0-5.6-5.1-11.3-8.2-16.7-2.7 5.8-8.2 11.1-8.2 16.7zm10.5-1l3.1.1c.1 4-2.4 5.8-5.6 5.8-.3 0-1.2-.1-1.7-.4l.6-3h.5c1.9 0 2.9-.9 3.1-2.5zM71 81.3c-2.7 5.8-8.2 11.1-8.2 16.7 0 4.5 3.7 8.2 8.2 8.2 4.5 0 8.2-3.7 8.2-8.2 0-5.6-5.1-11.3-8.2-16.7zm-.1 21.5c-.3 0-1.2-.1-1.7-.4l.6-3h.5c1.7 0 2.8-.9 3-2.5l3.1.1c.2 4-2.3 5.8-5.5 5.8zm2.3 59.6c0-5.6-5.1-11.3-8.2-16.7-2.7 5.8-8.2 11.1-8.2 16.7 0 4.5 3.7 8.2 8.2 8.2 4.6.1 8.2-3.6 8.2-8.2zm-10 4.4l.6-3h.5c1.7 0 2.8-.9 3-2.5l3.1.1c.1 4-2.4 5.8-5.6 5.8-.3.1-1.1-.1-1.6-.4zm70.4-44.5c4.5 0 8.2-3.7 8.2-8.2 0-5.6-5.1-11.3-8.2-16.7-2.7 5.8-8.2 11.1-8.2 16.7 0 4.5 3.7 8.2 8.2 8.2zm-1.2-6.7h.5c1.7 0 2.8-.9 3-2.5l3.1.1c.1 4-2.4 5.8-5.6 5.8-.3 0-1.2-.1-1.7-.4l.7-3zm235 132.8c0-5.6-5.1-11.3-8.2-16.7-2.7 5.8-8.2 11.1-8.2 16.7 0 4.5 3.7 8.2 8.2 8.2 4.5 0 8.2-3.7 8.2-8.2zm-8.3 4.8c-.3 0-1.2-.1-1.7-.4l.6-3h.5c1.7 0 2.8-.9 3-2.5l3.1.1c.2 4-2.3 5.8-5.5 5.8zM126.6 146.9c0 4.5 3.7 8.2 8.2 8.2 4.5 0 8.2-3.7 8.2-8.2 0-5.6-5.1-11.3-8.2-16.7-2.7 5.8-8.2 11.1-8.2 16.7zm10.6-1l3.1.1c.1 4-2.4 5.8-5.6 5.8-.3 0-1.2-.1-1.7-.4l.6-3h.5c1.8 0 2.8-.9 3.1-2.5zm95 48.2c0 4.5 3.7 8.2 8.2 8.2s8.2-3.7 8.2-8.2c0-5.6-5.1-11.3-8.2-16.7-2.7 5.8-8.2 11-8.2 16.7zm10.6-1.1l3.1.1c.1 4-2.4 5.8-5.6 5.8-.3 0-1.2-.1-1.7-.4l.6-3h.5c1.8.1 2.8-.8 3.1-2.5zM121.7 82.9c4.5 0 8.2-3.7 8.2-8.2 0-5.6-5.1-11.3-8.2-16.7-2.7 5.8-8.2 11.1-8.2 16.7 0 4.6 3.7 8.2 8.2 8.2zm-1.2-6.7h.5c1.7 0 2.8-.9 3-2.5l3.1.1c.1 4-2.4 5.8-5.6 5.8-.3 0-1.2-.1-1.7-.4l.7-3zm86.7 14c0 4.5 3.7 8.2 8.2 8.2 4.5 0 8.2-3.7 8.2-8.2 0-5.6-5.1-11.3-8.2-16.7-2.7 5.8-8.2 11.1-8.2 16.7zm10.5-1l3.1.1c.1 4-2.4 5.8-5.6 5.8-.3 0-1.2-.1-1.7-.4l.6-3h.5c1.8 0 2.9-.8 3.1-2.5zm-38.1-55.1c-2.7 5.8-8.2 11.1-8.2 16.7 0 4.5 3.7 8.2 8.2 8.2 4.5 0 8.2-3.7 8.2-8.2 0-5.5-5.1-11.2-8.2-16.7zm-.1 21.6c-.3 0-1.2-.1-1.7-.4l.6-3h.5c1.7 0 2.8-.9 3-2.5l3.1.1c.2 4-2.3 5.8-5.5 5.8zm337.4 78.4c0-5.6-5.1-11.3-8.2-16.7-2.7 5.8-8.2 11.1-8.2 16.7 0 4.5 3.7 8.2 8.2 8.2 4.5 0 8.2-3.7 8.2-8.2zm-8.4 4.8c-.3 0-1.2-.1-1.7-.4l.6-3h.5c1.7 0 2.8-.9 3-2.5l3.1.1c.2 4-2.3 5.8-5.5 5.8zm131.7 219.2c-2.7 5.8-8.2 11.1-8.2 16.7 0 4.5 3.7 8.2 8.2 8.2 4.5 0 8.2-3.7 8.2-8.2.1-5.5-5.1-11.2-8.2-16.7zm-.1 21.6c-.3 0-1.2-.1-1.7-.4l.6-3h.5c1.7 0 2.8-.9 3-2.5l3.1.1c.2 4-2.3 5.8-5.5 5.8zM346.7 32.2c4.5 0 8.2-3.7 8.2-8.2 0-5.6-5.1-11.3-8.2-16.7-2.7 5.8-8.2 11.1-8.2 16.7-.1 4.5 3.6 8.2 8.2 8.2zm-1.3-6.7h.5c1.7 0 2.8-.9 3-2.5l3.1.1c.1 4-2.4 5.8-5.6 5.8-.3 0-1.2-.1-1.7-.4l.7-3zM696.6 342c-2.7 5.8-8.2 11.1-8.2 16.7 0 4.5 3.7 8.2 8.2 8.2 4.5 0 8.2-3.7 8.2-8.2.1-5.5-5.1-11.2-8.2-16.7zm-.1 21.6c-.3 0-1.2-.1-1.7-.4l.6-3h.5c1.7 0 2.8-.9 3-2.5l3.1.1c.2 4-2.3 5.8-5.5 5.8zm16.2-1.9c-2.7 5.8-8.2 11.1-8.2 16.7 0 4.5 3.7 8.2 8.2 8.2s8.2-3.7 8.2-8.2c.1-5.5-5.1-11.3-8.2-16.7zm-.1 21.6c-.3 0-1.2-.1-1.7-.4l.6-3h.5c1.7 0 2.8-.9 3-2.5l3.1.1c.2 3.9-2.3 5.8-5.5 5.8zm-42.1 65.8c0 4.5 3.7 8.2 8.2 8.2s8.2-3.7 8.2-8.2c0-5.6-5.1-11.3-8.2-16.7-2.7 5.8-8.2 11.1-8.2 16.7zm10.5-1l3.1.1c.1 4-2.4 5.8-5.6 5.8-.3 0-1.2-.1-1.7-.4l.6-3h.5c1.9 0 2.9-.8 3.1-2.5zm-822.3-71.5c0 4.5 3.7 8.2 8.2 8.2 4.5 0 8.2-3.7 8.2-8.2 0-5.6-5.1-11.3-8.2-16.7-2.7 5.8-8.2 11.1-8.2 16.7zm10.6-1l3.1.1c.1 4-2.4 5.8-5.6 5.8-.3 0-1.2-.1-1.7-.4l.6-3h.5c1.8 0 2.8-.8 3.1-2.5zm-28.5 18c0 4.5 3.7 8.2 8.2 8.2 4.5 0 8.2-3.7 8.2-8.2 0-5.6-5.1-11.3-8.2-16.7-2.7 5.8-8.2 11.1-8.2 16.7zm10.6-1l3.1.1c.1 4-2.4 5.8-5.6 5.8-.3 0-1.2-.1-1.7-.4l.6-2.9h.5c1.8-.1 2.8-.9 3.1-2.6zM304.9 57.9c4.5 0 8.2-3.7 8.2-8.2 0-5.6-5.1-11.3-8.2-16.7-2.7 5.8-8.2 11.1-8.2 16.7 0 4.5 3.6 8.2 8.2 8.2zm-1.2-6.8h.5c1.7 0 2.8-.9 3-2.5l3.1.1c.1 4-2.4 5.8-5.6 5.8-.3 0-1.2-.1-1.7-.4l.7-3zM51.8 230.5c0-4.8-4.4-9.6-7-14.3-2.3 5-7 9.5-7 14.3 0 3.9 3.1 7 7 7s7-3.2 7-7zm-7.2 4.1c-.3 0-1.1-.1-1.5-.4l.5-2.5h.5c1.5 0 2.4-.7 2.6-2.2l2.7.1c.1 3.4-2 5-4.8 5zm18-22.8c4.5 0 8.2-3.7 8.2-8.2 0-5.6-5.1-11.3-8.2-16.7-2.7 5.8-8.2 11.1-8.2 16.7 0 4.6 3.7 8.2 8.2 8.2zm-1.2-6.7h.6c1.7 0 2.8-.9 3-2.5l3.1.1c.1 4-2.4 5.8-5.6 5.8-.3 0-1.2-.1-1.7-.4l.6-3zm-81.1-73.3c3.6 0 6.4-2.9 6.4-6.4 0-4.4-4-8.8-6.4-13.1-2.1 4.5-6.4 8.7-6.4 13.1-.1 3.5 2.8 6.4 6.4 6.4zm-1-5.3h.4c1.4 0 2.2-.7 2.4-2l2.5.1c.1 3.1-1.9 4.5-4.4 4.5-.3 0-1-.1-1.3-.3l.4-2.3zm285.4 277.2c0 3.6 2.9 6.4 6.4 6.4 3.6 0 6.4-2.9 6.4-6.4 0-4.4-4-8.8-6.4-13.1-2.1 4.6-6.4 8.7-6.4 13.1zm8.3-.8l2.5.1c.1 3.1-1.9 4.5-4.4 4.5-.3 0-1-.1-1.3-.3l.5-2.3h.4c1.3 0 2.1-.7 2.3-2zm-397.6 16c0 3.6 2.9 6.4 6.4 6.4 3.6 0 6.4-2.9 6.4-6.4 0-4.4-4-8.8-6.4-13.1-2.1 4.6-6.4 8.7-6.4 13.1zm8.3-.8l2.5.1c.1 3.1-1.9 4.5-4.4 4.5-.3 0-1-.1-1.3-.3l.5-2.3h.4c1.3 0 2.1-.7 2.3-2zm32.9 17c0 3.6 2.9 6.4 6.4 6.4 3.6 0 6.4-2.9 6.4-6.4 0-4.4-4-8.8-6.4-13.1-2.1 4.5-6.4 8.7-6.4 13.1zm8.2-.9l2.5.1c.1 3.1-1.9 4.5-4.4 4.5-.3 0-1-.1-1.3-.3l.5-2.3h.4c1.3 0 2.1-.6 2.3-2zM243.4 49.5c3.6 0 6.4-2.9 6.4-6.4 0-4.4-4-8.8-6.4-13.1-2.1 4.5-6.4 8.7-6.4 13.1 0 3.5 2.9 6.4 6.4 6.4zm-.9-5.3h.4c1.4 0 2.2-.7 2.4-2l2.5.1c.1 3.1-1.9 4.5-4.4 4.5-.3 0-1-.1-1.3-.3l.4-2.3zM97.4 314c0 3.9 3.1 7 7 7s7-3.1 7-7c0-4.8-4.4-9.6-7-14.3-2.3 5-7 9.5-7 14.3zm9-.9l2.7.1c.1 3.4-2 4.9-4.8 4.9-.3 0-1.1-.1-1.5-.4l.5-2.5h.5c1.5.1 2.4-.7 2.6-2.1zm-84.8 56.4c0 4.5 3.7 8.2 8.2 8.2 4.5 0 8.2-3.7 8.2-8.2 0-5.6-5.1-11.3-8.2-16.7-2.7 5.8-8.2 11.1-8.2 16.7zm10.5-1.1l3.1.1c.1 4-2.4 5.8-5.6 5.8-.3 0-1.2-.1-1.7-.4l.6-3h.5c1.9.1 2.9-.8 3.1-2.5zM-4.7 456c0 2.7 2.2 4.9 4.9 4.9s4.9-2.2 4.9-4.9c0-3.3-3.1-6.8-4.9-10-1.6 3.4-4.9 6.6-4.9 10zm6.4-.6l1.9.1c.1 2.4-1.4 3.5-3.4 3.5-.2 0-.7-.1-1-.3l.4-1.8h.3c1 0 1.6-.5 1.8-1.5zM131 432.7c0 2.7 2.2 4.9 4.9 4.9s4.9-2.2 4.9-4.9c0-3.3-3.1-6.8-4.9-10-1.6 3.4-4.9 6.6-4.9 10zm6.3-.7l1.9.1c.1 2.4-1.4 3.5-3.4 3.5-.2 0-.7-.1-1-.3l.4-1.8h.3c1.1.1 1.7-.5 1.8-1.5zm21.5-15.3c0 2.7 2.2 4.9 4.9 4.9s4.9-2.2 4.9-4.9c0-3.3-3.1-6.8-4.9-10-1.6 3.4-4.9 6.6-4.9 10zm6.4-.6l1.9.1c.1 2.4-1.4 3.5-3.4 3.5-.2 0-.7-.1-1-.3l.4-1.8h.3c1 0 1.6-.5 1.8-1.5zm-.2-157.4c2.7 0 4.9-2.2 4.9-4.9 0-3.3-3.1-6.8-4.9-10-1.6 3.5-4.9 6.7-4.9 10-.1 2.7 2.1 4.9 4.9 4.9zm-.8-4h.3c1 0 1.7-.5 1.8-1.5l1.9.1c.1 2.4-1.4 3.5-3.4 3.5-.2 0-.7-.1-1-.3l.4-1.8zm-1.2 49.8c0 2.7 2.2 4.9 4.9 4.9s4.9-2.2 4.9-4.9c0-3.3-3.1-6.8-4.9-10-1.6 3.5-4.9 6.6-4.9 10zm6.4-.6l1.9.1c.1 2.4-1.4 3.5-3.4 3.5-.2 0-.7-.1-1-.3l.4-1.8h.3c1 0 1.6-.5 1.8-1.5zm-248.7-34.1c0 2.7 2.2 4.9 4.9 4.9s4.9-2.2 4.9-4.9c0-3.3-3.1-6.8-4.9-10-1.5 3.5-4.8 6.6-4.9 10zm6.4-.6l1.9.1c.1 2.4-1.4 3.5-3.4 3.5-.2 0-.7-.1-1-.3l.4-1.8h.3c1 0 1.6-.5 1.8-1.5zm51.1.2c2.7 0 4.9-2.2 4.9-4.9 0-3.3-3.1-6.8-4.9-10-1.6 3.5-4.9 6.7-4.9 10-.1 2.7 2.2 4.9 4.9 4.9zm-.7-4.1h.3c1 0 1.7-.5 1.8-1.5l1.9.1c.1 2.4-1.4 3.5-3.4 3.5-.2 0-.7-.1-1-.3l.4-1.8zm-144.1 67.3c-2.7 5.8-8.2 11.1-8.2 16.7 0 4.5 3.7 8.2 8.2 8.2 4.5 0 8.2-3.7 8.2-8.2 0-5.6-5.1-11.3-8.2-16.7zm-.1 21.5c-.3 0-1.2-.1-1.7-.4l.6-2.9h.5c1.7 0 2.8-.9 3-2.5l3.1.1c.2 3.9-2.3 5.7-5.5 5.7zm-28.7-63.9c0 4.5 3.7 8.2 8.2 8.2 4.5 0 8.2-3.7 8.2-8.2 0-5.6-5.1-11.3-8.2-16.7-2.7 5.8-8.2 11.1-8.2 16.7zm10.5-1l3.1.1c.1 4-2.4 5.8-5.6 5.8-.3 0-1.2-.1-1.7-.4l.6-3h.5c1.9 0 2.9-.8 3.1-2.5zm-33.8 3.7c0 4.5 3.7 8.2 8.2 8.2 4.5 0 8.2-3.7 8.2-8.2 0-5.6-5.1-11.3-8.2-16.7-2.7 5.8-8.2 11.1-8.2 16.7zm10.6-1l3.1.1c.1 4-2.4 5.8-5.6 5.8-.3 0-1.2-.1-1.7-.4l.6-3h.5c1.8 0 2.8-.8 3.1-2.5zm74.6-70.4c4.5 0 8.2-3.7 8.2-8.2 0-5.6-5.1-11.3-8.2-16.7-2.7 5.8-8.2 11.1-8.2 16.7 0 4.5 3.7 8.2 8.2 8.2zm-1.2-6.8h.5c1.7 0 2.8-.9 3-2.5l3.1.1c.1 4-2.4 5.8-5.6 5.8-.3 0-1.2-.1-1.7-.4l.7-3zm-60.7 29.9c0 4.5 3.7 8.2 8.2 8.2 4.5 0 8.2-3.7 8.2-8.2 0-5.6-5.1-11.3-8.2-16.7-2.7 5.8-8.2 11.1-8.2 16.7zm10.5-1l3.1.1c.1 4-2.4 5.8-5.6 5.8-.3 0-1.2-.1-1.7-.4l.6-3h.5c1.9 0 2.9-.9 3.1-2.5zm99.6-30.3c0 4.5 3.7 8.2 8.2 8.2 4.5 0 8.2-3.7 8.2-8.2 0-5.6-5.1-11.3-8.2-16.7-2.7 5.8-8.2 11-8.2 16.7zm10.5-1.1l3.1.1c.1 4-2.4 5.8-5.6 5.8-.3 0-1.2-.1-1.7-.4l.6-3h.5c1.9.1 2.9-.8 3.1-2.5zm-5-20.2c4.5 0 8.2-3.7 8.2-8.2 0-5.6-5.1-11.3-8.2-16.7-2.7 5.8-8.2 11.1-8.2 16.7 0 4.5 3.7 8.2 8.2 8.2zm-1.2-6.8h.5c1.7 0 2.8-.9 3-2.5l3.1.1c.1 4-2.4 5.8-5.6 5.8-.3 0-1.2-.1-1.7-.4l.7-3zm-44.9 108.6c0 4.5 3.7 8.2 8.2 8.2 4.5 0 8.2-3.7 8.2-8.2 0-5.6-5.1-11.3-8.2-16.7-2.7 5.8-8.2 11.1-8.2 16.7zm10.6-1l3.1.1c.1 4-2.4 5.8-5.6 5.8-.3 0-1.2-.1-1.7-.4l.6-3h.5c1.8 0 2.8-.8 3.1-2.5zm-36.4-11.6c4.5 0 8.2-3.7 8.2-8.2 0-5.6-5.1-11.3-8.2-16.7-2.7 5.8-8.2 11.1-8.2 16.7 0 4.5 3.7 8.2 8.2 8.2zm-1.2-6.8h.5c1.7 0 2.8-.9 3-2.5l3.1.1c.1 4-2.4 5.8-5.6 5.8-.3 0-1.2-.1-1.7-.4l.7-3zm41.2-16.5c4.5 0 8.2-3.7 8.2-8.2 0-5.6-5.1-11.3-8.2-16.7-2.7 5.8-8.2 11.1-8.2 16.7 0 4.5 3.6 8.2 8.2 8.2zm-1.2-6.8h.5c1.7 0 2.8-.9 3-2.5l3.1.1c.1 4-2.4 5.8-5.6 5.8-.3 0-1.2-.1-1.7-.4l.7-3zm16 86.9c0-5.6-5.1-11.3-8.2-16.7-2.7 5.8-8.2 11.1-8.2 16.7 0 4.5 3.7 8.2 8.2 8.2 4.5 0 8.2-3.7 8.2-8.2zm-8.4 4.8c-.3 0-1.2-.1-1.7-.4l.6-3h.5c1.7 0 2.8-.9 3-2.5l3.1.1c.2 4-2.3 5.8-5.5 5.8zm-87.4 5.3c0 2.7 2.2 4.9 4.9 4.9s4.9-2.2 4.9-4.9c0-3.4-3.1-6.8-4.9-10-1.6 3.4-4.9 6.6-4.9 10zm6.3-.6l1.9.1c.1 2.4-1.4 3.5-3.4 3.5-.2 0-.7-.1-1-.3l.4-1.8h.3c1 0 1.7-.5 1.8-1.5zM2.8 393.4c0-3.3-3.1-6.8-4.9-10-1.6 3.5-4.9 6.7-4.9 10 0 2.7 2.2 4.9 4.9 4.9s4.9-2.1 4.9-4.9zm-6 2.7l.4-1.8h.3c1 0 1.7-.5 1.8-1.5l1.9.1c.1 2.4-1.4 3.5-3.4 3.5-.2-.1-.7-.2-1-.3zm113.9-145.3c-1.6 3.5-4.9 6.7-4.9 10 0 2.7 2.2 4.9 4.9 4.9s4.9-2.2 4.9-4.9c0-3.3-3.1-6.7-4.9-10zm-.1 13c-.2 0-.7-.1-1-.2l.4-1.8h.3c1 0 1.7-.5 1.8-1.5l1.9.1c0 2.3-1.5 3.4-3.4 3.4zm-31.7-54.3c0 2.7 2.2 4.9 4.9 4.9s4.9-2.2 4.9-4.9c0-3.3-3.1-6.8-4.9-10-1.6 3.5-4.9 6.7-4.9 10zm6.3-.6l1.9.1c.1 2.4-1.4 3.5-3.4 3.5-.2 0-.7-.1-1-.3l.4-1.8h.3c1 0 1.7-.5 1.8-1.5zm-65.8-63.6c2.7 0 4.9-2.2 4.9-4.9 0-3.3-3.1-6.8-4.9-10-1.6 3.5-4.9 6.7-4.9 10-.1 2.7 2.1 4.9 4.9 4.9zm-.8-4.1h.3c1 0 1.7-.5 1.8-1.5l1.9.1c.1 2.4-1.4 3.5-3.4 3.5-.2 0-.7-.1-1-.3l.4-1.8zm144.7-34.3c0-3.3-3.1-6.8-4.9-10-1.6 3.5-4.9 6.7-4.9 10 0 2.7 2.2 4.9 4.9 4.9 2.7.1 4.9-2.2 4.9-4.9zm-5 2.9c-.2 0-.7-.1-1-.2l.4-1.8h.3c1 0 1.7-.5 1.8-1.5l1.9.1c0 2.3-1.5 3.4-3.4 3.4zM-46.4 354.5c0 2.7 2.2 4.9 4.9 4.9s4.9-2.2 4.9-4.9c0-3.3-3.1-6.8-4.9-10-1.6 3.5-4.9 6.7-4.9 10zm6.3-.6l1.9.1c.1 2.4-1.4 3.5-3.4 3.5-.2 0-.7-.1-1-.3l.4-1.8h.3c1 0 1.7-.5 1.8-1.5zm178-130.6c0 2.7 2.2 4.9 4.9 4.9s4.9-2.2 4.9-4.9c0-3.3-3.1-6.8-4.9-10-1.5 3.4-4.8 6.6-4.9 10zm6.4-.7l1.9.1c.1 2.4-1.4 3.5-3.4 3.5-.2 0-.7-.1-1-.3l.4-1.8h.3c1 .1 1.6-.5 1.8-1.5zM381 62.3c2.7 0 4.9-2.2 4.9-4.9 0-3.3-3.1-6.8-4.9-10-1.6 3.5-4.9 6.7-4.9 10-.1 2.7 2.1 4.9 4.9 4.9zm-.8-4h.3c1 0 1.7-.5 1.8-1.5l1.9.1c.1 2.4-1.4 3.5-3.4 3.5-.2 0-.7-.1-1-.2l.4-1.9zM234.3 169c0-3.3-3.1-6.8-4.9-10-1.6 3.5-4.9 6.7-4.9 10 0 2.7 2.2 4.9 4.9 4.9s4.9-2.2 4.9-4.9zm-5 2.9c-.2 0-.7-.1-1-.2l.4-1.8h.3c1 0 1.7-.5 1.8-1.5l1.9.1c.1 2.3-1.4 3.4-3.4 3.4zm22 35.9c0 2.7 2.2 4.9 4.9 4.9s4.9-2.2 4.9-4.9c0-3.3-3.1-6.8-4.9-10-1.6 3.4-4.9 6.6-4.9 10zm6.4-.7l1.9.1c.1 2.4-1.4 3.5-3.4 3.5-.2 0-.7-.1-1-.3l.4-1.8h.3c1 .1 1.6-.5 1.8-1.5zm70.9 11.4c0-2.5-2.3-5.1-3.8-7.6-1.2 2.6-3.7 5-3.7 7.6 0 2.1 1.7 3.7 3.7 3.7 2.1 0 3.8-1.6 3.8-3.7zm-3.8 2.2c-.2 0-.6-.1-.8-.2l.3-1.3h.2c.8 0 1.3-.4 1.4-1.2h1.4c.1 1.9-1 2.7-2.5 2.7zM202 234.2c2.7 0 4.9-2.2 4.9-4.9 0-3.3-3.1-6.8-4.9-10-1.6 3.5-4.9 6.7-4.9 10-.1 2.7 2.1 4.9 4.9 4.9zm-.8-4.1h.3c1 0 1.7-.5 1.8-1.5l1.9.1c.1 2.4-1.4 3.5-3.4 3.5-.2 0-.7-.1-1-.2l.4-1.9zm-96.9-101.6c0-3.3-3.1-6.8-4.9-10-1.6 3.5-4.9 6.7-4.9 10 0 2.7 2.2 4.9 4.9 4.9s4.9-2.2 4.9-4.9zm-6.1 2.6l.4-1.8h.3c1 0 1.7-.5 1.8-1.5l1.9.1c.1 2.4-1.4 3.5-3.4 3.5-.2 0-.7-.1-1-.3zm284.1 22.4c0-5.6-5.1-11.3-8.2-16.7-2.7 5.8-8.2 11.1-8.2 16.7 0 4.5 3.7 8.2 8.2 8.2s8.2-3.7 8.2-8.2zm-8.3 4.8c-.3 0-1.2-.1-1.7-.4l.6-3h.5c1.7 0 2.8-.9 3-2.5l3.1.1c.2 4-2.3 5.8-5.5 5.8zm44.3-68.2c4.5 0 8.2-3.7 8.2-8.2 0-5.6-5.1-11.3-8.2-16.7-2.7 5.8-8.2 11.1-8.2 16.7-.1 4.5 3.6 8.2 8.2 8.2zm-1.3-6.8h.5c1.7 0 2.8-.9 3-2.5l3.1.1c.1 4-2.4 5.8-5.6 5.8-.3 0-1.2-.1-1.7-.4l.7-3zm.2 274.3c0 4.5 3.7 8.2 8.2 8.2 4.5 0 8.2-3.7 8.2-8.2 0-5.6-5.1-11.3-8.2-16.7-2.7 5.7-8.2 11-8.2 16.7zm10.6-1.1l3.1.1c.1 4-2.4 5.8-5.6 5.8-.3 0-1.2-.1-1.7-.4l.6-3h.5c1.8.1 2.8-.8 3.1-2.5zm-8.9-170.9c4.5 0 8.2-3.7 8.2-8.2 0-5.6-5.1-11.3-8.2-16.7-2.7 5.8-8.2 11.1-8.2 16.7-.1 4.5 3.6 8.2 8.2 8.2zm-1.3-6.8h.5c1.7 0 2.8-.9 3-2.5l3.1.1c.1 4-2.4 5.8-5.6 5.8-.3 0-1.2-.1-1.7-.4l.7-3zm-7.8-75.4c0-5.6-5.1-11.3-8.2-16.7-2.7 5.8-8.2 11.1-8.2 16.7 0 4.5 3.7 8.2 8.2 8.2 4.5 0 8.2-3.7 8.2-8.2zm-10.1 4.4l.6-3h.5c1.7 0 2.8-.9 3-2.5l3.1.1c.1 4-2.4 5.8-5.6 5.8-.2 0-1.1-.2-1.6-.4zm22.9 42.1c0 4.5 3.7 8.2 8.2 8.2 4.5 0 8.2-3.7 8.2-8.2 0-5.6-5.1-11.3-8.2-16.7-2.7 5.8-8.2 11.1-8.2 16.7zm10.5-1l3.1.1c.1 4-2.4 5.8-5.6 5.8-.3 0-1.2-.1-1.7-.4l.6-3h.5c1.9 0 2.9-.9 3.1-2.5zm45.6 112c0 4.5 3.7 8.2 8.2 8.2s8.2-3.7 8.2-8.2c0-5.6-5.1-11.3-8.2-16.7-2.7 5.8-8.2 11.1-8.2 16.7zm10.5-1.1l3.1.1c.1 4-2.4 5.8-5.6 5.8-.3 0-1.2-.1-1.7-.4l.6-3h.5c1.8.1 2.9-.8 3.1-2.5zm62.6 87c0-4.2-3.8-8.4-6.1-12.5-2 4.3-6.1 8.3-6.1 12.5 0 3.4 2.7 6.1 6.1 6.1 3.3 0 6.1-2.8 6.1-6.1zm-6.2 3.6c-.3 0-.9-.1-1.3-.3l.5-2.2h.4c1.3 0 2.1-.7 2.2-1.9l2.3.1c.1 2.9-1.7 4.3-4.1 4.3zm-9.2-19.8c4.5 0 8.2-3.7 8.2-8.2 0-5.6-5.1-11.3-8.2-16.7-2.7 5.8-8.2 11.1-8.2 16.7 0 4.5 3.7 8.2 8.2 8.2zm-1.2-6.8h.5c1.7 0 2.8-.9 3-2.5l3.1.1c.1 4-2.4 5.8-5.6 5.8-.3 0-1.2-.1-1.7-.4l.7-3zm-47.4-189.2c2.7 0 4.9-2.2 4.9-4.9 0-3.3-3.1-6.8-4.9-10-1.6 3.5-4.9 6.7-4.9 10-.1 2.7 2.2 4.9 4.9 4.9zm-.8-4h.3c1 0 1.7-.5 1.8-1.5l1.9.1c.1 2.4-1.4 3.5-3.4 3.5-.2 0-.7-.1-1-.3l.4-1.8zm-7.9 63.3c4.5 0 8.2-3.7 8.2-8.2 0-5.6-5.1-11.3-8.2-16.7-2.7 5.8-8.2 11.1-8.2 16.7 0 4.5 3.7 8.2 8.2 8.2zm-1.2-6.7h.6c1.7 0 2.8-.9 3-2.5l3.1.1c.1 4-2.4 5.8-5.6 5.8-.3 0-1.2-.1-1.7-.4l.6-3zm12.1 8.6c0 4.5 3.7 8.2 8.2 8.2s8.2-3.7 8.2-8.2c0-5.6-5.1-11.3-8.2-16.7-2.7 5.8-8.2 11.1-8.2 16.7zm10.6-1l3.1.1c.1 4-2.4 5.8-5.6 5.8-.3 0-1.2-.1-1.7-.4l.6-3h.5c1.8.1 2.8-.8 3.1-2.5zm29.7-1.3c0-3.3-3.1-6.8-4.9-10-1.6 3.5-4.9 6.7-4.9 10 0 2.7 2.2 4.9 4.9 4.9 2.7.1 4.9-2.1 4.9-4.9zm-5 2.9c-.2 0-.7-.1-1-.2l.4-1.8h.3c1 0 1.7-.5 1.8-1.5l1.9.1c0 2.3-1.5 3.4-3.4 3.4zm39 61c0-3.3-3.1-6.8-4.9-10-1.6 3.5-4.9 6.7-4.9 10 0 2.7 2.2 4.9 4.9 4.9s4.9-2.2 4.9-4.9zm-5 2.9c-.2 0-.7-.1-1-.2l.4-1.8h.3c1 0 1.7-.5 1.8-1.5l1.9.1c0 2.3-1.5 3.4-3.4 3.4zm-39.7 36.5c0-3.3-3.1-6.8-4.9-10-1.6 3.5-4.9 6.7-4.9 10 0 2.7 2.2 4.9 4.9 4.9s4.9-2.2 4.9-4.9zm-6.1 2.6l.4-1.8h.3c1 0 1.7-.5 1.8-1.5l1.9.1c.1 2.4-1.4 3.5-3.4 3.5-.1 0-.7-.1-1-.3zm70.9-109c3.7 0 6.7-3 6.7-6.7 0-4.6-4.2-9.2-6.7-13.7-2.2 4.7-6.7 9.1-6.7 13.7 0 3.6 3 6.7 6.7 6.7zm-1-5.6h.4c1.4 0 2.3-.7 2.5-2.1l2.6.1c.1 3.2-2 4.7-4.6 4.7-.3 0-1-.1-1.4-.3l.5-2.4zm-35.7 98.6c4.5 0 8.2-3.7 8.2-8.2 0-5.6-5.1-11.3-8.2-16.7-2.7 5.8-8.2 11.1-8.2 16.7 0 4.6 3.7 8.2 8.2 8.2zm-1.2-6.7h.5c1.7 0 2.8-.9 3-2.5l3.1.1c.1 4-2.4 5.8-5.6 5.8-.3 0-1.2-.1-1.7-.4l.7-3zm22.7 10.3c4.5 0 8.2-3.7 8.2-8.2 0-5.6-5.1-11.3-8.2-16.7-2.7 5.8-8.2 11.1-8.2 16.7 0 4.5 3.7 8.2 8.2 8.2zm-1.2-6.8h.5c1.7 0 2.8-.9 3-2.5l3.1.1c.1 4-2.4 5.8-5.6 5.8-.3 0-1.2-.1-1.7-.4l.7-3zm54.9-30.8c4.5 0 8.2-3.7 8.2-8.2 0-5.6-5.1-11.3-8.2-16.7-2.7 5.8-8.2 11.1-8.2 16.7 0 4.5 3.7 8.2 8.2 8.2zm-1.2-6.7h.5c1.7 0 2.8-.9 3-2.5l3.1.1c.1 4-2.4 5.8-5.6 5.8-.3 0-1.2-.1-1.7-.4l.7-3zm1.4 22.4c0 2.7 2.2 4.9 4.9 4.9s4.9-2.2 4.9-4.9c0-3.3-3.1-6.8-4.9-10-1.6 3.5-4.9 6.7-4.9 10zm6.3-.6l1.9.1c.1 2.4-1.4 3.5-3.4 3.5-.2 0-.7-.1-1-.3l.4-1.8h.3c1.1 0 1.7-.5 1.8-1.5zm-20.9 76.9c0-5.6-5.1-11.3-8.2-16.7-2.7 5.8-8.2 11.1-8.2 16.7 0 4.5 3.7 8.2 8.2 8.2 4.5.1 8.2-3.6 8.2-8.2zm-10.1 4.5l.6-3h.5c1.7 0 2.8-.9 3-2.5l3.1.1c.1 4-2.4 5.8-5.6 5.8-.2 0-1.1-.2-1.6-.4zm12.6-24.3c4.5 0 8.2-3.7 8.2-8.2 0-5.6-5.1-11.3-8.2-16.7-2.7 5.8-8.2 11.1-8.2 16.7 0 4.5 3.7 8.2 8.2 8.2zm-1.2-6.7h.5c1.7 0 2.8-.9 3-2.5l3.1.1c.1 4-2.4 5.8-5.6 5.8-.3 0-1.2-.1-1.7-.4l.7-3zm46.1 14.1c0 2.7 2.2 4.9 4.9 4.9s4.9-2.2 4.9-4.9c0-3.3-3.1-6.8-4.9-10-1.6 3.4-4.9 6.6-4.9 10zm6.3-.6l1.9.1c.1 2.4-1.4 3.5-3.4 3.5-.2 0-.7-.1-1-.2l.4-1.8h.3c1.1-.1 1.7-.6 1.8-1.6zm-49.9 101.4c0 4.5 3.7 8.2 8.2 8.2 4.5 0 8.2-3.7 8.2-8.2 0-5.6-5.1-11.3-8.2-16.7-2.7 5.7-8.2 11-8.2 16.7zm10.6-1.1l3.1.1c.1 4-2.4 5.8-5.6 5.8-.3 0-1.2-.1-1.7-.4l.6-3h.5c1.8.1 2.8-.8 3.1-2.5zm-17.3-36.5c-2.7 5.8-8.2 11.1-8.2 16.7 0 4.5 3.7 8.2 8.2 8.2 4.5 0 8.2-3.7 8.2-8.2.1-5.6-5-11.3-8.2-16.7zm-.1 21.5c-.3 0-1.2-.1-1.7-.4l.6-3c.2 0 .4.1.5.1 1.7 0 2.8-.9 3-2.5l3.1.1c.2 3.9-2.3 5.7-5.5 5.7zM581.3 363c0 2.7 2.2 4.9 4.9 4.9s4.9-2.2 4.9-4.9c0-3.3-3.1-6.8-4.9-10-1.6 3.4-4.9 6.6-4.9 10zm6.3-.6l1.9.1c.1 2.4-1.4 3.5-3.4 3.5-.2 0-.7-.1-1-.2l.4-1.8h.3c1.1-.1 1.7-.6 1.8-1.6zm59.2 50.5c0 2.7 2.2 4.9 4.9 4.9s4.9-2.2 4.9-4.9c0-3.3-3.1-6.8-4.9-10-1.5 3.4-4.8 6.6-4.9 10zm6.4-.7l1.9.1c.1 2.4-1.4 3.5-3.4 3.5-.2 0-.7-.1-1-.3l.4-1.8h.3c1 .1 1.6-.5 1.8-1.5zm6.2-125.5c0 2.7 2.2 4.9 4.9 4.9s4.9-2.2 4.9-4.9c0-3.3-3.1-6.8-4.9-10-1.6 3.4-4.9 6.6-4.9 10zm6.3-.7l1.9.1c.1 2.4-1.4 3.5-3.4 3.5-.2 0-.7-.1-1-.3l.4-1.8h.3c1.1.1 1.7-.5 1.8-1.5zm-55.1-92c2.7 0 4.9-2.2 4.9-4.9 0-3.3-3.1-6.8-4.9-10-1.6 3.5-4.9 6.7-4.9 10 0 2.7 2.2 4.9 4.9 4.9zm-.7-4h.3c1 0 1.7-.5 1.8-1.5l1.9.1c.1 2.4-1.4 3.5-3.4 3.5-.2 0-.7-.1-1-.3l.4-1.8zm-35.6 265.8c0 2.7 2.2 4.9 4.9 4.9s4.9-2.2 4.9-4.9c0-3.3-3.1-6.8-4.9-10-1.5 3.5-4.8 6.6-4.9 10zm6.4-.6l1.9.1c.1 2.4-1.4 3.5-3.4 3.5-.2 0-.7-.1-1-.2l.4-1.8h.3c1-.1 1.6-.6 1.8-1.6zm-203.3 19.4c0 2.7 2.2 4.9 4.9 4.9s4.9-2.2 4.9-4.9c0-3.3-3.1-6.8-4.9-10-1.5 3.5-4.8 6.6-4.9 10zm6.4-.6l1.9.1c.1 2.4-1.4 3.5-3.4 3.5-.2 0-.7-.1-1-.3l.4-1.8h.3c1 0 1.6-.5 1.8-1.5zm162.3-88.9c0 2.7 2.2 4.9 4.9 4.9s4.9-2.2 4.9-4.9c0-3.3-3.1-6.8-4.9-10-1.6 3.4-4.9 6.6-4.9 10zm6.3-.7l1.9.1c.1 2.4-1.4 3.5-3.4 3.5-.2 0-.7-.1-1-.3l.4-1.8h.3c1.1.1 1.7-.4 1.8-1.5zM514.5 403c0 2.7 2.2 4.9 4.9 4.9s4.9-2.2 4.9-4.9c0-3.3-3.1-6.8-4.9-10-1.6 3.4-4.9 6.6-4.9 10zm6.3-.7l1.9.1c.1 2.4-1.4 3.5-3.4 3.5-.2 0-.7-.1-1-.3l.4-1.8h.3c1.1.1 1.7-.5 1.8-1.5zm-110.2 46.6c0 2.7 2.2 4.9 4.9 4.9s4.9-2.2 4.9-4.9c0-3.3-3.1-6.8-4.9-10-1.5 3.5-4.8 6.6-4.9 10zm6.4-.6l1.9.1c.1 2.4-1.4 3.5-3.4 3.5-.2 0-.7-.1-1-.3l.4-1.8h.3c1 0 1.6-.5 1.8-1.5zm-57.7-32.2c0 2.7 2.2 4.9 4.9 4.9s4.9-2.2 4.9-4.9c0-3.3-3.1-6.8-4.9-10-1.6 3.4-4.9 6.6-4.9 10zm6.4-.6l1.9.1c.1 2.4-1.4 3.5-3.4 3.5-.2 0-.7-.1-1-.3l.4-1.8h.3c1 0 1.6-.5 1.8-1.5zm13.9-75.8c0 2.7 2.2 4.9 4.9 4.9s4.9-2.2 4.9-4.9c0-3.3-3.1-6.8-4.9-10-1.6 3.5-4.9 6.6-4.9 10zm6.4-.6l1.9.1c.1 2.4-1.4 3.5-3.4 3.5-.2 0-.7-.1-1-.3l.4-1.8h.3c1 0 1.6-.5 1.8-1.5zm77.7-43.5c0 2.7 2.2 4.9 4.9 4.9s4.9-2.2 4.9-4.9c0-3.3-3.1-6.8-4.9-10-1.5 3.4-4.8 6.6-4.9 10zm6.4-.7l1.9.1c.1 2.4-1.4 3.5-3.4 3.5-.2 0-.7-.1-1-.2l.4-1.8h.3c1 0 1.6-.6 1.8-1.6zM325.3 320c0 2.7 2.2 4.9 4.9 4.9s4.9-2.2 4.9-4.9c0-3.3-3.1-6.8-4.9-10-1.6 3.5-4.9 6.6-4.9 10zm6.4-.6l1.9.1c.1 2.4-1.4 3.5-3.4 3.5-.2 0-.7-.1-1-.3l.4-1.8h.3c1 0 1.6-.5 1.8-1.5zm66.1 164c0 4.5 3.7 8.2 8.2 8.2 4.5 0 8.2-3.7 8.2-8.2 0-5.6-5.1-11.3-8.2-16.7-2.7 5.8-8.2 11.1-8.2 16.7zm10.5-1l3.1.1c.1 4-2.4 5.8-5.6 5.8-.3 0-1.2-.1-1.7-.4l.6-3h.5c1.8 0 2.9-.9 3.1-2.5zM526.2 451c0 4.5 3.7 8.2 8.2 8.2 4.5 0 8.2-3.7 8.2-8.2 0-5.6-5.1-11.3-8.2-16.7-2.7 5.8-8.2 11.1-8.2 16.7zm10.6-1l3.1.1c.1 4-2.4 5.8-5.6 5.8-.3 0-1.2-.1-1.7-.4l.6-3h.5c1.8 0 2.8-.9 3.1-2.5zM258.2 117.7c0-5.6-5.1-11.3-8.2-16.7-2.7 5.8-8.2 11.1-8.2 16.7 0 4.5 3.7 8.2 8.2 8.2 4.5 0 8.2-3.7 8.2-8.2zm-8.3 4.8c-.3 0-1.2-.1-1.7-.4l.6-3h.5c1.7 0 2.8-.9 3-2.5l3.1.1c.2 4-2.3 5.8-5.5 5.8zm33.6 20.8c0 4.5 3.7 8.2 8.2 8.2 4.5 0 8.2-3.7 8.2-8.2 0-5.6-5.1-11.3-8.2-16.7-2.6 5.8-8.1 11.1-8.2 16.7zm10.6-1l3.1.1c.1 4-2.4 5.8-5.6 5.8-.3 0-1.2-.1-1.7-.4l.6-3h.5c1.8 0 2.8-.8 3.1-2.5zm6.7-28.8c0 4.5 3.7 8.2 8.2 8.2 4.5 0 8.2-3.7 8.2-8.2 0-5.6-5.1-11.3-8.2-16.7-2.6 5.8-8.1 11.1-8.2 16.7zm10.6-1l3.1.1c.1 4-2.4 5.8-5.6 5.8-.3 0-1.2-.1-1.7-.4l.6-3h.5c1.8 0 2.9-.9 3.1-2.5zm42.9-56.9c0-5.6-5.1-11.3-8.2-16.7-2.7 5.8-8.2 11.1-8.2 16.7 0 4.5 3.7 8.2 8.2 8.2 4.5 0 8.2-3.6 8.2-8.2zM344.2 60l.6-3h.5c1.7 0 2.8-.9 3-2.5l3.1.1c.1 4-2.4 5.8-5.6 5.8-.2 0-1.1-.1-1.6-.4zm16.6 44.6c0-5.6-5.1-11.3-8.2-16.7-2.7 5.8-8.2 11.1-8.2 16.7 0 4.5 3.7 8.2 8.2 8.2s8.2-3.7 8.2-8.2zm-10 4.4l.6-2.9h.5c1.7 0 2.8-.9 3-2.5l3.1.1c.1 4-2.4 5.8-5.6 5.8-.2-.1-1.1-.3-1.6-.5z"/><path class="st4" d="M-66.1 338.5c0 4.5 3.7 8.2 8.2 8.2 4.5 0 8.2-3.7 8.2-8.2 0-5.6-5.1-11.3-8.2-16.7-2.7 5.8-8.2 11-8.2 16.7zm10.5-1.1l3.1.1c.1 4-2.4 5.8-5.6 5.8-.3 0-1.2-.1-1.7-.4l.6-3h.5c1.9.1 2.9-.8 3.1-2.5zm-126 70.6c0 4.5 3.7 8.2 8.2 8.2 4.5 0 8.2-3.7 8.2-8.2 0-5.6-5.1-11.3-8.2-16.7-2.7 5.8-8.1 11-8.2 16.7zm10.6-1.1l3.1.1c.1 4-2.4 5.8-5.6 5.8-.3 0-1.2-.1-1.7-.4l.6-3h.5c1.8.1 2.8-.8 3.1-2.5zm-51-80.3c0 3.6 2.9 6.4 6.4 6.4 3.6 0 6.4-2.9 6.4-6.4 0-4.4-4-8.8-6.4-13.1-2 4.6-6.3 8.7-6.4 13.1zm8.3-.8l2.5.1c.1 3.1-1.9 4.5-4.4 4.5-.3 0-1-.1-1.3-.3l.5-2.3h.4c1.3 0 2.1-.7 2.3-2zm37.2-103.4c4.5 0 8.2-3.7 8.2-8.2 0-5.6-5.1-11.3-8.2-16.7-2.7 5.8-8.2 11.1-8.2 16.7 0 4.5 3.7 8.2 8.2 8.2zm-1.2-6.8h.5c1.7 0 2.8-.9 3-2.5l3.1.1c.1 4-2.4 5.8-5.6 5.8-.3 0-1.2-.1-1.7-.4l.7-3zm16 111.6c0 4.5 3.7 8.2 8.2 8.2 4.5 0 8.2-3.7 8.2-8.2 0-5.6-5.1-11.3-8.2-16.7-2.7 5.8-8.2 11.1-8.2 16.7zm10.5-1l3.1.1c.1 4-2.4 5.8-5.6 5.8-.3 0-1.2-.1-1.7-.4l.6-3h.5c1.9 0 2.9-.8 3.1-2.5zM454.2 462c0 2.7 2.2 4.9 4.9 4.9s4.9-2.2 4.9-4.9c0-3.3-3.1-6.8-4.9-10-1.6 3.5-4.9 6.7-4.9 10zm6.3-.6l1.9.1c.1 2.4-1.4 3.5-3.4 3.5-.2 0-.7-.1-1-.2l.4-1.8h.3c1.1-.1 1.7-.6 1.8-1.6zm-339.3-73.1c0 4 3.3 7.3 7.3 7.3s7.3-3.3 7.3-7.3c0-5-4.5-10.1-7.3-14.9-2.4 5.2-7.2 9.9-7.3 14.9zm9.4-.9l2.8.1c.1 3.5-2.1 5.1-5 5.1-.3 0-1.1-.1-1.5-.4l.5-2.6h.5c1.6 0 2.5-.8 2.7-2.2zm-39.2 77c0 4.5 3.7 8.2 8.2 8.2 4.5 0 8.2-3.7 8.2-8.2 0-5.6-5.1-11.3-8.2-16.7-2.7 5.8-8.2 11-8.2 16.7zm10.6-1.1l3.1.1c.1 4-2.4 5.8-5.6 5.8-.3 0-1.2-.1-1.7-.4l.6-3h.5c1.8.1 2.8-.8 3.1-2.5zm-32.1-39.2c0 3.7 3 6.8 6.8 6.8 3.7 0 6.8-3 6.8-6.8 0-4.6-4.2-9.3-6.8-13.7-2.3 4.7-6.8 9-6.8 13.7zm8.7-.9l2.6.1c.1 3.3-2 4.7-4.6 4.7-.3 0-1-.1-1.4-.3l.5-2.4h.5c1.3 0 2.2-.7 2.4-2.1zm67.1 11.6c0 3.7 3 6.8 6.8 6.8 3.7 0 6.8-3 6.8-6.8 0-4.6-4.2-9.3-6.8-13.7-2.3 4.7-6.8 9.1-6.8 13.7zm8.7-.9l2.6.1c.1 3.2-2 4.7-4.6 4.7-.3 0-1-.1-1.4-.3l.5-2.4h.4c1.4 0 2.3-.7 2.5-2.1zm77.2-80.2c0 3.7 3 6.8 6.8 6.8 3.7 0 6.8-3 6.8-6.8 0-4.6-4.2-9.3-6.8-13.7-2.2 4.7-6.8 9-6.8 13.7zm8.7-.9l2.6.1c.1 3.3-2 4.7-4.6 4.7-.3 0-1-.1-1.4-.3l.5-2.4h.4c1.5 0 2.3-.7 2.5-2.1zM431 411c0 3.7 3 6.8 6.8 6.8 3.7 0 6.8-3 6.8-6.8 0-4.6-4.2-9.3-6.8-13.7-2.3 4.7-6.8 9-6.8 13.7zm8.7-.9l2.6.1c.1 3.3-2 4.7-4.6 4.7-.3 0-1-.1-1.4-.3l.5-2.4h.5c1.3 0 2.2-.7 2.4-2.1zm23.9-219c0-4-3.6-8-5.9-11.9-1.9 4.1-5.8 7.9-5.9 11.9 0 3.2 2.6 5.9 5.9 5.9 3.3-.1 5.9-2.7 5.9-5.9zm-7.2 3.1l.4-2.1h.4c1.2 0 2-.6 2.1-1.8l2.2.1c.1 2.8-1.7 4.1-4 4.1-.1 0-.7-.1-1.1-.3zm60.5-43.7c0 3.2 2.6 5.9 5.9 5.9 3.2 0 5.9-2.6 5.9-5.9 0-4-3.6-8-5.9-11.9-2 4.1-5.9 7.9-5.9 11.9zm7.5-.7l2.2.1c.1 2.8-1.7 4.1-4 4.1-.2 0-.9-.1-1.2-.3l.4-2.1h.4c1.3 0 2.1-.7 2.2-1.8zm-180.5 37.1c0 3.2 2.6 5.9 5.9 5.9s5.9-2.6 5.9-5.9c0-4-3.6-8-5.9-11.9-2 4.1-5.9 7.9-5.9 11.9zm7.5-.7l2.2.1c.1 2.8-1.7 4.1-4 4.1-.2 0-.9-.1-1.2-.3l.4-2.1h.4c1.3 0 2-.7 2.2-1.8zm24 30.6c-1.9 4.1-5.8 7.9-5.9 11.9 0 3.2 2.6 5.9 5.9 5.9s5.9-2.6 5.9-5.9c0-4-3.7-8.1-5.9-11.9zm-.1 15.3c-.2 0-.9-.1-1.2-.3l.4-2.1h.4c1.2 0 2-.6 2.1-1.8l2.2.1c.2 2.8-1.6 4.1-3.9 4.1zm-52.9 53c0 3.7 3 6.8 6.8 6.8 3.7 0 6.8-3 6.8-6.8 0-4.6-4.2-9.3-6.8-13.7-2.3 4.7-6.8 9-6.8 13.7zm8.7-.9l2.6.1c.1 3.2-2 4.7-4.6 4.7-.3 0-1-.1-1.4-.3l.5-2.4h.5c1.3 0 2.2-.7 2.4-2.1zm-55.3 96.3c0 3.7 3 6.8 6.8 6.8 3.7 0 6.8-3 6.8-6.8 0-4.6-4.2-9.3-6.8-13.7-2.2 4.8-6.7 9.1-6.8 13.7zm8.7-.8l2.6.1c.1 3.2-2 4.7-4.6 4.7-.3 0-1-.1-1.4-.3l.5-2.4h.5c1.4 0 2.2-.8 2.4-2.1zM12.6 442.9c0 4.5 3.7 8.2 8.2 8.2 4.5 0 8.2-3.7 8.2-8.2 0-5.6-5.1-11.3-8.2-16.7-2.7 5.8-8.1 11.1-8.2 16.7zm10.6-1.1l3.1.1c.1 4-2.4 5.8-5.6 5.8-.3 0-1.2-.1-1.7-.4l.6-3h.5c1.8.1 2.8-.8 3.1-2.5zm-71.4 11.8c0 4.5 3.7 8.2 8.2 8.2 4.5 0 8.2-3.7 8.2-8.2 0-5.6-5.1-11.3-8.2-16.7-2.7 5.8-8.2 11.1-8.2 16.7zm10.5-1l3.1.1c.1 4-2.4 5.8-5.6 5.8-.3 0-1.2-.1-1.7-.4l.6-3h.5c1.9 0 2.9-.8 3.1-2.5zm-43.4-49.1c0 4.5 3.7 8.2 8.2 8.2 4.5 0 8.2-3.7 8.2-8.2 0-5.6-5.1-11.3-8.2-16.7-2.6 5.8-8.1 11.1-8.2 16.7zm10.6-1l3.1.1c.1 4-2.4 5.8-5.6 5.8-.3 0-1.2-.1-1.7-.4l.6-3h.5c1.8 0 2.9-.9 3.1-2.5zm27-17.5c0 4.5 3.7 8.2 8.2 8.2 4.5 0 8.2-3.7 8.2-8.2 0-5.6-5.1-11.3-8.2-16.7-2.6 5.8-8.1 11.1-8.2 16.7zm10.6-1l3.1.1c.1 4-2.4 5.8-5.6 5.8-.3 0-1.2-.1-1.7-.4l.6-3h.5c1.8 0 2.9-.9 3.1-2.5zm-10.6-99.8c0 4.5 3.7 8.2 8.2 8.2 4.5 0 8.2-3.7 8.2-8.2 0-5.6-5.1-11.3-8.2-16.7-2.6 5.8-8.1 11-8.2 16.7zm10.6-1.1l3.1.1c.1 4-2.4 5.8-5.6 5.8-.3 0-1.2-.1-1.7-.4l.6-3h.5c1.8.1 2.9-.8 3.1-2.5zm-34-31.3c4.5 0 8.2-3.7 8.2-8.2 0-5.6-5.1-11.3-8.2-16.7-2.7 5.8-8.2 11.1-8.2 16.7 0 4.5 3.7 8.2 8.2 8.2zm-1.2-6.8h.5c1.7 0 2.8-.9 3-2.5l3.1.1c.1 4-2.4 5.8-5.6 5.8-.3 0-1.2-.1-1.7-.4l.7-3zM4 215.5c0-5.6-5.1-11.3-8.2-16.7-2.7 5.8-8.2 11.1-8.2 16.7 0 4.5 3.7 8.2 8.2 8.2 4.5.1 8.2-3.6 8.2-8.2zm-8.3 4.9c-.3 0-1.2-.1-1.7-.4l.6-3h.5c1.7 0 2.8-.9 3-2.5l3.1.1c.2 4-2.3 5.8-5.5 5.8zm-33.9-17.5c4.5 0 8.2-3.7 8.2-8.2 0-5.6-5.1-11.3-8.2-16.7-2.7 5.8-8.2 11.1-8.2 16.7 0 4.5 3.6 8.2 8.2 8.2zm-1.2-6.8h.5c1.7 0 2.8-.9 3-2.6l3.1.1c.1 4-2.4 5.8-5.6 5.8-.3 0-1.2-.1-1.7-.4l.7-2.9zm94.7-11c0-5.6-5.1-11.3-8.2-16.7-2.7 5.8-8.2 11.1-8.2 16.7 0 4.5 3.7 8.2 8.2 8.2 4.6 0 8.2-3.6 8.2-8.2zm-10 4.4l.6-3h.5c1.7 0 2.8-.9 3-2.5l3.1.1c.1 4-2.4 5.8-5.6 5.8-.3 0-1.1-.1-1.6-.4zm-43.5-9.9c4.5 0 8.2-3.7 8.2-8.2 0-5.6-5.1-11.3-8.2-16.7-2.7 5.8-8.2 11.1-8.2 16.7-.1 4.5 3.6 8.2 8.2 8.2zm-1.3-6.8H1c1.7 0 2.8-.9 3-2.5l3.1.1c.1 4-2.4 5.8-5.6 5.8-.3 0-1.2-.1-1.7-.4l.7-3zm43.8 87.5c0 3.9 3.1 7 7 7s7-3.1 7-7c0-4.8-4.4-9.6-7-14.3-2.3 4.9-7 9.4-7 14.3zm9-.9l2.7.1c.1 3.4-2 4.9-4.8 4.9-.3 0-1.1-.1-1.5-.4l.5-2.5h.5c1.5 0 2.4-.7 2.6-2.1zm-36.8.3c0-5.6-5.1-11.3-8.2-16.7-2.7 5.8-8.2 11.1-8.2 16.7 0 4.5 3.7 8.2 8.2 8.2 4.6 0 8.2-3.7 8.2-8.2zm-8.3 4.8c-.3 0-1.2-.1-1.7-.4l.6-3h.5c1.7 0 2.8-.9 3-2.5l3.1.1c.2 4-2.3 5.8-5.5 5.8zm36.7-143.8c0 4.5 3.7 8.2 8.2 8.2 4.5 0 8.2-3.7 8.2-8.2 0-5.6-5.1-11.3-8.2-16.7-2.7 5.8-8.2 11-8.2 16.7zm10.5-1.1l3.1.1c.1 4-2.4 5.8-5.6 5.8-.3 0-1.2-.1-1.7-.4l.6-2.9h.5c1.8 0 2.9-.9 3.1-2.6zm99.2 161.6c0 4.5 3.7 8.2 8.2 8.2 4.5 0 8.2-3.7 8.2-8.2 0-5.6-5.1-11.3-8.2-16.7-2.6 5.8-8.1 11-8.2 16.7zm10.6-1.1l3.1.1c.1 4-2.4 5.8-5.6 5.8-.3 0-1.2-.1-1.7-.4l.6-3h.5c1.8.1 2.9-.8 3.1-2.5zM88.9 117.6c4.5 0 8.2-3.7 8.2-8.2 0-5.6-5.1-11.3-8.2-16.7-2.7 5.8-8.2 11.1-8.2 16.7 0 4.5 3.6 8.2 8.2 8.2zm-1.2-6.8h.5c1.7 0 2.8-.9 3-2.5l3.1.1c.1 4-2.4 5.8-5.6 5.8-.3 0-1.2-.1-1.7-.4l.7-3zm9.1 54c0 4.5 3.7 8.2 8.2 8.2 4.5 0 8.2-3.7 8.2-8.2 0-5.6-5.1-11.3-8.2-16.7-2.7 5.8-8.2 11.1-8.2 16.7zm10.5-1l3.1.1c.1 4-2.4 5.8-5.6 5.8-.3 0-1.2-.1-1.7-.4l.6-3h.5c1.9 0 2.9-.8 3.1-2.5zm47.8-19.4c4.5 0 8.2-3.7 8.2-8.2 0-5.6-5.1-11.3-8.2-16.7-2.7 5.8-8.2 11.1-8.2 16.7 0 4.5 3.7 8.2 8.2 8.2zm-1.2-6.8h.5c1.7 0 2.8-.9 3-2.5l3.1.1c.1 4-2.4 5.8-5.6 5.8-.3 0-1.2-.1-1.7-.4l.7-3zm12.7-47.4c0 4.5 3.7 8.2 8.2 8.2s8.2-3.7 8.2-8.2c0-5.6-5.1-11.3-8.2-16.7-2.7 5.8-8.2 11.1-8.2 16.7zm10.5-1l3.1.1c.1 4-2.4 5.8-5.6 5.8-.3 0-1.2-.1-1.7-.4l.6-3h.5c1.9 0 2.9-.8 3.1-2.5zM208.3 246c0 4.5 3.7 8.2 8.2 8.2 4.5 0 8.2-3.7 8.2-8.2 0-5.6-5.1-11.3-8.2-16.7-2.6 5.8-8.1 11-8.2 16.7zm10.6-1.1l3.1.1c.1 4-2.4 5.8-5.6 5.8-.3 0-1.2-.1-1.7-.4l.6-3h.5c1.8.1 2.9-.8 3.1-2.5zM152 200.6c0-5.6-5.1-11.3-8.2-16.7-2.7 5.8-8.2 11.1-8.2 16.7 0 4.5 3.7 8.2 8.2 8.2 4.5 0 8.2-3.6 8.2-8.2zm-8.3 4.8c-.3 0-1.2-.1-1.7-.4l.6-3h.5c1.7 0 2.8-.9 3-2.5l3.1.1c.1 4-2.3 5.8-5.5 5.8zM227.9 71c4.5 0 8.2-3.7 8.2-8.2 0-5.6-5.1-11.3-8.2-16.7-2.7 5.8-8.2 11.1-8.2 16.7 0 4.5 3.7 8.2 8.2 8.2zm-1.2-6.8h.5c1.7 0 2.8-.9 3-2.5l3.1.1c.1 4-2.4 5.8-5.6 5.8-.3 0-1.2-.1-1.7-.4l.7-3zm61.9 2.8c0-5.6-5.1-11.3-8.2-16.7-2.7 5.8-8.2 11.1-8.2 16.7 0 4.5 3.7 8.2 8.2 8.2 4.6 0 8.2-3.7 8.2-8.2zm-10 4.4l.6-3h.5c1.7 0 2.8-.9 3-2.5l3.1.1c.1 4-2.4 5.8-5.6 5.8-.2 0-1.1-.2-1.6-.4zm55.7-32.2c0-5.6-5.1-11.3-8.2-16.7-2.7 5.8-8.2 11.1-8.2 16.7 0 4.5 3.7 8.2 8.2 8.2 4.5 0 8.2-3.6 8.2-8.2zm-10.1 4.4l.6-3h.5c1.7 0 2.8-.9 3-2.5l3.1.1c.1 4-2.4 5.8-5.6 5.8-.2 0-1.1-.1-1.6-.4zm118.2 49.5c4.5 0 8.2-3.7 8.2-8.2 0-5.6-5.1-11.3-8.2-16.7-2.7 5.8-8.2 11.1-8.2 16.7 0 4.5 3.7 8.2 8.2 8.2zm-1.2-6.8h.5c1.7 0 2.8-.9 3-2.5l3.1.1c.1 4-2.4 5.8-5.6 5.8-.3 0-1.2-.1-1.7-.4l.7-3zM470 50.8c0 4.5 3.7 8.2 8.2 8.2 4.5 0 8.2-3.7 8.2-8.2 0-5.6-5.1-11.3-8.2-16.7-2.7 5.8-8.2 11.1-8.2 16.7zm10.6-1l3.1.1c.1 4-2.4 5.8-5.6 5.8-.3 0-1.2-.1-1.7-.4l.6-3h.5c1.8.1 2.8-.8 3.1-2.5zm175.9 222.1c0-5.6-5.1-11.3-8.2-16.7-2.7 5.8-8.2 11.1-8.2 16.7 0 4.5 3.7 8.2 8.2 8.2 4.5 0 8.2-3.6 8.2-8.2zm-10.1 4.4l.6-3h.5c1.7 0 2.8-.9 3-2.5l3.1.1c.1 4-2.4 5.8-5.6 5.8-.2 0-1.1-.1-1.6-.4zm17.1 68.4c-2.7 5.8-8.2 11.1-8.2 16.7 0 4.5 3.7 8.2 8.2 8.2 4.5 0 8.2-3.7 8.2-8.2 0-5.5-5.1-11.3-8.2-16.7zm-.1 21.5c-.3 0-1.2-.1-1.7-.4l.6-3h.5c1.7 0 2.8-.9 3-2.5l3.1.1c.2 4-2.3 5.8-5.5 5.8zM12.8 119c4.5 0 8.2-3.7 8.2-8.2 0-5.6-5.1-11.3-8.2-16.7-2.7 5.8-8.2 11.1-8.2 16.7 0 4.6 3.7 8.2 8.2 8.2zm-1.2-6.7h.5c1.7 0 2.8-.9 3-2.5l3.1.1c.1 4-2.4 5.8-5.6 5.8-.3 0-1.2-.1-1.7-.4l.7-3zm192.9-85.6c0-5.6-5.1-11.3-8.2-16.7-2.7 5.8-8.2 11.1-8.2 16.7 0 4.5 3.7 8.2 8.2 8.2s8.2-3.7 8.2-8.2zm-10.1 4.4l.6-3h.5c1.7 0 2.8-.9 3-2.5l3.1.1c.1 4-2.4 5.8-5.6 5.8-.2 0-1.1-.1-1.6-.4zm197 15.4c4.5 0 8.2-3.7 8.2-8.2 0-5.6-5.1-11.3-8.2-16.7-2.7 5.8-8.2 11.1-8.2 16.7 0 4.6 3.7 8.2 8.2 8.2zm-1.2-6.7h.5c1.7 0 2.8-.9 3-2.5l3.1.1c.1 4-2.4 5.8-5.6 5.8-.3 0-1.2-.1-1.7-.4l.7-3zm297.6 340.4c0-5.6-5.1-11.3-8.2-16.7-2.7 5.8-8.2 11.1-8.2 16.7 0 4.5 3.7 8.2 8.2 8.2 4.5 0 8.2-3.6 8.2-8.2zm-8.3 4.8c-.3 0-1.2-.1-1.7-.4l.6-2.9h.5c1.7 0 2.8-.9 3-2.5l3.1.1c.2 3.9-2.3 5.7-5.5 5.7zm26.8-39.7c0 4.5 3.7 8.2 8.2 8.2 4.5 0 8.2-3.7 8.2-8.2 0-5.6-5.1-11.3-8.2-16.7-2.7 5.8-8.2 11.1-8.2 16.7zm10.5-1l3.1.1c.1 4-2.4 5.8-5.6 5.8-.3 0-1.2-.1-1.7-.4l.6-3h.5c1.9 0 2.9-.9 3.1-2.5zm-36.5 78.9c0 4.5 3.7 8.2 8.2 8.2 4.5 0 8.2-3.7 8.2-8.2 0-5.6-5.1-11.3-8.2-16.7-2.7 5.8-8.1 11-8.2 16.7zm10.6-1.1l3.1.1c.1 4-2.4 5.8-5.6 5.8-.3 0-1.2-.1-1.7-.4l.6-3h.6c1.7.1 2.7-.8 3-2.5zm-46.4 36c0 4.5 3.7 8.2 8.2 8.2 4.5 0 8.2-3.7 8.2-8.2 0-5.6-5.1-11.3-8.2-16.7-2.7 5.8-8.1 11.1-8.2 16.7zm10.6-1.1l3.1.1c.1 4-2.4 5.8-5.6 5.8-.3 0-1.2-.1-1.7-.4l.6-3h.5c1.8.1 2.8-.8 3.1-2.5zM139.6 60.3c4.5 0 8.2-3.7 8.2-8.2 0-5.6-5.1-11.3-8.2-16.7-2.7 5.8-8.2 11.1-8.2 16.7 0 4.5 3.7 8.2 8.2 8.2zm-1.2-6.8h.5c1.7 0 2.8-.9 3-2.5l3.1.1c.1 4-2.4 5.8-5.6 5.8-.3 0-1.2-.1-1.7-.4l.7-3zm-253.2 385.1c0 3.6 2.9 6.4 6.4 6.4s6.4-2.9 6.4-6.4c0-4.4-4-8.8-6.4-13.1-2 4.6-6.3 8.7-6.4 13.1zm8.3-.8l2.5.1c.1 3.1-1.9 4.5-4.4 4.5-.3 0-1-.1-1.3-.3l.5-2.3h.4c1.3 0 2.1-.7 2.3-2zm340.8-323.2c0-4.4-4-8.8-6.4-13.1-2.1 4.5-6.4 8.7-6.4 13.1 0 3.6 2.9 6.4 6.4 6.4 3.6.1 6.4-2.8 6.4-6.4zm-6.5 3.8c-.3 0-1-.1-1.3-.3l.5-2.3h.4c1.4 0 2.2-.7 2.4-2l2.5.1c0 3.1-2 4.5-4.5 4.5zm-131.6 223c0 3.4 2.7 6.1 6.1 6.1s6.1-2.7 6.1-6.1c0-4.2-3.8-8.4-6.1-12.5-2 4.3-6.1 8.3-6.1 12.5zm7.8-.8l2.3.1c.1 3-1.8 4.3-4.2 4.3-.3 0-.9-.1-1.3-.3l.5-2.2h.4c1.4 0 2.2-.6 2.3-1.9zm-28.7-45.1c0 3.9 3.1 7 7 7s7-3.1 7-7c0-4.8-4.4-9.6-7-14.3-2.3 5-7 9.5-7 14.3zm9-.9l2.7.1c.1 3.4-2 4.9-4.8 4.9-.3 0-1.1-.1-1.5-.4l.5-2.5h.5c1.5.1 2.4-.7 2.6-2.1zm-65.8 42.5c4.5 0 8.2-3.7 8.2-8.2 0-5.6-5.1-11.3-8.2-16.7-2.7 5.8-8.2 11.1-8.2 16.7-.1 4.6 3.6 8.2 8.2 8.2zm-1.3-6.7h.5c1.7 0 2.8-.9 3-2.5l3.1.1c.1 4-2.4 5.8-5.6 5.8-.3 0-1.2-.1-1.7-.4l.7-3zm187-8.7c0 2.7 2.2 4.9 4.9 4.9s4.9-2.2 4.9-4.9c0-3.3-3.1-6.8-4.9-10-1.6 3.5-4.9 6.6-4.9 10zm6.3-.6l1.9.1c.1 2.4-1.4 3.5-3.4 3.5-.2 0-.7-.1-1-.3l.4-1.8h.3c1.1 0 1.7-.5 1.8-1.5zM194 360.5c0 2.7 2.2 4.9 4.9 4.9s4.9-2.2 4.9-4.9c0-3.3-3.1-6.8-4.9-10-1.6 3.5-4.9 6.6-4.9 10zm6.4-.6l1.9.1c.1 2.4-1.4 3.5-3.4 3.5-.2 0-.7-.1-1-.2l.4-1.8h.3c1-.1 1.6-.6 1.8-1.6zm-375.1-82c4.5 0 8.2-3.7 8.2-8.2 0-5.6-5.1-11.3-8.2-16.7-2.7 5.8-8.2 11.1-8.2 16.7 0 4.5 3.7 8.2 8.2 8.2zm-1.2-6.8h.5c1.7 0 2.8-.9 3-2.5l3.1.1c.1 4-2.4 5.8-5.6 5.8-.3 0-1.2-.1-1.7-.4l.7-3zm68.2 37c0 4.5 3.7 8.2 8.2 8.2 4.5 0 8.2-3.7 8.2-8.2 0-5.6-5.1-11.3-8.2-16.7-2.7 5.8-8.2 11.1-8.2 16.7zm10.5-1l3.1.1c.1 4-2.4 5.8-5.6 5.8-.3 0-1.2-.1-1.7-.4l.6-3h.5c1.9 0 2.9-.8 3.1-2.5zm-2.5-145.7c0 4.5 3.7 8.2 8.2 8.2 4.5 0 8.2-3.7 8.2-8.2 0-5.6-5.1-11.3-8.2-16.7-2.6 5.8-8.1 11-8.2 16.7zm10.6-1.1l3.1.1c.1 4-2.4 5.8-5.6 5.8-.3 0-1.2-.1-1.7-.4l.6-3h.5c1.8.1 2.9-.8 3.1-2.5zm-32.2 178.9c-2.7 5.8-8.2 11.1-8.2 16.7 0 4.5 3.7 8.2 8.2 8.2 4.5 0 8.2-3.7 8.2-8.2.1-5.6-5-11.3-8.2-16.7zm-.1 21.5c-.3 0-1.2-.1-1.7-.4l.6-2.9h.5c1.7 0 2.8-.9 3-2.5l3.1.1c.2 3.9-2.3 5.7-5.5 5.7zm7.3-133.8c4.5 0 8.2-3.7 8.2-8.2 0-5.6-5.1-11.3-8.2-16.7-2.7 5.8-8.2 11.1-8.2 16.7 0 4.5 3.7 8.2 8.2 8.2zm-1.2-6.8h.5c1.7 0 2.8-.9 3-2.5l3.1.1c.1 4-2.4 5.8-5.6 5.8-.3 0-1.2-.1-1.7-.4l.7-3zm487-90.6c4.5 0 8.2-3.7 8.2-8.2 0-5.6-5.1-11.3-8.2-16.7-2.7 5.8-8.2 11.1-8.2 16.7 0 4.5 3.7 8.2 8.2 8.2zm-1.2-6.8h.5c1.7 0 2.8-.9 3-2.5l3.1.1c.1 4-2.4 5.8-5.6 5.8-.3 0-1.2-.1-1.7-.4l.7-3zm29.9-43.9c4.5 0 8.2-3.7 8.2-8.2 0-5.6-5.1-11.3-8.2-16.7-2.7 5.8-8.2 11.1-8.2 16.7-.1 4.5 3.6 8.2 8.2 8.2zm-1.3-6.8h.5c1.7 0 2.8-.9 3-2.5l3.1.1c.1 4-2.4 5.8-5.6 5.8-.3 0-1.2-.1-1.7-.4l.7-3zm9.1 52.2c0 4.5 3.7 8.2 8.2 8.2 4.5 0 8.2-3.7 8.2-8.2 0-5.6-5.1-11.3-8.2-16.7-2.6 5.8-8.1 11.1-8.2 16.7zm10.6-1l3.1.1c.1 4-2.4 5.8-5.6 5.8-.3 0-1.2-.1-1.7-.4l.6-3h.5c1.8 0 2.9-.8 3.1-2.5zm-12.9 88.2c0 4.5 3.7 8.2 8.2 8.2 4.5 0 8.2-3.7 8.2-8.2 0-5.6-5.1-11.3-8.2-16.7-2.7 5.8-8.2 11-8.2 16.7zm10.5-1.1l3.1.1c.1 4-2.4 5.8-5.6 5.8-.3 0-1.2-.1-1.7-.4l.6-3h.5c1.8.1 2.9-.8 3.1-2.5zm24.1 17.2c0 4.5 3.7 8.2 8.2 8.2 4.5 0 8.2-3.7 8.2-8.2 0-5.6-5.1-11.3-8.2-16.7-2.7 5.8-8.2 11-8.2 16.7zm10.5-1.1l3.1.1c.1 4-2.4 5.8-5.6 5.8-.3 0-1.2-.1-1.7-.4l.6-3h.5c1.9.1 2.9-.8 3.1-2.5zM359.3 348c0 4.5 3.7 8.2 8.2 8.2 4.5 0 8.2-3.7 8.2-8.2 0-5.6-5.1-11.3-8.2-16.7-2.7 5.8-8.2 11.1-8.2 16.7zm10.6-1l3.1.1c.1 4-2.4 5.8-5.6 5.8-.3 0-1.2-.1-1.7-.4l.6-3h.5c1.8 0 2.8-.9 3.1-2.5zm28.8-5c0 4.5 3.7 8.2 8.2 8.2 4.5 0 8.2-3.7 8.2-8.2 0-5.6-5.1-11.3-8.2-16.7-2.7 5.8-8.2 11.1-8.2 16.7zm10.6-1l3.1.1c.1 4-2.4 5.8-5.6 5.8-.3 0-1.2-.1-1.7-.4l.6-2.9h.5c1.8-.1 2.8-.9 3.1-2.6zm51.8-61c0-5.6-5.1-11.3-8.2-16.7-2.7 5.8-8.2 11.1-8.2 16.7 0 4.5 3.7 8.2 8.2 8.2 4.5 0 8.2-3.7 8.2-8.2zm-8.4 4.8c-.3 0-1.2-.1-1.7-.4l.6-3c.2 0 .4.1.5.1 1.7 0 2.8-.9 3-2.5l3.1.1c.2 3.9-2.3 5.7-5.5 5.7zm16.4-174.3c0 4.5 3.7 8.2 8.2 8.2 4.5 0 8.2-3.7 8.2-8.2 0-5.6-5.1-11.3-8.2-16.7-2.7 5.8-8.2 11.1-8.2 16.7zm10.6-1l3.1.1c.1 4-2.4 5.8-5.6 5.8-.3 0-1.2-.1-1.7-.4l.6-3h.5c1.8 0 2.8-.9 3.1-2.5zm67.6 194.4c0 4.5 3.7 8.2 8.2 8.2 4.5 0 8.2-3.7 8.2-8.2 0-5.6-5.1-11.3-8.2-16.7-2.7 5.7-8.2 11-8.2 16.7zm10.5-1.1l3.1.1c.1 4-2.4 5.8-5.6 5.8-.3 0-1.2-.1-1.7-.4l.6-3h.5c1.9.1 2.9-.8 3.1-2.5zM453.5 171.9c4.5 0 8.2-3.7 8.2-8.2 0-5.6-5.1-11.3-8.2-16.7-2.7 5.8-8.2 11.1-8.2 16.7-.1 4.5 3.6 8.2 8.2 8.2zm-1.3-6.8h.5c1.7 0 2.8-.9 3-2.5l3.1.1c.1 4-2.4 5.8-5.6 5.8-.3 0-1.2-.1-1.7-.4l.7-3zm44.8-18.8c-2.7 5.8-8.2 11.1-8.2 16.7 0 4.5 3.7 8.2 8.2 8.2 4.5 0 8.2-3.7 8.2-8.2.1-5.5-5-11.3-8.2-16.7zm-.1 21.6c-.3 0-1.2-.1-1.7-.4l.6-3c.2 0 .4.1.5.1 1.7 0 2.8-.9 3-2.6l3.1.1c.2 3.9-2.3 5.8-5.5 5.8zm16.2 57.1c4.5 0 8.2-3.7 8.2-8.2 0-5.6-5.1-11.3-8.2-16.7-2.7 5.8-8.2 11.1-8.2 16.7 0 4.5 3.7 8.2 8.2 8.2zm-1.2-6.8h.5c1.7 0 2.8-.9 3-2.5l3.1.1c.1 4-2.4 5.8-5.6 5.8-.3 0-1.2-.1-1.7-.4l.7-3zm28.1 14.7c-2.7 5.8-8.2 11.1-8.2 16.7 0 4.5 3.7 8.2 8.2 8.2 4.5 0 8.2-3.7 8.2-8.2 0-5.6-5.1-11.3-8.2-16.7zm-.1 21.5c-.3 0-1.2-.1-1.7-.4l.6-3h.5c1.7 0 2.8-.9 3-2.5l3.1.1c.2 4-2.3 5.8-5.5 5.8zm26.3-77.8c4.5 0 8.2-3.7 8.2-8.2 0-5.6-5.1-11.3-8.2-16.7-2.7 5.8-8.2 11.1-8.2 16.7 0 4.5 3.7 8.2 8.2 8.2zm-1.2-6.7h.5c1.7 0 2.8-.9 3-2.5l3.1.1c.1 4-2.4 5.8-5.6 5.8-.3 0-1.2-.1-1.7-.4l.7-3zm10.7 31.3c0-5.6-5.1-11.3-8.2-16.7-2.7 5.8-8.2 11.1-8.2 16.7 0 4.5 3.7 8.2 8.2 8.2 4.5 0 8.2-3.6 8.2-8.2zm-8.4 4.8c-.3 0-1.2-.1-1.7-.4l.6-2.9h.5c1.7 0 2.8-.9 3-2.5l3.1.1c.2 3.9-2.3 5.7-5.5 5.7zm-54.6 125.4c0 2.7 2.2 4.9 4.9 4.9s4.9-2.2 4.9-4.9c0-3.3-3.1-6.8-4.9-10-1.6 3.4-4.9 6.6-4.9 10zm6.3-.7l1.9.1c.1 2.4-1.4 3.5-3.4 3.5-.2 0-.7-.1-1-.3l.4-1.8h.3c1.1.1 1.7-.5 1.8-1.5zm61-71.7c4.5 0 8.2-3.7 8.2-8.2 0-5.6-5.1-11.3-8.2-16.7-2.7 5.8-8.2 11.1-8.2 16.7-.1 4.5 3.6 8.2 8.2 8.2zm-1.3-6.8h.5c1.7 0 2.8-.9 3-2.5l3.1.1c.1 4-2.4 5.8-5.6 5.8-.3 0-1.2-.1-1.7-.4l.7-3zm18.1-22.3c0 4.5 3.7 8.2 8.2 8.2 4.5 0 8.2-3.7 8.2-8.2 0-5.6-5.1-11.3-8.2-16.7-2.7 5.8-8.2 11-8.2 16.7zm10.6-1.1l3.1.1c.1 4-2.4 5.8-5.6 5.8-.3 0-1.2-.1-1.7-.4l.6-3h.6c1.7.1 2.7-.8 3-2.5zm-7.3 63.7c0-5.6-5.1-11.3-8.2-16.7-2.7 5.8-8.2 11.1-8.2 16.7 0 4.5 3.7 8.2 8.2 8.2s8.2-3.6 8.2-8.2zm-8.3 4.8c-.3 0-1.2-.1-1.7-.4l.6-3h.5c1.7 0 2.8-.9 3-2.5l3.1.1c.2 4-2.3 5.8-5.5 5.8zm30.1 26.2c0 4.5 3.7 8.2 8.2 8.2 4.5 0 8.2-3.7 8.2-8.2 0-5.6-5.1-11.3-8.2-16.7-2.7 5.8-8.2 11.1-8.2 16.7zm10.5-1l3.1.1c.1 4-2.4 5.8-5.6 5.8-.3 0-1.2-.1-1.7-.4l.6-2.9h.6c1.8-.1 2.8-.9 3-2.6zm-64.8 104.3c0 4.5 3.7 8.2 8.2 8.2 4.5 0 8.2-3.7 8.2-8.2 0-5.6-5.1-11.3-8.2-16.7-2.7 5.8-8.2 11-8.2 16.7zm10.5-1.1l3.1.1c.1 4-2.4 5.8-5.6 5.8-.3 0-1.2-.1-1.7-.4l.6-3h.5c1.9.1 2.9-.8 3.1-2.5zm18.1-49.6c0 4.5 3.7 8.2 8.2 8.2 4.5 0 8.2-3.7 8.2-8.2 0-5.6-5.1-11.3-8.2-16.7-2.7 5.7-8.2 11-8.2 16.7zm10.6-1.1l3.1.1c.1 4-2.4 5.8-5.6 5.8-.3 0-1.2-.1-1.7-.4l.6-3h.5c1.8.1 2.8-.8 3.1-2.5zm21 31.6c0 2.7 2.2 4.9 4.9 4.9s4.9-2.2 4.9-4.9c0-3.3-3.1-6.8-4.9-10-1.5 3.4-4.8 6.6-4.9 10zm6.4-.7l1.9.1c.1 2.4-1.4 3.5-3.4 3.5-.2 0-.7-.1-1-.3l.4-1.8h.3c1 .1 1.6-.5 1.8-1.5zM761 362.5c-1.6 3.5-4.9 6.7-4.9 10 0 2.7 2.2 4.9 4.9 4.9s4.9-2.2 4.9-4.9c0-3.3-3-6.7-4.9-10zm-.1 13c-.2 0-.7-.1-1-.2l.4-1.8h.3c1 0 1.7-.5 1.8-1.5l1.9.1c0 2.3-1.5 3.4-3.4 3.4zM611 170.3c0 2.7 2.2 4.9 4.9 4.9s4.9-2.2 4.9-4.9c0-3.3-3.1-6.8-4.9-10-1.5 3.5-4.8 6.6-4.9 10zm6.4-.6l1.9.1c.1 2.4-1.4 3.5-3.4 3.5-.2 0-.7-.1-1-.2l.4-1.8h.3c1-.1 1.6-.6 1.8-1.6zm-313 170c0 2.7 2.2 4.9 4.9 4.9s4.9-2.2 4.9-4.9c0-3.3-3.1-6.8-4.9-10-1.6 3.5-4.9 6.6-4.9 10zm6.4-.6l1.9.1c.1 2.4-1.4 3.5-3.4 3.5-.2 0-.7-.1-1-.3l.4-1.8h.3c1 0 1.6-.5 1.8-1.5zM441.1 329c0 2.7 2.2 4.9 4.9 4.9s4.9-2.2 4.9-4.9c0-3.3-3.1-6.8-4.9-10-1.6 3.4-4.9 6.6-4.9 10zm6.3-.6l1.9.1c.1 2.4-1.4 3.5-3.4 3.5-.2 0-.7-.1-1-.2l.4-1.8h.3c1.1-.1 1.7-.6 1.8-1.6zm-62.8-62c-1.6 3.5-4.9 6.7-4.9 10 0 2.7 2.2 4.9 4.9 4.9s4.9-2.2 4.9-4.9c0-3.3-3.1-6.7-4.9-10zm-.1 13c-.2 0-.7-.1-1-.3l.4-1.8h.3c1 0 1.7-.5 1.8-1.5l1.9.1c0 2.4-1.5 3.5-3.4 3.5zm4.7-118.7c0 2.7 2.2 4.9 4.9 4.9s4.9-2.2 4.9-4.9c0-3.3-3.1-6.8-4.9-10-1.6 3.5-4.9 6.6-4.9 10zm6.3-.6l1.9.1c.1 2.4-1.4 3.5-3.4 3.5-.2 0-.7-.1-1-.2l.4-1.8h.3c1-.1 1.7-.6 1.8-1.6zm111.6 280.8c0 4.5 3.7 8.2 8.2 8.2 4.5 0 8.2-3.7 8.2-8.2 0-5.6-5.1-11.3-8.2-16.7-2.7 5.8-8.2 11-8.2 16.7zm10.6-1.1l3.1.1c.1 4-2.4 5.8-5.6 5.8-.3 0-1.2-.1-1.7-.4l.6-3h.5c1.8.1 2.8-.8 3.1-2.5zm-129.6 8.8c0 4.5 3.7 8.2 8.2 8.2 4.5 0 8.2-3.7 8.2-8.2 0-5.6-5.1-11.3-8.2-16.7-2.7 5.8-8.2 11.1-8.2 16.7zm10.5-1l3.1.1c.1 4-2.4 5.8-5.6 5.8-.3 0-1.2-.1-1.7-.4l.6-3h.5c1.9 0 2.9-.8 3.1-2.5zM230.4 145.1c0 4.5 3.7 8.2 8.2 8.2 4.5 0 8.2-3.7 8.2-8.2 0-5.6-5.1-11.3-8.2-16.7-2.7 5.8-8.1 11.1-8.2 16.7zm10.6-1l3.1.1c.1 4-2.4 5.8-5.6 5.8-.3 0-1.2-.1-1.7-.4l.6-3h.5c1.8 0 2.8-.8 3.1-2.5zm37.2-36c0 4.5 3.7 8.2 8.2 8.2 4.5 0 8.2-3.7 8.2-8.2 0-5.6-5.1-11.3-8.2-16.7-2.7 5.8-8.2 11.1-8.2 16.7zm10.5-1l3.1.1c.1 4-2.4 5.8-5.6 5.8-.3 0-1.2-.1-1.7-.4l.6-3h.5c1.9 0 2.9-.8 3.1-2.5zm34.8 38.6c0 4.5 3.7 8.2 8.2 8.2 4.5 0 8.2-3.7 8.2-8.2 0-5.6-5.1-11.3-8.2-16.7-2.7 5.8-8.2 11.1-8.2 16.7zm10.6-1l3.1.1c.1 4-2.4 5.8-5.6 5.8-.3 0-1.2-.1-1.7-.4l.6-3h.6c1.7 0 2.7-.8 3-2.5zm-55.3 91.1c0 4.5 3.7 8.2 8.2 8.2 4.5 0 8.2-3.7 8.2-8.2 0-5.6-5.1-11.3-8.2-16.7-2.7 5.8-8.2 11.1-8.2 16.7zm10.5-1l3.1.1c.1 4-2.4 5.8-5.6 5.8-.3 0-1.2-.1-1.7-.4l.6-3h.5c1.9 0 2.9-.8 3.1-2.5zM337.7 67c-2.7 5.8-8.2 11.1-8.2 16.7 0 4.5 3.7 8.2 8.2 8.2 4.5 0 8.2-3.7 8.2-8.2.1-5.6-5.1-11.3-8.2-16.7zm-.1 21.5c-.3 0-1.2-.1-1.7-.4l.6-3h.5c1.7 0 2.8-.9 3-2.5l3.1.1c.2 4-2.3 5.8-5.5 5.8z"/><path class="st3" d="M535.1 373.5c1-.6 2.1-1.2 3.1-1.8 2.5-1.3 5.2-2.4 8.1-3.3 2.4-.3 4.8-.8 6.9-1.6 3.3-1.1 6.2-2.7 8.6-4.5 3.8-3 6-6.9 6-11.2 0-1-.1-2.1-.4-3-1.2 6.9-7.6 12.5-16.1 14.5-.2 0-.4 0-.6.1-1.1.2-2.3.3-3.4.6-3.1.6-6 1.5-8.7 2.5-1.7.7-3.3 1.4-4.8 2.3-1.1.6-2.1 1.2-3 1.9-12.6 6.1-27.2 10.2-43 11.7-14.9 1.4-29.2.3-42-2.9-2.3-.8-4.8-1.4-7.2-2-.2 0-.4-.1-.6-.1 2-1.5 3.8-3.1 5.4-4.9 3.4-3.6 6.1-7.9 8-12.5l.6-1.5c3.9-9.4 11.3-17 20.7-20.9 4.5-1.9 9.4-2.9 14.6-2.9 9.2 0 17.6 3.3 24.2 8.7-6.5-7.6-15.9-12.7-26.5-13.5 5.1-4.4 9.1-9.9 11.7-16.1.3-.6.5-1.3.8-1.9 3.2 3 7.6 4.9 12.5 4.9 8.3 0 15.2-5.4 17.2-12.6-2.5 5.6-8.2 9.4-14.7 9.4-5.5 0-12-3.2-13.2-8.2.1-2.7.3-5.2.8-7.8 1-4.9 2.8-9.6 5.3-13.8.3-.4.5-.9.8-1.3 1.7-2.7 3.8-5.3 6.1-7.5.5-.5 1.1-1 1.6-1.5 2.6-2.7 4.7-5.7 6.2-9 1.6-3.5 2.5-7.4 2.5-11.4 0-6.1-2-11.9-5.5-16.7 1.6 3.9 2.6 8.2 2.6 12.8 0 7.5-2.5 14.3-6.6 19.9-2.7 2.1-5.1 4.5-7.3 7.1-1.4 1.7-2.6 3.5-3.7 5.3-1 1.7-1.9 3.4-2.6 5.2-.1.2-.1.3-.2.5-.5 1.2-1 2.5-1.4 3.8-.6 1.8-1 3.6-1.3 5.5-.1.6-.2 1.1-.3 1.7-.1.6-.2 1.2-.2 1.9-.4 2.5-1 5-1.8 7.4-3.9 11.4-12.9 20.3-24.3 24.3v.1c-5.7 1.9-10.8 5-14.9 9.1h-.7c0 .2 0 .4.1.7-3.5 3.6-6.3 7.8-8.2 12.5-4 9.8-12 17.5-22.1 20.9-7.8-.9-16-1.1-24.4-.6-1.1.1-2.1.2-3.2.3-17.5 1.6-33.6 6.6-47 13.7-2.6 1.4-5.1 2.9-7.5 4.4-6.9-7.4-11-16.9-11-27.3 0-12.4 5.9-23.5 15.2-31.2 4.7-3.9 10.2-6.9 16.4-8.7 4.7-1.5 10.7-2.3 15.9-2.3 2.2 0 4.4.2 6.5.4 1.9.2 3.7.3 5.7.3 5.3 0 10.3-.9 15.1-2.5 8.5-2.9 16-8.2 21.5-15.1 3.4 2 7.2 3.7 11.5 5 11.4 3.3 23 2.7 31.1-.9-7.4 1.8-16.7 1.6-26.1-1.1-5.4-1.6-10.1-3.8-14-6.4 4.8-7.4 7.7-16.2 7.7-25.6 0-3.1-.3-6.2-.9-9.1.1.9.1 1.9.1 2.8 0 25-20.3 45.3-45.2 45.3-1 0-2 0-3-.1-1.7-.3-3.4-.5-5.2-.6-1.9-.2-3.9-.2-5.8-.2-2.6 0-5.1.1-7.6.4.7-1.3 1.2-2.6 1.8-4 1.8-4.6 2.8-9.6 2.8-15 0-1.5-.1-3.1-.3-4.6-.4-3.8-1.3-7.4-2.7-10.8-.5-1.3-1.1-2.6-1.7-3.8-.3-1.2-.5-2.5-.5-3.8 0-7.9 6.7-14.2 14.9-14.2 2.7 0 5.2.7 7.4 1.8l.8.4c3.3 2.1 7.3 3.3 11.5 3.3h.4c1.6 0 3.2-.2 4.7-.5 3.8-.8 7.2-2.5 10-4.9.4-.4.8-.8 1.2-1.1 1.6-1.4 3.3-2.6 5.1-3.6 1.2-.7 2.5-1.3 3.8-1.8.5-.2.9-.3 1.4-.5.7-.2 1.4-.4 2-.6 2.3-.6 4.7-.9 7.1-.9 12.1 0 22.5 7.4 27 17.9.2.4.3.8.5 1.2.1-.1.3-.1.4-.2l-.3-1.2c-1.4-5-4-9.5-7.5-13.1 6.3-.5 11.3-5.8 11.3-12.4 0-3.5-1.5-6.7-3.8-9 1.5 1.9 2.4 4.3 2.4 6.9 0 6-4.9 10.9-10.8 10.9-1.7 0-3.4-.4-4.8-1.1l-1.5-.9c-1.7-1-3.5-1.7-5.3-2.4-3.1-1-6.4-1.6-9.9-1.6-2.6 0-5.1.3-7.5.9-.9.2-1.8.5-2.7.8l-.1-.1c-.3-1.2-.6-2.4-.8-3.6v-.3c0-.6 0-1.3-.1-1.9-.1-.7-.2-1.3-.3-2v-.7c0-9 3.8-17.1 9.8-22.8-5.8 4.1-10.1 10.2-12.1 17.3-.4 1.5-.7 3-.9 4.5 0 .4-.1.8-.1 1.2-.1.9-.1 1.7-.1 2.6v1.4c-.5 3.6-2.2 6.9-4.6 9.5-.8.6-1.5 1.3-2.3 2-3.1 2.3-7 3.7-11.2 3.7-2.5 0-4.9-.5-7-1.3-1.4-1-2.8-1.9-4.4-2.5-2.6-1.1-5.6-1.8-8.7-1.8h-.2c-10 0-18.5 6.5-21 15.4-.5 1.7-.7 3.5-.7 5.3 0 1.8.2 3.5.7 5.1.5 1.8 1.2 3.6 2.2 5.2 1 3.1 1.5 6.3 1.5 9.7 0 4.7-1 9.1-2.9 13.2-1 2.1-2.1 4.1-3.5 5.9-1.9 2.5-4.1 4.8-6.7 6.7-4.1 1.5-7.9 3.4-11.4 5.7-3.9 2.5-7.5 5.4-10.6 8.6-9 9.2-14.4 21.2-14.4 34.4 0 7.9 1.9 15.3 5.4 22 .2.3.4.7.5 1 .5.8 1 1.7 1.5 2.5.6 1.5.9 3.2.9 4.9 0 3.9-1.6 7.3-4.2 9.8.1 0 .1.1.2.1-7.2 4.5-15.4 8-24.4 10-.9.2-1.8.4-2.7.5-10 2.3-18.9 7-25.9 13.4-1.7-1.3-3.5-2.5-5.4-3.4-3.3-1.6-6.8-3.6-10.4-5.4-2.5-4.7-4-10-4-15.6 0-8.3 3.1-15.9 8.3-21.8 1.8-1.4 3.4-3 5-4.7 4.7-5 8.5-10.8 11-17.2 2.4-6.1 3.8-12.8 3.8-19.7 0-8.8-2.1-17.1-5.9-24.4 3.3-9.1 9-17 16.3-23.1 6.9-3.3 14.9-1.6 20.5 2.8.2.1.3.3.5.4-.9 2.4-1.3 5.1-.9 7.8.8 5.8 4.6 10.5 9.6 12.8-3.5-2.6-6-6.6-6.7-11.3-.3-2.6-.1-5.1.6-7.4.1.1.3.2.4.3 3 1.8 6.4 2.8 9.9 2.8 8.7 0 17-3.8 21.2-12.9-4.2 7.3-11.7 10.2-19.4 10.3-6.3.1-10.6-5.1-14.9-9-2.3-2.1-6.8-3.5-11.4-3.8 2.7-2.5 5.1-5.4 7.2-8.6 4.1-6.3 6.7-13.8 7.2-21.8.1-1.1.1-2.2.1-3.4v-1.1c4-12.3 15.9-19.2 27.5-22.5.7-.2 1.4-.4 2.1-.5 2-.5 3.9-1.2 5.7-2 6-2.6 11.1-4.7 14.9-10.1 4-5.6 6.2-12.2 6.5-19.1 1.2-4.4 4.2-9.6 7.3-13.2 5.6-6.6 15.8-9.1 23.8-9.7-10.3-1.3-20.7 2.2-27.6 10.3-1.5 1.8-2.7 3.7-3.7 5.7-.8-7.1-3.2-14.5-7.2-21.4 6.4 14.1 6.9 30.2-1.1 41.9-6.5 9.5-19.4 12.8-29.9 15.1-6.5 1.4-14.5 6.7-20 13.9-.1-.5-.3-1-.5-1.6-.7-3-1.1-6.2-1.1-9.4 0-12.7 5.6-24 14.3-31.2 1.1 1.7 2.6 3.1 4.4 4.2 4.3 2.6 9.4 2.5 13.7.4-3.6 1-7.6.5-11.1-1.6-2-1.2-3.6-2.8-4.8-4.7 4.4-3.1 9.6-5.3 15.1-6-.6 0-1.3-.1-1.9-.1-7.6 0-14.6 2.5-20.4 6.8 0-1.2 0-2.4-.2-3.6-1-7.4-5.9-13.3-12.3-16.2 4.5 3.2 7.7 8.3 8.5 14.3.5 3.4.1 6.7-.9 9.7-5.7 6-9.6 14.1-10.7 23.2-.2 1.6-.3 3.3-.3 5 0 2.7.2 5.3.7 7.8.5 2.4 1.1 4.8 2 7 .4 2.4.7 4.9.7 7.4 0 13.7-6.8 25.7-17 32.5-1 .5-1.9 1.1-2.8 1.7-5.2 3.3-9.8 7.4-13.7 12.1-2.4 2.9-4.6 6.1-6.4 9.5-5.6-6.9-13-12.5-21.4-16.1-4.7-3-7.8-8.2-7.8-14.2 0-5.6 2.8-10.6 7-13.7.8-.4 1.5-.9 2.2-1.4 3.8-2.6 6.9-6 9.1-10 2.2-4 3.4-8.6 3.4-13.5v-.7c10.9-9 17.6-21.1 17.6-34.3 0-2.3-.2-4.6-.6-6.9.2-11.1 8.4-19.2 17.8-22 .5-.1.9-.2 1.4-.3 1.3-.4 2.6-.8 3.8-1.3 4-1.7 7.4-4.4 9.9-7.9 6.3-8.8 5.6-20.8-.6-31.6 4.3 9.4 4.6 20.1-.7 27.9-4.4 6.4-13 8.6-20 10.1-5.4 1.2-12.5 6.4-15.8 13.2-1.8-3.5-4.2-6.8-6.9-9.9 2-2.7 3.4-6 3.8-9.6.8-7.1-2.2-13.8-7.5-18.1 3.4 4.1 5.1 9.6 4.5 15.4-.4 3.5-1.7 6.7-3.5 9.4-5-4.8-11.1-8.8-17.9-11.9 15.4 8.8 25.5 23.2 25.5 39.4 0 11-4.6 21.1-12.4 29.3-2.5-6.8-7.5-12.4-13.9-15.6-3.3-1.7-7-2.7-10.8-3h-.5l-3.9-.2h-.1c-8.7 0-16.2-4.8-20.1-12-1.7-3.2-2.7-7-2.7-10.9 0-5.4 1.8-10.4 4.9-14.3l.9-.9c.7-.7 1.3-1.4 1.9-2.1 1.9-2.4 3.4-5.1 4.5-8.2 1.2-3.4 1.9-7.2 1.9-11.1 0-3.1-.4-6.1-1.2-8.9-1.2-4.2-3.1-8-5.6-11l.1-.1c-2.1-2.4-3.3-5.4-3.3-8.7 0-4.6 2.4-8.7 6.3-11.4-6.1 3-10.2 8.2-10.5 14.3v.8c0 3 1 5.9 2.7 8.4.1.2.3.4.4.6.2.3.4.6.7.9 3 4.2 4.7 9.4 4.7 15.2 0 7-2.6 13.3-6.9 17.7-2.5 2.6-4.5 5.8-5.9 9.4-.8 2.2-1.4 4.6-1.7 7-.1 0-.2-.1-.3-.1-3.9-2-8.4-3.2-13.2-3.2-9.8 0-18.4 4.9-23.4 12.2 5-4.9 12.2-7.9 20.3-7.9 6.1 0 11.7 1.8 16.3 4.7.1.1.2.1.2.2.5 6.2 2.9 11.8 6.5 16.1 2.7 3.3 6.1 6 10 7.8 3.9 1.8 8.2 2.9 12.8 2.9 12 0 21.8 9.8 21.8 21.8 0 6.9-3.2 13-8.2 17-.8.5-1.5 1-2.3 1.6-3.1 2.5-5.7 5.7-7.4 9.3-1.6 3.4-2.5 7.1-2.5 11.1 0 3.4.6 6.5 1.8 9.5-2.8-.4-5.6-.6-8.5-.6-6.3 0-12.4 1-18.1 3-6.8-1.8-12.6-5.5-16.6-10.4-3.8-4.7-6.1-10.4-6.1-16.6 0-4.4 1.2-8.6 3.3-12.4 2.9-5.2 7.6-9.5 13.4-12.3-6.1 2.1-11.4 6-15.1 11-.3.3-.5.7-.8 1.1v-.4-.8c-.4-13.6-11.9-24.5-26.1-24.5-1.4 0-2.8.1-4.1.3h.5c11.9 0 21.9 8.3 25.1 19.6.4 1.7.7 3.7.7 5.8 0 1.4-.1 2.7-.3 4-.3.9-.5 1.8-.7 2.8-.5 2.8-.7 6.1-.5 9.6.1 1.6.3 3.2.5 4.7.1.9.3 1.8.5 2.6.7 2.9 1.6 5.3 2.6 6.9 3.1 5.8 8 10.5 14 13.4-11.1 6.3-19.7 16.3-24.2 28.2-.5 1.4-1 2.9-1.4 4.4.5-1.5 1.1-2.9 1.7-4.3 7.1-15.1 24.4-25.8 44.6-25.8 26.6 0 48.1 18.5 48.1 41.3 0 11.3-5.2 21.5-13.7 28.9-4.1 2-7.8 4.4-11.1 7.3-6.8 5.8-11.7 13.1-14 21.2-1 3.4-1.5 7-1.5 10.7 0 2.2.2 4.3.5 6.4-14.8-4.1-26.6-12.5-32-25.6-4.9-19.7-13.9-36.5-25.4-48.4-3.9-4.1-8.1-7.6-12.5-10.4l-.6-.3c-9.1-5.9-15.4-17-15.9-29.9.1-1 .1-2 .1-3v-1.4c-.1-4.5-1-8.7-2.4-12.6-.4-1-.8-1.9-1.2-2.9-.3-.6-.6-1.3-.9-1.9-.2-.4-.4-.8-.7-1.2-.3-.5-.6-.9-.9-1.4l-.6-.9c.1.2.1.2 0 0-.6-.9-1-1.8-1.3-2.8-.3-1-.5-2-.5-3v-.5c.1-2.2 1-4.3 2.4-6 .1-.1.2-.2.2-.3.1-.2.3-.3.5-.5.1-.1.2-.2.3-.2.4-.3.8-.7 1.2-1.1.7-.7 1.3-1.5 1.7-2.3.9-1.7 1.5-3.6 1.5-5.7 0-.7-.1-1.3-.2-1.9-.2-1.3-.6-2.5-1.2-3.6-1.3-3-3-5.7-5.2-8.1-2.2-2.4-4.8-4.4-7.7-5.9-1-.5-2.1-1-3.1-1.3-6.6-3.4-11-9.9-11-17.2 0-1.9.3-3.6.8-5.3.2-.6.4-1.1.6-1.7 2-4.8 6-8.7 11.1-10.9-3.9 1-7.4 2.8-10.2 5.1v-.2c0-8.5-5.1-15.4-11.4-15.7 4.7 1.7 8.1 7.2 8.1 13.7 0 3-.7 5.8-2 8.1-.1.2-.2.4-.4.7-1.4 2.5-2.2 5.2-2.3 8.1v.9c0 4.9 2 9.5 5.4 13.2.4.5.9.9 1.4 1.4-5 2.2-10.6 2.6-15.8.5-1.7-.7-3.3-1.6-4.7-2.8-.6-.6-1.2-1.1-1.9-1.7-2.6-2-5.8-3.5-9.4-4.4-7.4-1.5-14.5 1.2-17.1 6.8 3.7-4.3 10.7-5.7 17.4-3 3.1 1.2 5.6 3.1 7.4 5.4.2.2.3.4.5.7 1.9 2.5 4.4 4.4 7.2 5.8.1 0 .1 0 .2.1.2.1.5.2.7.3 5 2 10.5 1.7 15.6-.4 2-.8 3.9-1.9 5.7-3.2.7.4 1.5.7 2.3 1 2.2 1.2 4.2 2.8 5.9 4.6 1.4 1.4 2.6 2.9 3.6 4.6.4.6.8 1.3 1.2 2 .6 1.3.9 2.7.9 4.1 0 3.4-1.6 6.4-4.1 8.2-1.1.9-2.1 1.9-2.8 3.1-.4.7-.8 1.5-1 2.3-.4 1.1-.6 2.3-.6 3.5 0 1.7.4 3.2 1 4.7.4.9.9 1.7 1.5 2.4.6 1 1.2 2.1 1.7 3.3l.7 1.6c.6 1.6 1.2 3.3 1.6 5.1.5 2 .8 4.1 1 6.2-1.5-1.3-3.2-2.4-5-3.4-2.1-1.1-4.4-2.1-6.8-2.8l-2.4-.6c-.9-.2-1.9-.4-2.8-.5-.1 0-.3 0-.4-.1-9.2-1.2-16.2-8.8-16.2-18.1 0-1 .1-1.9.2-2.8.2-1.3.6-2.5 1-3.7.9-2.4 2.3-4.5 4.1-6.2-2.3 1.7-4.2 3.9-5.6 6.4-.9 1.5-1.5 3.2-2 4.9-.4 1.6-.7 3.4-.7 5.1 0 3.3.8 6.4 2.2 9.2 1.1 2.2 2.6 4.2 4.4 5.9 1.4 1.3 2.9 2.4 4.6 3.3 1.1.6 2.4 1.1 3.6 1.5l.9.3v.1c7.4 2 13.6 6.3 17.3 11.9 0 .1.1.1.1.2.2.3.4.7.6 1 .1.1.1.2.2.3.2.3.4.7.5 1 .1.1.1.2.2.4.2.5.4.9.6 1.4.3.8.6 1.6.8 2.4.1 1.9.4 3.7.8 5.5.4 1.9.9 3.7 1.5 5.4.3.7.6 1.5.9 2.2.3.7.6 1.3.9 1.9 1.2 2.4 2.6 4.5 4.2 6.5 1.8 2.2 3.9 4.2 6.1 5.8 3.6 4 6.8 8.7 9.4 13.8-2.9-.5-6-.8-9.1-.8-9.2 0-17.7 2.4-25 6.5-4 1.6-8.3 2.5-12.8 2.5-17.6 0-32.2-13.1-34.6-30.1h-.1c-.3-3.7-1.1-7.2-2.4-10.5-.2-.5-.4-1.1-.7-1.6-1.9-4.2-4.6-8-7.9-11.2-4-3.9-6.6-9.4-6.6-15.5v-.3-1.2c-.1-2.7-.8-5.3-2-7.5-.1-.2-.2-.5-.4-.7-.8-1.7-2-3.1-3.5-4.2-2-1.5-4.5-2.4-7.2-2.4-.8 0-1.5.1-2.2.2 6.6 1.2 11.6 6.9 11.6 13.9v1c0 .6-.1 1.2-.1 1.8 0 .8 0 1.5.1 2.2.1 1.8.5 3.5.9 5.2.1.4.2.8.3 1.1 1.1 3.4 2.9 6.5 5.1 9.2.2.3.5.5.7.8.3.4.7.8 1.1 1.1 4.7 5.5 7.8 12.4 8.4 20.1v.4c0 .8 0 1.7.1 2.5.2 3.3.9 6.4 1.9 9.4-.9.2-1.7.6-2.4 1-5 2.9-10.3 7.1-16.4 5.7-7.5-1.8-14.2-6.1-16.8-14.1 2.2 9.9 9.4 15.3 18 17.1 3.5.7 7 .4 10.3-.7 1-.4 2-.8 3-1.3.3-.2.7-.4 1-.6 1.8-.9 3.6-1.5 5.6-1.8 6.1 11.2 17.9 18.8 31.6 18.8 1.2 0 2.5-.1 3.7-.2-1.5 1.7-2.9 3.6-4.2 5.5-.2.2-.3.5-.5.7l-1.2 2.1c-3.4 7.4-10.3 12.8-18.7 14.1h-.7v.1c-6.3.5-12 2.7-16.5 6-2.8-4.1-9.9-7-18.2-7h-.2c-1.6 0-3.2.1-4.7.4-.8.1-1.6.3-2.4.4-1.2.3-2.4.6-3.4 1-.2.1-.5.2-.7.3-.2.1-.4.1-.5.2-1.8.7-3.8 1-6 1-2.1 0-4-.3-5.8-1-3.5-1.2-6.2-3.5-7.2-6.3-.1-.2-.2-.5-.2-.7v-.1c-.3-.9-.7-1.8-1.2-2.6 0-.1-.1-.2-.1-.2-1.6-2.6-4.1-4.5-6.9-5-.5-.1-1.1-.1-1.6-.1-.6 0-1.2.1-1.7.2 1.4.1 2.8.5 4 1.3 2.4 1.3 4.4 3.9 5.3 7 .1.2.1.3.1.5v.1c.1.3.2.7.2 1 .1.6.3 1.1.6 1.7.1.2.2.5.4.7 0 .1.1.1.1.2.1.2.3.5.5.7 1.7 2.3 4.6 4.1 8.2 5.2.5.2 1.1.3 1.7.4h.2c1 .2 2.2.3 3.5.3 1.4 0 2.8 0 4.4-.2 1.4-.1 2.8-.3 4-.6.3-.1.5-.1.8-.2.2 0 .4-.1.6-.1h.2c1.6-.3 3.2-.4 5-.4 7.5 0 13.9 2.7 16.2 6.6-.2.2-.3.4-.5.6-.2.2-.3.4-.5.7l-1.2 1.8c-.2.3-.4.6-.6.8-1.6 2-3.5 3.8-5.7 5.3-.1.1-.2.1-.3.2-.2.2-.5.3-.7.5-.3.2-.6.3-.8.5 0 0-.1 0-.1.1-4.2 2.4-9.2 3.9-14.6 4.2h-1.6c-7.9 0-15.1-2.7-20.3-7.1 5 7 14 11.7 24.3 11.7 6.4 0 12.4-1.8 17.1-4.9.2-.1.5-.3.7-.5 1.5-1 2.9-2.2 4.2-3.5.9-.9 1.6-1.9 2.3-2.9 1.1-1.5 2.4-3 3.8-4.3 4.6-4.2 10.5-6.8 17.1-7.1h.5v-.1c1-.1 1.9-.2 2.9-.3 2.7-.4 5.4-1.3 7.8-2.4 1.1-.5 2.3-1.2 3.3-1.8.7-.4 1.4-.9 2-1.4.5 2.1 1.3 4.2 2.4 6 .2.3.3.6.5.8 2 3.1 4.7 5.6 7.9 7.3.7.4 1.5.8 2.2 1.1 4.5 2.6 7.6 7.5 7.6 13.2 0 2.5-.6 4.9-1.7 7-1.2 2.4-3 4.4-5.2 5.8-2.2 1.4-4.7 2.3-7.5 2.4h.9c2.7 0 5.3-.6 7.7-1.6 2.7-1.2 5-2.9 6.8-5.1 2.9-3.3 4.6-7.7 4.6-12.4 0-2.8-.6-5.4-1.7-7.8-1.8-4-4.9-7.2-8.7-9.2-.6-.3-1.2-.6-1.7-.8-4.1-2.2-6.9-6.6-6.9-11.6 0-2.8.9-5.5 2.4-7.6h-.1c4.9-6.4 12-11.1 20.4-13.1 2.8-.7 5.7-1 8.7-1 16.4 0 30.2 10.4 34.4 24.7.3 1.7.6 3.5 1.1 5.2 2.4 9.3 7.2 17.7 13.8 24.6 5 5.2 10.9 9.6 17.6 12.9 6 3 12.7 5.1 19.7 6.1.6.1 1.3.2 1.9.2.4.1.7.1 1.1.2 19.1 3.1 31.7 15.3 31.4 31.1-.1 5.9-2.1 11.3-5.4 16-1.5 1.5-2.9 3.1-4.2 4.8-4.1 5.3-7.3 11.3-9.2 17.8-1.5 5.1-3.3 10.8-3.2 16.4.1 5.9.6 12.6 2.3 18 1.2 4 1.2 7.5.9 9.6 9.6-5.9 21.4-9.4 34.1-9.4 7.5 0 14.6 1.2 21.1 3.4-6.1-5.4-9.5-12.8-13.5-21l.1-.1c-.2-.3-.3-.5-.5-.8-1.3-2.7-2.3-5.6-3.1-8.6-.2-1.2-.4-2.5-.4-3.8v-1.1c0-5.5 1.5-11.1 4.2-16.1 1-1.4 2-2.9 2.9-4.5 3.5-6.4 6.7-15 6.6-23v-.8c0-.5 0-.3-.1-.8-.3-5.1 0-6.2-.7-9.6-.1-.4.2-3.2 0-3.6.8-6.1 5.9-11.1 12.4-12.3.8-.1 1.6-.2 2.3-.3 2.4-.3 4.8-.8 7.1-1.4 9.7-2.6 18.3-7.5 25-14.1 1.9-1.8 3.6-3.8 5.2-5.9.9-1.2 1.8-2.5 2.6-3.8 7.2-9.8 17.7-17.9 30.3-23.3 2-.5 4.1-.8 6.3-.8 4.7 0 9 1.3 12.6 3.6 1.8 1.1 3.3 2.4 4.7 3.9 3 3.3 5 7.5 5.6 12.1 0 .6.1 1.2.1 1.8v.5s0 .1.1.1c.5 3.7 2 7.1 4.2 10 2.5 3.2 5.8 5.8 9.7 7.4 1.2.5 2.4.8 3.6 1.1 5.9 1.7 12.4 2.6 19.3 2.6h.6c.2 1.7.6 3.3 1.1 4.7 1.4 4 4 7 7.6 8.2.2.1.4.1.5.2h.1c2.1.6 4.4.5 6.7-.2.2-.1.4-.1.6-.2 2.1-.6 4.4-.6 6.6.2 4.8 1.6 7.5 6.2 7 10.9 1.8-5.1-.3-10.5-4.8-13.3-2.3-1.3-4.7-1.9-7.1-1.8-.6 0-1.2.1-1.8.2-1.3 0-2.6-.2-3.9-.6-3.7-1.3-6.3-4.4-7.6-8.6 4.7-.4 9.2-1.1 13.4-2.3 4.3-.6 8.1-2.2 11.1-4.3 2.9-2.1 5-4.7 6.2-7.6-8.4 6-20.1 9.7-33.1 9.7h-.2c-1.8 0-3.6-.1-5.4-.2-6.3-.5-12.2-1.9-17.4-4.1l.1-.1c-6-2.5-10.2-8-10.8-14.5h-.1c-.2-4.3-1.3-8.4-3.1-12.1-1.8-3.6-4.2-6.9-7.2-9.6-.6-.6-1.3-1.1-2-1.7-.6-.5-1.2-.9-1.9-1.3l4.8-.6c10.2-.9 20-.2 29.1 2.1l3.3.9c12.1 3.1 25.3 4.6 39 4.2.9 0 1.8-.1 2.6-.1 4.3-.2 8.5-.6 12.7-1.1-.1 4.3 1.2 8.2 4.1 10.8.2.1.3.3.5.4l.1.1c1.9 1.5 4.2 2.4 6.8 2.7.2 0 .5 0 .7.1 2.4.3 4.7 1.3 6.5 3 4.1 3.6 4.9 9.3 2.4 13.9 3.9-4.3 4.2-10.6.8-15.3-1.7-2.2-3.9-3.8-6.3-4.8-.6-.3-1.3-.5-1.9-.6-1.3-.5-2.6-1.3-3.6-2.2-2.5-2.2-3.8-5.3-4.1-8.8 4.7-.8 9.3-1.8 13.8-3.1 1.9.3 3.9.5 5.9.7 7.8.7 15.4 3.4 20.8 7.9.1.1.2.1.2.2.3.3.7.6 1 .9 2.5 2 5.5 3.6 8.8 4.6.3.1.7.2 1 .3 2.3.8 4.9 1.2 7.4 1.2 3.5 0 6.9-.7 9.8-2.3.8-.4 1.5-.9 2.2-1.4-8.1 2.9-18.6 1.4-24.7-3.8-.3-.3-.6-.5-.9-.8-.5-.5-1-.9-1.5-1.4-.7-.6-1.4-1.1-2.1-1.6-1.7-1.3-3.6-2.4-5.6-3.4-.5-.2-.9-.5-1.4-.7-3.4-1.6-7.1-2.7-10.9-3.5 2.1-.8 4.1-1.6 6.2-2.4 5.3-2.7 9.7-4.9 13.8-7.3z"/></svg>